<svg xmlns="http://www.w3.org/2000/svg" version="1.1" xmlns:xlink="http://www.w3.org/1999/xlink" xmlns:svgjs="http://svgjs.dev/svgjs" width="320" height="170" preserveAspectRatio="none" viewBox="0 0 320 170"><g mask="url(&quot;#SvgjsMask1634&quot;)" fill="none"><g><path d="M157.5 136.5L157.5 178.5" stroke-width="3.5" stroke="#3a7cc3"></path><path d="M154 136.5 a3.5 3.5 0 1 0 7 0 a3.5 3.5 0 1 0 -7 0zM154 178.5 a3.5 3.5 0 1 0 7 0 a3.5 3.5 0 1 0 -7 0z" fill="#3a7cc3"></path><path d="M220.5 178.5L220.5 10.5" stroke-width="3.5" stroke="#3a7cc3"></path><path d="M217 178.5 a3.5 3.5 0 1 0 7 0 a3.5 3.5 0 1 0 -7 0zM217 10.5 a3.5 3.5 0 1 0 7 0 a3.5 3.5 0 1 0 -7 0z" fill="#3a7cc3"></path><path d="M178.5 178.5L199.5 157.5L199.5 10.5" stroke-width="3.5" stroke="#3a7cc3"></path><path d="M175 178.5 a3.5 3.5 0 1 0 7 0 a3.5 3.5 0 1 0 -7 0zM196 10.5 a3.5 3.5 0 1 0 7 0 a3.5 3.5 0 1 0 -7 0z" fill="#3a7cc3"></path><path d="M283.5 115.5L283.5 136.5L325.5 178.5" stroke-width="3.5" stroke="#3a7cc3"></path><path d="M280 115.5 a3.5 3.5 0 1 0 7 0 a3.5 3.5 0 1 0 -7 0zM322 178.5 a3.5 3.5 0 1 0 7 0 a3.5 3.5 0 1 0 -7 0z" fill="#3a7cc3"></path><path d="M73.5 31.5L178.5 136.5L178.5 157.5" stroke-width="3.5" stroke="#3a7cc3"></path><path d="M70 31.5 a3.5 3.5 0 1 0 7 0 a3.5 3.5 0 1 0 -7 0zM175 157.5 a3.5 3.5 0 1 0 7 0 a3.5 3.5 0 1 0 -7 0z" fill="#3a7cc3"></path><path d="M241.5 178.5L304.5 178.5" stroke-width="3.5" stroke="#3a7cc3"></path><path d="M238 178.5 a3.5 3.5 0 1 0 7 0 a3.5 3.5 0 1 0 -7 0zM301 178.5 a3.5 3.5 0 1 0 7 0 a3.5 3.5 0 1 0 -7 0z" fill="#3a7cc3"></path><path d="M94.5 157.5L115.5 178.5L136.5 178.5" stroke-width="3.5" stroke="#3a7cc3"></path><path d="M91 157.5 a3.5 3.5 0 1 0 7 0 a3.5 3.5 0 1 0 -7 0zM133 178.5 a3.5 3.5 0 1 0 7 0 a3.5 3.5 0 1 0 -7 0z" fill="#3a7cc3"></path><path d="M325.5 52.5L325.5 10.5" stroke-width="3.5" stroke="#3a7cc3"></path><path d="M322 52.5 a3.5 3.5 0 1 0 7 0 a3.5 3.5 0 1 0 -7 0zM322 10.5 a3.5 3.5 0 1 0 7 0 a3.5 3.5 0 1 0 -7 0z" fill="#3a7cc3"></path><path d="M241.5 115.5L241.5 157.5" stroke-width="3.5" stroke="#3a7cc3"></path><path d="M238 115.5 a3.5 3.5 0 1 0 7 0 a3.5 3.5 0 1 0 -7 0zM238 157.5 a3.5 3.5 0 1 0 7 0 a3.5 3.5 0 1 0 -7 0z" fill="#3a7cc3"></path><path d="M52.5 94.5L52.5 178.5" stroke-width="3.5" stroke="#3a7cc3"></path><path d="M49 94.5 a3.5 3.5 0 1 0 7 0 a3.5 3.5 0 1 0 -7 0zM49 178.5 a3.5 3.5 0 1 0 7 0 a3.5 3.5 0 1 0 -7 0z" fill="#3a7cc3"></path><path d="M31.5 136.5L31.5 178.5" stroke-width="3.5" stroke="#3a7cc3"></path><path d="M28 136.5 a3.5 3.5 0 1 0 7 0 a3.5 3.5 0 1 0 -7 0zM28 178.5 a3.5 3.5 0 1 0 7 0 a3.5 3.5 0 1 0 -7 0z" fill="#3a7cc3"></path><path d="M73.5 10.5L10.5 73.5L10.5 178.5" stroke-width="3.5" stroke="#3a7cc3"></path><path d="M70 10.5 a3.5 3.5 0 1 0 7 0 a3.5 3.5 0 1 0 -7 0zM7 178.5 a3.5 3.5 0 1 0 7 0 a3.5 3.5 0 1 0 -7 0z" fill="#3a7cc3"></path><path d="M73.5 73.5L94.5 73.5L136.5 115.5L136.5 157.5" stroke-width="3.5" stroke="#3a7cc3"></path><path d="M70 73.5 a3.5 3.5 0 1 0 7 0 a3.5 3.5 0 1 0 -7 0zM133 157.5 a3.5 3.5 0 1 0 7 0 a3.5 3.5 0 1 0 -7 0z" fill="#3a7cc3"></path><path d="M10.5 31.5L31.5 10.5L52.5 10.5" stroke-width="3.5" stroke="#3a7cc3"></path><path d="M7 31.5 a3.5 3.5 0 1 0 7 0 a3.5 3.5 0 1 0 -7 0zM49 10.5 a3.5 3.5 0 1 0 7 0 a3.5 3.5 0 1 0 -7 0z" fill="#3a7cc3"></path><path d="M262.5 157.5L262.5 94.5L241.5 73.5L241.5 10.5" stroke-width="3.5" stroke="#3a7cc3"></path><path d="M259 157.5 a3.5 3.5 0 1 0 7 0 a3.5 3.5 0 1 0 -7 0zM238 10.5 a3.5 3.5 0 1 0 7 0 a3.5 3.5 0 1 0 -7 0z" fill="#3a7cc3"></path><path d="M283.5 73.5L283.5 94.5L325.5 136.5L325.5 157.5" stroke-width="3.5" stroke="#3a7cc3"></path><path d="M280 73.5 a3.5 3.5 0 1 0 7 0 a3.5 3.5 0 1 0 -7 0zM322 157.5 a3.5 3.5 0 1 0 7 0 a3.5 3.5 0 1 0 -7 0z" fill="#3a7cc3"></path><path d="M73.5 157.5L73.5 115.5L94.5 94.5" stroke-width="3.5" stroke="#3a7cc3"></path><path d="M70 157.5 a3.5 3.5 0 1 0 7 0 a3.5 3.5 0 1 0 -7 0zM91 94.5 a3.5 3.5 0 1 0 7 0 a3.5 3.5 0 1 0 -7 0z" fill="#3a7cc3"></path><path d="M178.5 73.5L178.5 31.5L157.5 10.5L94.5 10.5" stroke-width="3.5" stroke="#3a7cc3"></path><path d="M175 73.5 a3.5 3.5 0 1 0 7 0 a3.5 3.5 0 1 0 -7 0zM91 10.5 a3.5 3.5 0 1 0 7 0 a3.5 3.5 0 1 0 -7 0z" fill="#3a7cc3"></path><path d="M283.5 52.5L304.5 31.5L304.5 10.5" stroke-width="3.5" stroke="#3a7cc3"></path><path d="M280 52.5 a3.5 3.5 0 1 0 7 0 a3.5 3.5 0 1 0 -7 0zM301 10.5 a3.5 3.5 0 1 0 7 0 a3.5 3.5 0 1 0 -7 0z" fill="#3a7cc3"></path></g></g><defs><mask id="SvgjsMask1634"><rect width="320" height="170" fill="#ffffff"></rect></mask></defs></svg>