<svg xmlns="http://www.w3.org/2000/svg" version="1.1" xmlns:xlink="http://www.w3.org/1999/xlink" xmlns:svgjs="http://svgjs.dev/svgjs" width="1700" height="400" preserveAspectRatio="none" viewBox="0 0 1700 400"><g mask="url(&quot;#SvgjsMask1044&quot;)" fill="none"><g><path d="M1606.5 73.5L1669.5 10.5L1690.5 10.5" stroke-width="3.5" stroke="rgba(77, 149, 234, 1)"></path><path d="M1603 73.5 a3.5 3.5 0 1 0 7 0 a3.5 3.5 0 1 0 -7 0zM1687 10.5 a3.5 3.5 0 1 0 7 0 a3.5 3.5 0 1 0 -7 0z" fill="rgba(77, 149, 234, 1)"></path><path d="M1543.5 304.5L1585.5 346.5L1585.5 409.5" stroke-width="3.5" stroke="rgba(77, 149, 234, 1)"></path><path d="M1540 304.5 a3.5 3.5 0 1 0 7 0 a3.5 3.5 0 1 0 -7 0zM1582 409.5 a3.5 3.5 0 1 0 7 0 a3.5 3.5 0 1 0 -7 0z" fill="rgba(77, 149, 234, 1)"></path><path d="M199.5 304.5L430.5 73.5L430.5 31.5L451.5 10.5L556.5 10.5" stroke-width="3.5" stroke="rgba(77, 149, 234, 1)"></path><path d="M196 304.5 a3.5 3.5 0 1 0 7 0 a3.5 3.5 0 1 0 -7 0zM553 10.5 a3.5 3.5 0 1 0 7 0 a3.5 3.5 0 1 0 -7 0z" fill="rgba(77, 149, 234, 1)"></path><path d="M1081.5 388.5L1186.5 388.5L1207.5 409.5L1459.5 409.5L1480.5 388.5" stroke-width="3.5" stroke="rgba(77, 149, 234, 1)"></path><path d="M1078 388.5 a3.5 3.5 0 1 0 7 0 a3.5 3.5 0 1 0 -7 0zM1477 388.5 a3.5 3.5 0 1 0 7 0 a3.5 3.5 0 1 0 -7 0z" fill="rgba(77, 149, 234, 1)"></path><path d="M178.5 52.5L10.5 52.5" stroke-width="3.5" stroke="rgba(77, 149, 234, 1)"></path><path d="M175 52.5 a3.5 3.5 0 1 0 7 0 a3.5 3.5 0 1 0 -7 0zM7 52.5 a3.5 3.5 0 1 0 7 0 a3.5 3.5 0 1 0 -7 0z" fill="rgba(77, 149, 234, 1)"></path><path d="M661.5 283.5L829.5 115.5L934.5 115.5L1018.5 31.5L1018.5 10.5" stroke-width="3.5" stroke="rgba(77, 149, 234, 1)"></path><path d="M658 283.5 a3.5 3.5 0 1 0 7 0 a3.5 3.5 0 1 0 -7 0zM1015 10.5 a3.5 3.5 0 1 0 7 0 a3.5 3.5 0 1 0 -7 0z" fill="rgba(77, 149, 234, 1)"></path><path d="M1291.5 262.5L1312.5 283.5L1522.5 283.5L1669.5 136.5L1669.5 115.5" stroke-width="3.5" stroke="rgba(77, 149, 234, 1)"></path><path d="M1288 262.5 a3.5 3.5 0 1 0 7 0 a3.5 3.5 0 1 0 -7 0zM1666 115.5 a3.5 3.5 0 1 0 7 0 a3.5 3.5 0 1 0 -7 0z" fill="rgba(77, 149, 234, 1)"></path><path d="M535.5 325.5L577.5 283.5L640.5 283.5L787.5 136.5L787.5 31.5L808.5 10.5L829.5 10.5" stroke-width="3.5" stroke="rgba(77, 149, 234, 1)"></path><path d="M532 325.5 a3.5 3.5 0 1 0 7 0 a3.5 3.5 0 1 0 -7 0zM826 10.5 a3.5 3.5 0 1 0 7 0 a3.5 3.5 0 1 0 -7 0z" fill="rgba(77, 149, 234, 1)"></path><path d="M598.5 325.5L556.5 325.5L472.5 409.5L409.5 409.5L325.5 325.5L325.5 199.5" stroke-width="3.5" stroke="rgba(77, 149, 234, 1)"></path><path d="M595 325.5 a3.5 3.5 0 1 0 7 0 a3.5 3.5 0 1 0 -7 0zM322 199.5 a3.5 3.5 0 1 0 7 0 a3.5 3.5 0 1 0 -7 0z" fill="rgba(77, 149, 234, 1)"></path><path d="M1018.5 178.5L1018.5 52.5L1060.5 10.5L1291.5 10.5" stroke-width="3.5" stroke="rgba(77, 149, 234, 1)"></path><path d="M1015 178.5 a3.5 3.5 0 1 0 7 0 a3.5 3.5 0 1 0 -7 0zM1288 10.5 a3.5 3.5 0 1 0 7 0 a3.5 3.5 0 1 0 -7 0z" fill="rgba(77, 149, 234, 1)"></path><path d="M1018.5 367.5L1249.5 136.5L1270.5 136.5L1312.5 94.5L1375.5 94.5L1417.5 52.5" stroke-width="3.5" stroke="rgba(77, 149, 234, 1)"></path><path d="M1015 367.5 a3.5 3.5 0 1 0 7 0 a3.5 3.5 0 1 0 -7 0zM1414 52.5 a3.5 3.5 0 1 0 7 0 a3.5 3.5 0 1 0 -7 0z" fill="rgba(77, 149, 234, 1)"></path><path d="M1480.5 73.5L1480.5 10.5" stroke-width="3.5" stroke="rgba(77, 149, 234, 1)"></path><path d="M1477 73.5 a3.5 3.5 0 1 0 7 0 a3.5 3.5 0 1 0 -7 0zM1477 10.5 a3.5 3.5 0 1 0 7 0 a3.5 3.5 0 1 0 -7 0z" fill="rgba(77, 149, 234, 1)"></path><path d="M346.5 178.5L493.5 31.5L556.5 31.5L703.5 178.5L724.5 178.5L745.5 157.5" stroke-width="3.5" stroke="rgba(77, 149, 234, 1)"></path><path d="M343 178.5 a3.5 3.5 0 1 0 7 0 a3.5 3.5 0 1 0 -7 0zM742 157.5 a3.5 3.5 0 1 0 7 0 a3.5 3.5 0 1 0 -7 0z" fill="rgba(77, 149, 234, 1)"></path><path d="M94.5 241.5L262.5 409.5L388.5 409.5" stroke-width="3.5" stroke="rgba(77, 149, 234, 1)"></path><path d="M91 241.5 a3.5 3.5 0 1 0 7 0 a3.5 3.5 0 1 0 -7 0zM385 409.5 a3.5 3.5 0 1 0 7 0 a3.5 3.5 0 1 0 -7 0z" fill="rgba(77, 149, 234, 1)"></path><path d="M871.5 283.5L871.5 241.5L808.5 178.5L787.5 178.5L640.5 325.5L619.5 325.5L535.5 409.5L514.5 409.5" stroke-width="3.5" stroke="rgba(77, 149, 234, 1)"></path><path d="M868 283.5 a3.5 3.5 0 1 0 7 0 a3.5 3.5 0 1 0 -7 0zM511 409.5 a3.5 3.5 0 1 0 7 0 a3.5 3.5 0 1 0 -7 0z" fill="rgba(77, 149, 234, 1)"></path><path d="M1291.5 94.5L1291.5 31.5L1312.5 10.5L1459.5 10.5" stroke-width="3.5" stroke="rgba(77, 149, 234, 1)"></path><path d="M1288 94.5 a3.5 3.5 0 1 0 7 0 a3.5 3.5 0 1 0 -7 0zM1456 10.5 a3.5 3.5 0 1 0 7 0 a3.5 3.5 0 1 0 -7 0z" fill="rgba(77, 149, 234, 1)"></path><path d="M1438.5 94.5L1438.5 31.5" stroke-width="3.5" stroke="rgba(77, 149, 234, 1)"></path><path d="M1435 94.5 a3.5 3.5 0 1 0 7 0 a3.5 3.5 0 1 0 -7 0zM1435 31.5 a3.5 3.5 0 1 0 7 0 a3.5 3.5 0 1 0 -7 0z" fill="rgba(77, 149, 234, 1)"></path><path d="M346.5 31.5L325.5 10.5L10.5 10.5" stroke-width="3.5" stroke="rgba(77, 149, 234, 1)"></path><path d="M343 31.5 a3.5 3.5 0 1 0 7 0 a3.5 3.5 0 1 0 -7 0zM7 10.5 a3.5 3.5 0 1 0 7 0 a3.5 3.5 0 1 0 -7 0z" fill="rgba(77, 149, 234, 1)"></path><path d="M808.5 367.5L997.5 178.5L997.5 73.5" stroke-width="3.5" stroke="rgba(77, 149, 234, 1)"></path><path d="M805 367.5 a3.5 3.5 0 1 0 7 0 a3.5 3.5 0 1 0 -7 0zM994 73.5 a3.5 3.5 0 1 0 7 0 a3.5 3.5 0 1 0 -7 0z" fill="rgba(77, 149, 234, 1)"></path><path d="M1081.5 178.5L850.5 409.5L682.5 409.5" stroke-width="3.5" stroke="rgba(77, 149, 234, 1)"></path><path d="M1078 178.5 a3.5 3.5 0 1 0 7 0 a3.5 3.5 0 1 0 -7 0zM679 409.5 a3.5 3.5 0 1 0 7 0 a3.5 3.5 0 1 0 -7 0z" fill="rgba(77, 149, 234, 1)"></path><path d="M1333.5 346.5L1060.5 346.5L1018.5 388.5L934.5 388.5" stroke-width="3.5" stroke="rgba(77, 149, 234, 1)"></path><path d="M1330 346.5 a3.5 3.5 0 1 0 7 0 a3.5 3.5 0 1 0 -7 0zM931 388.5 a3.5 3.5 0 1 0 7 0 a3.5 3.5 0 1 0 -7 0z" fill="rgba(77, 149, 234, 1)"></path><path d="M241.5 178.5L241.5 241.5L178.5 304.5" stroke-width="3.5" stroke="rgba(77, 149, 234, 1)"></path><path d="M238 178.5 a3.5 3.5 0 1 0 7 0 a3.5 3.5 0 1 0 -7 0zM175 304.5 a3.5 3.5 0 1 0 7 0 a3.5 3.5 0 1 0 -7 0z" fill="rgba(77, 149, 234, 1)"></path><path d="M934.5 262.5L976.5 262.5L1207.5 31.5L1270.5 31.5" stroke-width="3.5" stroke="rgba(77, 149, 234, 1)"></path><path d="M931 262.5 a3.5 3.5 0 1 0 7 0 a3.5 3.5 0 1 0 -7 0zM1267 31.5 a3.5 3.5 0 1 0 7 0 a3.5 3.5 0 1 0 -7 0z" fill="rgba(77, 149, 234, 1)"></path><path d="M1627.5 241.5L1585.5 241.5L1564.5 262.5L1564.5 304.5L1669.5 409.5L1690.5 409.5" stroke-width="3.5" stroke="rgba(77, 149, 234, 1)"></path><path d="M1624 241.5 a3.5 3.5 0 1 0 7 0 a3.5 3.5 0 1 0 -7 0zM1687 409.5 a3.5 3.5 0 1 0 7 0 a3.5 3.5 0 1 0 -7 0z" fill="rgba(77, 149, 234, 1)"></path><path d="M514.5 304.5L430.5 388.5L409.5 388.5L346.5 325.5L346.5 199.5L388.5 157.5L451.5 157.5" stroke-width="3.5" stroke="rgba(77, 149, 234, 1)"></path><path d="M511 304.5 a3.5 3.5 0 1 0 7 0 a3.5 3.5 0 1 0 -7 0zM448 157.5 a3.5 3.5 0 1 0 7 0 a3.5 3.5 0 1 0 -7 0z" fill="rgba(77, 149, 234, 1)"></path><path d="M997.5 409.5L1186.5 409.5" stroke-width="3.5" stroke="rgba(77, 149, 234, 1)"></path><path d="M994 409.5 a3.5 3.5 0 1 0 7 0 a3.5 3.5 0 1 0 -7 0zM1183 409.5 a3.5 3.5 0 1 0 7 0 a3.5 3.5 0 1 0 -7 0z" fill="rgba(77, 149, 234, 1)"></path><path d="M934.5 220.5L976.5 178.5L976.5 136.5L955.5 115.5" stroke-width="3.5" stroke="rgba(77, 149, 234, 1)"></path><path d="M931 220.5 a3.5 3.5 0 1 0 7 0 a3.5 3.5 0 1 0 -7 0zM952 115.5 a3.5 3.5 0 1 0 7 0 a3.5 3.5 0 1 0 -7 0z" fill="rgba(77, 149, 234, 1)"></path><path d="M283.5 94.5L388.5 94.5L409.5 73.5L409.5 52.5L367.5 10.5L346.5 10.5" stroke-width="3.5" stroke="rgba(77, 149, 234, 1)"></path><path d="M280 94.5 a3.5 3.5 0 1 0 7 0 a3.5 3.5 0 1 0 -7 0zM343 10.5 a3.5 3.5 0 1 0 7 0 a3.5 3.5 0 1 0 -7 0z" fill="rgba(77, 149, 234, 1)"></path><path d="M472.5 367.5L493.5 346.5L514.5 346.5" stroke-width="3.5" stroke="rgba(77, 149, 234, 1)"></path><path d="M469 367.5 a3.5 3.5 0 1 0 7 0 a3.5 3.5 0 1 0 -7 0zM511 346.5 a3.5 3.5 0 1 0 7 0 a3.5 3.5 0 1 0 -7 0z" fill="rgba(77, 149, 234, 1)"></path><path d="M1585.5 136.5L1606.5 157.5L1627.5 157.5L1648.5 136.5L1648.5 52.5L1669.5 31.5L1690.5 31.5" stroke-width="3.5" stroke="rgba(77, 149, 234, 1)"></path><path d="M1582 136.5 a3.5 3.5 0 1 0 7 0 a3.5 3.5 0 1 0 -7 0zM1687 31.5 a3.5 3.5 0 1 0 7 0 a3.5 3.5 0 1 0 -7 0z" fill="rgba(77, 149, 234, 1)"></path><path d="M1669.5 367.5L1690.5 346.5L1690.5 220.5L1648.5 178.5" stroke-width="3.5" stroke="rgba(77, 149, 234, 1)"></path><path d="M1666 367.5 a3.5 3.5 0 1 0 7 0 a3.5 3.5 0 1 0 -7 0zM1645 178.5 a3.5 3.5 0 1 0 7 0 a3.5 3.5 0 1 0 -7 0z" fill="rgba(77, 149, 234, 1)"></path><path d="M10.5 367.5L31.5 367.5L73.5 409.5L241.5 409.5" stroke-width="3.5" stroke="rgba(77, 149, 234, 1)"></path><path d="M7 367.5 a3.5 3.5 0 1 0 7 0 a3.5 3.5 0 1 0 -7 0zM238 409.5 a3.5 3.5 0 1 0 7 0 a3.5 3.5 0 1 0 -7 0z" fill="rgba(77, 149, 234, 1)"></path><path d="M1249.5 304.5L1186.5 241.5L1165.5 241.5L1081.5 325.5" stroke-width="3.5" stroke="rgba(77, 149, 234, 1)"></path><path d="M1246 304.5 a3.5 3.5 0 1 0 7 0 a3.5 3.5 0 1 0 -7 0zM1078 325.5 a3.5 3.5 0 1 0 7 0 a3.5 3.5 0 1 0 -7 0z" fill="rgba(77, 149, 234, 1)"></path><path d="M556.5 157.5L556.5 94.5L577.5 73.5" stroke-width="3.5" stroke="rgba(77, 149, 234, 1)"></path><path d="M553 157.5 a3.5 3.5 0 1 0 7 0 a3.5 3.5 0 1 0 -7 0zM574 73.5 a3.5 3.5 0 1 0 7 0 a3.5 3.5 0 1 0 -7 0z" fill="rgba(77, 149, 234, 1)"></path><path d="M1291.5 199.5L1228.5 262.5" stroke-width="3.5" stroke="rgba(77, 149, 234, 1)"></path><path d="M1288 199.5 a3.5 3.5 0 1 0 7 0 a3.5 3.5 0 1 0 -7 0zM1225 262.5 a3.5 3.5 0 1 0 7 0 a3.5 3.5 0 1 0 -7 0z" fill="rgba(77, 149, 234, 1)"></path><path d="M31.5 283.5L10.5 262.5L10.5 73.5" stroke-width="3.5" stroke="rgba(77, 149, 234, 1)"></path><path d="M28 283.5 a3.5 3.5 0 1 0 7 0 a3.5 3.5 0 1 0 -7 0zM7 73.5 a3.5 3.5 0 1 0 7 0 a3.5 3.5 0 1 0 -7 0z" fill="rgba(77, 149, 234, 1)"></path><path d="M1228.5 388.5L1417.5 388.5L1501.5 304.5L1522.5 304.5L1564.5 346.5L1564.5 409.5" stroke-width="3.5" stroke="rgba(77, 149, 234, 1)"></path><path d="M1225 388.5 a3.5 3.5 0 1 0 7 0 a3.5 3.5 0 1 0 -7 0zM1561 409.5 a3.5 3.5 0 1 0 7 0 a3.5 3.5 0 1 0 -7 0z" fill="rgba(77, 149, 234, 1)"></path><path d="M997.5 220.5L976.5 220.5L955.5 241.5" stroke-width="3.5" stroke="rgba(77, 149, 234, 1)"></path><path d="M994 220.5 a3.5 3.5 0 1 0 7 0 a3.5 3.5 0 1 0 -7 0zM952 241.5 a3.5 3.5 0 1 0 7 0 a3.5 3.5 0 1 0 -7 0z" fill="rgba(77, 149, 234, 1)"></path><path d="M619.5 388.5L577.5 388.5L556.5 409.5" stroke-width="3.5" stroke="rgba(77, 149, 234, 1)"></path><path d="M616 388.5 a3.5 3.5 0 1 0 7 0 a3.5 3.5 0 1 0 -7 0zM553 409.5 a3.5 3.5 0 1 0 7 0 a3.5 3.5 0 1 0 -7 0z" fill="rgba(77, 149, 234, 1)"></path><path d="M241.5 115.5L52.5 115.5L31.5 136.5L31.5 241.5L115.5 325.5" stroke-width="3.5" stroke="rgba(77, 149, 234, 1)"></path><path d="M238 115.5 a3.5 3.5 0 1 0 7 0 a3.5 3.5 0 1 0 -7 0zM112 325.5 a3.5 3.5 0 1 0 7 0 a3.5 3.5 0 1 0 -7 0z" fill="rgba(77, 149, 234, 1)"></path><path d="M682.5 31.5L661.5 10.5L619.5 10.5L598.5 31.5L598.5 52.5L703.5 157.5L724.5 157.5L766.5 115.5L766.5 10.5" stroke-width="3.5" stroke="rgba(77, 149, 234, 1)"></path><path d="M679 31.5 a3.5 3.5 0 1 0 7 0 a3.5 3.5 0 1 0 -7 0zM763 10.5 a3.5 3.5 0 1 0 7 0 a3.5 3.5 0 1 0 -7 0z" fill="rgba(77, 149, 234, 1)"></path><path d="M1396.5 136.5L1270.5 262.5L1270.5 325.5" stroke-width="3.5" stroke="rgba(77, 149, 234, 1)"></path><path d="M1393 136.5 a3.5 3.5 0 1 0 7 0 a3.5 3.5 0 1 0 -7 0zM1267 325.5 a3.5 3.5 0 1 0 7 0 a3.5 3.5 0 1 0 -7 0z" fill="rgba(77, 149, 234, 1)"></path><path d="M682.5 367.5L745.5 367.5L766.5 346.5L808.5 346.5L850.5 304.5L850.5 262.5L829.5 241.5L787.5 241.5L766.5 220.5" stroke-width="3.5" stroke="rgba(77, 149, 234, 1)"></path><path d="M679 367.5 a3.5 3.5 0 1 0 7 0 a3.5 3.5 0 1 0 -7 0zM763 220.5 a3.5 3.5 0 1 0 7 0 a3.5 3.5 0 1 0 -7 0z" fill="rgba(77, 149, 234, 1)"></path><path d="M1585.5 157.5L1501.5 73.5L1501.5 10.5" stroke-width="3.5" stroke="rgba(77, 149, 234, 1)"></path><path d="M1582 157.5 a3.5 3.5 0 1 0 7 0 a3.5 3.5 0 1 0 -7 0zM1498 10.5 a3.5 3.5 0 1 0 7 0 a3.5 3.5 0 1 0 -7 0z" fill="rgba(77, 149, 234, 1)"></path><path d="M1102.5 325.5L1165.5 262.5L1186.5 262.5L1228.5 304.5L1228.5 325.5" stroke-width="3.5" stroke="rgba(77, 149, 234, 1)"></path><path d="M1099 325.5 a3.5 3.5 0 1 0 7 0 a3.5 3.5 0 1 0 -7 0zM1225 325.5 a3.5 3.5 0 1 0 7 0 a3.5 3.5 0 1 0 -7 0z" fill="rgba(77, 149, 234, 1)"></path><path d="M346.5 52.5L388.5 52.5" stroke-width="3.5" stroke="rgba(77, 149, 234, 1)"></path><path d="M343 52.5 a3.5 3.5 0 1 0 7 0 a3.5 3.5 0 1 0 -7 0zM385 52.5 a3.5 3.5 0 1 0 7 0 a3.5 3.5 0 1 0 -7 0z" fill="rgba(77, 149, 234, 1)"></path><path d="M409.5 178.5L451.5 178.5L535.5 94.5L535.5 52.5" stroke-width="3.5" stroke="rgba(77, 149, 234, 1)"></path><path d="M406 178.5 a3.5 3.5 0 1 0 7 0 a3.5 3.5 0 1 0 -7 0zM532 52.5 a3.5 3.5 0 1 0 7 0 a3.5 3.5 0 1 0 -7 0z" fill="rgba(77, 149, 234, 1)"></path><path d="M409.5 262.5L367.5 262.5" stroke-width="3.5" stroke="rgba(77, 149, 234, 1)"></path><path d="M406 262.5 a3.5 3.5 0 1 0 7 0 a3.5 3.5 0 1 0 -7 0zM364 262.5 a3.5 3.5 0 1 0 7 0 a3.5 3.5 0 1 0 -7 0z" fill="rgba(77, 149, 234, 1)"></path><path d="M577.5 136.5L661.5 220.5L661.5 241.5L640.5 262.5L493.5 262.5L430.5 199.5L367.5 199.5" stroke-width="3.5" stroke="rgba(77, 149, 234, 1)"></path><path d="M574 136.5 a3.5 3.5 0 1 0 7 0 a3.5 3.5 0 1 0 -7 0zM364 199.5 a3.5 3.5 0 1 0 7 0 a3.5 3.5 0 1 0 -7 0z" fill="rgba(77, 149, 234, 1)"></path><path d="M1039.5 52.5L1060.5 31.5L1186.5 31.5" stroke-width="3.5" stroke="rgba(77, 149, 234, 1)"></path><path d="M1036 52.5 a3.5 3.5 0 1 0 7 0 a3.5 3.5 0 1 0 -7 0zM1183 31.5 a3.5 3.5 0 1 0 7 0 a3.5 3.5 0 1 0 -7 0z" fill="rgba(77, 149, 234, 1)"></path><path d="M1417.5 136.5L1396.5 115.5L1312.5 115.5L1207.5 220.5L1207.5 241.5" stroke-width="3.5" stroke="rgba(77, 149, 234, 1)"></path><path d="M1414 136.5 a3.5 3.5 0 1 0 7 0 a3.5 3.5 0 1 0 -7 0zM1204 241.5 a3.5 3.5 0 1 0 7 0 a3.5 3.5 0 1 0 -7 0z" fill="rgba(77, 149, 234, 1)"></path><path d="M136.5 325.5L157.5 325.5L220.5 388.5" stroke-width="3.5" stroke="rgba(77, 149, 234, 1)"></path><path d="M133 325.5 a3.5 3.5 0 1 0 7 0 a3.5 3.5 0 1 0 -7 0zM217 388.5 a3.5 3.5 0 1 0 7 0 a3.5 3.5 0 1 0 -7 0z" fill="rgba(77, 149, 234, 1)"></path><path d="M934.5 367.5L934.5 346.5L1060.5 220.5L1144.5 220.5L1270.5 94.5L1270.5 52.5" stroke-width="3.5" stroke="rgba(77, 149, 234, 1)"></path><path d="M931 367.5 a3.5 3.5 0 1 0 7 0 a3.5 3.5 0 1 0 -7 0zM1267 52.5 a3.5 3.5 0 1 0 7 0 a3.5 3.5 0 1 0 -7 0z" fill="rgba(77, 149, 234, 1)"></path><path d="M283.5 31.5L10.5 31.5" stroke-width="3.5" stroke="rgba(77, 149, 234, 1)"></path><path d="M280 31.5 a3.5 3.5 0 1 0 7 0 a3.5 3.5 0 1 0 -7 0zM7 31.5 a3.5 3.5 0 1 0 7 0 a3.5 3.5 0 1 0 -7 0z" fill="rgba(77, 149, 234, 1)"></path><path d="M1501.5 241.5L1480.5 262.5L1312.5 262.5" stroke-width="3.5" stroke="rgba(77, 149, 234, 1)"></path><path d="M1498 241.5 a3.5 3.5 0 1 0 7 0 a3.5 3.5 0 1 0 -7 0zM1309 262.5 a3.5 3.5 0 1 0 7 0 a3.5 3.5 0 1 0 -7 0z" fill="rgba(77, 149, 234, 1)"></path><path d="M514.5 241.5L577.5 178.5L577.5 157.5" stroke-width="3.5" stroke="rgba(77, 149, 234, 1)"></path><path d="M511 241.5 a3.5 3.5 0 1 0 7 0 a3.5 3.5 0 1 0 -7 0zM574 157.5 a3.5 3.5 0 1 0 7 0 a3.5 3.5 0 1 0 -7 0z" fill="rgba(77, 149, 234, 1)"></path><path d="M1585.5 10.5L1648.5 10.5" stroke-width="3.5" stroke="rgba(77, 149, 234, 1)"></path><path d="M1582 10.5 a3.5 3.5 0 1 0 7 0 a3.5 3.5 0 1 0 -7 0zM1645 10.5 a3.5 3.5 0 1 0 7 0 a3.5 3.5 0 1 0 -7 0z" fill="rgba(77, 149, 234, 1)"></path><path d="M1060.5 136.5L1039.5 157.5L1039.5 178.5" stroke-width="3.5" stroke="rgba(77, 149, 234, 1)"></path><path d="M1057 136.5 a3.5 3.5 0 1 0 7 0 a3.5 3.5 0 1 0 -7 0zM1036 178.5 a3.5 3.5 0 1 0 7 0 a3.5 3.5 0 1 0 -7 0z" fill="rgba(77, 149, 234, 1)"></path><path d="M1060.5 304.5L1039.5 283.5L1018.5 283.5L955.5 346.5L955.5 367.5" stroke-width="3.5" stroke="rgba(77, 149, 234, 1)"></path><path d="M1057 304.5 a3.5 3.5 0 1 0 7 0 a3.5 3.5 0 1 0 -7 0zM952 367.5 a3.5 3.5 0 1 0 7 0 a3.5 3.5 0 1 0 -7 0z" fill="rgba(77, 149, 234, 1)"></path><path d="M766.5 304.5L724.5 262.5" stroke-width="3.5" stroke="rgba(77, 149, 234, 1)"></path><path d="M763 304.5 a3.5 3.5 0 1 0 7 0 a3.5 3.5 0 1 0 -7 0zM721 262.5 a3.5 3.5 0 1 0 7 0 a3.5 3.5 0 1 0 -7 0z" fill="rgba(77, 149, 234, 1)"></path><path d="M640.5 157.5L640.5 136.5L598.5 94.5L577.5 94.5" stroke-width="3.5" stroke="rgba(77, 149, 234, 1)"></path><path d="M637 157.5 a3.5 3.5 0 1 0 7 0 a3.5 3.5 0 1 0 -7 0zM574 94.5 a3.5 3.5 0 1 0 7 0 a3.5 3.5 0 1 0 -7 0z" fill="rgba(77, 149, 234, 1)"></path><path d="M220.5 52.5L325.5 52.5L346.5 73.5L388.5 73.5" stroke-width="3.5" stroke="rgba(77, 149, 234, 1)"></path><path d="M217 52.5 a3.5 3.5 0 1 0 7 0 a3.5 3.5 0 1 0 -7 0zM385 73.5 a3.5 3.5 0 1 0 7 0 a3.5 3.5 0 1 0 -7 0z" fill="rgba(77, 149, 234, 1)"></path><path d="M1375.5 346.5L1375.5 304.5" stroke-width="3.5" stroke="rgba(77, 149, 234, 1)"></path><path d="M1372 346.5 a3.5 3.5 0 1 0 7 0 a3.5 3.5 0 1 0 -7 0zM1372 304.5 a3.5 3.5 0 1 0 7 0 a3.5 3.5 0 1 0 -7 0z" fill="rgba(77, 149, 234, 1)"></path><path d="M73.5 220.5L52.5 199.5L52.5 136.5" stroke-width="3.5" stroke="rgba(77, 149, 234, 1)"></path><path d="M70 220.5 a3.5 3.5 0 1 0 7 0 a3.5 3.5 0 1 0 -7 0zM49 136.5 a3.5 3.5 0 1 0 7 0 a3.5 3.5 0 1 0 -7 0z" fill="rgba(77, 149, 234, 1)"></path><path d="M1165.5 157.5L1165.5 94.5L1207.5 52.5L1249.5 52.5" stroke-width="3.5" stroke="rgba(77, 149, 234, 1)"></path><path d="M1162 157.5 a3.5 3.5 0 1 0 7 0 a3.5 3.5 0 1 0 -7 0zM1246 52.5 a3.5 3.5 0 1 0 7 0 a3.5 3.5 0 1 0 -7 0z" fill="rgba(77, 149, 234, 1)"></path><path d="M1438.5 136.5L1375.5 199.5L1375.5 241.5" stroke-width="3.5" stroke="rgba(77, 149, 234, 1)"></path><path d="M1435 136.5 a3.5 3.5 0 1 0 7 0 a3.5 3.5 0 1 0 -7 0zM1372 241.5 a3.5 3.5 0 1 0 7 0 a3.5 3.5 0 1 0 -7 0z" fill="rgba(77, 149, 234, 1)"></path><path d="M1438.5 346.5L1396.5 346.5L1375.5 367.5L1081.5 367.5L1060.5 388.5L1039.5 388.5" stroke-width="3.5" stroke="rgba(77, 149, 234, 1)"></path><path d="M1435 346.5 a3.5 3.5 0 1 0 7 0 a3.5 3.5 0 1 0 -7 0zM1036 388.5 a3.5 3.5 0 1 0 7 0 a3.5 3.5 0 1 0 -7 0z" fill="rgba(77, 149, 234, 1)"></path><path d="M682.5 10.5L745.5 73.5L745.5 115.5L724.5 136.5L703.5 136.5L619.5 52.5L619.5 31.5" stroke-width="3.5" stroke="rgba(77, 149, 234, 1)"></path><path d="M679 10.5 a3.5 3.5 0 1 0 7 0 a3.5 3.5 0 1 0 -7 0zM616 31.5 a3.5 3.5 0 1 0 7 0 a3.5 3.5 0 1 0 -7 0z" fill="rgba(77, 149, 234, 1)"></path><path d="M1669.5 283.5L1669.5 346.5L1648.5 367.5" stroke-width="3.5" stroke="rgba(77, 149, 234, 1)"></path><path d="M1666 283.5 a3.5 3.5 0 1 0 7 0 a3.5 3.5 0 1 0 -7 0zM1645 367.5 a3.5 3.5 0 1 0 7 0 a3.5 3.5 0 1 0 -7 0z" fill="rgba(77, 149, 234, 1)"></path><path d="M367.5 115.5L262.5 220.5" stroke-width="3.5" stroke="rgba(77, 149, 234, 1)"></path><path d="M364 115.5 a3.5 3.5 0 1 0 7 0 a3.5 3.5 0 1 0 -7 0zM259 220.5 a3.5 3.5 0 1 0 7 0 a3.5 3.5 0 1 0 -7 0z" fill="rgba(77, 149, 234, 1)"></path><path d="M493.5 115.5L472.5 136.5L409.5 136.5" stroke-width="3.5" stroke="rgba(77, 149, 234, 1)"></path><path d="M490 115.5 a3.5 3.5 0 1 0 7 0 a3.5 3.5 0 1 0 -7 0zM406 136.5 a3.5 3.5 0 1 0 7 0 a3.5 3.5 0 1 0 -7 0z" fill="rgba(77, 149, 234, 1)"></path><path d="M409.5 220.5L367.5 220.5" stroke-width="3.5" stroke="rgba(77, 149, 234, 1)"></path><path d="M406 220.5 a3.5 3.5 0 1 0 7 0 a3.5 3.5 0 1 0 -7 0zM364 220.5 a3.5 3.5 0 1 0 7 0 a3.5 3.5 0 1 0 -7 0z" fill="rgba(77, 149, 234, 1)"></path><path d="M1585.5 52.5L1564.5 73.5L1564.5 115.5" stroke-width="3.5" stroke="rgba(77, 149, 234, 1)"></path><path d="M1582 52.5 a3.5 3.5 0 1 0 7 0 a3.5 3.5 0 1 0 -7 0zM1561 115.5 a3.5 3.5 0 1 0 7 0 a3.5 3.5 0 1 0 -7 0z" fill="rgba(77, 149, 234, 1)"></path><path d="M1081.5 136.5L1165.5 52.5" stroke-width="3.5" stroke="rgba(77, 149, 234, 1)"></path><path d="M1078 136.5 a3.5 3.5 0 1 0 7 0 a3.5 3.5 0 1 0 -7 0zM1162 52.5 a3.5 3.5 0 1 0 7 0 a3.5 3.5 0 1 0 -7 0z" fill="rgba(77, 149, 234, 1)"></path><path d="M703.5 325.5L619.5 409.5L577.5 409.5" stroke-width="3.5" stroke="rgba(77, 149, 234, 1)"></path><path d="M700 325.5 a3.5 3.5 0 1 0 7 0 a3.5 3.5 0 1 0 -7 0zM574 409.5 a3.5 3.5 0 1 0 7 0 a3.5 3.5 0 1 0 -7 0z" fill="rgba(77, 149, 234, 1)"></path><path d="M787.5 367.5L808.5 388.5L850.5 388.5L955.5 283.5" stroke-width="3.5" stroke="rgba(77, 149, 234, 1)"></path><path d="M784 367.5 a3.5 3.5 0 1 0 7 0 a3.5 3.5 0 1 0 -7 0zM952 283.5 a3.5 3.5 0 1 0 7 0 a3.5 3.5 0 1 0 -7 0z" fill="rgba(77, 149, 234, 1)"></path><path d="M325.5 388.5L304.5 367.5L241.5 367.5L199.5 325.5" stroke-width="3.5" stroke="rgba(77, 149, 234, 1)"></path><path d="M322 388.5 a3.5 3.5 0 1 0 7 0 a3.5 3.5 0 1 0 -7 0zM196 325.5 a3.5 3.5 0 1 0 7 0 a3.5 3.5 0 1 0 -7 0z" fill="rgba(77, 149, 234, 1)"></path><path d="M1501.5 346.5L1543.5 346.5" stroke-width="3.5" stroke="rgba(77, 149, 234, 1)"></path><path d="M1498 346.5 a3.5 3.5 0 1 0 7 0 a3.5 3.5 0 1 0 -7 0zM1540 346.5 a3.5 3.5 0 1 0 7 0 a3.5 3.5 0 1 0 -7 0z" fill="rgba(77, 149, 234, 1)"></path><path d="M1207.5 325.5L1207.5 304.5L1186.5 283.5L1165.5 283.5L1123.5 325.5" stroke-width="3.5" stroke="rgba(77, 149, 234, 1)"></path><path d="M1204 325.5 a3.5 3.5 0 1 0 7 0 a3.5 3.5 0 1 0 -7 0zM1120 325.5 a3.5 3.5 0 1 0 7 0 a3.5 3.5 0 1 0 -7 0z" fill="rgba(77, 149, 234, 1)"></path><path d="M1690.5 115.5L1690.5 73.5L1669.5 52.5" stroke-width="3.5" stroke="rgba(77, 149, 234, 1)"></path><path d="M1687 115.5 a3.5 3.5 0 1 0 7 0 a3.5 3.5 0 1 0 -7 0zM1666 52.5 a3.5 3.5 0 1 0 7 0 a3.5 3.5 0 1 0 -7 0z" fill="rgba(77, 149, 234, 1)"></path><path d="M1249.5 73.5L1186.5 136.5L1186.5 157.5" stroke-width="3.5" stroke="rgba(77, 149, 234, 1)"></path><path d="M1246 73.5 a3.5 3.5 0 1 0 7 0 a3.5 3.5 0 1 0 -7 0zM1183 157.5 a3.5 3.5 0 1 0 7 0 a3.5 3.5 0 1 0 -7 0z" fill="rgba(77, 149, 234, 1)"></path><path d="M514.5 157.5L493.5 157.5L451.5 199.5" stroke-width="3.5" stroke="rgba(77, 149, 234, 1)"></path><path d="M511 157.5 a3.5 3.5 0 1 0 7 0 a3.5 3.5 0 1 0 -7 0zM448 199.5 a3.5 3.5 0 1 0 7 0 a3.5 3.5 0 1 0 -7 0z" fill="rgba(77, 149, 234, 1)"></path><path d="M1081.5 199.5L1144.5 199.5L1165.5 178.5" stroke-width="3.5" stroke="rgba(77, 149, 234, 1)"></path><path d="M1078 199.5 a3.5 3.5 0 1 0 7 0 a3.5 3.5 0 1 0 -7 0zM1162 178.5 a3.5 3.5 0 1 0 7 0 a3.5 3.5 0 1 0 -7 0z" fill="rgba(77, 149, 234, 1)"></path><path d="M283.5 136.5L199.5 52.5" stroke-width="3.5" stroke="rgba(77, 149, 234, 1)"></path><path d="M280 136.5 a3.5 3.5 0 1 0 7 0 a3.5 3.5 0 1 0 -7 0zM196 52.5 a3.5 3.5 0 1 0 7 0 a3.5 3.5 0 1 0 -7 0z" fill="rgba(77, 149, 234, 1)"></path><path d="M871.5 136.5L829.5 136.5L808.5 157.5" stroke-width="3.5" stroke="rgba(77, 149, 234, 1)"></path><path d="M868 136.5 a3.5 3.5 0 1 0 7 0 a3.5 3.5 0 1 0 -7 0zM805 157.5 a3.5 3.5 0 1 0 7 0 a3.5 3.5 0 1 0 -7 0z" fill="rgba(77, 149, 234, 1)"></path><path d="M136.5 94.5L31.5 94.5" stroke-width="3.5" stroke="rgba(77, 149, 234, 1)"></path><path d="M133 94.5 a3.5 3.5 0 1 0 7 0 a3.5 3.5 0 1 0 -7 0zM28 94.5 a3.5 3.5 0 1 0 7 0 a3.5 3.5 0 1 0 -7 0z" fill="rgba(77, 149, 234, 1)"></path><path d="M577.5 304.5L640.5 304.5" stroke-width="3.5" stroke="rgba(77, 149, 234, 1)"></path><path d="M574 304.5 a3.5 3.5 0 1 0 7 0 a3.5 3.5 0 1 0 -7 0zM637 304.5 a3.5 3.5 0 1 0 7 0 a3.5 3.5 0 1 0 -7 0z" fill="rgba(77, 149, 234, 1)"></path><path d="M409.5 304.5L367.5 304.5" stroke-width="3.5" stroke="rgba(77, 149, 234, 1)"></path><path d="M406 304.5 a3.5 3.5 0 1 0 7 0 a3.5 3.5 0 1 0 -7 0zM364 304.5 a3.5 3.5 0 1 0 7 0 a3.5 3.5 0 1 0 -7 0z" fill="rgba(77, 149, 234, 1)"></path><path d="M178.5 220.5L157.5 241.5L157.5 283.5" stroke-width="3.5" stroke="rgba(77, 149, 234, 1)"></path><path d="M175 220.5 a3.5 3.5 0 1 0 7 0 a3.5 3.5 0 1 0 -7 0zM154 283.5 a3.5 3.5 0 1 0 7 0 a3.5 3.5 0 1 0 -7 0z" fill="rgba(77, 149, 234, 1)"></path><path d="M1333.5 178.5L1312.5 157.5L1312.5 136.5" stroke-width="3.5" stroke="rgba(77, 149, 234, 1)"></path><path d="M1330 178.5 a3.5 3.5 0 1 0 7 0 a3.5 3.5 0 1 0 -7 0zM1309 136.5 a3.5 3.5 0 1 0 7 0 a3.5 3.5 0 1 0 -7 0z" fill="rgba(77, 149, 234, 1)"></path><path d="M73.5 262.5L52.5 241.5L52.5 220.5" stroke-width="3.5" stroke="rgba(77, 149, 234, 1)"></path><path d="M70 262.5 a3.5 3.5 0 1 0 7 0 a3.5 3.5 0 1 0 -7 0zM49 220.5 a3.5 3.5 0 1 0 7 0 a3.5 3.5 0 1 0 -7 0z" fill="rgba(77, 149, 234, 1)"></path><path d="M829.5 283.5L829.5 304.5L808.5 325.5L724.5 325.5L703.5 304.5L682.5 304.5L619.5 367.5L598.5 367.5" stroke-width="3.5" stroke="rgba(77, 149, 234, 1)"></path><path d="M826 283.5 a3.5 3.5 0 1 0 7 0 a3.5 3.5 0 1 0 -7 0zM595 367.5 a3.5 3.5 0 1 0 7 0 a3.5 3.5 0 1 0 -7 0z" fill="rgba(77, 149, 234, 1)"></path><path d="M535.5 199.5L493.5 241.5" stroke-width="3.5" stroke="rgba(77, 149, 234, 1)"></path><path d="M532 199.5 a3.5 3.5 0 1 0 7 0 a3.5 3.5 0 1 0 -7 0zM490 241.5 a3.5 3.5 0 1 0 7 0 a3.5 3.5 0 1 0 -7 0z" fill="rgba(77, 149, 234, 1)"></path><path d="M955.5 10.5L997.5 10.5" stroke-width="3.5" stroke="rgba(77, 149, 234, 1)"></path><path d="M952 10.5 a3.5 3.5 0 1 0 7 0 a3.5 3.5 0 1 0 -7 0zM994 10.5 a3.5 3.5 0 1 0 7 0 a3.5 3.5 0 1 0 -7 0z" fill="rgba(77, 149, 234, 1)"></path><path d="M136.5 304.5L115.5 304.5L94.5 283.5L94.5 262.5" stroke-width="3.5" stroke="rgba(77, 149, 234, 1)"></path><path d="M133 304.5 a3.5 3.5 0 1 0 7 0 a3.5 3.5 0 1 0 -7 0zM91 262.5 a3.5 3.5 0 1 0 7 0 a3.5 3.5 0 1 0 -7 0z" fill="rgba(77, 149, 234, 1)"></path><path d="M430.5 367.5L409.5 367.5L367.5 325.5" stroke-width="3.5" stroke="rgba(77, 149, 234, 1)"></path><path d="M427 367.5 a3.5 3.5 0 1 0 7 0 a3.5 3.5 0 1 0 -7 0zM364 325.5 a3.5 3.5 0 1 0 7 0 a3.5 3.5 0 1 0 -7 0z" fill="rgba(77, 149, 234, 1)"></path><path d="M472.5 325.5L514.5 283.5L556.5 283.5" stroke-width="3.5" stroke="rgba(77, 149, 234, 1)"></path><path d="M469 325.5 a3.5 3.5 0 1 0 7 0 a3.5 3.5 0 1 0 -7 0zM553 283.5 a3.5 3.5 0 1 0 7 0 a3.5 3.5 0 1 0 -7 0z" fill="rgba(77, 149, 234, 1)"></path><path d="M94.5 346.5L52.5 304.5L52.5 283.5" stroke-width="3.5" stroke="rgba(77, 149, 234, 1)"></path><path d="M91 346.5 a3.5 3.5 0 1 0 7 0 a3.5 3.5 0 1 0 -7 0zM49 283.5 a3.5 3.5 0 1 0 7 0 a3.5 3.5 0 1 0 -7 0z" fill="rgba(77, 149, 234, 1)"></path><path d="M115.5 220.5L136.5 199.5L136.5 136.5" stroke-width="3.5" stroke="rgba(77, 149, 234, 1)"></path><path d="M112 220.5 a3.5 3.5 0 1 0 7 0 a3.5 3.5 0 1 0 -7 0zM133 136.5 a3.5 3.5 0 1 0 7 0 a3.5 3.5 0 1 0 -7 0z" fill="rgba(77, 149, 234, 1)"></path><path d="M52.5 325.5L10.5 325.5" stroke-width="3.5" stroke="rgba(77, 149, 234, 1)"></path><path d="M49 325.5 a3.5 3.5 0 1 0 7 0 a3.5 3.5 0 1 0 -7 0zM7 325.5 a3.5 3.5 0 1 0 7 0 a3.5 3.5 0 1 0 -7 0z" fill="rgba(77, 149, 234, 1)"></path><path d="M304.5 115.5L304.5 157.5L262.5 199.5" stroke-width="3.5" stroke="rgba(77, 149, 234, 1)"></path><path d="M301 115.5 a3.5 3.5 0 1 0 7 0 a3.5 3.5 0 1 0 -7 0zM259 199.5 a3.5 3.5 0 1 0 7 0 a3.5 3.5 0 1 0 -7 0z" fill="rgba(77, 149, 234, 1)"></path><path d="M325.5 367.5L241.5 283.5" stroke-width="3.5" stroke="rgba(77, 149, 234, 1)"></path><path d="M322 367.5 a3.5 3.5 0 1 0 7 0 a3.5 3.5 0 1 0 -7 0zM238 283.5 a3.5 3.5 0 1 0 7 0 a3.5 3.5 0 1 0 -7 0z" fill="rgba(77, 149, 234, 1)"></path><path d="M94.5 388.5L136.5 346.5L157.5 346.5L199.5 388.5" stroke-width="3.5" stroke="rgba(77, 149, 234, 1)"></path><path d="M91 388.5 a3.5 3.5 0 1 0 7 0 a3.5 3.5 0 1 0 -7 0zM196 388.5 a3.5 3.5 0 1 0 7 0 a3.5 3.5 0 1 0 -7 0z" fill="rgba(77, 149, 234, 1)"></path><path d="M871.5 346.5L871.5 325.5L892.5 304.5" stroke-width="3.5" stroke="rgba(77, 149, 234, 1)"></path><path d="M868 346.5 a3.5 3.5 0 1 0 7 0 a3.5 3.5 0 1 0 -7 0zM889 304.5 a3.5 3.5 0 1 0 7 0 a3.5 3.5 0 1 0 -7 0z" fill="rgba(77, 149, 234, 1)"></path><path d="M157.5 73.5L31.5 73.5" stroke-width="3.5" stroke="rgba(77, 149, 234, 1)"></path><path d="M154 73.5 a3.5 3.5 0 1 0 7 0 a3.5 3.5 0 1 0 -7 0zM28 73.5 a3.5 3.5 0 1 0 7 0 a3.5 3.5 0 1 0 -7 0z" fill="rgba(77, 149, 234, 1)"></path><path d="M1039.5 262.5L1060.5 241.5L1123.5 241.5" stroke-width="3.5" stroke="rgba(77, 149, 234, 1)"></path><path d="M1036 262.5 a3.5 3.5 0 1 0 7 0 a3.5 3.5 0 1 0 -7 0zM1120 241.5 a3.5 3.5 0 1 0 7 0 a3.5 3.5 0 1 0 -7 0z" fill="rgba(77, 149, 234, 1)"></path><path d="M1249.5 199.5L1270.5 199.5L1291.5 178.5L1291.5 157.5" stroke-width="3.5" stroke="rgba(77, 149, 234, 1)"></path><path d="M1246 199.5 a3.5 3.5 0 1 0 7 0 a3.5 3.5 0 1 0 -7 0zM1288 157.5 a3.5 3.5 0 1 0 7 0 a3.5 3.5 0 1 0 -7 0z" fill="rgba(77, 149, 234, 1)"></path><path d="M52.5 346.5L73.5 346.5L94.5 367.5" stroke-width="3.5" stroke="rgba(77, 149, 234, 1)"></path><path d="M49 346.5 a3.5 3.5 0 1 0 7 0 a3.5 3.5 0 1 0 -7 0zM91 367.5 a3.5 3.5 0 1 0 7 0 a3.5 3.5 0 1 0 -7 0z" fill="rgba(77, 149, 234, 1)"></path><path d="M1018.5 346.5L997.5 367.5L976.5 367.5" stroke-width="3.5" stroke="rgba(77, 149, 234, 1)"></path><path d="M1015 346.5 a3.5 3.5 0 1 0 7 0 a3.5 3.5 0 1 0 -7 0zM973 367.5 a3.5 3.5 0 1 0 7 0 a3.5 3.5 0 1 0 -7 0z" fill="rgba(77, 149, 234, 1)"></path><path d="M178.5 262.5L178.5 241.5L220.5 199.5L220.5 157.5L199.5 136.5L157.5 136.5" stroke-width="3.5" stroke="rgba(77, 149, 234, 1)"></path><path d="M175 262.5 a3.5 3.5 0 1 0 7 0 a3.5 3.5 0 1 0 -7 0zM154 136.5 a3.5 3.5 0 1 0 7 0 a3.5 3.5 0 1 0 -7 0z" fill="rgba(77, 149, 234, 1)"></path><path d="M1480.5 157.5L1522.5 115.5" stroke-width="3.5" stroke="rgba(77, 149, 234, 1)"></path><path d="M1477 157.5 a3.5 3.5 0 1 0 7 0 a3.5 3.5 0 1 0 -7 0zM1519 115.5 a3.5 3.5 0 1 0 7 0 a3.5 3.5 0 1 0 -7 0z" fill="rgba(77, 149, 234, 1)"></path><path d="M115.5 388.5L136.5 367.5L157.5 367.5L178.5 388.5" stroke-width="3.5" stroke="rgba(77, 149, 234, 1)"></path><path d="M112 388.5 a3.5 3.5 0 1 0 7 0 a3.5 3.5 0 1 0 -7 0zM175 388.5 a3.5 3.5 0 1 0 7 0 a3.5 3.5 0 1 0 -7 0z" fill="rgba(77, 149, 234, 1)"></path><path d="M1543.5 199.5L1543.5 220.5L1522.5 241.5" stroke-width="3.5" stroke="rgba(77, 149, 234, 1)"></path><path d="M1540 199.5 a3.5 3.5 0 1 0 7 0 a3.5 3.5 0 1 0 -7 0zM1519 241.5 a3.5 3.5 0 1 0 7 0 a3.5 3.5 0 1 0 -7 0z" fill="rgba(77, 149, 234, 1)"></path><path d="M1480.5 94.5L1459.5 94.5L1438.5 115.5" stroke-width="3.5" stroke="rgba(77, 149, 234, 1)"></path><path d="M1477 94.5 a3.5 3.5 0 1 0 7 0 a3.5 3.5 0 1 0 -7 0zM1435 115.5 a3.5 3.5 0 1 0 7 0 a3.5 3.5 0 1 0 -7 0z" fill="rgba(77, 149, 234, 1)"></path><path d="M1480.5 241.5L1417.5 241.5L1396.5 220.5L1396.5 199.5L1501.5 94.5" stroke-width="3.5" stroke="rgba(77, 149, 234, 1)"></path><path d="M1477 241.5 a3.5 3.5 0 1 0 7 0 a3.5 3.5 0 1 0 -7 0zM1498 94.5 a3.5 3.5 0 1 0 7 0 a3.5 3.5 0 1 0 -7 0z" fill="rgba(77, 149, 234, 1)"></path><path d="M535.5 241.5L598.5 178.5" stroke-width="3.5" stroke="rgba(77, 149, 234, 1)"></path><path d="M532 241.5 a3.5 3.5 0 1 0 7 0 a3.5 3.5 0 1 0 -7 0zM595 178.5 a3.5 3.5 0 1 0 7 0 a3.5 3.5 0 1 0 -7 0z" fill="rgba(77, 149, 234, 1)"></path><path d="M1480.5 409.5L1543.5 409.5" stroke-width="3.5" stroke="rgba(77, 149, 234, 1)"></path><path d="M1477 409.5 a3.5 3.5 0 1 0 7 0 a3.5 3.5 0 1 0 -7 0zM1540 409.5 a3.5 3.5 0 1 0 7 0 a3.5 3.5 0 1 0 -7 0z" fill="rgba(77, 149, 234, 1)"></path><path d="M493.5 199.5L514.5 199.5L535.5 178.5L556.5 178.5" stroke-width="3.5" stroke="rgba(77, 149, 234, 1)"></path><path d="M490 199.5 a3.5 3.5 0 1 0 7 0 a3.5 3.5 0 1 0 -7 0zM553 178.5 a3.5 3.5 0 1 0 7 0 a3.5 3.5 0 1 0 -7 0z" fill="rgba(77, 149, 234, 1)"></path><path d="M1606.5 262.5L1648.5 304.5L1648.5 346.5" stroke-width="3.5" stroke="rgba(77, 149, 234, 1)"></path><path d="M1603 262.5 a3.5 3.5 0 1 0 7 0 a3.5 3.5 0 1 0 -7 0zM1645 346.5 a3.5 3.5 0 1 0 7 0 a3.5 3.5 0 1 0 -7 0z" fill="rgba(77, 149, 234, 1)"></path><path d="M1564.5 10.5L1606.5 52.5" stroke-width="3.5" stroke="rgba(77, 149, 234, 1)"></path><path d="M1561 10.5 a3.5 3.5 0 1 0 7 0 a3.5 3.5 0 1 0 -7 0zM1603 52.5 a3.5 3.5 0 1 0 7 0 a3.5 3.5 0 1 0 -7 0z" fill="rgba(77, 149, 234, 1)"></path><path d="M892.5 199.5L913.5 220.5L913.5 241.5L892.5 262.5" stroke-width="3.5" stroke="rgba(77, 149, 234, 1)"></path><path d="M889 199.5 a3.5 3.5 0 1 0 7 0 a3.5 3.5 0 1 0 -7 0zM889 262.5 a3.5 3.5 0 1 0 7 0 a3.5 3.5 0 1 0 -7 0z" fill="rgba(77, 149, 234, 1)"></path><path d="M1606.5 388.5L1627.5 388.5L1648.5 409.5" stroke-width="3.5" stroke="rgba(77, 149, 234, 1)"></path><path d="M1603 388.5 a3.5 3.5 0 1 0 7 0 a3.5 3.5 0 1 0 -7 0zM1645 409.5 a3.5 3.5 0 1 0 7 0 a3.5 3.5 0 1 0 -7 0z" fill="rgba(77, 149, 234, 1)"></path><path d="M1459.5 199.5L1417.5 199.5" stroke-width="3.5" stroke="rgba(77, 149, 234, 1)"></path><path d="M1456 199.5 a3.5 3.5 0 1 0 7 0 a3.5 3.5 0 1 0 -7 0zM1414 199.5 a3.5 3.5 0 1 0 7 0 a3.5 3.5 0 1 0 -7 0z" fill="rgba(77, 149, 234, 1)"></path><path d="M1501.5 199.5L1522.5 199.5L1543.5 178.5L1606.5 178.5" stroke-width="3.5" stroke="rgba(77, 149, 234, 1)"></path><path d="M1498 199.5 a3.5 3.5 0 1 0 7 0 a3.5 3.5 0 1 0 -7 0zM1603 178.5 a3.5 3.5 0 1 0 7 0 a3.5 3.5 0 1 0 -7 0z" fill="rgba(77, 149, 234, 1)"></path><path d="M430.5 262.5L472.5 304.5" stroke-width="3.5" stroke="rgba(77, 149, 234, 1)"></path><path d="M427 262.5 a3.5 3.5 0 1 0 7 0 a3.5 3.5 0 1 0 -7 0zM469 304.5 a3.5 3.5 0 1 0 7 0 a3.5 3.5 0 1 0 -7 0z" fill="rgba(77, 149, 234, 1)"></path><path d="M1375.5 31.5L1375.5 52.5L1354.5 73.5L1333.5 73.5" stroke-width="3.5" stroke="rgba(77, 149, 234, 1)"></path><path d="M1372 31.5 a3.5 3.5 0 1 0 7 0 a3.5 3.5 0 1 0 -7 0zM1330 73.5 a3.5 3.5 0 1 0 7 0 a3.5 3.5 0 1 0 -7 0z" fill="rgba(77, 149, 234, 1)"></path><path d="M745.5 31.5L724.5 31.5L703.5 10.5" stroke-width="3.5" stroke="rgba(77, 149, 234, 1)"></path><path d="M742 31.5 a3.5 3.5 0 1 0 7 0 a3.5 3.5 0 1 0 -7 0zM700 10.5 a3.5 3.5 0 1 0 7 0 a3.5 3.5 0 1 0 -7 0z" fill="rgba(77, 149, 234, 1)"></path><path d="M766.5 283.5L808.5 283.5L829.5 262.5" stroke-width="3.5" stroke="rgba(77, 149, 234, 1)"></path><path d="M763 283.5 a3.5 3.5 0 1 0 7 0 a3.5 3.5 0 1 0 -7 0zM826 262.5 a3.5 3.5 0 1 0 7 0 a3.5 3.5 0 1 0 -7 0z" fill="rgba(77, 149, 234, 1)"></path><path d="M493.5 283.5L472.5 283.5L430.5 241.5L430.5 220.5" stroke-width="3.5" stroke="rgba(77, 149, 234, 1)"></path><path d="M490 283.5 a3.5 3.5 0 1 0 7 0 a3.5 3.5 0 1 0 -7 0zM427 220.5 a3.5 3.5 0 1 0 7 0 a3.5 3.5 0 1 0 -7 0z" fill="rgba(77, 149, 234, 1)"></path><path d="M388.5 283.5L430.5 283.5L451.5 304.5L451.5 325.5L430.5 346.5L409.5 346.5L388.5 325.5" stroke-width="3.5" stroke="rgba(77, 149, 234, 1)"></path><path d="M385 283.5 a3.5 3.5 0 1 0 7 0 a3.5 3.5 0 1 0 -7 0zM385 325.5 a3.5 3.5 0 1 0 7 0 a3.5 3.5 0 1 0 -7 0z" fill="rgba(77, 149, 234, 1)"></path><path d="M976.5 52.5L934.5 94.5L829.5 94.5L808.5 115.5" stroke-width="3.5" stroke="rgba(77, 149, 234, 1)"></path><path d="M973 52.5 a3.5 3.5 0 1 0 7 0 a3.5 3.5 0 1 0 -7 0zM805 115.5 a3.5 3.5 0 1 0 7 0 a3.5 3.5 0 1 0 -7 0z" fill="rgba(77, 149, 234, 1)"></path><path d="M304.5 304.5L283.5 304.5L262.5 283.5L262.5 262.5L304.5 220.5" stroke-width="3.5" stroke="rgba(77, 149, 234, 1)"></path><path d="M301 304.5 a3.5 3.5 0 1 0 7 0 a3.5 3.5 0 1 0 -7 0zM301 220.5 a3.5 3.5 0 1 0 7 0 a3.5 3.5 0 1 0 -7 0z" fill="rgba(77, 149, 234, 1)"></path><path d="M850.5 178.5L892.5 220.5L892.5 241.5" stroke-width="3.5" stroke="rgba(77, 149, 234, 1)"></path><path d="M847 178.5 a3.5 3.5 0 1 0 7 0 a3.5 3.5 0 1 0 -7 0zM889 241.5 a3.5 3.5 0 1 0 7 0 a3.5 3.5 0 1 0 -7 0z" fill="rgba(77, 149, 234, 1)"></path><path d="M472.5 94.5L451.5 94.5L430.5 115.5" stroke-width="3.5" stroke="rgba(77, 149, 234, 1)"></path><path d="M469 94.5 a3.5 3.5 0 1 0 7 0 a3.5 3.5 0 1 0 -7 0zM427 115.5 a3.5 3.5 0 1 0 7 0 a3.5 3.5 0 1 0 -7 0z" fill="rgba(77, 149, 234, 1)"></path><path d="M724.5 388.5L661.5 388.5L640.5 409.5" stroke-width="3.5" stroke="rgba(77, 149, 234, 1)"></path><path d="M721 388.5 a3.5 3.5 0 1 0 7 0 a3.5 3.5 0 1 0 -7 0zM637 409.5 a3.5 3.5 0 1 0 7 0 a3.5 3.5 0 1 0 -7 0z" fill="rgba(77, 149, 234, 1)"></path><path d="M913.5 367.5L871.5 409.5" stroke-width="3.5" stroke="rgba(77, 149, 234, 1)"></path><path d="M910 367.5 a3.5 3.5 0 1 0 7 0 a3.5 3.5 0 1 0 -7 0zM868 409.5 a3.5 3.5 0 1 0 7 0 a3.5 3.5 0 1 0 -7 0z" fill="rgba(77, 149, 234, 1)"></path><path d="M871.5 178.5L934.5 178.5" stroke-width="3.5" stroke="rgba(77, 149, 234, 1)"></path><path d="M868 178.5 a3.5 3.5 0 1 0 7 0 a3.5 3.5 0 1 0 -7 0zM931 178.5 a3.5 3.5 0 1 0 7 0 a3.5 3.5 0 1 0 -7 0z" fill="rgba(77, 149, 234, 1)"></path><path d="M1501.5 388.5L1543.5 388.5" stroke-width="3.5" stroke="rgba(77, 149, 234, 1)"></path><path d="M1498 388.5 a3.5 3.5 0 1 0 7 0 a3.5 3.5 0 1 0 -7 0zM1540 388.5 a3.5 3.5 0 1 0 7 0 a3.5 3.5 0 1 0 -7 0z" fill="rgba(77, 149, 234, 1)"></path><path d="M304.5 241.5L283.5 262.5L283.5 283.5" stroke-width="3.5" stroke="rgba(77, 149, 234, 1)"></path><path d="M301 241.5 a3.5 3.5 0 1 0 7 0 a3.5 3.5 0 1 0 -7 0zM280 283.5 a3.5 3.5 0 1 0 7 0 a3.5 3.5 0 1 0 -7 0z" fill="rgba(77, 149, 234, 1)"></path><path d="M598.5 241.5L640.5 241.5" stroke-width="3.5" stroke="rgba(77, 149, 234, 1)"></path><path d="M595 241.5 a3.5 3.5 0 1 0 7 0 a3.5 3.5 0 1 0 -7 0zM637 241.5 a3.5 3.5 0 1 0 7 0 a3.5 3.5 0 1 0 -7 0z" fill="rgba(77, 149, 234, 1)"></path><path d="M892.5 10.5L934.5 52.5L955.5 52.5L976.5 31.5L997.5 31.5" stroke-width="3.5" stroke="rgba(77, 149, 234, 1)"></path><path d="M889 10.5 a3.5 3.5 0 1 0 7 0 a3.5 3.5 0 1 0 -7 0zM994 31.5 a3.5 3.5 0 1 0 7 0 a3.5 3.5 0 1 0 -7 0z" fill="rgba(77, 149, 234, 1)"></path><path d="M1417.5 325.5L1459.5 325.5" stroke-width="3.5" stroke="rgba(77, 149, 234, 1)"></path><path d="M1414 325.5 a3.5 3.5 0 1 0 7 0 a3.5 3.5 0 1 0 -7 0zM1456 325.5 a3.5 3.5 0 1 0 7 0 a3.5 3.5 0 1 0 -7 0z" fill="rgba(77, 149, 234, 1)"></path><path d="M892.5 73.5L871.5 73.5L850.5 52.5L808.5 52.5" stroke-width="3.5" stroke="rgba(77, 149, 234, 1)"></path><path d="M889 73.5 a3.5 3.5 0 1 0 7 0 a3.5 3.5 0 1 0 -7 0zM805 52.5 a3.5 3.5 0 1 0 7 0 a3.5 3.5 0 1 0 -7 0z" fill="rgba(77, 149, 234, 1)"></path><path d="M1627.5 262.5L1669.5 220.5" stroke-width="3.5" stroke="rgba(77, 149, 234, 1)"></path><path d="M1624 262.5 a3.5 3.5 0 1 0 7 0 a3.5 3.5 0 1 0 -7 0zM1666 220.5 a3.5 3.5 0 1 0 7 0 a3.5 3.5 0 1 0 -7 0z" fill="rgba(77, 149, 234, 1)"></path><path d="M1648.5 199.5L1627.5 199.5L1606.5 220.5" stroke-width="3.5" stroke="rgba(77, 149, 234, 1)"></path><path d="M1645 199.5 a3.5 3.5 0 1 0 7 0 a3.5 3.5 0 1 0 -7 0zM1603 220.5 a3.5 3.5 0 1 0 7 0 a3.5 3.5 0 1 0 -7 0z" fill="rgba(77, 149, 234, 1)"></path><path d="M1606.5 94.5L1627.5 115.5L1627.5 136.5" stroke-width="3.5" stroke="rgba(77, 149, 234, 1)"></path><path d="M1603 94.5 a3.5 3.5 0 1 0 7 0 a3.5 3.5 0 1 0 -7 0zM1624 136.5 a3.5 3.5 0 1 0 7 0 a3.5 3.5 0 1 0 -7 0z" fill="rgba(77, 149, 234, 1)"></path><path d="M1039.5 115.5L1081.5 115.5L1123.5 73.5" stroke-width="3.5" stroke="rgba(77, 149, 234, 1)"></path><path d="M1036 115.5 a3.5 3.5 0 1 0 7 0 a3.5 3.5 0 1 0 -7 0zM1120 73.5 a3.5 3.5 0 1 0 7 0 a3.5 3.5 0 1 0 -7 0z" fill="rgba(77, 149, 234, 1)"></path><path d="M115.5 157.5L73.5 157.5" stroke-width="3.5" stroke="rgba(77, 149, 234, 1)"></path><path d="M112 157.5 a3.5 3.5 0 1 0 7 0 a3.5 3.5 0 1 0 -7 0zM70 157.5 a3.5 3.5 0 1 0 7 0 a3.5 3.5 0 1 0 -7 0z" fill="rgba(77, 149, 234, 1)"></path><path d="M1627.5 346.5L1627.5 304.5" stroke-width="3.5" stroke="rgba(77, 149, 234, 1)"></path><path d="M1624 346.5 a3.5 3.5 0 1 0 7 0 a3.5 3.5 0 1 0 -7 0zM1624 304.5 a3.5 3.5 0 1 0 7 0 a3.5 3.5 0 1 0 -7 0z" fill="rgba(77, 149, 234, 1)"></path><path d="M1564.5 52.5L1543.5 73.5L1543.5 94.5" stroke-width="3.5" stroke="rgba(77, 149, 234, 1)"></path><path d="M1561 52.5 a3.5 3.5 0 1 0 7 0 a3.5 3.5 0 1 0 -7 0zM1540 94.5 a3.5 3.5 0 1 0 7 0 a3.5 3.5 0 1 0 -7 0z" fill="rgba(77, 149, 234, 1)"></path><path d="M1018.5 325.5L997.5 325.5L976.5 346.5" stroke-width="3.5" stroke="rgba(77, 149, 234, 1)"></path><path d="M1015 325.5 a3.5 3.5 0 1 0 7 0 a3.5 3.5 0 1 0 -7 0zM973 346.5 a3.5 3.5 0 1 0 7 0 a3.5 3.5 0 1 0 -7 0z" fill="rgba(77, 149, 234, 1)"></path><path d="M1333.5 241.5L1354.5 220.5L1354.5 199.5" stroke-width="3.5" stroke="rgba(77, 149, 234, 1)"></path><path d="M1330 241.5 a3.5 3.5 0 1 0 7 0 a3.5 3.5 0 1 0 -7 0zM1351 199.5 a3.5 3.5 0 1 0 7 0 a3.5 3.5 0 1 0 -7 0z" fill="rgba(77, 149, 234, 1)"></path><path d="M1543.5 52.5L1522.5 31.5L1522.5 10.5" stroke-width="3.5" stroke="rgba(77, 149, 234, 1)"></path><path d="M1540 52.5 a3.5 3.5 0 1 0 7 0 a3.5 3.5 0 1 0 -7 0zM1519 10.5 a3.5 3.5 0 1 0 7 0 a3.5 3.5 0 1 0 -7 0z" fill="rgba(77, 149, 234, 1)"></path><path d="M1438.5 220.5L1501.5 220.5" stroke-width="3.5" stroke="rgba(77, 149, 234, 1)"></path><path d="M1435 220.5 a3.5 3.5 0 1 0 7 0 a3.5 3.5 0 1 0 -7 0zM1498 220.5 a3.5 3.5 0 1 0 7 0 a3.5 3.5 0 1 0 -7 0z" fill="rgba(77, 149, 234, 1)"></path><path d="M1522.5 367.5L1459.5 367.5L1438.5 388.5" stroke-width="3.5" stroke="rgba(77, 149, 234, 1)"></path><path d="M1519 367.5 a3.5 3.5 0 1 0 7 0 a3.5 3.5 0 1 0 -7 0zM1435 388.5 a3.5 3.5 0 1 0 7 0 a3.5 3.5 0 1 0 -7 0z" fill="rgba(77, 149, 234, 1)"></path><path d="M661.5 52.5L661.5 73.5L682.5 94.5L724.5 94.5" stroke-width="3.5" stroke="rgba(77, 149, 234, 1)"></path><path d="M658 52.5 a3.5 3.5 0 1 0 7 0 a3.5 3.5 0 1 0 -7 0zM721 94.5 a3.5 3.5 0 1 0 7 0 a3.5 3.5 0 1 0 -7 0z" fill="rgba(77, 149, 234, 1)"></path><path d="M1459.5 73.5L1459.5 31.5" stroke-width="3.5" stroke="rgba(77, 149, 234, 1)"></path><path d="M1456 73.5 a3.5 3.5 0 1 0 7 0 a3.5 3.5 0 1 0 -7 0zM1456 31.5 a3.5 3.5 0 1 0 7 0 a3.5 3.5 0 1 0 -7 0z" fill="rgba(77, 149, 234, 1)"></path></g></g><defs><mask id="SvgjsMask1044"><rect width="1700" height="400" fill="#ffffff"></rect></mask></defs></svg>