<svg xmlns="http://www.w3.org/2000/svg" version="1.1" xmlns:xlink="http://www.w3.org/1999/xlink" xmlns:svgjs="http://svgjs.dev/svgjs" width="1500" height="900" preserveAspectRatio="none" viewBox="0 0 1500 900"><g mask="url(&quot;#SvgjsMask1068&quot;)" fill="none"><g><path d="M1417.5 619.5L1417.5 409.5L1228.5 220.5" stroke-width="3.5" stroke="rgba(77, 149, 234, 1)"></path><path d="M1414 619.5 a3.5 3.5 0 1 0 7 0 a3.5 3.5 0 1 0 -7 0zM1225 220.5 a3.5 3.5 0 1 0 7 0 a3.5 3.5 0 1 0 -7 0z" fill="rgba(77, 149, 234, 1)"></path><path d="M661.5 178.5L661.5 514.5L724.5 577.5" stroke-width="3.5" stroke="rgba(77, 149, 234, 1)"></path><path d="M658 178.5 a3.5 3.5 0 1 0 7 0 a3.5 3.5 0 1 0 -7 0zM721 577.5 a3.5 3.5 0 1 0 7 0 a3.5 3.5 0 1 0 -7 0z" fill="rgba(77, 149, 234, 1)"></path><path d="M346.5 577.5L451.5 472.5L598.5 472.5L640.5 430.5L640.5 325.5" stroke-width="3.5" stroke="rgba(77, 149, 234, 1)"></path><path d="M343 577.5 a3.5 3.5 0 1 0 7 0 a3.5 3.5 0 1 0 -7 0zM637 325.5 a3.5 3.5 0 1 0 7 0 a3.5 3.5 0 1 0 -7 0z" fill="rgba(77, 149, 234, 1)"></path><path d="M577.5 157.5L493.5 157.5L409.5 73.5L199.5 73.5L178.5 52.5" stroke-width="3.5" stroke="rgba(77, 149, 234, 1)"></path><path d="M574 157.5 a3.5 3.5 0 1 0 7 0 a3.5 3.5 0 1 0 -7 0zM175 52.5 a3.5 3.5 0 1 0 7 0 a3.5 3.5 0 1 0 -7 0z" fill="rgba(77, 149, 234, 1)"></path><path d="M1438.5 73.5L1501.5 73.5" stroke-width="3.5" stroke="rgba(77, 149, 234, 1)"></path><path d="M1435 73.5 a3.5 3.5 0 1 0 7 0 a3.5 3.5 0 1 0 -7 0zM1498 73.5 a3.5 3.5 0 1 0 7 0 a3.5 3.5 0 1 0 -7 0z" fill="rgba(77, 149, 234, 1)"></path><path d="M1501.5 472.5L1459.5 430.5L1438.5 430.5" stroke-width="3.5" stroke="rgba(77, 149, 234, 1)"></path><path d="M1498 472.5 a3.5 3.5 0 1 0 7 0 a3.5 3.5 0 1 0 -7 0zM1435 430.5 a3.5 3.5 0 1 0 7 0 a3.5 3.5 0 1 0 -7 0z" fill="rgba(77, 149, 234, 1)"></path><path d="M10.5 178.5L409.5 178.5" stroke-width="3.5" stroke="rgba(77, 149, 234, 1)"></path><path d="M7 178.5 a3.5 3.5 0 1 0 7 0 a3.5 3.5 0 1 0 -7 0zM406 178.5 a3.5 3.5 0 1 0 7 0 a3.5 3.5 0 1 0 -7 0z" fill="rgba(77, 149, 234, 1)"></path><path d="M1060.5 556.5L1060.5 388.5L1018.5 346.5L829.5 346.5" stroke-width="3.5" stroke="rgba(77, 149, 234, 1)"></path><path d="M1057 556.5 a3.5 3.5 0 1 0 7 0 a3.5 3.5 0 1 0 -7 0zM826 346.5 a3.5 3.5 0 1 0 7 0 a3.5 3.5 0 1 0 -7 0z" fill="rgba(77, 149, 234, 1)"></path><path d="M1102.5 10.5L703.5 10.5" stroke-width="3.5" stroke="rgba(77, 149, 234, 1)"></path><path d="M1099 10.5 a3.5 3.5 0 1 0 7 0 a3.5 3.5 0 1 0 -7 0zM700 10.5 a3.5 3.5 0 1 0 7 0 a3.5 3.5 0 1 0 -7 0z" fill="rgba(77, 149, 234, 1)"></path><path d="M1396.5 493.5L1207.5 304.5L1081.5 304.5L1018.5 241.5L1018.5 220.5" stroke-width="3.5" stroke="rgba(77, 149, 234, 1)"></path><path d="M1393 493.5 a3.5 3.5 0 1 0 7 0 a3.5 3.5 0 1 0 -7 0zM1015 220.5 a3.5 3.5 0 1 0 7 0 a3.5 3.5 0 1 0 -7 0z" fill="rgba(77, 149, 234, 1)"></path><path d="M829.5 409.5L682.5 262.5L682.5 10.5" stroke-width="3.5" stroke="rgba(77, 149, 234, 1)"></path><path d="M826 409.5 a3.5 3.5 0 1 0 7 0 a3.5 3.5 0 1 0 -7 0zM679 10.5 a3.5 3.5 0 1 0 7 0 a3.5 3.5 0 1 0 -7 0z" fill="rgba(77, 149, 234, 1)"></path><path d="M1144.5 808.5L1144.5 892.5" stroke-width="3.5" stroke="rgba(77, 149, 234, 1)"></path><path d="M1141 808.5 a3.5 3.5 0 1 0 7 0 a3.5 3.5 0 1 0 -7 0zM1141 892.5 a3.5 3.5 0 1 0 7 0 a3.5 3.5 0 1 0 -7 0z" fill="rgba(77, 149, 234, 1)"></path><path d="M346.5 556.5L94.5 808.5L94.5 850.5L136.5 892.5L199.5 892.5" stroke-width="3.5" stroke="rgba(77, 149, 234, 1)"></path><path d="M343 556.5 a3.5 3.5 0 1 0 7 0 a3.5 3.5 0 1 0 -7 0zM196 892.5 a3.5 3.5 0 1 0 7 0 a3.5 3.5 0 1 0 -7 0z" fill="rgba(77, 149, 234, 1)"></path><path d="M724.5 241.5L829.5 136.5L1123.5 136.5" stroke-width="3.5" stroke="rgba(77, 149, 234, 1)"></path><path d="M721 241.5 a3.5 3.5 0 1 0 7 0 a3.5 3.5 0 1 0 -7 0zM1120 136.5 a3.5 3.5 0 1 0 7 0 a3.5 3.5 0 1 0 -7 0z" fill="rgba(77, 149, 234, 1)"></path><path d="M577.5 745.5L556.5 766.5L178.5 766.5" stroke-width="3.5" stroke="rgba(77, 149, 234, 1)"></path><path d="M574 745.5 a3.5 3.5 0 1 0 7 0 a3.5 3.5 0 1 0 -7 0zM175 766.5 a3.5 3.5 0 1 0 7 0 a3.5 3.5 0 1 0 -7 0z" fill="rgba(77, 149, 234, 1)"></path><path d="M346.5 10.5L388.5 52.5L577.5 52.5L619.5 10.5L661.5 10.5" stroke-width="3.5" stroke="rgba(77, 149, 234, 1)"></path><path d="M343 10.5 a3.5 3.5 0 1 0 7 0 a3.5 3.5 0 1 0 -7 0zM658 10.5 a3.5 3.5 0 1 0 7 0 a3.5 3.5 0 1 0 -7 0z" fill="rgba(77, 149, 234, 1)"></path><path d="M388.5 640.5L283.5 745.5L178.5 745.5" stroke-width="3.5" stroke="rgba(77, 149, 234, 1)"></path><path d="M385 640.5 a3.5 3.5 0 1 0 7 0 a3.5 3.5 0 1 0 -7 0zM175 745.5 a3.5 3.5 0 1 0 7 0 a3.5 3.5 0 1 0 -7 0z" fill="rgba(77, 149, 234, 1)"></path><path d="M892.5 619.5L892.5 892.5" stroke-width="3.5" stroke="rgba(77, 149, 234, 1)"></path><path d="M889 619.5 a3.5 3.5 0 1 0 7 0 a3.5 3.5 0 1 0 -7 0zM889 892.5 a3.5 3.5 0 1 0 7 0 a3.5 3.5 0 1 0 -7 0z" fill="rgba(77, 149, 234, 1)"></path><path d="M556.5 10.5L598.5 10.5" stroke-width="3.5" stroke="rgba(77, 149, 234, 1)"></path><path d="M553 10.5 a3.5 3.5 0 1 0 7 0 a3.5 3.5 0 1 0 -7 0zM595 10.5 a3.5 3.5 0 1 0 7 0 a3.5 3.5 0 1 0 -7 0z" fill="rgba(77, 149, 234, 1)"></path><path d="M1060.5 745.5L1102.5 745.5L1207.5 640.5L1207.5 514.5L1270.5 451.5L1270.5 388.5" stroke-width="3.5" stroke="rgba(77, 149, 234, 1)"></path><path d="M1057 745.5 a3.5 3.5 0 1 0 7 0 a3.5 3.5 0 1 0 -7 0zM1267 388.5 a3.5 3.5 0 1 0 7 0 a3.5 3.5 0 1 0 -7 0z" fill="rgba(77, 149, 234, 1)"></path><path d="M346.5 94.5L283.5 94.5L262.5 115.5L157.5 115.5L73.5 31.5L73.5 10.5" stroke-width="3.5" stroke="rgba(77, 149, 234, 1)"></path><path d="M343 94.5 a3.5 3.5 0 1 0 7 0 a3.5 3.5 0 1 0 -7 0zM70 10.5 a3.5 3.5 0 1 0 7 0 a3.5 3.5 0 1 0 -7 0z" fill="rgba(77, 149, 234, 1)"></path><path d="M1459.5 640.5L1438.5 619.5L1438.5 451.5" stroke-width="3.5" stroke="rgba(77, 149, 234, 1)"></path><path d="M1456 640.5 a3.5 3.5 0 1 0 7 0 a3.5 3.5 0 1 0 -7 0zM1435 451.5 a3.5 3.5 0 1 0 7 0 a3.5 3.5 0 1 0 -7 0z" fill="rgba(77, 149, 234, 1)"></path><path d="M934.5 199.5L1060.5 325.5L1207.5 325.5L1249.5 367.5L1249.5 388.5L1228.5 409.5L1186.5 409.5" stroke-width="3.5" stroke="rgba(77, 149, 234, 1)"></path><path d="M931 199.5 a3.5 3.5 0 1 0 7 0 a3.5 3.5 0 1 0 -7 0zM1183 409.5 a3.5 3.5 0 1 0 7 0 a3.5 3.5 0 1 0 -7 0z" fill="rgba(77, 149, 234, 1)"></path><path d="M346.5 220.5L346.5 535.5L262.5 619.5" stroke-width="3.5" stroke="rgba(77, 149, 234, 1)"></path><path d="M343 220.5 a3.5 3.5 0 1 0 7 0 a3.5 3.5 0 1 0 -7 0zM259 619.5 a3.5 3.5 0 1 0 7 0 a3.5 3.5 0 1 0 -7 0z" fill="rgba(77, 149, 234, 1)"></path><path d="M136.5 304.5L220.5 220.5L325.5 220.5L346.5 199.5L409.5 199.5L535.5 325.5" stroke-width="3.5" stroke="rgba(77, 149, 234, 1)"></path><path d="M133 304.5 a3.5 3.5 0 1 0 7 0 a3.5 3.5 0 1 0 -7 0zM532 325.5 a3.5 3.5 0 1 0 7 0 a3.5 3.5 0 1 0 -7 0z" fill="rgba(77, 149, 234, 1)"></path><path d="M472.5 115.5L514.5 73.5L640.5 73.5L661.5 94.5L661.5 136.5L619.5 178.5L619.5 241.5L556.5 304.5" stroke-width="3.5" stroke="rgba(77, 149, 234, 1)"></path><path d="M469 115.5 a3.5 3.5 0 1 0 7 0 a3.5 3.5 0 1 0 -7 0zM553 304.5 a3.5 3.5 0 1 0 7 0 a3.5 3.5 0 1 0 -7 0z" fill="rgba(77, 149, 234, 1)"></path><path d="M1081.5 850.5L913.5 850.5" stroke-width="3.5" stroke="rgba(77, 149, 234, 1)"></path><path d="M1078 850.5 a3.5 3.5 0 1 0 7 0 a3.5 3.5 0 1 0 -7 0zM910 850.5 a3.5 3.5 0 1 0 7 0 a3.5 3.5 0 1 0 -7 0z" fill="rgba(77, 149, 234, 1)"></path><path d="M787.5 157.5L745.5 199.5L703.5 199.5" stroke-width="3.5" stroke="rgba(77, 149, 234, 1)"></path><path d="M784 157.5 a3.5 3.5 0 1 0 7 0 a3.5 3.5 0 1 0 -7 0zM700 199.5 a3.5 3.5 0 1 0 7 0 a3.5 3.5 0 1 0 -7 0z" fill="rgba(77, 149, 234, 1)"></path><path d="M1501.5 766.5L1165.5 766.5L1102.5 829.5" stroke-width="3.5" stroke="rgba(77, 149, 234, 1)"></path><path d="M1498 766.5 a3.5 3.5 0 1 0 7 0 a3.5 3.5 0 1 0 -7 0zM1099 829.5 a3.5 3.5 0 1 0 7 0 a3.5 3.5 0 1 0 -7 0z" fill="rgba(77, 149, 234, 1)"></path><path d="M745.5 703.5L682.5 640.5L409.5 640.5L367.5 598.5L367.5 577.5" stroke-width="3.5" stroke="rgba(77, 149, 234, 1)"></path><path d="M742 703.5 a3.5 3.5 0 1 0 7 0 a3.5 3.5 0 1 0 -7 0zM364 577.5 a3.5 3.5 0 1 0 7 0 a3.5 3.5 0 1 0 -7 0z" fill="rgba(77, 149, 234, 1)"></path><path d="M787.5 241.5L787.5 346.5L913.5 472.5L1039.5 472.5" stroke-width="3.5" stroke="rgba(77, 149, 234, 1)"></path><path d="M784 241.5 a3.5 3.5 0 1 0 7 0 a3.5 3.5 0 1 0 -7 0zM1036 472.5 a3.5 3.5 0 1 0 7 0 a3.5 3.5 0 1 0 -7 0z" fill="rgba(77, 149, 234, 1)"></path><path d="M1060.5 220.5L1060.5 157.5" stroke-width="3.5" stroke="rgba(77, 149, 234, 1)"></path><path d="M1057 220.5 a3.5 3.5 0 1 0 7 0 a3.5 3.5 0 1 0 -7 0zM1057 157.5 a3.5 3.5 0 1 0 7 0 a3.5 3.5 0 1 0 -7 0z" fill="rgba(77, 149, 234, 1)"></path><path d="M976.5 556.5L745.5 556.5L682.5 493.5L682.5 388.5" stroke-width="3.5" stroke="rgba(77, 149, 234, 1)"></path><path d="M973 556.5 a3.5 3.5 0 1 0 7 0 a3.5 3.5 0 1 0 -7 0zM679 388.5 a3.5 3.5 0 1 0 7 0 a3.5 3.5 0 1 0 -7 0z" fill="rgba(77, 149, 234, 1)"></path><path d="M241.5 703.5L220.5 703.5L199.5 724.5" stroke-width="3.5" stroke="rgba(77, 149, 234, 1)"></path><path d="M238 703.5 a3.5 3.5 0 1 0 7 0 a3.5 3.5 0 1 0 -7 0zM196 724.5 a3.5 3.5 0 1 0 7 0 a3.5 3.5 0 1 0 -7 0z" fill="rgba(77, 149, 234, 1)"></path><path d="M682.5 829.5L871.5 829.5" stroke-width="3.5" stroke="rgba(77, 149, 234, 1)"></path><path d="M679 829.5 a3.5 3.5 0 1 0 7 0 a3.5 3.5 0 1 0 -7 0zM868 829.5 a3.5 3.5 0 1 0 7 0 a3.5 3.5 0 1 0 -7 0z" fill="rgba(77, 149, 234, 1)"></path><path d="M304.5 682.5L283.5 661.5L262.5 661.5L241.5 682.5" stroke-width="3.5" stroke="rgba(77, 149, 234, 1)"></path><path d="M301 682.5 a3.5 3.5 0 1 0 7 0 a3.5 3.5 0 1 0 -7 0zM238 682.5 a3.5 3.5 0 1 0 7 0 a3.5 3.5 0 1 0 -7 0z" fill="rgba(77, 149, 234, 1)"></path><path d="M724.5 94.5L703.5 115.5L703.5 178.5" stroke-width="3.5" stroke="rgba(77, 149, 234, 1)"></path><path d="M721 94.5 a3.5 3.5 0 1 0 7 0 a3.5 3.5 0 1 0 -7 0zM700 178.5 a3.5 3.5 0 1 0 7 0 a3.5 3.5 0 1 0 -7 0z" fill="rgba(77, 149, 234, 1)"></path><path d="M1291.5 871.5L1165.5 871.5" stroke-width="3.5" stroke="rgba(77, 149, 234, 1)"></path><path d="M1288 871.5 a3.5 3.5 0 1 0 7 0 a3.5 3.5 0 1 0 -7 0zM1162 871.5 a3.5 3.5 0 1 0 7 0 a3.5 3.5 0 1 0 -7 0z" fill="rgba(77, 149, 234, 1)"></path><path d="M1333.5 745.5L1291.5 703.5L1249.5 703.5L1207.5 661.5" stroke-width="3.5" stroke="rgba(77, 149, 234, 1)"></path><path d="M1330 745.5 a3.5 3.5 0 1 0 7 0 a3.5 3.5 0 1 0 -7 0zM1204 661.5 a3.5 3.5 0 1 0 7 0 a3.5 3.5 0 1 0 -7 0z" fill="rgba(77, 149, 234, 1)"></path><path d="M1207.5 703.5L1081.5 829.5L913.5 829.5" stroke-width="3.5" stroke="rgba(77, 149, 234, 1)"></path><path d="M1204 703.5 a3.5 3.5 0 1 0 7 0 a3.5 3.5 0 1 0 -7 0zM910 829.5 a3.5 3.5 0 1 0 7 0 a3.5 3.5 0 1 0 -7 0z" fill="rgba(77, 149, 234, 1)"></path><path d="M304.5 703.5L283.5 682.5L262.5 682.5" stroke-width="3.5" stroke="rgba(77, 149, 234, 1)"></path><path d="M301 703.5 a3.5 3.5 0 1 0 7 0 a3.5 3.5 0 1 0 -7 0zM259 682.5 a3.5 3.5 0 1 0 7 0 a3.5 3.5 0 1 0 -7 0z" fill="rgba(77, 149, 234, 1)"></path><path d="M409.5 451.5L598.5 451.5L619.5 430.5L619.5 283.5L640.5 262.5L640.5 241.5" stroke-width="3.5" stroke="rgba(77, 149, 234, 1)"></path><path d="M406 451.5 a3.5 3.5 0 1 0 7 0 a3.5 3.5 0 1 0 -7 0zM637 241.5 a3.5 3.5 0 1 0 7 0 a3.5 3.5 0 1 0 -7 0z" fill="rgba(77, 149, 234, 1)"></path><path d="M808.5 724.5L808.5 577.5" stroke-width="3.5" stroke="rgba(77, 149, 234, 1)"></path><path d="M805 724.5 a3.5 3.5 0 1 0 7 0 a3.5 3.5 0 1 0 -7 0zM805 577.5 a3.5 3.5 0 1 0 7 0 a3.5 3.5 0 1 0 -7 0z" fill="rgba(77, 149, 234, 1)"></path><path d="M1438.5 136.5L1480.5 178.5L1501.5 178.5" stroke-width="3.5" stroke="rgba(77, 149, 234, 1)"></path><path d="M1435 136.5 a3.5 3.5 0 1 0 7 0 a3.5 3.5 0 1 0 -7 0zM1498 178.5 a3.5 3.5 0 1 0 7 0 a3.5 3.5 0 1 0 -7 0z" fill="rgba(77, 149, 234, 1)"></path><path d="M94.5 325.5L73.5 304.5L73.5 199.5" stroke-width="3.5" stroke="rgba(77, 149, 234, 1)"></path><path d="M91 325.5 a3.5 3.5 0 1 0 7 0 a3.5 3.5 0 1 0 -7 0zM70 199.5 a3.5 3.5 0 1 0 7 0 a3.5 3.5 0 1 0 -7 0z" fill="rgba(77, 149, 234, 1)"></path><path d="M1249.5 493.5L1228.5 514.5L1228.5 535.5L1438.5 745.5L1501.5 745.5" stroke-width="3.5" stroke="rgba(77, 149, 234, 1)"></path><path d="M1246 493.5 a3.5 3.5 0 1 0 7 0 a3.5 3.5 0 1 0 -7 0zM1498 745.5 a3.5 3.5 0 1 0 7 0 a3.5 3.5 0 1 0 -7 0z" fill="rgba(77, 149, 234, 1)"></path><path d="M10.5 157.5L10.5 115.5L73.5 52.5" stroke-width="3.5" stroke="rgba(77, 149, 234, 1)"></path><path d="M7 157.5 a3.5 3.5 0 1 0 7 0 a3.5 3.5 0 1 0 -7 0zM70 52.5 a3.5 3.5 0 1 0 7 0 a3.5 3.5 0 1 0 -7 0z" fill="rgba(77, 149, 234, 1)"></path><path d="M913.5 514.5L808.5 514.5L787.5 535.5L745.5 535.5L703.5 493.5L703.5 304.5" stroke-width="3.5" stroke="rgba(77, 149, 234, 1)"></path><path d="M910 514.5 a3.5 3.5 0 1 0 7 0 a3.5 3.5 0 1 0 -7 0zM700 304.5 a3.5 3.5 0 1 0 7 0 a3.5 3.5 0 1 0 -7 0z" fill="rgba(77, 149, 234, 1)"></path><path d="M1123.5 10.5L1333.5 220.5L1501.5 220.5" stroke-width="3.5" stroke="rgba(77, 149, 234, 1)"></path><path d="M1120 10.5 a3.5 3.5 0 1 0 7 0 a3.5 3.5 0 1 0 -7 0zM1498 220.5 a3.5 3.5 0 1 0 7 0 a3.5 3.5 0 1 0 -7 0z" fill="rgba(77, 149, 234, 1)"></path><path d="M472.5 703.5L514.5 661.5L682.5 661.5L808.5 787.5L808.5 808.5" stroke-width="3.5" stroke="rgba(77, 149, 234, 1)"></path><path d="M469 703.5 a3.5 3.5 0 1 0 7 0 a3.5 3.5 0 1 0 -7 0zM805 808.5 a3.5 3.5 0 1 0 7 0 a3.5 3.5 0 1 0 -7 0z" fill="rgba(77, 149, 234, 1)"></path><path d="M1123.5 451.5L1186.5 514.5L1186.5 598.5L1165.5 619.5L1165.5 661.5L1102.5 724.5L976.5 724.5" stroke-width="3.5" stroke="rgba(77, 149, 234, 1)"></path><path d="M1120 451.5 a3.5 3.5 0 1 0 7 0 a3.5 3.5 0 1 0 -7 0zM973 724.5 a3.5 3.5 0 1 0 7 0 a3.5 3.5 0 1 0 -7 0z" fill="rgba(77, 149, 234, 1)"></path><path d="M388.5 829.5L388.5 892.5" stroke-width="3.5" stroke="rgba(77, 149, 234, 1)"></path><path d="M385 829.5 a3.5 3.5 0 1 0 7 0 a3.5 3.5 0 1 0 -7 0zM385 892.5 a3.5 3.5 0 1 0 7 0 a3.5 3.5 0 1 0 -7 0z" fill="rgba(77, 149, 234, 1)"></path><path d="M136.5 577.5L10.5 703.5L10.5 892.5" stroke-width="3.5" stroke="rgba(77, 149, 234, 1)"></path><path d="M133 577.5 a3.5 3.5 0 1 0 7 0 a3.5 3.5 0 1 0 -7 0zM7 892.5 a3.5 3.5 0 1 0 7 0 a3.5 3.5 0 1 0 -7 0z" fill="rgba(77, 149, 234, 1)"></path><path d="M1501.5 850.5L1438.5 787.5L1249.5 787.5L1186.5 850.5L1165.5 850.5" stroke-width="3.5" stroke="rgba(77, 149, 234, 1)"></path><path d="M1498 850.5 a3.5 3.5 0 1 0 7 0 a3.5 3.5 0 1 0 -7 0zM1162 850.5 a3.5 3.5 0 1 0 7 0 a3.5 3.5 0 1 0 -7 0z" fill="rgba(77, 149, 234, 1)"></path><path d="M1354.5 640.5L1438.5 724.5L1501.5 724.5" stroke-width="3.5" stroke="rgba(77, 149, 234, 1)"></path><path d="M1351 640.5 a3.5 3.5 0 1 0 7 0 a3.5 3.5 0 1 0 -7 0zM1498 724.5 a3.5 3.5 0 1 0 7 0 a3.5 3.5 0 1 0 -7 0z" fill="rgba(77, 149, 234, 1)"></path><path d="M1375.5 283.5L1396.5 304.5L1396.5 367.5L1438.5 409.5L1501.5 409.5" stroke-width="3.5" stroke="rgba(77, 149, 234, 1)"></path><path d="M1372 283.5 a3.5 3.5 0 1 0 7 0 a3.5 3.5 0 1 0 -7 0zM1498 409.5 a3.5 3.5 0 1 0 7 0 a3.5 3.5 0 1 0 -7 0z" fill="rgba(77, 149, 234, 1)"></path><path d="M577.5 262.5L598.5 241.5L598.5 94.5" stroke-width="3.5" stroke="rgba(77, 149, 234, 1)"></path><path d="M574 262.5 a3.5 3.5 0 1 0 7 0 a3.5 3.5 0 1 0 -7 0zM595 94.5 a3.5 3.5 0 1 0 7 0 a3.5 3.5 0 1 0 -7 0z" fill="rgba(77, 149, 234, 1)"></path><path d="M514.5 325.5L598.5 409.5L598.5 430.5" stroke-width="3.5" stroke="rgba(77, 149, 234, 1)"></path><path d="M511 325.5 a3.5 3.5 0 1 0 7 0 a3.5 3.5 0 1 0 -7 0zM595 430.5 a3.5 3.5 0 1 0 7 0 a3.5 3.5 0 1 0 -7 0z" fill="rgba(77, 149, 234, 1)"></path><path d="M577.5 682.5L577.5 724.5L556.5 745.5L304.5 745.5" stroke-width="3.5" stroke="rgba(77, 149, 234, 1)"></path><path d="M574 682.5 a3.5 3.5 0 1 0 7 0 a3.5 3.5 0 1 0 -7 0zM301 745.5 a3.5 3.5 0 1 0 7 0 a3.5 3.5 0 1 0 -7 0z" fill="rgba(77, 149, 234, 1)"></path><path d="M955.5 115.5L1102.5 115.5L1144.5 73.5L1144.5 52.5L1123.5 31.5L955.5 31.5" stroke-width="3.5" stroke="rgba(77, 149, 234, 1)"></path><path d="M952 115.5 a3.5 3.5 0 1 0 7 0 a3.5 3.5 0 1 0 -7 0zM952 31.5 a3.5 3.5 0 1 0 7 0 a3.5 3.5 0 1 0 -7 0z" fill="rgba(77, 149, 234, 1)"></path><path d="M1312.5 577.5L1354.5 577.5L1396.5 535.5L1396.5 514.5L1291.5 409.5" stroke-width="3.5" stroke="rgba(77, 149, 234, 1)"></path><path d="M1309 577.5 a3.5 3.5 0 1 0 7 0 a3.5 3.5 0 1 0 -7 0zM1288 409.5 a3.5 3.5 0 1 0 7 0 a3.5 3.5 0 1 0 -7 0z" fill="rgba(77, 149, 234, 1)"></path><path d="M1207.5 430.5L1165.5 472.5" stroke-width="3.5" stroke="rgba(77, 149, 234, 1)"></path><path d="M1204 430.5 a3.5 3.5 0 1 0 7 0 a3.5 3.5 0 1 0 -7 0zM1162 472.5 a3.5 3.5 0 1 0 7 0 a3.5 3.5 0 1 0 -7 0z" fill="rgba(77, 149, 234, 1)"></path><path d="M955.5 367.5L913.5 367.5L871.5 409.5" stroke-width="3.5" stroke="rgba(77, 149, 234, 1)"></path><path d="M952 367.5 a3.5 3.5 0 1 0 7 0 a3.5 3.5 0 1 0 -7 0zM868 409.5 a3.5 3.5 0 1 0 7 0 a3.5 3.5 0 1 0 -7 0z" fill="rgba(77, 149, 234, 1)"></path><path d="M1375.5 535.5L1354.5 556.5L1270.5 556.5L1249.5 535.5L1249.5 514.5L1312.5 451.5" stroke-width="3.5" stroke="rgba(77, 149, 234, 1)"></path><path d="M1372 535.5 a3.5 3.5 0 1 0 7 0 a3.5 3.5 0 1 0 -7 0zM1309 451.5 a3.5 3.5 0 1 0 7 0 a3.5 3.5 0 1 0 -7 0z" fill="rgba(77, 149, 234, 1)"></path><path d="M1333.5 115.5L1291.5 157.5" stroke-width="3.5" stroke="rgba(77, 149, 234, 1)"></path><path d="M1330 115.5 a3.5 3.5 0 1 0 7 0 a3.5 3.5 0 1 0 -7 0zM1288 157.5 a3.5 3.5 0 1 0 7 0 a3.5 3.5 0 1 0 -7 0z" fill="rgba(77, 149, 234, 1)"></path><path d="M94.5 199.5L94.5 304.5L178.5 388.5L325.5 388.5" stroke-width="3.5" stroke="rgba(77, 149, 234, 1)"></path><path d="M91 199.5 a3.5 3.5 0 1 0 7 0 a3.5 3.5 0 1 0 -7 0zM322 388.5 a3.5 3.5 0 1 0 7 0 a3.5 3.5 0 1 0 -7 0z" fill="rgba(77, 149, 234, 1)"></path><path d="M367.5 94.5L346.5 115.5L346.5 157.5" stroke-width="3.5" stroke="rgba(77, 149, 234, 1)"></path><path d="M364 94.5 a3.5 3.5 0 1 0 7 0 a3.5 3.5 0 1 0 -7 0zM343 157.5 a3.5 3.5 0 1 0 7 0 a3.5 3.5 0 1 0 -7 0z" fill="rgba(77, 149, 234, 1)"></path><path d="M514.5 514.5L430.5 514.5L388.5 556.5L388.5 598.5L409.5 619.5L619.5 619.5" stroke-width="3.5" stroke="rgba(77, 149, 234, 1)"></path><path d="M511 514.5 a3.5 3.5 0 1 0 7 0 a3.5 3.5 0 1 0 -7 0zM616 619.5 a3.5 3.5 0 1 0 7 0 a3.5 3.5 0 1 0 -7 0z" fill="rgba(77, 149, 234, 1)"></path><path d="M1312.5 871.5L1333.5 892.5L1501.5 892.5" stroke-width="3.5" stroke="rgba(77, 149, 234, 1)"></path><path d="M1309 871.5 a3.5 3.5 0 1 0 7 0 a3.5 3.5 0 1 0 -7 0zM1498 892.5 a3.5 3.5 0 1 0 7 0 a3.5 3.5 0 1 0 -7 0z" fill="rgba(77, 149, 234, 1)"></path><path d="M73.5 346.5L115.5 346.5L304.5 535.5L304.5 556.5L157.5 703.5" stroke-width="3.5" stroke="rgba(77, 149, 234, 1)"></path><path d="M70 346.5 a3.5 3.5 0 1 0 7 0 a3.5 3.5 0 1 0 -7 0zM154 703.5 a3.5 3.5 0 1 0 7 0 a3.5 3.5 0 1 0 -7 0z" fill="rgba(77, 149, 234, 1)"></path><path d="M1249.5 115.5L1249.5 10.5" stroke-width="3.5" stroke="rgba(77, 149, 234, 1)"></path><path d="M1246 115.5 a3.5 3.5 0 1 0 7 0 a3.5 3.5 0 1 0 -7 0zM1246 10.5 a3.5 3.5 0 1 0 7 0 a3.5 3.5 0 1 0 -7 0z" fill="rgba(77, 149, 234, 1)"></path><path d="M1417.5 262.5L1501.5 346.5L1501.5 388.5" stroke-width="3.5" stroke="rgba(77, 149, 234, 1)"></path><path d="M1414 262.5 a3.5 3.5 0 1 0 7 0 a3.5 3.5 0 1 0 -7 0zM1498 388.5 a3.5 3.5 0 1 0 7 0 a3.5 3.5 0 1 0 -7 0z" fill="rgba(77, 149, 234, 1)"></path><path d="M745.5 136.5L745.5 73.5L703.5 31.5" stroke-width="3.5" stroke="rgba(77, 149, 234, 1)"></path><path d="M742 136.5 a3.5 3.5 0 1 0 7 0 a3.5 3.5 0 1 0 -7 0zM700 31.5 a3.5 3.5 0 1 0 7 0 a3.5 3.5 0 1 0 -7 0z" fill="rgba(77, 149, 234, 1)"></path><path d="M745.5 430.5L724.5 409.5L724.5 325.5" stroke-width="3.5" stroke="rgba(77, 149, 234, 1)"></path><path d="M742 430.5 a3.5 3.5 0 1 0 7 0 a3.5 3.5 0 1 0 -7 0zM721 325.5 a3.5 3.5 0 1 0 7 0 a3.5 3.5 0 1 0 -7 0z" fill="rgba(77, 149, 234, 1)"></path><path d="M535.5 829.5L472.5 892.5L409.5 892.5" stroke-width="3.5" stroke="rgba(77, 149, 234, 1)"></path><path d="M532 829.5 a3.5 3.5 0 1 0 7 0 a3.5 3.5 0 1 0 -7 0zM406 892.5 a3.5 3.5 0 1 0 7 0 a3.5 3.5 0 1 0 -7 0z" fill="rgba(77, 149, 234, 1)"></path><path d="M31.5 430.5L10.5 451.5L10.5 682.5" stroke-width="3.5" stroke="rgba(77, 149, 234, 1)"></path><path d="M28 430.5 a3.5 3.5 0 1 0 7 0 a3.5 3.5 0 1 0 -7 0zM7 682.5 a3.5 3.5 0 1 0 7 0 a3.5 3.5 0 1 0 -7 0z" fill="rgba(77, 149, 234, 1)"></path><path d="M934.5 892.5L1123.5 892.5" stroke-width="3.5" stroke="rgba(77, 149, 234, 1)"></path><path d="M931 892.5 a3.5 3.5 0 1 0 7 0 a3.5 3.5 0 1 0 -7 0zM1120 892.5 a3.5 3.5 0 1 0 7 0 a3.5 3.5 0 1 0 -7 0z" fill="rgba(77, 149, 234, 1)"></path><path d="M52.5 787.5L73.5 808.5L73.5 892.5" stroke-width="3.5" stroke="rgba(77, 149, 234, 1)"></path><path d="M49 787.5 a3.5 3.5 0 1 0 7 0 a3.5 3.5 0 1 0 -7 0zM70 892.5 a3.5 3.5 0 1 0 7 0 a3.5 3.5 0 1 0 -7 0z" fill="rgba(77, 149, 234, 1)"></path><path d="M451.5 871.5L367.5 787.5L346.5 787.5L262.5 871.5L262.5 892.5" stroke-width="3.5" stroke="rgba(77, 149, 234, 1)"></path><path d="M448 871.5 a3.5 3.5 0 1 0 7 0 a3.5 3.5 0 1 0 -7 0zM259 892.5 a3.5 3.5 0 1 0 7 0 a3.5 3.5 0 1 0 -7 0z" fill="rgba(77, 149, 234, 1)"></path><path d="M955.5 766.5L934.5 745.5L934.5 577.5" stroke-width="3.5" stroke="rgba(77, 149, 234, 1)"></path><path d="M952 766.5 a3.5 3.5 0 1 0 7 0 a3.5 3.5 0 1 0 -7 0zM931 577.5 a3.5 3.5 0 1 0 7 0 a3.5 3.5 0 1 0 -7 0z" fill="rgba(77, 149, 234, 1)"></path><path d="M1102.5 409.5L1102.5 346.5" stroke-width="3.5" stroke="rgba(77, 149, 234, 1)"></path><path d="M1099 409.5 a3.5 3.5 0 1 0 7 0 a3.5 3.5 0 1 0 -7 0zM1099 346.5 a3.5 3.5 0 1 0 7 0 a3.5 3.5 0 1 0 -7 0z" fill="rgba(77, 149, 234, 1)"></path><path d="M829.5 157.5L892.5 157.5L913.5 178.5L913.5 325.5" stroke-width="3.5" stroke="rgba(77, 149, 234, 1)"></path><path d="M826 157.5 a3.5 3.5 0 1 0 7 0 a3.5 3.5 0 1 0 -7 0zM910 325.5 a3.5 3.5 0 1 0 7 0 a3.5 3.5 0 1 0 -7 0z" fill="rgba(77, 149, 234, 1)"></path><path d="M1375.5 199.5L1354.5 178.5L1312.5 178.5" stroke-width="3.5" stroke="rgba(77, 149, 234, 1)"></path><path d="M1372 199.5 a3.5 3.5 0 1 0 7 0 a3.5 3.5 0 1 0 -7 0zM1309 178.5 a3.5 3.5 0 1 0 7 0 a3.5 3.5 0 1 0 -7 0z" fill="rgba(77, 149, 234, 1)"></path><path d="M241.5 325.5L325.5 325.5" stroke-width="3.5" stroke="rgba(77, 149, 234, 1)"></path><path d="M238 325.5 a3.5 3.5 0 1 0 7 0 a3.5 3.5 0 1 0 -7 0zM322 325.5 a3.5 3.5 0 1 0 7 0 a3.5 3.5 0 1 0 -7 0z" fill="rgba(77, 149, 234, 1)"></path><path d="M73.5 451.5L31.5 451.5" stroke-width="3.5" stroke="rgba(77, 149, 234, 1)"></path><path d="M70 451.5 a3.5 3.5 0 1 0 7 0 a3.5 3.5 0 1 0 -7 0zM28 451.5 a3.5 3.5 0 1 0 7 0 a3.5 3.5 0 1 0 -7 0z" fill="rgba(77, 149, 234, 1)"></path><path d="M577.5 766.5L640.5 703.5L640.5 682.5" stroke-width="3.5" stroke="rgba(77, 149, 234, 1)"></path><path d="M574 766.5 a3.5 3.5 0 1 0 7 0 a3.5 3.5 0 1 0 -7 0zM637 682.5 a3.5 3.5 0 1 0 7 0 a3.5 3.5 0 1 0 -7 0z" fill="rgba(77, 149, 234, 1)"></path><path d="M1375.5 31.5L1270.5 136.5" stroke-width="3.5" stroke="rgba(77, 149, 234, 1)"></path><path d="M1372 31.5 a3.5 3.5 0 1 0 7 0 a3.5 3.5 0 1 0 -7 0zM1267 136.5 a3.5 3.5 0 1 0 7 0 a3.5 3.5 0 1 0 -7 0z" fill="rgba(77, 149, 234, 1)"></path><path d="M388.5 388.5L388.5 262.5L367.5 241.5L367.5 220.5" stroke-width="3.5" stroke="rgba(77, 149, 234, 1)"></path><path d="M385 388.5 a3.5 3.5 0 1 0 7 0 a3.5 3.5 0 1 0 -7 0zM364 220.5 a3.5 3.5 0 1 0 7 0 a3.5 3.5 0 1 0 -7 0z" fill="rgba(77, 149, 234, 1)"></path><path d="M913.5 388.5L976.5 451.5L1039.5 451.5" stroke-width="3.5" stroke="rgba(77, 149, 234, 1)"></path><path d="M910 388.5 a3.5 3.5 0 1 0 7 0 a3.5 3.5 0 1 0 -7 0zM1036 451.5 a3.5 3.5 0 1 0 7 0 a3.5 3.5 0 1 0 -7 0z" fill="rgba(77, 149, 234, 1)"></path><path d="M1249.5 829.5L1228.5 829.5L1207.5 850.5" stroke-width="3.5" stroke="rgba(77, 149, 234, 1)"></path><path d="M1246 829.5 a3.5 3.5 0 1 0 7 0 a3.5 3.5 0 1 0 -7 0zM1204 850.5 a3.5 3.5 0 1 0 7 0 a3.5 3.5 0 1 0 -7 0z" fill="rgba(77, 149, 234, 1)"></path><path d="M1081.5 619.5L955.5 619.5" stroke-width="3.5" stroke="rgba(77, 149, 234, 1)"></path><path d="M1078 619.5 a3.5 3.5 0 1 0 7 0 a3.5 3.5 0 1 0 -7 0zM952 619.5 a3.5 3.5 0 1 0 7 0 a3.5 3.5 0 1 0 -7 0z" fill="rgba(77, 149, 234, 1)"></path><path d="M1501.5 682.5L1480.5 661.5L1396.5 661.5L1333.5 598.5L1312.5 598.5" stroke-width="3.5" stroke="rgba(77, 149, 234, 1)"></path><path d="M1498 682.5 a3.5 3.5 0 1 0 7 0 a3.5 3.5 0 1 0 -7 0zM1309 598.5 a3.5 3.5 0 1 0 7 0 a3.5 3.5 0 1 0 -7 0z" fill="rgba(77, 149, 234, 1)"></path><path d="M136.5 10.5L94.5 10.5" stroke-width="3.5" stroke="rgba(77, 149, 234, 1)"></path><path d="M133 10.5 a3.5 3.5 0 1 0 7 0 a3.5 3.5 0 1 0 -7 0zM91 10.5 a3.5 3.5 0 1 0 7 0 a3.5 3.5 0 1 0 -7 0z" fill="rgba(77, 149, 234, 1)"></path><path d="M199.5 31.5L178.5 10.5L157.5 10.5L115.5 52.5" stroke-width="3.5" stroke="rgba(77, 149, 234, 1)"></path><path d="M196 31.5 a3.5 3.5 0 1 0 7 0 a3.5 3.5 0 1 0 -7 0zM112 52.5 a3.5 3.5 0 1 0 7 0 a3.5 3.5 0 1 0 -7 0z" fill="rgba(77, 149, 234, 1)"></path><path d="M1123.5 262.5L1228.5 157.5L1228.5 136.5L1165.5 73.5" stroke-width="3.5" stroke="rgba(77, 149, 234, 1)"></path><path d="M1120 262.5 a3.5 3.5 0 1 0 7 0 a3.5 3.5 0 1 0 -7 0zM1162 73.5 a3.5 3.5 0 1 0 7 0 a3.5 3.5 0 1 0 -7 0z" fill="rgba(77, 149, 234, 1)"></path><path d="M325.5 535.5L199.5 409.5" stroke-width="3.5" stroke="rgba(77, 149, 234, 1)"></path><path d="M322 535.5 a3.5 3.5 0 1 0 7 0 a3.5 3.5 0 1 0 -7 0zM196 409.5 a3.5 3.5 0 1 0 7 0 a3.5 3.5 0 1 0 -7 0z" fill="rgba(77, 149, 234, 1)"></path><path d="M1270.5 808.5L1333.5 871.5L1354.5 871.5L1417.5 808.5L1438.5 808.5L1501.5 871.5" stroke-width="3.5" stroke="rgba(77, 149, 234, 1)"></path><path d="M1267 808.5 a3.5 3.5 0 1 0 7 0 a3.5 3.5 0 1 0 -7 0zM1498 871.5 a3.5 3.5 0 1 0 7 0 a3.5 3.5 0 1 0 -7 0z" fill="rgba(77, 149, 234, 1)"></path><path d="M514.5 220.5L430.5 136.5L367.5 136.5" stroke-width="3.5" stroke="rgba(77, 149, 234, 1)"></path><path d="M511 220.5 a3.5 3.5 0 1 0 7 0 a3.5 3.5 0 1 0 -7 0zM364 136.5 a3.5 3.5 0 1 0 7 0 a3.5 3.5 0 1 0 -7 0z" fill="rgba(77, 149, 234, 1)"></path><path d="M724.5 598.5L619.5 493.5L619.5 472.5L640.5 451.5" stroke-width="3.5" stroke="rgba(77, 149, 234, 1)"></path><path d="M721 598.5 a3.5 3.5 0 1 0 7 0 a3.5 3.5 0 1 0 -7 0zM637 451.5 a3.5 3.5 0 1 0 7 0 a3.5 3.5 0 1 0 -7 0z" fill="rgba(77, 149, 234, 1)"></path><path d="M409.5 682.5L430.5 703.5L451.5 703.5L472.5 724.5L535.5 724.5L556.5 703.5L556.5 682.5" stroke-width="3.5" stroke="rgba(77, 149, 234, 1)"></path><path d="M406 682.5 a3.5 3.5 0 1 0 7 0 a3.5 3.5 0 1 0 -7 0zM553 682.5 a3.5 3.5 0 1 0 7 0 a3.5 3.5 0 1 0 -7 0z" fill="rgba(77, 149, 234, 1)"></path><path d="M535.5 556.5L514.5 535.5L430.5 535.5L409.5 556.5L409.5 598.5" stroke-width="3.5" stroke="rgba(77, 149, 234, 1)"></path><path d="M532 556.5 a3.5 3.5 0 1 0 7 0 a3.5 3.5 0 1 0 -7 0zM406 598.5 a3.5 3.5 0 1 0 7 0 a3.5 3.5 0 1 0 -7 0z" fill="rgba(77, 149, 234, 1)"></path><path d="M703.5 640.5L556.5 493.5L451.5 493.5" stroke-width="3.5" stroke="rgba(77, 149, 234, 1)"></path><path d="M700 640.5 a3.5 3.5 0 1 0 7 0 a3.5 3.5 0 1 0 -7 0zM448 493.5 a3.5 3.5 0 1 0 7 0 a3.5 3.5 0 1 0 -7 0z" fill="rgba(77, 149, 234, 1)"></path><path d="M1459.5 472.5L1480.5 472.5L1501.5 493.5L1501.5 577.5" stroke-width="3.5" stroke="rgba(77, 149, 234, 1)"></path><path d="M1456 472.5 a3.5 3.5 0 1 0 7 0 a3.5 3.5 0 1 0 -7 0zM1498 577.5 a3.5 3.5 0 1 0 7 0 a3.5 3.5 0 1 0 -7 0z" fill="rgba(77, 149, 234, 1)"></path><path d="M220.5 535.5L220.5 472.5L136.5 388.5L10.5 388.5" stroke-width="3.5" stroke="rgba(77, 149, 234, 1)"></path><path d="M217 535.5 a3.5 3.5 0 1 0 7 0 a3.5 3.5 0 1 0 -7 0zM7 388.5 a3.5 3.5 0 1 0 7 0 a3.5 3.5 0 1 0 -7 0z" fill="rgba(77, 149, 234, 1)"></path><path d="M115.5 430.5L94.5 409.5L10.5 409.5" stroke-width="3.5" stroke="rgba(77, 149, 234, 1)"></path><path d="M112 430.5 a3.5 3.5 0 1 0 7 0 a3.5 3.5 0 1 0 -7 0zM7 409.5 a3.5 3.5 0 1 0 7 0 a3.5 3.5 0 1 0 -7 0z" fill="rgba(77, 149, 234, 1)"></path><path d="M577.5 241.5L514.5 178.5L493.5 178.5" stroke-width="3.5" stroke="rgba(77, 149, 234, 1)"></path><path d="M574 241.5 a3.5 3.5 0 1 0 7 0 a3.5 3.5 0 1 0 -7 0zM490 178.5 a3.5 3.5 0 1 0 7 0 a3.5 3.5 0 1 0 -7 0z" fill="rgba(77, 149, 234, 1)"></path><path d="M1417.5 199.5L1501.5 199.5" stroke-width="3.5" stroke="rgba(77, 149, 234, 1)"></path><path d="M1414 199.5 a3.5 3.5 0 1 0 7 0 a3.5 3.5 0 1 0 -7 0zM1498 199.5 a3.5 3.5 0 1 0 7 0 a3.5 3.5 0 1 0 -7 0z" fill="rgba(77, 149, 234, 1)"></path><path d="M1333.5 535.5L1270.5 535.5" stroke-width="3.5" stroke="rgba(77, 149, 234, 1)"></path><path d="M1330 535.5 a3.5 3.5 0 1 0 7 0 a3.5 3.5 0 1 0 -7 0zM1267 535.5 a3.5 3.5 0 1 0 7 0 a3.5 3.5 0 1 0 -7 0z" fill="rgba(77, 149, 234, 1)"></path><path d="M451.5 787.5L430.5 808.5L430.5 829.5L451.5 850.5L493.5 850.5L556.5 787.5L577.5 787.5L598.5 766.5L766.5 766.5L787.5 787.5" stroke-width="3.5" stroke="rgba(77, 149, 234, 1)"></path><path d="M448 787.5 a3.5 3.5 0 1 0 7 0 a3.5 3.5 0 1 0 -7 0zM784 787.5 a3.5 3.5 0 1 0 7 0 a3.5 3.5 0 1 0 -7 0z" fill="rgba(77, 149, 234, 1)"></path><path d="M1312.5 661.5L1312.5 703.5L1354.5 745.5L1417.5 745.5" stroke-width="3.5" stroke="rgba(77, 149, 234, 1)"></path><path d="M1309 661.5 a3.5 3.5 0 1 0 7 0 a3.5 3.5 0 1 0 -7 0zM1414 745.5 a3.5 3.5 0 1 0 7 0 a3.5 3.5 0 1 0 -7 0z" fill="rgba(77, 149, 234, 1)"></path><path d="M955.5 871.5L913.5 871.5" stroke-width="3.5" stroke="rgba(77, 149, 234, 1)"></path><path d="M952 871.5 a3.5 3.5 0 1 0 7 0 a3.5 3.5 0 1 0 -7 0zM910 871.5 a3.5 3.5 0 1 0 7 0 a3.5 3.5 0 1 0 -7 0z" fill="rgba(77, 149, 234, 1)"></path><path d="M850.5 619.5L871.5 619.5L913.5 577.5" stroke-width="3.5" stroke="rgba(77, 149, 234, 1)"></path><path d="M847 619.5 a3.5 3.5 0 1 0 7 0 a3.5 3.5 0 1 0 -7 0zM910 577.5 a3.5 3.5 0 1 0 7 0 a3.5 3.5 0 1 0 -7 0z" fill="rgba(77, 149, 234, 1)"></path><path d="M409.5 157.5L451.5 199.5" stroke-width="3.5" stroke="rgba(77, 149, 234, 1)"></path><path d="M406 157.5 a3.5 3.5 0 1 0 7 0 a3.5 3.5 0 1 0 -7 0zM448 199.5 a3.5 3.5 0 1 0 7 0 a3.5 3.5 0 1 0 -7 0z" fill="rgba(77, 149, 234, 1)"></path><path d="M997.5 682.5L955.5 724.5L955.5 745.5L1018.5 808.5L1039.5 808.5L1081.5 766.5L1123.5 766.5L1207.5 682.5" stroke-width="3.5" stroke="rgba(77, 149, 234, 1)"></path><path d="M994 682.5 a3.5 3.5 0 1 0 7 0 a3.5 3.5 0 1 0 -7 0zM1204 682.5 a3.5 3.5 0 1 0 7 0 a3.5 3.5 0 1 0 -7 0z" fill="rgba(77, 149, 234, 1)"></path><path d="M1081.5 556.5L1144.5 619.5L1144.5 661.5L1102.5 703.5L997.5 703.5" stroke-width="3.5" stroke="rgba(77, 149, 234, 1)"></path><path d="M1078 556.5 a3.5 3.5 0 1 0 7 0 a3.5 3.5 0 1 0 -7 0zM994 703.5 a3.5 3.5 0 1 0 7 0 a3.5 3.5 0 1 0 -7 0z" fill="rgba(77, 149, 234, 1)"></path><path d="M409.5 493.5L367.5 535.5" stroke-width="3.5" stroke="rgba(77, 149, 234, 1)"></path><path d="M406 493.5 a3.5 3.5 0 1 0 7 0 a3.5 3.5 0 1 0 -7 0zM364 535.5 a3.5 3.5 0 1 0 7 0 a3.5 3.5 0 1 0 -7 0z" fill="rgba(77, 149, 234, 1)"></path><path d="M157.5 73.5L178.5 73.5L199.5 94.5L262.5 94.5" stroke-width="3.5" stroke="rgba(77, 149, 234, 1)"></path><path d="M154 73.5 a3.5 3.5 0 1 0 7 0 a3.5 3.5 0 1 0 -7 0zM259 94.5 a3.5 3.5 0 1 0 7 0 a3.5 3.5 0 1 0 -7 0z" fill="rgba(77, 149, 234, 1)"></path><path d="M913.5 94.5L892.5 115.5L871.5 115.5L808.5 52.5L745.5 52.5L724.5 31.5" stroke-width="3.5" stroke="rgba(77, 149, 234, 1)"></path><path d="M910 94.5 a3.5 3.5 0 1 0 7 0 a3.5 3.5 0 1 0 -7 0zM721 31.5 a3.5 3.5 0 1 0 7 0 a3.5 3.5 0 1 0 -7 0z" fill="rgba(77, 149, 234, 1)"></path><path d="M283.5 346.5L157.5 346.5L136.5 325.5" stroke-width="3.5" stroke="rgba(77, 149, 234, 1)"></path><path d="M280 346.5 a3.5 3.5 0 1 0 7 0 a3.5 3.5 0 1 0 -7 0zM133 325.5 a3.5 3.5 0 1 0 7 0 a3.5 3.5 0 1 0 -7 0z" fill="rgba(77, 149, 234, 1)"></path><path d="M1018.5 73.5L1123.5 73.5" stroke-width="3.5" stroke="rgba(77, 149, 234, 1)"></path><path d="M1015 73.5 a3.5 3.5 0 1 0 7 0 a3.5 3.5 0 1 0 -7 0zM1120 73.5 a3.5 3.5 0 1 0 7 0 a3.5 3.5 0 1 0 -7 0z" fill="rgba(77, 149, 234, 1)"></path><path d="M472.5 220.5L535.5 283.5L556.5 283.5" stroke-width="3.5" stroke="rgba(77, 149, 234, 1)"></path><path d="M469 220.5 a3.5 3.5 0 1 0 7 0 a3.5 3.5 0 1 0 -7 0zM553 283.5 a3.5 3.5 0 1 0 7 0 a3.5 3.5 0 1 0 -7 0z" fill="rgba(77, 149, 234, 1)"></path><path d="M514.5 892.5L871.5 892.5" stroke-width="3.5" stroke="rgba(77, 149, 234, 1)"></path><path d="M511 892.5 a3.5 3.5 0 1 0 7 0 a3.5 3.5 0 1 0 -7 0zM868 892.5 a3.5 3.5 0 1 0 7 0 a3.5 3.5 0 1 0 -7 0z" fill="rgba(77, 149, 234, 1)"></path><path d="M136.5 619.5L115.5 619.5L31.5 703.5L31.5 892.5" stroke-width="3.5" stroke="rgba(77, 149, 234, 1)"></path><path d="M133 619.5 a3.5 3.5 0 1 0 7 0 a3.5 3.5 0 1 0 -7 0zM28 892.5 a3.5 3.5 0 1 0 7 0 a3.5 3.5 0 1 0 -7 0z" fill="rgba(77, 149, 234, 1)"></path><path d="M787.5 94.5L829.5 94.5" stroke-width="3.5" stroke="rgba(77, 149, 234, 1)"></path><path d="M784 94.5 a3.5 3.5 0 1 0 7 0 a3.5 3.5 0 1 0 -7 0zM826 94.5 a3.5 3.5 0 1 0 7 0 a3.5 3.5 0 1 0 -7 0z" fill="rgba(77, 149, 234, 1)"></path><path d="M1039.5 220.5L1039.5 241.5L1081.5 283.5L1270.5 283.5L1396.5 409.5L1396.5 430.5" stroke-width="3.5" stroke="rgba(77, 149, 234, 1)"></path><path d="M1036 220.5 a3.5 3.5 0 1 0 7 0 a3.5 3.5 0 1 0 -7 0zM1393 430.5 a3.5 3.5 0 1 0 7 0 a3.5 3.5 0 1 0 -7 0z" fill="rgba(77, 149, 234, 1)"></path><path d="M451.5 682.5L430.5 682.5L409.5 661.5L388.5 661.5L367.5 682.5L367.5 724.5" stroke-width="3.5" stroke="rgba(77, 149, 234, 1)"></path><path d="M448 682.5 a3.5 3.5 0 1 0 7 0 a3.5 3.5 0 1 0 -7 0zM364 724.5 a3.5 3.5 0 1 0 7 0 a3.5 3.5 0 1 0 -7 0z" fill="rgba(77, 149, 234, 1)"></path><path d="M409.5 304.5L451.5 262.5" stroke-width="3.5" stroke="rgba(77, 149, 234, 1)"></path><path d="M406 304.5 a3.5 3.5 0 1 0 7 0 a3.5 3.5 0 1 0 -7 0zM448 262.5 a3.5 3.5 0 1 0 7 0 a3.5 3.5 0 1 0 -7 0z" fill="rgba(77, 149, 234, 1)"></path><path d="M31.5 514.5L94.5 451.5L178.5 451.5L199.5 472.5L199.5 640.5L136.5 703.5" stroke-width="3.5" stroke="rgba(77, 149, 234, 1)"></path><path d="M28 514.5 a3.5 3.5 0 1 0 7 0 a3.5 3.5 0 1 0 -7 0zM133 703.5 a3.5 3.5 0 1 0 7 0 a3.5 3.5 0 1 0 -7 0z" fill="rgba(77, 149, 234, 1)"></path><path d="M1165.5 241.5L1249.5 157.5" stroke-width="3.5" stroke="rgba(77, 149, 234, 1)"></path><path d="M1162 241.5 a3.5 3.5 0 1 0 7 0 a3.5 3.5 0 1 0 -7 0zM1246 157.5 a3.5 3.5 0 1 0 7 0 a3.5 3.5 0 1 0 -7 0z" fill="rgba(77, 149, 234, 1)"></path><path d="M283.5 535.5L241.5 535.5L220.5 556.5L220.5 619.5" stroke-width="3.5" stroke="rgba(77, 149, 234, 1)"></path><path d="M280 535.5 a3.5 3.5 0 1 0 7 0 a3.5 3.5 0 1 0 -7 0zM217 619.5 a3.5 3.5 0 1 0 7 0 a3.5 3.5 0 1 0 -7 0z" fill="rgba(77, 149, 234, 1)"></path><path d="M430.5 367.5L535.5 367.5L577.5 409.5L577.5 430.5" stroke-width="3.5" stroke="rgba(77, 149, 234, 1)"></path><path d="M427 367.5 a3.5 3.5 0 1 0 7 0 a3.5 3.5 0 1 0 -7 0zM574 430.5 a3.5 3.5 0 1 0 7 0 a3.5 3.5 0 1 0 -7 0z" fill="rgba(77, 149, 234, 1)"></path><path d="M199.5 157.5L241.5 157.5L262.5 136.5L283.5 136.5L304.5 157.5L325.5 157.5" stroke-width="3.5" stroke="rgba(77, 149, 234, 1)"></path><path d="M196 157.5 a3.5 3.5 0 1 0 7 0 a3.5 3.5 0 1 0 -7 0zM322 157.5 a3.5 3.5 0 1 0 7 0 a3.5 3.5 0 1 0 -7 0z" fill="rgba(77, 149, 234, 1)"></path><path d="M262.5 829.5L304.5 787.5L325.5 787.5" stroke-width="3.5" stroke="rgba(77, 149, 234, 1)"></path><path d="M259 829.5 a3.5 3.5 0 1 0 7 0 a3.5 3.5 0 1 0 -7 0zM322 787.5 a3.5 3.5 0 1 0 7 0 a3.5 3.5 0 1 0 -7 0z" fill="rgba(77, 149, 234, 1)"></path><path d="M682.5 808.5L703.5 808.5L724.5 787.5L766.5 787.5L787.5 808.5" stroke-width="3.5" stroke="rgba(77, 149, 234, 1)"></path><path d="M679 808.5 a3.5 3.5 0 1 0 7 0 a3.5 3.5 0 1 0 -7 0zM784 808.5 a3.5 3.5 0 1 0 7 0 a3.5 3.5 0 1 0 -7 0z" fill="rgba(77, 149, 234, 1)"></path><path d="M157.5 241.5L178.5 241.5L220.5 199.5L325.5 199.5" stroke-width="3.5" stroke="rgba(77, 149, 234, 1)"></path><path d="M154 241.5 a3.5 3.5 0 1 0 7 0 a3.5 3.5 0 1 0 -7 0zM322 199.5 a3.5 3.5 0 1 0 7 0 a3.5 3.5 0 1 0 -7 0z" fill="rgba(77, 149, 234, 1)"></path><path d="M808.5 178.5L724.5 262.5L724.5 283.5L766.5 325.5" stroke-width="3.5" stroke="rgba(77, 149, 234, 1)"></path><path d="M805 178.5 a3.5 3.5 0 1 0 7 0 a3.5 3.5 0 1 0 -7 0zM763 325.5 a3.5 3.5 0 1 0 7 0 a3.5 3.5 0 1 0 -7 0z" fill="rgba(77, 149, 234, 1)"></path><path d="M1102.5 871.5L976.5 871.5" stroke-width="3.5" stroke="rgba(77, 149, 234, 1)"></path><path d="M1099 871.5 a3.5 3.5 0 1 0 7 0 a3.5 3.5 0 1 0 -7 0zM973 871.5 a3.5 3.5 0 1 0 7 0 a3.5 3.5 0 1 0 -7 0z" fill="rgba(77, 149, 234, 1)"></path><path d="M682.5 871.5L514.5 871.5" stroke-width="3.5" stroke="rgba(77, 149, 234, 1)"></path><path d="M679 871.5 a3.5 3.5 0 1 0 7 0 a3.5 3.5 0 1 0 -7 0zM511 871.5 a3.5 3.5 0 1 0 7 0 a3.5 3.5 0 1 0 -7 0z" fill="rgba(77, 149, 234, 1)"></path><path d="M892.5 493.5L913.5 493.5L955.5 535.5L1039.5 535.5" stroke-width="3.5" stroke="rgba(77, 149, 234, 1)"></path><path d="M889 493.5 a3.5 3.5 0 1 0 7 0 a3.5 3.5 0 1 0 -7 0zM1036 535.5 a3.5 3.5 0 1 0 7 0 a3.5 3.5 0 1 0 -7 0z" fill="rgba(77, 149, 234, 1)"></path><path d="M451.5 430.5L472.5 409.5L556.5 409.5" stroke-width="3.5" stroke="rgba(77, 149, 234, 1)"></path><path d="M448 430.5 a3.5 3.5 0 1 0 7 0 a3.5 3.5 0 1 0 -7 0zM553 409.5 a3.5 3.5 0 1 0 7 0 a3.5 3.5 0 1 0 -7 0z" fill="rgba(77, 149, 234, 1)"></path><path d="M535.5 136.5L577.5 136.5" stroke-width="3.5" stroke="rgba(77, 149, 234, 1)"></path><path d="M532 136.5 a3.5 3.5 0 1 0 7 0 a3.5 3.5 0 1 0 -7 0zM574 136.5 a3.5 3.5 0 1 0 7 0 a3.5 3.5 0 1 0 -7 0z" fill="rgba(77, 149, 234, 1)"></path><path d="M703.5 598.5L703.5 619.5L787.5 703.5L787.5 745.5L808.5 766.5L871.5 766.5" stroke-width="3.5" stroke="rgba(77, 149, 234, 1)"></path><path d="M700 598.5 a3.5 3.5 0 1 0 7 0 a3.5 3.5 0 1 0 -7 0zM868 766.5 a3.5 3.5 0 1 0 7 0 a3.5 3.5 0 1 0 -7 0z" fill="rgba(77, 149, 234, 1)"></path><path d="M283.5 409.5L325.5 451.5L325.5 514.5" stroke-width="3.5" stroke="rgba(77, 149, 234, 1)"></path><path d="M280 409.5 a3.5 3.5 0 1 0 7 0 a3.5 3.5 0 1 0 -7 0zM322 514.5 a3.5 3.5 0 1 0 7 0 a3.5 3.5 0 1 0 -7 0z" fill="rgba(77, 149, 234, 1)"></path><path d="M157.5 262.5L115.5 220.5L115.5 199.5" stroke-width="3.5" stroke="rgba(77, 149, 234, 1)"></path><path d="M154 262.5 a3.5 3.5 0 1 0 7 0 a3.5 3.5 0 1 0 -7 0zM112 199.5 a3.5 3.5 0 1 0 7 0 a3.5 3.5 0 1 0 -7 0z" fill="rgba(77, 149, 234, 1)"></path><path d="M1459.5 367.5L1417.5 367.5" stroke-width="3.5" stroke="rgba(77, 149, 234, 1)"></path><path d="M1456 367.5 a3.5 3.5 0 1 0 7 0 a3.5 3.5 0 1 0 -7 0zM1414 367.5 a3.5 3.5 0 1 0 7 0 a3.5 3.5 0 1 0 -7 0z" fill="rgba(77, 149, 234, 1)"></path><path d="M1123.5 472.5L1081.5 430.5L1081.5 367.5L934.5 220.5" stroke-width="3.5" stroke="rgba(77, 149, 234, 1)"></path><path d="M1120 472.5 a3.5 3.5 0 1 0 7 0 a3.5 3.5 0 1 0 -7 0zM931 220.5 a3.5 3.5 0 1 0 7 0 a3.5 3.5 0 1 0 -7 0z" fill="rgba(77, 149, 234, 1)"></path><path d="M892.5 283.5L892.5 178.5" stroke-width="3.5" stroke="rgba(77, 149, 234, 1)"></path><path d="M889 283.5 a3.5 3.5 0 1 0 7 0 a3.5 3.5 0 1 0 -7 0zM889 178.5 a3.5 3.5 0 1 0 7 0 a3.5 3.5 0 1 0 -7 0z" fill="rgba(77, 149, 234, 1)"></path><path d="M997.5 493.5L1039.5 493.5" stroke-width="3.5" stroke="rgba(77, 149, 234, 1)"></path><path d="M994 493.5 a3.5 3.5 0 1 0 7 0 a3.5 3.5 0 1 0 -7 0zM1036 493.5 a3.5 3.5 0 1 0 7 0 a3.5 3.5 0 1 0 -7 0z" fill="rgba(77, 149, 234, 1)"></path><path d="M829.5 220.5L871.5 178.5" stroke-width="3.5" stroke="rgba(77, 149, 234, 1)"></path><path d="M826 220.5 a3.5 3.5 0 1 0 7 0 a3.5 3.5 0 1 0 -7 0zM868 178.5 a3.5 3.5 0 1 0 7 0 a3.5 3.5 0 1 0 -7 0z" fill="rgba(77, 149, 234, 1)"></path><path d="M871.5 94.5L934.5 31.5" stroke-width="3.5" stroke="rgba(77, 149, 234, 1)"></path><path d="M868 94.5 a3.5 3.5 0 1 0 7 0 a3.5 3.5 0 1 0 -7 0zM931 31.5 a3.5 3.5 0 1 0 7 0 a3.5 3.5 0 1 0 -7 0z" fill="rgba(77, 149, 234, 1)"></path><path d="M1375.5 514.5L1333.5 472.5L1312.5 472.5L1270.5 514.5" stroke-width="3.5" stroke="rgba(77, 149, 234, 1)"></path><path d="M1372 514.5 a3.5 3.5 0 1 0 7 0 a3.5 3.5 0 1 0 -7 0zM1267 514.5 a3.5 3.5 0 1 0 7 0 a3.5 3.5 0 1 0 -7 0z" fill="rgba(77, 149, 234, 1)"></path><path d="M682.5 577.5L661.5 577.5L577.5 493.5" stroke-width="3.5" stroke="rgba(77, 149, 234, 1)"></path><path d="M679 577.5 a3.5 3.5 0 1 0 7 0 a3.5 3.5 0 1 0 -7 0zM574 493.5 a3.5 3.5 0 1 0 7 0 a3.5 3.5 0 1 0 -7 0z" fill="rgba(77, 149, 234, 1)"></path><path d="M52.5 31.5L31.5 10.5L10.5 10.5" stroke-width="3.5" stroke="rgba(77, 149, 234, 1)"></path><path d="M49 31.5 a3.5 3.5 0 1 0 7 0 a3.5 3.5 0 1 0 -7 0zM7 10.5 a3.5 3.5 0 1 0 7 0 a3.5 3.5 0 1 0 -7 0z" fill="rgba(77, 149, 234, 1)"></path><path d="M1228.5 661.5L1228.5 556.5" stroke-width="3.5" stroke="rgba(77, 149, 234, 1)"></path><path d="M1225 661.5 a3.5 3.5 0 1 0 7 0 a3.5 3.5 0 1 0 -7 0zM1225 556.5 a3.5 3.5 0 1 0 7 0 a3.5 3.5 0 1 0 -7 0z" fill="rgba(77, 149, 234, 1)"></path><path d="M745.5 388.5L787.5 388.5L829.5 430.5L829.5 493.5" stroke-width="3.5" stroke="rgba(77, 149, 234, 1)"></path><path d="M742 388.5 a3.5 3.5 0 1 0 7 0 a3.5 3.5 0 1 0 -7 0zM826 493.5 a3.5 3.5 0 1 0 7 0 a3.5 3.5 0 1 0 -7 0z" fill="rgba(77, 149, 234, 1)"></path><path d="M682.5 703.5L703.5 703.5L745.5 745.5" stroke-width="3.5" stroke="rgba(77, 149, 234, 1)"></path><path d="M679 703.5 a3.5 3.5 0 1 0 7 0 a3.5 3.5 0 1 0 -7 0zM742 745.5 a3.5 3.5 0 1 0 7 0 a3.5 3.5 0 1 0 -7 0z" fill="rgba(77, 149, 234, 1)"></path><path d="M283.5 283.5L325.5 283.5" stroke-width="3.5" stroke="rgba(77, 149, 234, 1)"></path><path d="M280 283.5 a3.5 3.5 0 1 0 7 0 a3.5 3.5 0 1 0 -7 0zM322 283.5 a3.5 3.5 0 1 0 7 0 a3.5 3.5 0 1 0 -7 0z" fill="rgba(77, 149, 234, 1)"></path><path d="M1312.5 892.5L1165.5 892.5" stroke-width="3.5" stroke="rgba(77, 149, 234, 1)"></path><path d="M1309 892.5 a3.5 3.5 0 1 0 7 0 a3.5 3.5 0 1 0 -7 0zM1162 892.5 a3.5 3.5 0 1 0 7 0 a3.5 3.5 0 1 0 -7 0z" fill="rgba(77, 149, 234, 1)"></path><path d="M766.5 73.5L808.5 73.5" stroke-width="3.5" stroke="rgba(77, 149, 234, 1)"></path><path d="M763 73.5 a3.5 3.5 0 1 0 7 0 a3.5 3.5 0 1 0 -7 0zM805 73.5 a3.5 3.5 0 1 0 7 0 a3.5 3.5 0 1 0 -7 0z" fill="rgba(77, 149, 234, 1)"></path><path d="M115.5 514.5L115.5 577.5L31.5 661.5" stroke-width="3.5" stroke="rgba(77, 149, 234, 1)"></path><path d="M112 514.5 a3.5 3.5 0 1 0 7 0 a3.5 3.5 0 1 0 -7 0zM28 661.5 a3.5 3.5 0 1 0 7 0 a3.5 3.5 0 1 0 -7 0z" fill="rgba(77, 149, 234, 1)"></path><path d="M1144.5 262.5L1249.5 262.5" stroke-width="3.5" stroke="rgba(77, 149, 234, 1)"></path><path d="M1141 262.5 a3.5 3.5 0 1 0 7 0 a3.5 3.5 0 1 0 -7 0zM1246 262.5 a3.5 3.5 0 1 0 7 0 a3.5 3.5 0 1 0 -7 0z" fill="rgba(77, 149, 234, 1)"></path><path d="M556.5 346.5L598.5 346.5" stroke-width="3.5" stroke="rgba(77, 149, 234, 1)"></path><path d="M553 346.5 a3.5 3.5 0 1 0 7 0 a3.5 3.5 0 1 0 -7 0zM595 346.5 a3.5 3.5 0 1 0 7 0 a3.5 3.5 0 1 0 -7 0z" fill="rgba(77, 149, 234, 1)"></path><path d="M283.5 367.5L304.5 346.5L325.5 346.5" stroke-width="3.5" stroke="rgba(77, 149, 234, 1)"></path><path d="M280 367.5 a3.5 3.5 0 1 0 7 0 a3.5 3.5 0 1 0 -7 0zM322 346.5 a3.5 3.5 0 1 0 7 0 a3.5 3.5 0 1 0 -7 0z" fill="rgba(77, 149, 234, 1)"></path><path d="M1249.5 199.5L1249.5 220.5L1375.5 346.5" stroke-width="3.5" stroke="rgba(77, 149, 234, 1)"></path><path d="M1246 199.5 a3.5 3.5 0 1 0 7 0 a3.5 3.5 0 1 0 -7 0zM1372 346.5 a3.5 3.5 0 1 0 7 0 a3.5 3.5 0 1 0 -7 0z" fill="rgba(77, 149, 234, 1)"></path><path d="M1417.5 283.5L1375.5 241.5L1291.5 241.5L1270.5 220.5L1270.5 178.5" stroke-width="3.5" stroke="rgba(77, 149, 234, 1)"></path><path d="M1414 283.5 a3.5 3.5 0 1 0 7 0 a3.5 3.5 0 1 0 -7 0zM1267 178.5 a3.5 3.5 0 1 0 7 0 a3.5 3.5 0 1 0 -7 0z" fill="rgba(77, 149, 234, 1)"></path><path d="M388.5 724.5L451.5 724.5" stroke-width="3.5" stroke="rgba(77, 149, 234, 1)"></path><path d="M385 724.5 a3.5 3.5 0 1 0 7 0 a3.5 3.5 0 1 0 -7 0zM448 724.5 a3.5 3.5 0 1 0 7 0 a3.5 3.5 0 1 0 -7 0z" fill="rgba(77, 149, 234, 1)"></path><path d="M913.5 73.5L934.5 52.5L1102.5 52.5" stroke-width="3.5" stroke="rgba(77, 149, 234, 1)"></path><path d="M910 73.5 a3.5 3.5 0 1 0 7 0 a3.5 3.5 0 1 0 -7 0zM1099 52.5 a3.5 3.5 0 1 0 7 0 a3.5 3.5 0 1 0 -7 0z" fill="rgba(77, 149, 234, 1)"></path><path d="M745.5 157.5L787.5 115.5L829.5 115.5" stroke-width="3.5" stroke="rgba(77, 149, 234, 1)"></path><path d="M742 157.5 a3.5 3.5 0 1 0 7 0 a3.5 3.5 0 1 0 -7 0zM826 115.5 a3.5 3.5 0 1 0 7 0 a3.5 3.5 0 1 0 -7 0z" fill="rgba(77, 149, 234, 1)"></path><path d="M1270.5 52.5L1291.5 52.5L1312.5 73.5" stroke-width="3.5" stroke="rgba(77, 149, 234, 1)"></path><path d="M1267 52.5 a3.5 3.5 0 1 0 7 0 a3.5 3.5 0 1 0 -7 0zM1309 73.5 a3.5 3.5 0 1 0 7 0 a3.5 3.5 0 1 0 -7 0z" fill="rgba(77, 149, 234, 1)"></path><path d="M325.5 619.5L304.5 619.5L283.5 640.5" stroke-width="3.5" stroke="rgba(77, 149, 234, 1)"></path><path d="M322 619.5 a3.5 3.5 0 1 0 7 0 a3.5 3.5 0 1 0 -7 0zM280 640.5 a3.5 3.5 0 1 0 7 0 a3.5 3.5 0 1 0 -7 0z" fill="rgba(77, 149, 234, 1)"></path><path d="M157.5 304.5L178.5 325.5L220.5 325.5L304.5 241.5L325.5 241.5" stroke-width="3.5" stroke="rgba(77, 149, 234, 1)"></path><path d="M154 304.5 a3.5 3.5 0 1 0 7 0 a3.5 3.5 0 1 0 -7 0zM322 241.5 a3.5 3.5 0 1 0 7 0 a3.5 3.5 0 1 0 -7 0z" fill="rgba(77, 149, 234, 1)"></path><path d="M1501.5 262.5L1480.5 283.5L1459.5 283.5L1417.5 241.5L1396.5 241.5" stroke-width="3.5" stroke="rgba(77, 149, 234, 1)"></path><path d="M1498 262.5 a3.5 3.5 0 1 0 7 0 a3.5 3.5 0 1 0 -7 0zM1393 241.5 a3.5 3.5 0 1 0 7 0 a3.5 3.5 0 1 0 -7 0z" fill="rgba(77, 149, 234, 1)"></path><path d="M1039.5 556.5L997.5 556.5L955.5 598.5" stroke-width="3.5" stroke="rgba(77, 149, 234, 1)"></path><path d="M1036 556.5 a3.5 3.5 0 1 0 7 0 a3.5 3.5 0 1 0 -7 0zM952 598.5 a3.5 3.5 0 1 0 7 0 a3.5 3.5 0 1 0 -7 0z" fill="rgba(77, 149, 234, 1)"></path><path d="M1291.5 346.5L1270.5 346.5L1249.5 325.5" stroke-width="3.5" stroke="rgba(77, 149, 234, 1)"></path><path d="M1288 346.5 a3.5 3.5 0 1 0 7 0 a3.5 3.5 0 1 0 -7 0zM1246 325.5 a3.5 3.5 0 1 0 7 0 a3.5 3.5 0 1 0 -7 0z" fill="rgba(77, 149, 234, 1)"></path><path d="M1480.5 640.5L1459.5 619.5L1459.5 577.5" stroke-width="3.5" stroke="rgba(77, 149, 234, 1)"></path><path d="M1477 640.5 a3.5 3.5 0 1 0 7 0 a3.5 3.5 0 1 0 -7 0zM1456 577.5 a3.5 3.5 0 1 0 7 0 a3.5 3.5 0 1 0 -7 0z" fill="rgba(77, 149, 234, 1)"></path><path d="M430.5 787.5L388.5 787.5" stroke-width="3.5" stroke="rgba(77, 149, 234, 1)"></path><path d="M427 787.5 a3.5 3.5 0 1 0 7 0 a3.5 3.5 0 1 0 -7 0zM385 787.5 a3.5 3.5 0 1 0 7 0 a3.5 3.5 0 1 0 -7 0z" fill="rgba(77, 149, 234, 1)"></path><path d="M997.5 409.5L1039.5 409.5" stroke-width="3.5" stroke="rgba(77, 149, 234, 1)"></path><path d="M994 409.5 a3.5 3.5 0 1 0 7 0 a3.5 3.5 0 1 0 -7 0zM1036 409.5 a3.5 3.5 0 1 0 7 0 a3.5 3.5 0 1 0 -7 0z" fill="rgba(77, 149, 234, 1)"></path><path d="M1501.5 787.5L1501.5 829.5" stroke-width="3.5" stroke="rgba(77, 149, 234, 1)"></path><path d="M1498 787.5 a3.5 3.5 0 1 0 7 0 a3.5 3.5 0 1 0 -7 0zM1498 829.5 a3.5 3.5 0 1 0 7 0 a3.5 3.5 0 1 0 -7 0z" fill="rgba(77, 149, 234, 1)"></path><path d="M1396.5 94.5L1396.5 157.5L1375.5 178.5" stroke-width="3.5" stroke="rgba(77, 149, 234, 1)"></path><path d="M1393 94.5 a3.5 3.5 0 1 0 7 0 a3.5 3.5 0 1 0 -7 0zM1372 178.5 a3.5 3.5 0 1 0 7 0 a3.5 3.5 0 1 0 -7 0z" fill="rgba(77, 149, 234, 1)"></path><path d="M388.5 430.5L367.5 451.5L367.5 514.5" stroke-width="3.5" stroke="rgba(77, 149, 234, 1)"></path><path d="M385 430.5 a3.5 3.5 0 1 0 7 0 a3.5 3.5 0 1 0 -7 0zM364 514.5 a3.5 3.5 0 1 0 7 0 a3.5 3.5 0 1 0 -7 0z" fill="rgba(77, 149, 234, 1)"></path><path d="M94.5 514.5L94.5 472.5" stroke-width="3.5" stroke="rgba(77, 149, 234, 1)"></path><path d="M91 514.5 a3.5 3.5 0 1 0 7 0 a3.5 3.5 0 1 0 -7 0zM91 472.5 a3.5 3.5 0 1 0 7 0 a3.5 3.5 0 1 0 -7 0z" fill="rgba(77, 149, 234, 1)"></path><path d="M556.5 556.5L535.5 535.5L535.5 514.5" stroke-width="3.5" stroke="rgba(77, 149, 234, 1)"></path><path d="M553 556.5 a3.5 3.5 0 1 0 7 0 a3.5 3.5 0 1 0 -7 0zM532 514.5 a3.5 3.5 0 1 0 7 0 a3.5 3.5 0 1 0 -7 0z" fill="rgba(77, 149, 234, 1)"></path><path d="M451.5 94.5L472.5 73.5L493.5 73.5" stroke-width="3.5" stroke="rgba(77, 149, 234, 1)"></path><path d="M448 94.5 a3.5 3.5 0 1 0 7 0 a3.5 3.5 0 1 0 -7 0zM490 73.5 a3.5 3.5 0 1 0 7 0 a3.5 3.5 0 1 0 -7 0z" fill="rgba(77, 149, 234, 1)"></path><path d="M493.5 388.5L409.5 388.5L367.5 430.5" stroke-width="3.5" stroke="rgba(77, 149, 234, 1)"></path><path d="M490 388.5 a3.5 3.5 0 1 0 7 0 a3.5 3.5 0 1 0 -7 0zM364 430.5 a3.5 3.5 0 1 0 7 0 a3.5 3.5 0 1 0 -7 0z" fill="rgba(77, 149, 234, 1)"></path><path d="M1480.5 262.5L1459.5 262.5L1438.5 241.5" stroke-width="3.5" stroke="rgba(77, 149, 234, 1)"></path><path d="M1477 262.5 a3.5 3.5 0 1 0 7 0 a3.5 3.5 0 1 0 -7 0zM1435 241.5 a3.5 3.5 0 1 0 7 0 a3.5 3.5 0 1 0 -7 0z" fill="rgba(77, 149, 234, 1)"></path><path d="M1060.5 241.5L1081.5 262.5L1102.5 262.5L1207.5 157.5L1207.5 136.5L1165.5 94.5L1144.5 94.5L1123.5 115.5" stroke-width="3.5" stroke="rgba(77, 149, 234, 1)"></path><path d="M1057 241.5 a3.5 3.5 0 1 0 7 0 a3.5 3.5 0 1 0 -7 0zM1120 115.5 a3.5 3.5 0 1 0 7 0 a3.5 3.5 0 1 0 -7 0z" fill="rgba(77, 149, 234, 1)"></path><path d="M850.5 703.5L850.5 640.5L829.5 619.5L829.5 577.5" stroke-width="3.5" stroke="rgba(77, 149, 234, 1)"></path><path d="M847 703.5 a3.5 3.5 0 1 0 7 0 a3.5 3.5 0 1 0 -7 0zM826 577.5 a3.5 3.5 0 1 0 7 0 a3.5 3.5 0 1 0 -7 0z" fill="rgba(77, 149, 234, 1)"></path><path d="M808.5 304.5L808.5 199.5" stroke-width="3.5" stroke="rgba(77, 149, 234, 1)"></path><path d="M805 304.5 a3.5 3.5 0 1 0 7 0 a3.5 3.5 0 1 0 -7 0zM805 199.5 a3.5 3.5 0 1 0 7 0 a3.5 3.5 0 1 0 -7 0z" fill="rgba(77, 149, 234, 1)"></path><path d="M682.5 745.5L619.5 745.5" stroke-width="3.5" stroke="rgba(77, 149, 234, 1)"></path><path d="M679 745.5 a3.5 3.5 0 1 0 7 0 a3.5 3.5 0 1 0 -7 0zM616 745.5 a3.5 3.5 0 1 0 7 0 a3.5 3.5 0 1 0 -7 0z" fill="rgba(77, 149, 234, 1)"></path><path d="M577.5 808.5L598.5 787.5L661.5 787.5" stroke-width="3.5" stroke="rgba(77, 149, 234, 1)"></path><path d="M574 808.5 a3.5 3.5 0 1 0 7 0 a3.5 3.5 0 1 0 -7 0zM658 787.5 a3.5 3.5 0 1 0 7 0 a3.5 3.5 0 1 0 -7 0z" fill="rgba(77, 149, 234, 1)"></path><path d="M178.5 367.5L262.5 367.5" stroke-width="3.5" stroke="rgba(77, 149, 234, 1)"></path><path d="M175 367.5 a3.5 3.5 0 1 0 7 0 a3.5 3.5 0 1 0 -7 0zM259 367.5 a3.5 3.5 0 1 0 7 0 a3.5 3.5 0 1 0 -7 0z" fill="rgba(77, 149, 234, 1)"></path><path d="M556.5 514.5L577.5 535.5L577.5 556.5" stroke-width="3.5" stroke="rgba(77, 149, 234, 1)"></path><path d="M553 514.5 a3.5 3.5 0 1 0 7 0 a3.5 3.5 0 1 0 -7 0zM574 556.5 a3.5 3.5 0 1 0 7 0 a3.5 3.5 0 1 0 -7 0z" fill="rgba(77, 149, 234, 1)"></path><path d="M472.5 304.5L472.5 346.5" stroke-width="3.5" stroke="rgba(77, 149, 234, 1)"></path><path d="M469 304.5 a3.5 3.5 0 1 0 7 0 a3.5 3.5 0 1 0 -7 0zM469 346.5 a3.5 3.5 0 1 0 7 0 a3.5 3.5 0 1 0 -7 0z" fill="rgba(77, 149, 234, 1)"></path><path d="M724.5 850.5L745.5 871.5L871.5 871.5" stroke-width="3.5" stroke="rgba(77, 149, 234, 1)"></path><path d="M721 850.5 a3.5 3.5 0 1 0 7 0 a3.5 3.5 0 1 0 -7 0zM868 871.5 a3.5 3.5 0 1 0 7 0 a3.5 3.5 0 1 0 -7 0z" fill="rgba(77, 149, 234, 1)"></path><path d="M115.5 808.5L157.5 766.5" stroke-width="3.5" stroke="rgba(77, 149, 234, 1)"></path><path d="M112 808.5 a3.5 3.5 0 1 0 7 0 a3.5 3.5 0 1 0 -7 0zM154 766.5 a3.5 3.5 0 1 0 7 0 a3.5 3.5 0 1 0 -7 0z" fill="rgba(77, 149, 234, 1)"></path><path d="M31.5 115.5L31.5 157.5" stroke-width="3.5" stroke="rgba(77, 149, 234, 1)"></path><path d="M28 115.5 a3.5 3.5 0 1 0 7 0 a3.5 3.5 0 1 0 -7 0zM28 157.5 a3.5 3.5 0 1 0 7 0 a3.5 3.5 0 1 0 -7 0z" fill="rgba(77, 149, 234, 1)"></path><path d="M787.5 409.5L787.5 430.5L724.5 493.5" stroke-width="3.5" stroke="rgba(77, 149, 234, 1)"></path><path d="M784 409.5 a3.5 3.5 0 1 0 7 0 a3.5 3.5 0 1 0 -7 0zM721 493.5 a3.5 3.5 0 1 0 7 0 a3.5 3.5 0 1 0 -7 0z" fill="rgba(77, 149, 234, 1)"></path><path d="M661.5 724.5L682.5 724.5L703.5 745.5L724.5 745.5" stroke-width="3.5" stroke="rgba(77, 149, 234, 1)"></path><path d="M658 724.5 a3.5 3.5 0 1 0 7 0 a3.5 3.5 0 1 0 -7 0zM721 745.5 a3.5 3.5 0 1 0 7 0 a3.5 3.5 0 1 0 -7 0z" fill="rgba(77, 149, 234, 1)"></path><path d="M1270.5 619.5L1249.5 598.5L1249.5 577.5" stroke-width="3.5" stroke="rgba(77, 149, 234, 1)"></path><path d="M1267 619.5 a3.5 3.5 0 1 0 7 0 a3.5 3.5 0 1 0 -7 0zM1246 577.5 a3.5 3.5 0 1 0 7 0 a3.5 3.5 0 1 0 -7 0z" fill="rgba(77, 149, 234, 1)"></path><path d="M997.5 514.5L1039.5 514.5" stroke-width="3.5" stroke="rgba(77, 149, 234, 1)"></path><path d="M994 514.5 a3.5 3.5 0 1 0 7 0 a3.5 3.5 0 1 0 -7 0zM1036 514.5 a3.5 3.5 0 1 0 7 0 a3.5 3.5 0 1 0 -7 0z" fill="rgba(77, 149, 234, 1)"></path><path d="M955.5 157.5L976.5 178.5L1018.5 178.5L1039.5 199.5" stroke-width="3.5" stroke="rgba(77, 149, 234, 1)"></path><path d="M952 157.5 a3.5 3.5 0 1 0 7 0 a3.5 3.5 0 1 0 -7 0zM1036 199.5 a3.5 3.5 0 1 0 7 0 a3.5 3.5 0 1 0 -7 0z" fill="rgba(77, 149, 234, 1)"></path><path d="M1417.5 10.5L1459.5 52.5L1501.5 52.5" stroke-width="3.5" stroke="rgba(77, 149, 234, 1)"></path><path d="M1414 10.5 a3.5 3.5 0 1 0 7 0 a3.5 3.5 0 1 0 -7 0zM1498 52.5 a3.5 3.5 0 1 0 7 0 a3.5 3.5 0 1 0 -7 0z" fill="rgba(77, 149, 234, 1)"></path><path d="M1501.5 136.5L1459.5 136.5L1375.5 52.5" stroke-width="3.5" stroke="rgba(77, 149, 234, 1)"></path><path d="M1498 136.5 a3.5 3.5 0 1 0 7 0 a3.5 3.5 0 1 0 -7 0zM1372 52.5 a3.5 3.5 0 1 0 7 0 a3.5 3.5 0 1 0 -7 0z" fill="rgba(77, 149, 234, 1)"></path><path d="M283.5 52.5L283.5 10.5" stroke-width="3.5" stroke="rgba(77, 149, 234, 1)"></path><path d="M280 52.5 a3.5 3.5 0 1 0 7 0 a3.5 3.5 0 1 0 -7 0zM280 10.5 a3.5 3.5 0 1 0 7 0 a3.5 3.5 0 1 0 -7 0z" fill="rgba(77, 149, 234, 1)"></path><path d="M220.5 52.5L262.5 52.5" stroke-width="3.5" stroke="rgba(77, 149, 234, 1)"></path><path d="M217 52.5 a3.5 3.5 0 1 0 7 0 a3.5 3.5 0 1 0 -7 0zM259 52.5 a3.5 3.5 0 1 0 7 0 a3.5 3.5 0 1 0 -7 0z" fill="rgba(77, 149, 234, 1)"></path><path d="M304.5 850.5L304.5 892.5" stroke-width="3.5" stroke="rgba(77, 149, 234, 1)"></path><path d="M301 850.5 a3.5 3.5 0 1 0 7 0 a3.5 3.5 0 1 0 -7 0zM301 892.5 a3.5 3.5 0 1 0 7 0 a3.5 3.5 0 1 0 -7 0z" fill="rgba(77, 149, 234, 1)"></path><path d="M157.5 871.5L136.5 871.5L115.5 850.5L115.5 829.5L136.5 808.5L262.5 808.5L283.5 787.5" stroke-width="3.5" stroke="rgba(77, 149, 234, 1)"></path><path d="M154 871.5 a3.5 3.5 0 1 0 7 0 a3.5 3.5 0 1 0 -7 0zM280 787.5 a3.5 3.5 0 1 0 7 0 a3.5 3.5 0 1 0 -7 0z" fill="rgba(77, 149, 234, 1)"></path><path d="M262.5 31.5L220.5 31.5L199.5 10.5" stroke-width="3.5" stroke="rgba(77, 149, 234, 1)"></path><path d="M259 31.5 a3.5 3.5 0 1 0 7 0 a3.5 3.5 0 1 0 -7 0zM196 10.5 a3.5 3.5 0 1 0 7 0 a3.5 3.5 0 1 0 -7 0z" fill="rgba(77, 149, 234, 1)"></path><path d="M451.5 829.5L451.5 808.5L472.5 787.5L535.5 787.5" stroke-width="3.5" stroke="rgba(77, 149, 234, 1)"></path><path d="M448 829.5 a3.5 3.5 0 1 0 7 0 a3.5 3.5 0 1 0 -7 0zM532 787.5 a3.5 3.5 0 1 0 7 0 a3.5 3.5 0 1 0 -7 0z" fill="rgba(77, 149, 234, 1)"></path><path d="M976.5 73.5L997.5 94.5L1102.5 94.5" stroke-width="3.5" stroke="rgba(77, 149, 234, 1)"></path><path d="M973 73.5 a3.5 3.5 0 1 0 7 0 a3.5 3.5 0 1 0 -7 0zM1099 94.5 a3.5 3.5 0 1 0 7 0 a3.5 3.5 0 1 0 -7 0z" fill="rgba(77, 149, 234, 1)"></path><path d="M1270.5 724.5L1291.5 745.5L1312.5 745.5" stroke-width="3.5" stroke="rgba(77, 149, 234, 1)"></path><path d="M1267 724.5 a3.5 3.5 0 1 0 7 0 a3.5 3.5 0 1 0 -7 0zM1309 745.5 a3.5 3.5 0 1 0 7 0 a3.5 3.5 0 1 0 -7 0z" fill="rgba(77, 149, 234, 1)"></path><path d="M871.5 787.5L850.5 787.5L829.5 808.5" stroke-width="3.5" stroke="rgba(77, 149, 234, 1)"></path><path d="M868 787.5 a3.5 3.5 0 1 0 7 0 a3.5 3.5 0 1 0 -7 0zM826 808.5 a3.5 3.5 0 1 0 7 0 a3.5 3.5 0 1 0 -7 0z" fill="rgba(77, 149, 234, 1)"></path><path d="M1102.5 619.5L1102.5 598.5L1081.5 577.5L1039.5 577.5L1018.5 598.5L976.5 598.5" stroke-width="3.5" stroke="rgba(77, 149, 234, 1)"></path><path d="M1099 619.5 a3.5 3.5 0 1 0 7 0 a3.5 3.5 0 1 0 -7 0zM973 598.5 a3.5 3.5 0 1 0 7 0 a3.5 3.5 0 1 0 -7 0z" fill="rgba(77, 149, 234, 1)"></path><path d="M1312.5 640.5L1270.5 682.5" stroke-width="3.5" stroke="rgba(77, 149, 234, 1)"></path><path d="M1309 640.5 a3.5 3.5 0 1 0 7 0 a3.5 3.5 0 1 0 -7 0zM1267 682.5 a3.5 3.5 0 1 0 7 0 a3.5 3.5 0 1 0 -7 0z" fill="rgba(77, 149, 234, 1)"></path><path d="M682.5 325.5L682.5 283.5" stroke-width="3.5" stroke="rgba(77, 149, 234, 1)"></path><path d="M679 325.5 a3.5 3.5 0 1 0 7 0 a3.5 3.5 0 1 0 -7 0zM679 283.5 a3.5 3.5 0 1 0 7 0 a3.5 3.5 0 1 0 -7 0z" fill="rgba(77, 149, 234, 1)"></path><path d="M619.5 136.5L619.5 94.5" stroke-width="3.5" stroke="rgba(77, 149, 234, 1)"></path><path d="M616 136.5 a3.5 3.5 0 1 0 7 0 a3.5 3.5 0 1 0 -7 0zM616 94.5 a3.5 3.5 0 1 0 7 0 a3.5 3.5 0 1 0 -7 0z" fill="rgba(77, 149, 234, 1)"></path><path d="M1333.5 808.5L1375.5 808.5" stroke-width="3.5" stroke="rgba(77, 149, 234, 1)"></path><path d="M1330 808.5 a3.5 3.5 0 1 0 7 0 a3.5 3.5 0 1 0 -7 0zM1372 808.5 a3.5 3.5 0 1 0 7 0 a3.5 3.5 0 1 0 -7 0z" fill="rgba(77, 149, 234, 1)"></path><path d="M346.5 640.5L325.5 661.5L325.5 682.5" stroke-width="3.5" stroke="rgba(77, 149, 234, 1)"></path><path d="M343 640.5 a3.5 3.5 0 1 0 7 0 a3.5 3.5 0 1 0 -7 0zM322 682.5 a3.5 3.5 0 1 0 7 0 a3.5 3.5 0 1 0 -7 0z" fill="rgba(77, 149, 234, 1)"></path><path d="M598.5 808.5L661.5 808.5" stroke-width="3.5" stroke="rgba(77, 149, 234, 1)"></path><path d="M595 808.5 a3.5 3.5 0 1 0 7 0 a3.5 3.5 0 1 0 -7 0zM658 808.5 a3.5 3.5 0 1 0 7 0 a3.5 3.5 0 1 0 -7 0z" fill="rgba(77, 149, 234, 1)"></path><path d="M115.5 661.5L94.5 661.5L52.5 703.5L52.5 745.5" stroke-width="3.5" stroke="rgba(77, 149, 234, 1)"></path><path d="M112 661.5 a3.5 3.5 0 1 0 7 0 a3.5 3.5 0 1 0 -7 0zM49 745.5 a3.5 3.5 0 1 0 7 0 a3.5 3.5 0 1 0 -7 0z" fill="rgba(77, 149, 234, 1)"></path><path d="M157.5 577.5L136.5 556.5L136.5 472.5" stroke-width="3.5" stroke="rgba(77, 149, 234, 1)"></path><path d="M154 577.5 a3.5 3.5 0 1 0 7 0 a3.5 3.5 0 1 0 -7 0zM133 472.5 a3.5 3.5 0 1 0 7 0 a3.5 3.5 0 1 0 -7 0z" fill="rgba(77, 149, 234, 1)"></path><path d="M829.5 262.5L829.5 241.5L871.5 199.5" stroke-width="3.5" stroke="rgba(77, 149, 234, 1)"></path><path d="M826 262.5 a3.5 3.5 0 1 0 7 0 a3.5 3.5 0 1 0 -7 0zM868 199.5 a3.5 3.5 0 1 0 7 0 a3.5 3.5 0 1 0 -7 0z" fill="rgba(77, 149, 234, 1)"></path><path d="M1144.5 535.5L1123.5 535.5L1102.5 556.5" stroke-width="3.5" stroke="rgba(77, 149, 234, 1)"></path><path d="M1141 535.5 a3.5 3.5 0 1 0 7 0 a3.5 3.5 0 1 0 -7 0zM1099 556.5 a3.5 3.5 0 1 0 7 0 a3.5 3.5 0 1 0 -7 0z" fill="rgba(77, 149, 234, 1)"></path><path d="M31.5 598.5L31.5 535.5L73.5 493.5" stroke-width="3.5" stroke="rgba(77, 149, 234, 1)"></path><path d="M28 598.5 a3.5 3.5 0 1 0 7 0 a3.5 3.5 0 1 0 -7 0zM70 493.5 a3.5 3.5 0 1 0 7 0 a3.5 3.5 0 1 0 -7 0z" fill="rgba(77, 149, 234, 1)"></path><path d="M1438.5 850.5L1459.5 850.5L1480.5 871.5" stroke-width="3.5" stroke="rgba(77, 149, 234, 1)"></path><path d="M1435 850.5 a3.5 3.5 0 1 0 7 0 a3.5 3.5 0 1 0 -7 0zM1477 871.5 a3.5 3.5 0 1 0 7 0 a3.5 3.5 0 1 0 -7 0z" fill="rgba(77, 149, 234, 1)"></path><path d="M1144.5 199.5L1186.5 157.5L1186.5 136.5L1165.5 115.5L1144.5 115.5" stroke-width="3.5" stroke="rgba(77, 149, 234, 1)"></path><path d="M1141 199.5 a3.5 3.5 0 1 0 7 0 a3.5 3.5 0 1 0 -7 0zM1141 115.5 a3.5 3.5 0 1 0 7 0 a3.5 3.5 0 1 0 -7 0z" fill="rgba(77, 149, 234, 1)"></path><path d="M73.5 157.5L178.5 157.5L199.5 136.5" stroke-width="3.5" stroke="rgba(77, 149, 234, 1)"></path><path d="M70 157.5 a3.5 3.5 0 1 0 7 0 a3.5 3.5 0 1 0 -7 0zM196 136.5 a3.5 3.5 0 1 0 7 0 a3.5 3.5 0 1 0 -7 0z" fill="rgba(77, 149, 234, 1)"></path><path d="M871.5 262.5L871.5 220.5" stroke-width="3.5" stroke="rgba(77, 149, 234, 1)"></path><path d="M868 262.5 a3.5 3.5 0 1 0 7 0 a3.5 3.5 0 1 0 -7 0zM868 220.5 a3.5 3.5 0 1 0 7 0 a3.5 3.5 0 1 0 -7 0z" fill="rgba(77, 149, 234, 1)"></path><path d="M535.5 31.5L388.5 31.5L367.5 10.5" stroke-width="3.5" stroke="rgba(77, 149, 234, 1)"></path><path d="M532 31.5 a3.5 3.5 0 1 0 7 0 a3.5 3.5 0 1 0 -7 0zM364 10.5 a3.5 3.5 0 1 0 7 0 a3.5 3.5 0 1 0 -7 0z" fill="rgba(77, 149, 234, 1)"></path><path d="M661.5 31.5L661.5 73.5" stroke-width="3.5" stroke="rgba(77, 149, 234, 1)"></path><path d="M658 31.5 a3.5 3.5 0 1 0 7 0 a3.5 3.5 0 1 0 -7 0zM658 73.5 a3.5 3.5 0 1 0 7 0 a3.5 3.5 0 1 0 -7 0z" fill="rgba(77, 149, 234, 1)"></path><path d="M367.5 892.5L325.5 850.5L325.5 829.5" stroke-width="3.5" stroke="rgba(77, 149, 234, 1)"></path><path d="M364 892.5 a3.5 3.5 0 1 0 7 0 a3.5 3.5 0 1 0 -7 0zM322 829.5 a3.5 3.5 0 1 0 7 0 a3.5 3.5 0 1 0 -7 0z" fill="rgba(77, 149, 234, 1)"></path><path d="M262.5 430.5L241.5 430.5L220.5 409.5" stroke-width="3.5" stroke="rgba(77, 149, 234, 1)"></path><path d="M259 430.5 a3.5 3.5 0 1 0 7 0 a3.5 3.5 0 1 0 -7 0zM217 409.5 a3.5 3.5 0 1 0 7 0 a3.5 3.5 0 1 0 -7 0z" fill="rgba(77, 149, 234, 1)"></path><path d="M367.5 304.5L367.5 262.5" stroke-width="3.5" stroke="rgba(77, 149, 234, 1)"></path><path d="M364 304.5 a3.5 3.5 0 1 0 7 0 a3.5 3.5 0 1 0 -7 0zM364 262.5 a3.5 3.5 0 1 0 7 0 a3.5 3.5 0 1 0 -7 0z" fill="rgba(77, 149, 234, 1)"></path><path d="M1333.5 10.5L1270.5 10.5" stroke-width="3.5" stroke="rgba(77, 149, 234, 1)"></path><path d="M1330 10.5 a3.5 3.5 0 1 0 7 0 a3.5 3.5 0 1 0 -7 0zM1267 10.5 a3.5 3.5 0 1 0 7 0 a3.5 3.5 0 1 0 -7 0z" fill="rgba(77, 149, 234, 1)"></path><path d="M241.5 283.5L262.5 262.5L262.5 241.5" stroke-width="3.5" stroke="rgba(77, 149, 234, 1)"></path><path d="M238 283.5 a3.5 3.5 0 1 0 7 0 a3.5 3.5 0 1 0 -7 0zM259 241.5 a3.5 3.5 0 1 0 7 0 a3.5 3.5 0 1 0 -7 0z" fill="rgba(77, 149, 234, 1)"></path><path d="M1312.5 31.5L1270.5 31.5" stroke-width="3.5" stroke="rgba(77, 149, 234, 1)"></path><path d="M1309 31.5 a3.5 3.5 0 1 0 7 0 a3.5 3.5 0 1 0 -7 0zM1267 31.5 a3.5 3.5 0 1 0 7 0 a3.5 3.5 0 1 0 -7 0z" fill="rgba(77, 149, 234, 1)"></path><path d="M241.5 850.5L241.5 892.5" stroke-width="3.5" stroke="rgba(77, 149, 234, 1)"></path><path d="M238 850.5 a3.5 3.5 0 1 0 7 0 a3.5 3.5 0 1 0 -7 0zM238 892.5 a3.5 3.5 0 1 0 7 0 a3.5 3.5 0 1 0 -7 0z" fill="rgba(77, 149, 234, 1)"></path><path d="M1144.5 430.5L1123.5 409.5L1123.5 346.5" stroke-width="3.5" stroke="rgba(77, 149, 234, 1)"></path><path d="M1141 430.5 a3.5 3.5 0 1 0 7 0 a3.5 3.5 0 1 0 -7 0zM1120 346.5 a3.5 3.5 0 1 0 7 0 a3.5 3.5 0 1 0 -7 0z" fill="rgba(77, 149, 234, 1)"></path><path d="M220.5 787.5L157.5 787.5" stroke-width="3.5" stroke="rgba(77, 149, 234, 1)"></path><path d="M217 787.5 a3.5 3.5 0 1 0 7 0 a3.5 3.5 0 1 0 -7 0zM154 787.5 a3.5 3.5 0 1 0 7 0 a3.5 3.5 0 1 0 -7 0z" fill="rgba(77, 149, 234, 1)"></path><path d="M745.5 577.5L745.5 640.5" stroke-width="3.5" stroke="rgba(77, 149, 234, 1)"></path><path d="M742 577.5 a3.5 3.5 0 1 0 7 0 a3.5 3.5 0 1 0 -7 0zM742 640.5 a3.5 3.5 0 1 0 7 0 a3.5 3.5 0 1 0 -7 0z" fill="rgba(77, 149, 234, 1)"></path><path d="M934.5 283.5L976.5 283.5L997.5 304.5" stroke-width="3.5" stroke="rgba(77, 149, 234, 1)"></path><path d="M931 283.5 a3.5 3.5 0 1 0 7 0 a3.5 3.5 0 1 0 -7 0zM994 304.5 a3.5 3.5 0 1 0 7 0 a3.5 3.5 0 1 0 -7 0z" fill="rgba(77, 149, 234, 1)"></path><path d="M829.5 745.5L871.5 745.5" stroke-width="3.5" stroke="rgba(77, 149, 234, 1)"></path><path d="M826 745.5 a3.5 3.5 0 1 0 7 0 a3.5 3.5 0 1 0 -7 0zM868 745.5 a3.5 3.5 0 1 0 7 0 a3.5 3.5 0 1 0 -7 0z" fill="rgba(77, 149, 234, 1)"></path><path d="M241.5 829.5L220.5 850.5L136.5 850.5" stroke-width="3.5" stroke="rgba(77, 149, 234, 1)"></path><path d="M238 829.5 a3.5 3.5 0 1 0 7 0 a3.5 3.5 0 1 0 -7 0zM133 850.5 a3.5 3.5 0 1 0 7 0 a3.5 3.5 0 1 0 -7 0z" fill="rgba(77, 149, 234, 1)"></path><path d="M850.5 535.5L934.5 535.5" stroke-width="3.5" stroke="rgba(77, 149, 234, 1)"></path><path d="M847 535.5 a3.5 3.5 0 1 0 7 0 a3.5 3.5 0 1 0 -7 0zM931 535.5 a3.5 3.5 0 1 0 7 0 a3.5 3.5 0 1 0 -7 0z" fill="rgba(77, 149, 234, 1)"></path><path d="M1249.5 724.5L1228.5 745.5L1186.5 745.5" stroke-width="3.5" stroke="rgba(77, 149, 234, 1)"></path><path d="M1246 724.5 a3.5 3.5 0 1 0 7 0 a3.5 3.5 0 1 0 -7 0zM1183 745.5 a3.5 3.5 0 1 0 7 0 a3.5 3.5 0 1 0 -7 0z" fill="rgba(77, 149, 234, 1)"></path><path d="M745.5 514.5L787.5 514.5L808.5 493.5" stroke-width="3.5" stroke="rgba(77, 149, 234, 1)"></path><path d="M742 514.5 a3.5 3.5 0 1 0 7 0 a3.5 3.5 0 1 0 -7 0zM805 493.5 a3.5 3.5 0 1 0 7 0 a3.5 3.5 0 1 0 -7 0z" fill="rgba(77, 149, 234, 1)"></path><path d="M535.5 577.5L556.5 598.5L640.5 598.5" stroke-width="3.5" stroke="rgba(77, 149, 234, 1)"></path><path d="M532 577.5 a3.5 3.5 0 1 0 7 0 a3.5 3.5 0 1 0 -7 0zM637 598.5 a3.5 3.5 0 1 0 7 0 a3.5 3.5 0 1 0 -7 0z" fill="rgba(77, 149, 234, 1)"></path><path d="M325.5 10.5L367.5 52.5" stroke-width="3.5" stroke="rgba(77, 149, 234, 1)"></path><path d="M322 10.5 a3.5 3.5 0 1 0 7 0 a3.5 3.5 0 1 0 -7 0zM364 52.5 a3.5 3.5 0 1 0 7 0 a3.5 3.5 0 1 0 -7 0z" fill="rgba(77, 149, 234, 1)"></path><path d="M1501.5 31.5L1480.5 10.5L1438.5 10.5" stroke-width="3.5" stroke="rgba(77, 149, 234, 1)"></path><path d="M1498 31.5 a3.5 3.5 0 1 0 7 0 a3.5 3.5 0 1 0 -7 0zM1435 10.5 a3.5 3.5 0 1 0 7 0 a3.5 3.5 0 1 0 -7 0z" fill="rgba(77, 149, 234, 1)"></path><path d="M1375.5 10.5L1396.5 31.5L1417.5 31.5L1438.5 52.5" stroke-width="3.5" stroke="rgba(77, 149, 234, 1)"></path><path d="M1372 10.5 a3.5 3.5 0 1 0 7 0 a3.5 3.5 0 1 0 -7 0zM1435 52.5 a3.5 3.5 0 1 0 7 0 a3.5 3.5 0 1 0 -7 0z" fill="rgba(77, 149, 234, 1)"></path><path d="M556.5 808.5L577.5 829.5L661.5 829.5L703.5 871.5L724.5 871.5" stroke-width="3.5" stroke="rgba(77, 149, 234, 1)"></path><path d="M553 808.5 a3.5 3.5 0 1 0 7 0 a3.5 3.5 0 1 0 -7 0zM721 871.5 a3.5 3.5 0 1 0 7 0 a3.5 3.5 0 1 0 -7 0z" fill="rgba(77, 149, 234, 1)"></path><path d="M1333.5 157.5L1375.5 115.5L1375.5 73.5" stroke-width="3.5" stroke="rgba(77, 149, 234, 1)"></path><path d="M1330 157.5 a3.5 3.5 0 1 0 7 0 a3.5 3.5 0 1 0 -7 0zM1372 73.5 a3.5 3.5 0 1 0 7 0 a3.5 3.5 0 1 0 -7 0z" fill="rgba(77, 149, 234, 1)"></path><path d="M934.5 157.5L934.5 178.5L976.5 220.5" stroke-width="3.5" stroke="rgba(77, 149, 234, 1)"></path><path d="M931 157.5 a3.5 3.5 0 1 0 7 0 a3.5 3.5 0 1 0 -7 0zM973 220.5 a3.5 3.5 0 1 0 7 0 a3.5 3.5 0 1 0 -7 0z" fill="rgba(77, 149, 234, 1)"></path><path d="M94.5 115.5L52.5 115.5" stroke-width="3.5" stroke="rgba(77, 149, 234, 1)"></path><path d="M91 115.5 a3.5 3.5 0 1 0 7 0 a3.5 3.5 0 1 0 -7 0zM49 115.5 a3.5 3.5 0 1 0 7 0 a3.5 3.5 0 1 0 -7 0z" fill="rgba(77, 149, 234, 1)"></path><path d="M472.5 10.5L388.5 10.5" stroke-width="3.5" stroke="rgba(77, 149, 234, 1)"></path><path d="M469 10.5 a3.5 3.5 0 1 0 7 0 a3.5 3.5 0 1 0 -7 0zM385 10.5 a3.5 3.5 0 1 0 7 0 a3.5 3.5 0 1 0 -7 0z" fill="rgba(77, 149, 234, 1)"></path><path d="M1249.5 451.5L1249.5 409.5" stroke-width="3.5" stroke="rgba(77, 149, 234, 1)"></path><path d="M1246 451.5 a3.5 3.5 0 1 0 7 0 a3.5 3.5 0 1 0 -7 0zM1246 409.5 a3.5 3.5 0 1 0 7 0 a3.5 3.5 0 1 0 -7 0z" fill="rgba(77, 149, 234, 1)"></path><path d="M913.5 409.5L955.5 451.5" stroke-width="3.5" stroke="rgba(77, 149, 234, 1)"></path><path d="M910 409.5 a3.5 3.5 0 1 0 7 0 a3.5 3.5 0 1 0 -7 0zM952 451.5 a3.5 3.5 0 1 0 7 0 a3.5 3.5 0 1 0 -7 0z" fill="rgba(77, 149, 234, 1)"></path><path d="M514.5 241.5L535.5 262.5L556.5 262.5" stroke-width="3.5" stroke="rgba(77, 149, 234, 1)"></path><path d="M511 241.5 a3.5 3.5 0 1 0 7 0 a3.5 3.5 0 1 0 -7 0zM553 262.5 a3.5 3.5 0 1 0 7 0 a3.5 3.5 0 1 0 -7 0z" fill="rgba(77, 149, 234, 1)"></path><path d="M10.5 199.5L10.5 325.5" stroke-width="3.5" stroke="rgba(77, 149, 234, 1)"></path><path d="M7 199.5 a3.5 3.5 0 1 0 7 0 a3.5 3.5 0 1 0 -7 0zM7 325.5 a3.5 3.5 0 1 0 7 0 a3.5 3.5 0 1 0 -7 0z" fill="rgba(77, 149, 234, 1)"></path><path d="M997.5 430.5L1039.5 430.5" stroke-width="3.5" stroke="rgba(77, 149, 234, 1)"></path><path d="M994 430.5 a3.5 3.5 0 1 0 7 0 a3.5 3.5 0 1 0 -7 0zM1036 430.5 a3.5 3.5 0 1 0 7 0 a3.5 3.5 0 1 0 -7 0z" fill="rgba(77, 149, 234, 1)"></path><path d="M388.5 220.5L430.5 262.5" stroke-width="3.5" stroke="rgba(77, 149, 234, 1)"></path><path d="M385 220.5 a3.5 3.5 0 1 0 7 0 a3.5 3.5 0 1 0 -7 0zM427 262.5 a3.5 3.5 0 1 0 7 0 a3.5 3.5 0 1 0 -7 0z" fill="rgba(77, 149, 234, 1)"></path><path d="M1312.5 808.5L1354.5 850.5" stroke-width="3.5" stroke="rgba(77, 149, 234, 1)"></path><path d="M1309 808.5 a3.5 3.5 0 1 0 7 0 a3.5 3.5 0 1 0 -7 0zM1351 850.5 a3.5 3.5 0 1 0 7 0 a3.5 3.5 0 1 0 -7 0z" fill="rgba(77, 149, 234, 1)"></path><path d="M178.5 514.5L157.5 493.5L157.5 472.5" stroke-width="3.5" stroke="rgba(77, 149, 234, 1)"></path><path d="M175 514.5 a3.5 3.5 0 1 0 7 0 a3.5 3.5 0 1 0 -7 0zM154 472.5 a3.5 3.5 0 1 0 7 0 a3.5 3.5 0 1 0 -7 0z" fill="rgba(77, 149, 234, 1)"></path><path d="M1417.5 157.5L1438.5 157.5L1459.5 178.5" stroke-width="3.5" stroke="rgba(77, 149, 234, 1)"></path><path d="M1414 157.5 a3.5 3.5 0 1 0 7 0 a3.5 3.5 0 1 0 -7 0zM1456 178.5 a3.5 3.5 0 1 0 7 0 a3.5 3.5 0 1 0 -7 0z" fill="rgba(77, 149, 234, 1)"></path><path d="M1480.5 703.5L1459.5 703.5L1438.5 682.5" stroke-width="3.5" stroke="rgba(77, 149, 234, 1)"></path><path d="M1477 703.5 a3.5 3.5 0 1 0 7 0 a3.5 3.5 0 1 0 -7 0zM1435 682.5 a3.5 3.5 0 1 0 7 0 a3.5 3.5 0 1 0 -7 0z" fill="rgba(77, 149, 234, 1)"></path><path d="M1333.5 367.5L1333.5 409.5" stroke-width="3.5" stroke="rgba(77, 149, 234, 1)"></path><path d="M1330 367.5 a3.5 3.5 0 1 0 7 0 a3.5 3.5 0 1 0 -7 0zM1330 409.5 a3.5 3.5 0 1 0 7 0 a3.5 3.5 0 1 0 -7 0z" fill="rgba(77, 149, 234, 1)"></path><path d="M73.5 514.5L52.5 535.5L52.5 619.5L31.5 640.5" stroke-width="3.5" stroke="rgba(77, 149, 234, 1)"></path><path d="M70 514.5 a3.5 3.5 0 1 0 7 0 a3.5 3.5 0 1 0 -7 0zM28 640.5 a3.5 3.5 0 1 0 7 0 a3.5 3.5 0 1 0 -7 0z" fill="rgba(77, 149, 234, 1)"></path><path d="M766.5 262.5L766.5 304.5" stroke-width="3.5" stroke="rgba(77, 149, 234, 1)"></path><path d="M763 262.5 a3.5 3.5 0 1 0 7 0 a3.5 3.5 0 1 0 -7 0zM763 304.5 a3.5 3.5 0 1 0 7 0 a3.5 3.5 0 1 0 -7 0z" fill="rgba(77, 149, 234, 1)"></path><path d="M199.5 829.5L136.5 829.5" stroke-width="3.5" stroke="rgba(77, 149, 234, 1)"></path><path d="M196 829.5 a3.5 3.5 0 1 0 7 0 a3.5 3.5 0 1 0 -7 0zM133 829.5 a3.5 3.5 0 1 0 7 0 a3.5 3.5 0 1 0 -7 0z" fill="rgba(77, 149, 234, 1)"></path><path d="M73.5 724.5L178.5 619.5L178.5 535.5L157.5 514.5" stroke-width="3.5" stroke="rgba(77, 149, 234, 1)"></path><path d="M70 724.5 a3.5 3.5 0 1 0 7 0 a3.5 3.5 0 1 0 -7 0zM154 514.5 a3.5 3.5 0 1 0 7 0 a3.5 3.5 0 1 0 -7 0z" fill="rgba(77, 149, 234, 1)"></path><path d="M955.5 787.5L913.5 745.5L913.5 640.5" stroke-width="3.5" stroke="rgba(77, 149, 234, 1)"></path><path d="M952 787.5 a3.5 3.5 0 1 0 7 0 a3.5 3.5 0 1 0 -7 0zM910 640.5 a3.5 3.5 0 1 0 7 0 a3.5 3.5 0 1 0 -7 0z" fill="rgba(77, 149, 234, 1)"></path><path d="M640.5 136.5L640.5 94.5" stroke-width="3.5" stroke="rgba(77, 149, 234, 1)"></path><path d="M637 136.5 a3.5 3.5 0 1 0 7 0 a3.5 3.5 0 1 0 -7 0zM637 94.5 a3.5 3.5 0 1 0 7 0 a3.5 3.5 0 1 0 -7 0z" fill="rgba(77, 149, 234, 1)"></path><path d="M10.5 94.5L52.5 52.5" stroke-width="3.5" stroke="rgba(77, 149, 234, 1)"></path><path d="M7 94.5 a3.5 3.5 0 1 0 7 0 a3.5 3.5 0 1 0 -7 0zM49 52.5 a3.5 3.5 0 1 0 7 0 a3.5 3.5 0 1 0 -7 0z" fill="rgba(77, 149, 234, 1)"></path><path d="M115.5 94.5L52.5 94.5" stroke-width="3.5" stroke="rgba(77, 149, 234, 1)"></path><path d="M112 94.5 a3.5 3.5 0 1 0 7 0 a3.5 3.5 0 1 0 -7 0zM49 94.5 a3.5 3.5 0 1 0 7 0 a3.5 3.5 0 1 0 -7 0z" fill="rgba(77, 149, 234, 1)"></path><path d="M1333.5 661.5L1333.5 682.5L1354.5 703.5" stroke-width="3.5" stroke="rgba(77, 149, 234, 1)"></path><path d="M1330 661.5 a3.5 3.5 0 1 0 7 0 a3.5 3.5 0 1 0 -7 0zM1351 703.5 a3.5 3.5 0 1 0 7 0 a3.5 3.5 0 1 0 -7 0z" fill="rgba(77, 149, 234, 1)"></path><path d="M1144.5 451.5L1165.5 430.5L1165.5 409.5" stroke-width="3.5" stroke="rgba(77, 149, 234, 1)"></path><path d="M1141 451.5 a3.5 3.5 0 1 0 7 0 a3.5 3.5 0 1 0 -7 0zM1162 409.5 a3.5 3.5 0 1 0 7 0 a3.5 3.5 0 1 0 -7 0z" fill="rgba(77, 149, 234, 1)"></path><path d="M1207.5 73.5L1144.5 10.5" stroke-width="3.5" stroke="rgba(77, 149, 234, 1)"></path><path d="M1204 73.5 a3.5 3.5 0 1 0 7 0 a3.5 3.5 0 1 0 -7 0zM1141 10.5 a3.5 3.5 0 1 0 7 0 a3.5 3.5 0 1 0 -7 0z" fill="rgba(77, 149, 234, 1)"></path><path d="M451.5 661.5L493.5 661.5" stroke-width="3.5" stroke="rgba(77, 149, 234, 1)"></path><path d="M448 661.5 a3.5 3.5 0 1 0 7 0 a3.5 3.5 0 1 0 -7 0zM490 661.5 a3.5 3.5 0 1 0 7 0 a3.5 3.5 0 1 0 -7 0z" fill="rgba(77, 149, 234, 1)"></path><path d="M1144.5 598.5L1144.5 556.5L1165.5 535.5" stroke-width="3.5" stroke="rgba(77, 149, 234, 1)"></path><path d="M1141 598.5 a3.5 3.5 0 1 0 7 0 a3.5 3.5 0 1 0 -7 0zM1162 535.5 a3.5 3.5 0 1 0 7 0 a3.5 3.5 0 1 0 -7 0z" fill="rgba(77, 149, 234, 1)"></path><path d="M1039.5 745.5L976.5 745.5" stroke-width="3.5" stroke="rgba(77, 149, 234, 1)"></path><path d="M1036 745.5 a3.5 3.5 0 1 0 7 0 a3.5 3.5 0 1 0 -7 0zM973 745.5 a3.5 3.5 0 1 0 7 0 a3.5 3.5 0 1 0 -7 0z" fill="rgba(77, 149, 234, 1)"></path><path d="M178.5 304.5L241.5 241.5" stroke-width="3.5" stroke="rgba(77, 149, 234, 1)"></path><path d="M175 304.5 a3.5 3.5 0 1 0 7 0 a3.5 3.5 0 1 0 -7 0zM238 241.5 a3.5 3.5 0 1 0 7 0 a3.5 3.5 0 1 0 -7 0z" fill="rgba(77, 149, 234, 1)"></path><path d="M115.5 724.5L115.5 766.5L94.5 787.5L73.5 787.5" stroke-width="3.5" stroke="rgba(77, 149, 234, 1)"></path><path d="M112 724.5 a3.5 3.5 0 1 0 7 0 a3.5 3.5 0 1 0 -7 0zM70 787.5 a3.5 3.5 0 1 0 7 0 a3.5 3.5 0 1 0 -7 0z" fill="rgba(77, 149, 234, 1)"></path><path d="M913.5 766.5L955.5 808.5L997.5 808.5" stroke-width="3.5" stroke="rgba(77, 149, 234, 1)"></path><path d="M910 766.5 a3.5 3.5 0 1 0 7 0 a3.5 3.5 0 1 0 -7 0zM994 808.5 a3.5 3.5 0 1 0 7 0 a3.5 3.5 0 1 0 -7 0z" fill="rgba(77, 149, 234, 1)"></path><path d="M850.5 451.5L850.5 493.5" stroke-width="3.5" stroke="rgba(77, 149, 234, 1)"></path><path d="M847 451.5 a3.5 3.5 0 1 0 7 0 a3.5 3.5 0 1 0 -7 0zM847 493.5 a3.5 3.5 0 1 0 7 0 a3.5 3.5 0 1 0 -7 0z" fill="rgba(77, 149, 234, 1)"></path><path d="M1123.5 178.5L1102.5 199.5L1081.5 199.5" stroke-width="3.5" stroke="rgba(77, 149, 234, 1)"></path><path d="M1120 178.5 a3.5 3.5 0 1 0 7 0 a3.5 3.5 0 1 0 -7 0zM1078 199.5 a3.5 3.5 0 1 0 7 0 a3.5 3.5 0 1 0 -7 0z" fill="rgba(77, 149, 234, 1)"></path><path d="M1102.5 157.5L1165.5 157.5" stroke-width="3.5" stroke="rgba(77, 149, 234, 1)"></path><path d="M1099 157.5 a3.5 3.5 0 1 0 7 0 a3.5 3.5 0 1 0 -7 0zM1162 157.5 a3.5 3.5 0 1 0 7 0 a3.5 3.5 0 1 0 -7 0z" fill="rgba(77, 149, 234, 1)"></path><path d="M535.5 430.5L472.5 430.5" stroke-width="3.5" stroke="rgba(77, 149, 234, 1)"></path><path d="M532 430.5 a3.5 3.5 0 1 0 7 0 a3.5 3.5 0 1 0 -7 0zM469 430.5 a3.5 3.5 0 1 0 7 0 a3.5 3.5 0 1 0 -7 0z" fill="rgba(77, 149, 234, 1)"></path><path d="M1123.5 661.5L1102.5 682.5L1018.5 682.5L997.5 661.5L997.5 640.5" stroke-width="3.5" stroke="rgba(77, 149, 234, 1)"></path><path d="M1120 661.5 a3.5 3.5 0 1 0 7 0 a3.5 3.5 0 1 0 -7 0zM994 640.5 a3.5 3.5 0 1 0 7 0 a3.5 3.5 0 1 0 -7 0z" fill="rgba(77, 149, 234, 1)"></path><path d="M10.5 31.5L10.5 73.5" stroke-width="3.5" stroke="rgba(77, 149, 234, 1)"></path><path d="M7 31.5 a3.5 3.5 0 1 0 7 0 a3.5 3.5 0 1 0 -7 0zM7 73.5 a3.5 3.5 0 1 0 7 0 a3.5 3.5 0 1 0 -7 0z" fill="rgba(77, 149, 234, 1)"></path><path d="M892.5 577.5L850.5 577.5" stroke-width="3.5" stroke="rgba(77, 149, 234, 1)"></path><path d="M889 577.5 a3.5 3.5 0 1 0 7 0 a3.5 3.5 0 1 0 -7 0zM847 577.5 a3.5 3.5 0 1 0 7 0 a3.5 3.5 0 1 0 -7 0z" fill="rgba(77, 149, 234, 1)"></path><path d="M1039.5 640.5L1123.5 640.5" stroke-width="3.5" stroke="rgba(77, 149, 234, 1)"></path><path d="M1036 640.5 a3.5 3.5 0 1 0 7 0 a3.5 3.5 0 1 0 -7 0zM1120 640.5 a3.5 3.5 0 1 0 7 0 a3.5 3.5 0 1 0 -7 0z" fill="rgba(77, 149, 234, 1)"></path><path d="M850.5 52.5L871.5 52.5L892.5 31.5L913.5 31.5" stroke-width="3.5" stroke="rgba(77, 149, 234, 1)"></path><path d="M847 52.5 a3.5 3.5 0 1 0 7 0 a3.5 3.5 0 1 0 -7 0zM910 31.5 a3.5 3.5 0 1 0 7 0 a3.5 3.5 0 1 0 -7 0z" fill="rgba(77, 149, 234, 1)"></path><path d="M1438.5 829.5L1396.5 871.5L1375.5 871.5" stroke-width="3.5" stroke="rgba(77, 149, 234, 1)"></path><path d="M1435 829.5 a3.5 3.5 0 1 0 7 0 a3.5 3.5 0 1 0 -7 0zM1372 871.5 a3.5 3.5 0 1 0 7 0 a3.5 3.5 0 1 0 -7 0z" fill="rgba(77, 149, 234, 1)"></path><path d="M556.5 94.5L514.5 136.5L493.5 136.5" stroke-width="3.5" stroke="rgba(77, 149, 234, 1)"></path><path d="M553 94.5 a3.5 3.5 0 1 0 7 0 a3.5 3.5 0 1 0 -7 0zM490 136.5 a3.5 3.5 0 1 0 7 0 a3.5 3.5 0 1 0 -7 0z" fill="rgba(77, 149, 234, 1)"></path><path d="M388.5 472.5L430.5 472.5" stroke-width="3.5" stroke="rgba(77, 149, 234, 1)"></path><path d="M385 472.5 a3.5 3.5 0 1 0 7 0 a3.5 3.5 0 1 0 -7 0zM427 472.5 a3.5 3.5 0 1 0 7 0 a3.5 3.5 0 1 0 -7 0z" fill="rgba(77, 149, 234, 1)"></path><path d="M598.5 724.5L619.5 703.5L619.5 682.5" stroke-width="3.5" stroke="rgba(77, 149, 234, 1)"></path><path d="M595 724.5 a3.5 3.5 0 1 0 7 0 a3.5 3.5 0 1 0 -7 0zM616 682.5 a3.5 3.5 0 1 0 7 0 a3.5 3.5 0 1 0 -7 0z" fill="rgba(77, 149, 234, 1)"></path><path d="M850.5 325.5L850.5 241.5" stroke-width="3.5" stroke="rgba(77, 149, 234, 1)"></path><path d="M847 325.5 a3.5 3.5 0 1 0 7 0 a3.5 3.5 0 1 0 -7 0zM847 241.5 a3.5 3.5 0 1 0 7 0 a3.5 3.5 0 1 0 -7 0z" fill="rgba(77, 149, 234, 1)"></path><path d="M367.5 367.5L367.5 409.5" stroke-width="3.5" stroke="rgba(77, 149, 234, 1)"></path><path d="M364 367.5 a3.5 3.5 0 1 0 7 0 a3.5 3.5 0 1 0 -7 0zM364 409.5 a3.5 3.5 0 1 0 7 0 a3.5 3.5 0 1 0 -7 0z" fill="rgba(77, 149, 234, 1)"></path><path d="M1018.5 766.5L1060.5 766.5" stroke-width="3.5" stroke="rgba(77, 149, 234, 1)"></path><path d="M1015 766.5 a3.5 3.5 0 1 0 7 0 a3.5 3.5 0 1 0 -7 0zM1057 766.5 a3.5 3.5 0 1 0 7 0 a3.5 3.5 0 1 0 -7 0z" fill="rgba(77, 149, 234, 1)"></path><path d="M220.5 871.5L178.5 871.5" stroke-width="3.5" stroke="rgba(77, 149, 234, 1)"></path><path d="M217 871.5 a3.5 3.5 0 1 0 7 0 a3.5 3.5 0 1 0 -7 0zM175 871.5 a3.5 3.5 0 1 0 7 0 a3.5 3.5 0 1 0 -7 0z" fill="rgba(77, 149, 234, 1)"></path><path d="M1039.5 661.5L1102.5 661.5" stroke-width="3.5" stroke="rgba(77, 149, 234, 1)"></path><path d="M1036 661.5 a3.5 3.5 0 1 0 7 0 a3.5 3.5 0 1 0 -7 0zM1099 661.5 a3.5 3.5 0 1 0 7 0 a3.5 3.5 0 1 0 -7 0z" fill="rgba(77, 149, 234, 1)"></path><path d="M955.5 703.5L955.5 661.5" stroke-width="3.5" stroke="rgba(77, 149, 234, 1)"></path><path d="M952 703.5 a3.5 3.5 0 1 0 7 0 a3.5 3.5 0 1 0 -7 0zM952 661.5 a3.5 3.5 0 1 0 7 0 a3.5 3.5 0 1 0 -7 0z" fill="rgba(77, 149, 234, 1)"></path><path d="M31.5 325.5L73.5 325.5" stroke-width="3.5" stroke="rgba(77, 149, 234, 1)"></path><path d="M28 325.5 a3.5 3.5 0 1 0 7 0 a3.5 3.5 0 1 0 -7 0zM70 325.5 a3.5 3.5 0 1 0 7 0 a3.5 3.5 0 1 0 -7 0z" fill="rgba(77, 149, 234, 1)"></path><path d="M787.5 850.5L745.5 850.5" stroke-width="3.5" stroke="rgba(77, 149, 234, 1)"></path><path d="M784 850.5 a3.5 3.5 0 1 0 7 0 a3.5 3.5 0 1 0 -7 0zM742 850.5 a3.5 3.5 0 1 0 7 0 a3.5 3.5 0 1 0 -7 0z" fill="rgba(77, 149, 234, 1)"></path><path d="M829.5 325.5L829.5 283.5" stroke-width="3.5" stroke="rgba(77, 149, 234, 1)"></path><path d="M826 325.5 a3.5 3.5 0 1 0 7 0 a3.5 3.5 0 1 0 -7 0zM826 283.5 a3.5 3.5 0 1 0 7 0 a3.5 3.5 0 1 0 -7 0z" fill="rgba(77, 149, 234, 1)"></path><path d="M493.5 598.5L535.5 598.5" stroke-width="3.5" stroke="rgba(77, 149, 234, 1)"></path><path d="M490 598.5 a3.5 3.5 0 1 0 7 0 a3.5 3.5 0 1 0 -7 0zM532 598.5 a3.5 3.5 0 1 0 7 0 a3.5 3.5 0 1 0 -7 0z" fill="rgba(77, 149, 234, 1)"></path><path d="M640.5 850.5L577.5 850.5" stroke-width="3.5" stroke="rgba(77, 149, 234, 1)"></path><path d="M637 850.5 a3.5 3.5 0 1 0 7 0 a3.5 3.5 0 1 0 -7 0zM574 850.5 a3.5 3.5 0 1 0 7 0 a3.5 3.5 0 1 0 -7 0z" fill="rgba(77, 149, 234, 1)"></path><path d="M1081.5 514.5L1102.5 493.5L1123.5 493.5" stroke-width="3.5" stroke="rgba(77, 149, 234, 1)"></path><path d="M1078 514.5 a3.5 3.5 0 1 0 7 0 a3.5 3.5 0 1 0 -7 0zM1120 493.5 a3.5 3.5 0 1 0 7 0 a3.5 3.5 0 1 0 -7 0z" fill="rgba(77, 149, 234, 1)"></path><path d="M1207.5 493.5L1207.5 451.5L1228.5 430.5" stroke-width="3.5" stroke="rgba(77, 149, 234, 1)"></path><path d="M1204 493.5 a3.5 3.5 0 1 0 7 0 a3.5 3.5 0 1 0 -7 0zM1225 430.5 a3.5 3.5 0 1 0 7 0 a3.5 3.5 0 1 0 -7 0z" fill="rgba(77, 149, 234, 1)"></path><path d="M1018.5 157.5L976.5 157.5" stroke-width="3.5" stroke="rgba(77, 149, 234, 1)"></path><path d="M1015 157.5 a3.5 3.5 0 1 0 7 0 a3.5 3.5 0 1 0 -7 0zM973 157.5 a3.5 3.5 0 1 0 7 0 a3.5 3.5 0 1 0 -7 0z" fill="rgba(77, 149, 234, 1)"></path><path d="M31.5 220.5L31.5 262.5" stroke-width="3.5" stroke="rgba(77, 149, 234, 1)"></path><path d="M28 220.5 a3.5 3.5 0 1 0 7 0 a3.5 3.5 0 1 0 -7 0zM28 262.5 a3.5 3.5 0 1 0 7 0 a3.5 3.5 0 1 0 -7 0z" fill="rgba(77, 149, 234, 1)"></path></g></g><defs><mask id="SvgjsMask1068"><rect width="1500" height="900" fill="#ffffff"></rect></mask></defs></svg>