<svg xmlns="http://www.w3.org/2000/svg" version="1.1" xmlns:xlink="http://www.w3.org/1999/xlink" xmlns:svgjs="http://svgjs.dev/svgjs" width="1440" height="560" preserveAspectRatio="none" viewBox="0 0 1440 560"><g mask="url(&quot;#SvgjsMask1023&quot;)" fill="none"><path d="M447.0816223786595 600.000224714021L567.0309418794403 495.72987206191084 342.81126972654937 480.0509052132402z" fill="rgba(28, 83, 142, 0.4)" class="triangle-float3"></path><path d="M516.9974118365604 101.7555814407402L554.8785045185641 33.4162812205426 433.4290078472659 10.764292307635827z" fill="rgba(28, 83, 142, 0.4)" class="triangle-float1"></path><path d="M21.896273845973184 72.43519518255627L-78.99190932765046 169.67613955994938 38.14473913821658 205.48840691920245z" fill="rgba(28, 83, 142, 0.4)" class="triangle-float2"></path><path d="M109.01166842075621 509.83269319913893L171.75369719031468 362.02173628579254-38.79928849259018 447.09066442958044z" fill="rgba(28, 83, 142, 0.4)" class="triangle-float1"></path><path d="M1296.122,336.143C1313.37,336.047,1331.877,333.587,1341.31,319.147C1351.506,303.54,1351.071,282.852,1341.314,266.967C1331.965,251.747,1313.983,245.736,1296.122,245.58C1277.929,245.421,1259.151,250.716,1249.543,266.166C1239.451,282.394,1239.469,303.746,1250.058,319.654C1259.744,334.205,1278.642,336.24,1296.122,336.143" fill="rgba(28, 83, 142, 0.4)" class="triangle-float3"></path><path d="M542.769,259.177C597.114,259.474,639.949,218.391,666.834,171.161C693.382,124.524,705.454,67.568,678.132,21.38C651.203,-24.144,595.637,-36.998,542.769,-38.576C486.099,-40.268,421.241,-36.097,392.643,12.857C363.898,62.063,391.369,121.159,421.027,169.82C449.106,215.891,488.817,258.882,542.769,259.177" fill="rgba(28, 83, 142, 0.4)" class="triangle-float1"></path><path d="M994.17 235.5 a133.19 133.19 0 1 0 266.38 0 a133.19 133.19 0 1 0 -266.38 0z" fill="rgba(28, 83, 142, 0.4)" class="triangle-float2"></path><path d="M626.72 101.42 a112.16 112.16 0 1 0 224.32 0 a112.16 112.16 0 1 0 -224.32 0z" fill="rgba(28, 83, 142, 0.4)" class="triangle-float2"></path><path d="M1087.1769398760348 461.9800816454393L1226.1382465451065 427.3331365811609 1052.5299948117563 323.0187749763676z" fill="rgba(28, 83, 142, 0.4)" class="triangle-float2"></path><path d="M1369.6623622811708 101.11945310187718L1317.9644453211465 190.66287192211587 1459.2057811014095 152.81737006190139z" fill="rgba(28, 83, 142, 0.4)" class="triangle-float2"></path><path d="M988.797,594.466C1027.203,591.968,1050.152,556.129,1069.047,522.6C1087.459,489.927,1104.188,452.866,1087.53,419.265C1069.316,382.525,1029.798,361.402,988.797,360.73C946.579,360.038,905.468,379.402,884.296,415.934C863.068,452.562,866.781,497.831,888.167,534.367C909.321,570.506,947.01,597.184,988.797,594.466" fill="rgba(28, 83, 142, 0.4)" class="triangle-float2"></path></g><defs><mask id="SvgjsMask1023"><rect width="1440" height="560" fill="#ffffff"></rect></mask><style>
                @keyframes float1 {
                    0%{transform: translate(0, 0)}
                    50%{transform: translate(-10px, 0)}
                    100%{transform: translate(0, 0)}
                }

                .triangle-float1 {
                    animation: float1 5s infinite;
                }

                @keyframes float2 {
                    0%{transform: translate(0, 0)}
                    50%{transform: translate(-5px, -5px)}
                    100%{transform: translate(0, 0)}
                }

                .triangle-float2 {
                    animation: float2 4s infinite;
                }

                @keyframes float3 {
                    0%{transform: translate(0, 0)}
                    50%{transform: translate(0, -10px)}
                    100%{transform: translate(0, 0)}
                }

                .triangle-float3 {
                    animation: float3 6s infinite;
                }
            </style></defs></svg>