<svg xmlns="http://www.w3.org/2000/svg" version="1.1" xmlns:xlink="http://www.w3.org/1999/xlink" xmlns:svgjs="http://svgjs.dev/svgjs" width="800" height="170" preserveAspectRatio="none" viewBox="0 0 800 170"><g mask="url(&quot;#SvgjsMask1008&quot;)" fill="none"><g><path d="M10.5 115.5L31.5 136.5L31.5 178.5" stroke-width="3.5" stroke="rgba(204, 216, 230, 1)"></path><path d="M7 115.5 a3.5 3.5 0 1 0 7 0 a3.5 3.5 0 1 0 -7 0zM28 178.5 a3.5 3.5 0 1 0 7 0 a3.5 3.5 0 1 0 -7 0z" fill="rgba(204, 216, 230, 1)"></path><path d="M409.5 31.5L220.5 31.5L199.5 10.5L136.5 10.5L31.5 115.5" stroke-width="3.5" stroke="rgba(204, 216, 230, 1)"></path><path d="M406 31.5 a3.5 3.5 0 1 0 7 0 a3.5 3.5 0 1 0 -7 0zM28 115.5 a3.5 3.5 0 1 0 7 0 a3.5 3.5 0 1 0 -7 0z" fill="rgba(204, 216, 230, 1)"></path><path d="M304.5 94.5L325.5 94.5L388.5 157.5L388.5 178.5" stroke-width="3.5" stroke="rgba(204, 216, 230, 1)"></path><path d="M301 94.5 a3.5 3.5 0 1 0 7 0 a3.5 3.5 0 1 0 -7 0zM385 178.5 a3.5 3.5 0 1 0 7 0 a3.5 3.5 0 1 0 -7 0z" fill="rgba(204, 216, 230, 1)"></path><path d="M262.5 178.5L367.5 178.5" stroke-width="3.5" stroke="rgba(204, 216, 230, 1)"></path><path d="M259 178.5 a3.5 3.5 0 1 0 7 0 a3.5 3.5 0 1 0 -7 0zM364 178.5 a3.5 3.5 0 1 0 7 0 a3.5 3.5 0 1 0 -7 0z" fill="rgba(204, 216, 230, 1)"></path><path d="M514.5 10.5L682.5 178.5L703.5 178.5L787.5 94.5L787.5 52.5L745.5 10.5L703.5 10.5" stroke-width="3.5" stroke="rgba(204, 216, 230, 1)"></path><path d="M511 10.5 a3.5 3.5 0 1 0 7 0 a3.5 3.5 0 1 0 -7 0zM700 10.5 a3.5 3.5 0 1 0 7 0 a3.5 3.5 0 1 0 -7 0z" fill="rgba(204, 216, 230, 1)"></path><path d="M598.5 136.5L619.5 136.5L661.5 178.5" stroke-width="3.5" stroke="rgba(204, 216, 230, 1)"></path><path d="M595 136.5 a3.5 3.5 0 1 0 7 0 a3.5 3.5 0 1 0 -7 0zM658 178.5 a3.5 3.5 0 1 0 7 0 a3.5 3.5 0 1 0 -7 0z" fill="rgba(204, 216, 230, 1)"></path><path d="M514.5 73.5L409.5 178.5" stroke-width="3.5" stroke="rgba(204, 216, 230, 1)"></path><path d="M511 73.5 a3.5 3.5 0 1 0 7 0 a3.5 3.5 0 1 0 -7 0zM406 178.5 a3.5 3.5 0 1 0 7 0 a3.5 3.5 0 1 0 -7 0z" fill="rgba(204, 216, 230, 1)"></path><path d="M94.5 73.5L199.5 178.5L241.5 178.5L304.5 115.5L325.5 115.5L367.5 157.5" stroke-width="3.5" stroke="rgba(204, 216, 230, 1)"></path><path d="M91 73.5 a3.5 3.5 0 1 0 7 0 a3.5 3.5 0 1 0 -7 0zM364 157.5 a3.5 3.5 0 1 0 7 0 a3.5 3.5 0 1 0 -7 0z" fill="rgba(204, 216, 230, 1)"></path><path d="M241.5 94.5L241.5 115.5L262.5 136.5" stroke-width="3.5" stroke="rgba(204, 216, 230, 1)"></path><path d="M238 94.5 a3.5 3.5 0 1 0 7 0 a3.5 3.5 0 1 0 -7 0zM259 136.5 a3.5 3.5 0 1 0 7 0 a3.5 3.5 0 1 0 -7 0z" fill="rgba(204, 216, 230, 1)"></path><path d="M619.5 94.5L682.5 31.5L682.5 10.5" stroke-width="3.5" stroke="rgba(204, 216, 230, 1)"></path><path d="M616 94.5 a3.5 3.5 0 1 0 7 0 a3.5 3.5 0 1 0 -7 0zM679 10.5 a3.5 3.5 0 1 0 7 0 a3.5 3.5 0 1 0 -7 0z" fill="rgba(204, 216, 230, 1)"></path><path d="M409.5 10.5L430.5 31.5L430.5 136.5L409.5 157.5" stroke-width="3.5" stroke="rgba(204, 216, 230, 1)"></path><path d="M406 10.5 a3.5 3.5 0 1 0 7 0 a3.5 3.5 0 1 0 -7 0zM406 157.5 a3.5 3.5 0 1 0 7 0 a3.5 3.5 0 1 0 -7 0z" fill="rgba(204, 216, 230, 1)"></path><path d="M535.5 136.5L472.5 136.5L430.5 178.5" stroke-width="3.5" stroke="rgba(204, 216, 230, 1)"></path><path d="M532 136.5 a3.5 3.5 0 1 0 7 0 a3.5 3.5 0 1 0 -7 0zM427 178.5 a3.5 3.5 0 1 0 7 0 a3.5 3.5 0 1 0 -7 0z" fill="rgba(204, 216, 230, 1)"></path><path d="M724.5 52.5L766.5 52.5" stroke-width="3.5" stroke="rgba(204, 216, 230, 1)"></path><path d="M721 52.5 a3.5 3.5 0 1 0 7 0 a3.5 3.5 0 1 0 -7 0zM763 52.5 a3.5 3.5 0 1 0 7 0 a3.5 3.5 0 1 0 -7 0z" fill="rgba(204, 216, 230, 1)"></path><path d="M220.5 52.5L199.5 31.5L136.5 31.5L115.5 52.5L115.5 73.5L199.5 157.5L241.5 157.5" stroke-width="3.5" stroke="rgba(204, 216, 230, 1)"></path><path d="M217 52.5 a3.5 3.5 0 1 0 7 0 a3.5 3.5 0 1 0 -7 0zM238 157.5 a3.5 3.5 0 1 0 7 0 a3.5 3.5 0 1 0 -7 0z" fill="rgba(204, 216, 230, 1)"></path><path d="M472.5 178.5L640.5 178.5" stroke-width="3.5" stroke="rgba(204, 216, 230, 1)"></path><path d="M469 178.5 a3.5 3.5 0 1 0 7 0 a3.5 3.5 0 1 0 -7 0zM637 178.5 a3.5 3.5 0 1 0 7 0 a3.5 3.5 0 1 0 -7 0z" fill="rgba(204, 216, 230, 1)"></path><path d="M535.5 73.5L493.5 115.5" stroke-width="3.5" stroke="rgba(204, 216, 230, 1)"></path><path d="M532 73.5 a3.5 3.5 0 1 0 7 0 a3.5 3.5 0 1 0 -7 0zM490 115.5 a3.5 3.5 0 1 0 7 0 a3.5 3.5 0 1 0 -7 0z" fill="rgba(204, 216, 230, 1)"></path><path d="M283.5 10.5L388.5 10.5" stroke-width="3.5" stroke="rgba(204, 216, 230, 1)"></path><path d="M280 10.5 a3.5 3.5 0 1 0 7 0 a3.5 3.5 0 1 0 -7 0zM385 10.5 a3.5 3.5 0 1 0 7 0 a3.5 3.5 0 1 0 -7 0z" fill="rgba(204, 216, 230, 1)"></path><path d="M346.5 94.5L388.5 94.5L409.5 115.5L409.5 136.5" stroke-width="3.5" stroke="rgba(204, 216, 230, 1)"></path><path d="M343 94.5 a3.5 3.5 0 1 0 7 0 a3.5 3.5 0 1 0 -7 0zM406 136.5 a3.5 3.5 0 1 0 7 0 a3.5 3.5 0 1 0 -7 0z" fill="rgba(204, 216, 230, 1)"></path><path d="M10.5 31.5L52.5 73.5" stroke-width="3.5" stroke="rgba(204, 216, 230, 1)"></path><path d="M7 31.5 a3.5 3.5 0 1 0 7 0 a3.5 3.5 0 1 0 -7 0zM49 73.5 a3.5 3.5 0 1 0 7 0 a3.5 3.5 0 1 0 -7 0z" fill="rgba(204, 216, 230, 1)"></path><path d="M304.5 52.5L409.5 52.5" stroke-width="3.5" stroke="rgba(204, 216, 230, 1)"></path><path d="M301 52.5 a3.5 3.5 0 1 0 7 0 a3.5 3.5 0 1 0 -7 0zM406 52.5 a3.5 3.5 0 1 0 7 0 a3.5 3.5 0 1 0 -7 0z" fill="rgba(204, 216, 230, 1)"></path><path d="M73.5 157.5L94.5 178.5L178.5 178.5" stroke-width="3.5" stroke="rgba(204, 216, 230, 1)"></path><path d="M70 157.5 a3.5 3.5 0 1 0 7 0 a3.5 3.5 0 1 0 -7 0zM175 178.5 a3.5 3.5 0 1 0 7 0 a3.5 3.5 0 1 0 -7 0z" fill="rgba(204, 216, 230, 1)"></path><path d="M472.5 73.5L514.5 31.5" stroke-width="3.5" stroke="rgba(204, 216, 230, 1)"></path><path d="M469 73.5 a3.5 3.5 0 1 0 7 0 a3.5 3.5 0 1 0 -7 0zM511 31.5 a3.5 3.5 0 1 0 7 0 a3.5 3.5 0 1 0 -7 0z" fill="rgba(204, 216, 230, 1)"></path><path d="M808.5 52.5L766.5 10.5" stroke-width="3.5" stroke="rgba(204, 216, 230, 1)"></path><path d="M805 52.5 a3.5 3.5 0 1 0 7 0 a3.5 3.5 0 1 0 -7 0zM763 10.5 a3.5 3.5 0 1 0 7 0 a3.5 3.5 0 1 0 -7 0z" fill="rgba(204, 216, 230, 1)"></path><path d="M304.5 73.5L388.5 73.5" stroke-width="3.5" stroke="rgba(204, 216, 230, 1)"></path><path d="M301 73.5 a3.5 3.5 0 1 0 7 0 a3.5 3.5 0 1 0 -7 0zM385 73.5 a3.5 3.5 0 1 0 7 0 a3.5 3.5 0 1 0 -7 0z" fill="rgba(204, 216, 230, 1)"></path><path d="M283.5 115.5L241.5 73.5L199.5 73.5L178.5 52.5L136.5 52.5" stroke-width="3.5" stroke="rgba(204, 216, 230, 1)"></path><path d="M280 115.5 a3.5 3.5 0 1 0 7 0 a3.5 3.5 0 1 0 -7 0zM133 52.5 a3.5 3.5 0 1 0 7 0 a3.5 3.5 0 1 0 -7 0z" fill="rgba(204, 216, 230, 1)"></path><path d="M556.5 157.5L556.5 73.5" stroke-width="3.5" stroke="rgba(204, 216, 230, 1)"></path><path d="M553 157.5 a3.5 3.5 0 1 0 7 0 a3.5 3.5 0 1 0 -7 0zM553 73.5 a3.5 3.5 0 1 0 7 0 a3.5 3.5 0 1 0 -7 0z" fill="rgba(204, 216, 230, 1)"></path><path d="M73.5 94.5L52.5 115.5L52.5 178.5" stroke-width="3.5" stroke="rgba(204, 216, 230, 1)"></path><path d="M70 94.5 a3.5 3.5 0 1 0 7 0 a3.5 3.5 0 1 0 -7 0zM49 178.5 a3.5 3.5 0 1 0 7 0 a3.5 3.5 0 1 0 -7 0z" fill="rgba(204, 216, 230, 1)"></path><path d="M73.5 136.5L73.5 115.5L94.5 94.5" stroke-width="3.5" stroke="rgba(204, 216, 230, 1)"></path><path d="M70 136.5 a3.5 3.5 0 1 0 7 0 a3.5 3.5 0 1 0 -7 0zM91 94.5 a3.5 3.5 0 1 0 7 0 a3.5 3.5 0 1 0 -7 0z" fill="rgba(204, 216, 230, 1)"></path><path d="M808.5 157.5L745.5 157.5L724.5 178.5" stroke-width="3.5" stroke="rgba(204, 216, 230, 1)"></path><path d="M805 157.5 a3.5 3.5 0 1 0 7 0 a3.5 3.5 0 1 0 -7 0zM721 178.5 a3.5 3.5 0 1 0 7 0 a3.5 3.5 0 1 0 -7 0z" fill="rgba(204, 216, 230, 1)"></path><path d="M556.5 31.5L598.5 73.5L619.5 73.5L640.5 52.5" stroke-width="3.5" stroke="rgba(204, 216, 230, 1)"></path><path d="M553 31.5 a3.5 3.5 0 1 0 7 0 a3.5 3.5 0 1 0 -7 0zM637 52.5 a3.5 3.5 0 1 0 7 0 a3.5 3.5 0 1 0 -7 0z" fill="rgba(204, 216, 230, 1)"></path><path d="M451.5 52.5L472.5 52.5L493.5 31.5L493.5 10.5" stroke-width="3.5" stroke="rgba(204, 216, 230, 1)"></path><path d="M448 52.5 a3.5 3.5 0 1 0 7 0 a3.5 3.5 0 1 0 -7 0zM490 10.5 a3.5 3.5 0 1 0 7 0 a3.5 3.5 0 1 0 -7 0z" fill="rgba(204, 216, 230, 1)"></path><path d="M94.5 10.5L94.5 31.5L73.5 52.5" stroke-width="3.5" stroke="rgba(204, 216, 230, 1)"></path><path d="M91 10.5 a3.5 3.5 0 1 0 7 0 a3.5 3.5 0 1 0 -7 0zM70 52.5 a3.5 3.5 0 1 0 7 0 a3.5 3.5 0 1 0 -7 0z" fill="rgba(204, 216, 230, 1)"></path><path d="M808.5 178.5L745.5 178.5" stroke-width="3.5" stroke="rgba(204, 216, 230, 1)"></path><path d="M805 178.5 a3.5 3.5 0 1 0 7 0 a3.5 3.5 0 1 0 -7 0zM742 178.5 a3.5 3.5 0 1 0 7 0 a3.5 3.5 0 1 0 -7 0z" fill="rgba(204, 216, 230, 1)"></path><path d="M10.5 10.5L52.5 10.5L73.5 31.5" stroke-width="3.5" stroke="rgba(204, 216, 230, 1)"></path><path d="M7 10.5 a3.5 3.5 0 1 0 7 0 a3.5 3.5 0 1 0 -7 0zM70 31.5 a3.5 3.5 0 1 0 7 0 a3.5 3.5 0 1 0 -7 0z" fill="rgba(204, 216, 230, 1)"></path><path d="M178.5 115.5L199.5 136.5L241.5 136.5" stroke-width="3.5" stroke="rgba(204, 216, 230, 1)"></path><path d="M175 115.5 a3.5 3.5 0 1 0 7 0 a3.5 3.5 0 1 0 -7 0zM238 136.5 a3.5 3.5 0 1 0 7 0 a3.5 3.5 0 1 0 -7 0z" fill="rgba(204, 216, 230, 1)"></path><path d="M94.5 157.5L115.5 157.5L136.5 136.5" stroke-width="3.5" stroke="rgba(204, 216, 230, 1)"></path><path d="M91 157.5 a3.5 3.5 0 1 0 7 0 a3.5 3.5 0 1 0 -7 0zM133 136.5 a3.5 3.5 0 1 0 7 0 a3.5 3.5 0 1 0 -7 0z" fill="rgba(204, 216, 230, 1)"></path><path d="M661.5 73.5L766.5 73.5" stroke-width="3.5" stroke="rgba(204, 216, 230, 1)"></path><path d="M658 73.5 a3.5 3.5 0 1 0 7 0 a3.5 3.5 0 1 0 -7 0zM763 73.5 a3.5 3.5 0 1 0 7 0 a3.5 3.5 0 1 0 -7 0z" fill="rgba(204, 216, 230, 1)"></path><path d="M640.5 94.5L766.5 94.5" stroke-width="3.5" stroke="rgba(204, 216, 230, 1)"></path><path d="M637 94.5 a3.5 3.5 0 1 0 7 0 a3.5 3.5 0 1 0 -7 0zM763 94.5 a3.5 3.5 0 1 0 7 0 a3.5 3.5 0 1 0 -7 0z" fill="rgba(204, 216, 230, 1)"></path><path d="M787.5 136.5L787.5 115.5L808.5 94.5L808.5 73.5" stroke-width="3.5" stroke="rgba(204, 216, 230, 1)"></path><path d="M784 136.5 a3.5 3.5 0 1 0 7 0 a3.5 3.5 0 1 0 -7 0zM805 73.5 a3.5 3.5 0 1 0 7 0 a3.5 3.5 0 1 0 -7 0z" fill="rgba(204, 216, 230, 1)"></path><path d="M682.5 115.5L640.5 115.5" stroke-width="3.5" stroke="rgba(204, 216, 230, 1)"></path><path d="M679 115.5 a3.5 3.5 0 1 0 7 0 a3.5 3.5 0 1 0 -7 0zM637 115.5 a3.5 3.5 0 1 0 7 0 a3.5 3.5 0 1 0 -7 0z" fill="rgba(204, 216, 230, 1)"></path><path d="M178.5 94.5L220.5 94.5" stroke-width="3.5" stroke="rgba(204, 216, 230, 1)"></path><path d="M175 94.5 a3.5 3.5 0 1 0 7 0 a3.5 3.5 0 1 0 -7 0zM217 94.5 a3.5 3.5 0 1 0 7 0 a3.5 3.5 0 1 0 -7 0z" fill="rgba(204, 216, 230, 1)"></path><path d="M31.5 94.5L31.5 73.5L10.5 52.5" stroke-width="3.5" stroke="rgba(204, 216, 230, 1)"></path><path d="M28 94.5 a3.5 3.5 0 1 0 7 0 a3.5 3.5 0 1 0 -7 0zM7 52.5 a3.5 3.5 0 1 0 7 0 a3.5 3.5 0 1 0 -7 0z" fill="rgba(204, 216, 230, 1)"></path></g></g><defs><mask id="SvgjsMask1008"><rect width="800" height="170" fill="#ffffff"></rect></mask></defs></svg>