<svg xmlns="http://www.w3.org/2000/svg" version="1.1" xmlns:xlink="http://www.w3.org/1999/xlink" xmlns:svgjs="http://svgjs.dev/svgjs" width="1800" height="170" preserveAspectRatio="none" viewBox="0 0 1800 170"><g mask="url(&quot;#SvgjsMask1015&quot;)" fill="none"><g><path d="M493.5 52.5L367.5 178.5L94.5 178.5" stroke-width="3.5" stroke="rgba(204, 216, 230, 1)"></path><path d="M490 52.5 a3.5 3.5 0 1 0 7 0 a3.5 3.5 0 1 0 -7 0zM91 178.5 a3.5 3.5 0 1 0 7 0 a3.5 3.5 0 1 0 -7 0z" fill="rgba(204, 216, 230, 1)"></path><path d="M1207.5 178.5L1207.5 10.5" stroke-width="3.5" stroke="rgba(204, 216, 230, 1)"></path><path d="M1204 178.5 a3.5 3.5 0 1 0 7 0 a3.5 3.5 0 1 0 -7 0zM1204 10.5 a3.5 3.5 0 1 0 7 0 a3.5 3.5 0 1 0 -7 0z" fill="rgba(204, 216, 230, 1)"></path><path d="M325.5 94.5L367.5 136.5L388.5 136.5L514.5 10.5L724.5 10.5" stroke-width="3.5" stroke="rgba(204, 216, 230, 1)"></path><path d="M322 94.5 a3.5 3.5 0 1 0 7 0 a3.5 3.5 0 1 0 -7 0zM721 10.5 a3.5 3.5 0 1 0 7 0 a3.5 3.5 0 1 0 -7 0z" fill="rgba(204, 216, 230, 1)"></path><path d="M115.5 157.5L115.5 115.5L220.5 10.5L472.5 10.5" stroke-width="3.5" stroke="rgba(204, 216, 230, 1)"></path><path d="M112 157.5 a3.5 3.5 0 1 0 7 0 a3.5 3.5 0 1 0 -7 0zM469 10.5 a3.5 3.5 0 1 0 7 0 a3.5 3.5 0 1 0 -7 0z" fill="rgba(204, 216, 230, 1)"></path><path d="M199.5 115.5L157.5 157.5L136.5 157.5" stroke-width="3.5" stroke="rgba(204, 216, 230, 1)"></path><path d="M196 115.5 a3.5 3.5 0 1 0 7 0 a3.5 3.5 0 1 0 -7 0zM133 157.5 a3.5 3.5 0 1 0 7 0 a3.5 3.5 0 1 0 -7 0z" fill="rgba(204, 216, 230, 1)"></path><path d="M1165.5 52.5L1102.5 52.5L1060.5 10.5L955.5 10.5L808.5 157.5L766.5 157.5" stroke-width="3.5" stroke="rgba(204, 216, 230, 1)"></path><path d="M1162 52.5 a3.5 3.5 0 1 0 7 0 a3.5 3.5 0 1 0 -7 0zM763 157.5 a3.5 3.5 0 1 0 7 0 a3.5 3.5 0 1 0 -7 0z" fill="rgba(204, 216, 230, 1)"></path><path d="M73.5 73.5L115.5 73.5L178.5 10.5L199.5 10.5" stroke-width="3.5" stroke="rgba(204, 216, 230, 1)"></path><path d="M70 73.5 a3.5 3.5 0 1 0 7 0 a3.5 3.5 0 1 0 -7 0zM196 10.5 a3.5 3.5 0 1 0 7 0 a3.5 3.5 0 1 0 -7 0z" fill="rgba(204, 216, 230, 1)"></path><path d="M1270.5 115.5L1333.5 178.5L1522.5 178.5L1543.5 157.5L1543.5 115.5L1627.5 31.5" stroke-width="3.5" stroke="rgba(204, 216, 230, 1)"></path><path d="M1267 115.5 a3.5 3.5 0 1 0 7 0 a3.5 3.5 0 1 0 -7 0zM1624 31.5 a3.5 3.5 0 1 0 7 0 a3.5 3.5 0 1 0 -7 0z" fill="rgba(204, 216, 230, 1)"></path><path d="M1669.5 31.5L1690.5 10.5L1753.5 10.5L1795.5 52.5L1795.5 178.5" stroke-width="3.5" stroke="rgba(204, 216, 230, 1)"></path><path d="M1666 31.5 a3.5 3.5 0 1 0 7 0 a3.5 3.5 0 1 0 -7 0zM1792 178.5 a3.5 3.5 0 1 0 7 0 a3.5 3.5 0 1 0 -7 0z" fill="rgba(204, 216, 230, 1)"></path><path d="M1249.5 73.5L1312.5 10.5L1648.5 10.5" stroke-width="3.5" stroke="rgba(204, 216, 230, 1)"></path><path d="M1246 73.5 a3.5 3.5 0 1 0 7 0 a3.5 3.5 0 1 0 -7 0zM1645 10.5 a3.5 3.5 0 1 0 7 0 a3.5 3.5 0 1 0 -7 0z" fill="rgba(204, 216, 230, 1)"></path><path d="M787.5 31.5L745.5 73.5L661.5 73.5L556.5 178.5L388.5 178.5" stroke-width="3.5" stroke="rgba(204, 216, 230, 1)"></path><path d="M784 31.5 a3.5 3.5 0 1 0 7 0 a3.5 3.5 0 1 0 -7 0zM385 178.5 a3.5 3.5 0 1 0 7 0 a3.5 3.5 0 1 0 -7 0z" fill="rgba(204, 216, 230, 1)"></path><path d="M787.5 115.5L724.5 178.5L577.5 178.5" stroke-width="3.5" stroke="rgba(204, 216, 230, 1)"></path><path d="M784 115.5 a3.5 3.5 0 1 0 7 0 a3.5 3.5 0 1 0 -7 0zM574 178.5 a3.5 3.5 0 1 0 7 0 a3.5 3.5 0 1 0 -7 0z" fill="rgba(204, 216, 230, 1)"></path><path d="M262.5 52.5L262.5 94.5L241.5 115.5L241.5 157.5" stroke-width="3.5" stroke="rgba(204, 216, 230, 1)"></path><path d="M259 52.5 a3.5 3.5 0 1 0 7 0 a3.5 3.5 0 1 0 -7 0zM238 157.5 a3.5 3.5 0 1 0 7 0 a3.5 3.5 0 1 0 -7 0z" fill="rgba(204, 216, 230, 1)"></path><path d="M724.5 157.5L598.5 157.5" stroke-width="3.5" stroke="rgba(204, 216, 230, 1)"></path><path d="M721 157.5 a3.5 3.5 0 1 0 7 0 a3.5 3.5 0 1 0 -7 0zM595 157.5 a3.5 3.5 0 1 0 7 0 a3.5 3.5 0 1 0 -7 0z" fill="rgba(204, 216, 230, 1)"></path><path d="M1165.5 136.5L1123.5 178.5L766.5 178.5" stroke-width="3.5" stroke="rgba(204, 216, 230, 1)"></path><path d="M1162 136.5 a3.5 3.5 0 1 0 7 0 a3.5 3.5 0 1 0 -7 0zM763 178.5 a3.5 3.5 0 1 0 7 0 a3.5 3.5 0 1 0 -7 0z" fill="rgba(204, 216, 230, 1)"></path><path d="M1102.5 136.5L1018.5 52.5L1018.5 31.5" stroke-width="3.5" stroke="rgba(204, 216, 230, 1)"></path><path d="M1099 136.5 a3.5 3.5 0 1 0 7 0 a3.5 3.5 0 1 0 -7 0zM1015 31.5 a3.5 3.5 0 1 0 7 0 a3.5 3.5 0 1 0 -7 0z" fill="rgba(204, 216, 230, 1)"></path><path d="M1669.5 136.5L1669.5 52.5L1648.5 31.5" stroke-width="3.5" stroke="rgba(204, 216, 230, 1)"></path><path d="M1666 136.5 a3.5 3.5 0 1 0 7 0 a3.5 3.5 0 1 0 -7 0zM1645 31.5 a3.5 3.5 0 1 0 7 0 a3.5 3.5 0 1 0 -7 0z" fill="rgba(204, 216, 230, 1)"></path><path d="M1081.5 94.5L1123.5 136.5L1123.5 157.5" stroke-width="3.5" stroke="rgba(204, 216, 230, 1)"></path><path d="M1078 94.5 a3.5 3.5 0 1 0 7 0 a3.5 3.5 0 1 0 -7 0zM1120 157.5 a3.5 3.5 0 1 0 7 0 a3.5 3.5 0 1 0 -7 0z" fill="rgba(204, 216, 230, 1)"></path><path d="M976.5 136.5L1018.5 94.5L1018.5 73.5L976.5 31.5L955.5 31.5L829.5 157.5" stroke-width="3.5" stroke="rgba(204, 216, 230, 1)"></path><path d="M973 136.5 a3.5 3.5 0 1 0 7 0 a3.5 3.5 0 1 0 -7 0zM826 157.5 a3.5 3.5 0 1 0 7 0 a3.5 3.5 0 1 0 -7 0z" fill="rgba(204, 216, 230, 1)"></path><path d="M1396.5 31.5L1312.5 31.5L1228.5 115.5L1228.5 178.5" stroke-width="3.5" stroke="rgba(204, 216, 230, 1)"></path><path d="M1393 31.5 a3.5 3.5 0 1 0 7 0 a3.5 3.5 0 1 0 -7 0zM1225 178.5 a3.5 3.5 0 1 0 7 0 a3.5 3.5 0 1 0 -7 0z" fill="rgba(204, 216, 230, 1)"></path><path d="M997.5 73.5L976.5 52.5L955.5 52.5L850.5 157.5" stroke-width="3.5" stroke="rgba(204, 216, 230, 1)"></path><path d="M994 73.5 a3.5 3.5 0 1 0 7 0 a3.5 3.5 0 1 0 -7 0zM847 157.5 a3.5 3.5 0 1 0 7 0 a3.5 3.5 0 1 0 -7 0z" fill="rgba(204, 216, 230, 1)"></path><path d="M1438.5 73.5L1438.5 157.5" stroke-width="3.5" stroke="rgba(204, 216, 230, 1)"></path><path d="M1435 73.5 a3.5 3.5 0 1 0 7 0 a3.5 3.5 0 1 0 -7 0zM1435 157.5 a3.5 3.5 0 1 0 7 0 a3.5 3.5 0 1 0 -7 0z" fill="rgba(204, 216, 230, 1)"></path><path d="M1333.5 136.5L1354.5 157.5L1417.5 157.5" stroke-width="3.5" stroke="rgba(204, 216, 230, 1)"></path><path d="M1330 136.5 a3.5 3.5 0 1 0 7 0 a3.5 3.5 0 1 0 -7 0zM1414 157.5 a3.5 3.5 0 1 0 7 0 a3.5 3.5 0 1 0 -7 0z" fill="rgba(204, 216, 230, 1)"></path><path d="M367.5 52.5L346.5 73.5L283.5 73.5" stroke-width="3.5" stroke="rgba(204, 216, 230, 1)"></path><path d="M364 52.5 a3.5 3.5 0 1 0 7 0 a3.5 3.5 0 1 0 -7 0zM280 73.5 a3.5 3.5 0 1 0 7 0 a3.5 3.5 0 1 0 -7 0z" fill="rgba(204, 216, 230, 1)"></path><path d="M283.5 94.5L304.5 94.5L367.5 157.5" stroke-width="3.5" stroke="rgba(204, 216, 230, 1)"></path><path d="M280 94.5 a3.5 3.5 0 1 0 7 0 a3.5 3.5 0 1 0 -7 0zM364 157.5 a3.5 3.5 0 1 0 7 0 a3.5 3.5 0 1 0 -7 0z" fill="rgba(204, 216, 230, 1)"></path><path d="M10.5 157.5L73.5 94.5L115.5 94.5" stroke-width="3.5" stroke="rgba(204, 216, 230, 1)"></path><path d="M7 157.5 a3.5 3.5 0 1 0 7 0 a3.5 3.5 0 1 0 -7 0zM112 94.5 a3.5 3.5 0 1 0 7 0 a3.5 3.5 0 1 0 -7 0z" fill="rgba(204, 216, 230, 1)"></path><path d="M1522.5 31.5L1606.5 31.5" stroke-width="3.5" stroke="rgba(204, 216, 230, 1)"></path><path d="M1519 31.5 a3.5 3.5 0 1 0 7 0 a3.5 3.5 0 1 0 -7 0zM1603 31.5 a3.5 3.5 0 1 0 7 0 a3.5 3.5 0 1 0 -7 0z" fill="rgba(204, 216, 230, 1)"></path><path d="M178.5 73.5L178.5 115.5L157.5 136.5L136.5 136.5" stroke-width="3.5" stroke="rgba(204, 216, 230, 1)"></path><path d="M175 73.5 a3.5 3.5 0 1 0 7 0 a3.5 3.5 0 1 0 -7 0zM133 136.5 a3.5 3.5 0 1 0 7 0 a3.5 3.5 0 1 0 -7 0z" fill="rgba(204, 216, 230, 1)"></path><path d="M1375.5 73.5L1417.5 115.5L1417.5 136.5" stroke-width="3.5" stroke="rgba(204, 216, 230, 1)"></path><path d="M1372 73.5 a3.5 3.5 0 1 0 7 0 a3.5 3.5 0 1 0 -7 0zM1414 136.5 a3.5 3.5 0 1 0 7 0 a3.5 3.5 0 1 0 -7 0z" fill="rgba(204, 216, 230, 1)"></path><path d="M388.5 31.5L220.5 31.5L199.5 52.5L199.5 94.5L220.5 115.5L220.5 157.5" stroke-width="3.5" stroke="rgba(204, 216, 230, 1)"></path><path d="M385 31.5 a3.5 3.5 0 1 0 7 0 a3.5 3.5 0 1 0 -7 0zM217 157.5 a3.5 3.5 0 1 0 7 0 a3.5 3.5 0 1 0 -7 0z" fill="rgba(204, 216, 230, 1)"></path><path d="M1648.5 136.5L1648.5 52.5" stroke-width="3.5" stroke="rgba(204, 216, 230, 1)"></path><path d="M1645 136.5 a3.5 3.5 0 1 0 7 0 a3.5 3.5 0 1 0 -7 0zM1645 52.5 a3.5 3.5 0 1 0 7 0 a3.5 3.5 0 1 0 -7 0z" fill="rgba(204, 216, 230, 1)"></path><path d="M1501.5 94.5L1459.5 94.5" stroke-width="3.5" stroke="rgba(204, 216, 230, 1)"></path><path d="M1498 94.5 a3.5 3.5 0 1 0 7 0 a3.5 3.5 0 1 0 -7 0zM1456 94.5 a3.5 3.5 0 1 0 7 0 a3.5 3.5 0 1 0 -7 0z" fill="rgba(204, 216, 230, 1)"></path><path d="M1711.5 94.5L1711.5 157.5L1690.5 178.5L1543.5 178.5" stroke-width="3.5" stroke="rgba(204, 216, 230, 1)"></path><path d="M1708 94.5 a3.5 3.5 0 1 0 7 0 a3.5 3.5 0 1 0 -7 0zM1540 178.5 a3.5 3.5 0 1 0 7 0 a3.5 3.5 0 1 0 -7 0z" fill="rgba(204, 216, 230, 1)"></path><path d="M1627.5 115.5L1627.5 136.5L1648.5 157.5L1690.5 157.5" stroke-width="3.5" stroke="rgba(204, 216, 230, 1)"></path><path d="M1624 115.5 a3.5 3.5 0 1 0 7 0 a3.5 3.5 0 1 0 -7 0zM1687 157.5 a3.5 3.5 0 1 0 7 0 a3.5 3.5 0 1 0 -7 0z" fill="rgba(204, 216, 230, 1)"></path><path d="M451.5 157.5L556.5 157.5L682.5 31.5L703.5 31.5L724.5 52.5L745.5 52.5L787.5 10.5L850.5 10.5" stroke-width="3.5" stroke="rgba(204, 216, 230, 1)"></path><path d="M448 157.5 a3.5 3.5 0 1 0 7 0 a3.5 3.5 0 1 0 -7 0zM847 10.5 a3.5 3.5 0 1 0 7 0 a3.5 3.5 0 1 0 -7 0z" fill="rgba(204, 216, 230, 1)"></path><path d="M388.5 52.5L409.5 31.5L472.5 31.5" stroke-width="3.5" stroke="rgba(204, 216, 230, 1)"></path><path d="M385 52.5 a3.5 3.5 0 1 0 7 0 a3.5 3.5 0 1 0 -7 0zM469 31.5 a3.5 3.5 0 1 0 7 0 a3.5 3.5 0 1 0 -7 0z" fill="rgba(204, 216, 230, 1)"></path><path d="M1774.5 94.5L1774.5 52.5L1753.5 31.5L1690.5 31.5" stroke-width="3.5" stroke="rgba(204, 216, 230, 1)"></path><path d="M1771 94.5 a3.5 3.5 0 1 0 7 0 a3.5 3.5 0 1 0 -7 0zM1687 31.5 a3.5 3.5 0 1 0 7 0 a3.5 3.5 0 1 0 -7 0z" fill="rgba(204, 216, 230, 1)"></path><path d="M1501.5 52.5L1333.5 52.5L1291.5 94.5L1291.5 115.5L1312.5 136.5" stroke-width="3.5" stroke="rgba(204, 216, 230, 1)"></path><path d="M1498 52.5 a3.5 3.5 0 1 0 7 0 a3.5 3.5 0 1 0 -7 0zM1309 136.5 a3.5 3.5 0 1 0 7 0 a3.5 3.5 0 1 0 -7 0z" fill="rgba(204, 216, 230, 1)"></path><path d="M1354.5 94.5L1375.5 94.5L1396.5 115.5L1396.5 136.5" stroke-width="3.5" stroke="rgba(204, 216, 230, 1)"></path><path d="M1351 94.5 a3.5 3.5 0 1 0 7 0 a3.5 3.5 0 1 0 -7 0zM1393 136.5 a3.5 3.5 0 1 0 7 0 a3.5 3.5 0 1 0 -7 0z" fill="rgba(204, 216, 230, 1)"></path><path d="M451.5 136.5L430.5 157.5L409.5 157.5" stroke-width="3.5" stroke="rgba(204, 216, 230, 1)"></path><path d="M448 136.5 a3.5 3.5 0 1 0 7 0 a3.5 3.5 0 1 0 -7 0zM406 157.5 a3.5 3.5 0 1 0 7 0 a3.5 3.5 0 1 0 -7 0z" fill="rgba(204, 216, 230, 1)"></path><path d="M577.5 73.5L577.5 31.5" stroke-width="3.5" stroke="rgba(204, 216, 230, 1)"></path><path d="M574 73.5 a3.5 3.5 0 1 0 7 0 a3.5 3.5 0 1 0 -7 0zM574 31.5 a3.5 3.5 0 1 0 7 0 a3.5 3.5 0 1 0 -7 0z" fill="rgba(204, 216, 230, 1)"></path><path d="M1501.5 115.5L1522.5 115.5L1585.5 52.5" stroke-width="3.5" stroke="rgba(204, 216, 230, 1)"></path><path d="M1498 115.5 a3.5 3.5 0 1 0 7 0 a3.5 3.5 0 1 0 -7 0zM1582 52.5 a3.5 3.5 0 1 0 7 0 a3.5 3.5 0 1 0 -7 0z" fill="rgba(204, 216, 230, 1)"></path><path d="M829.5 52.5L745.5 136.5L619.5 136.5" stroke-width="3.5" stroke="rgba(204, 216, 230, 1)"></path><path d="M826 52.5 a3.5 3.5 0 1 0 7 0 a3.5 3.5 0 1 0 -7 0zM616 136.5 a3.5 3.5 0 1 0 7 0 a3.5 3.5 0 1 0 -7 0z" fill="rgba(204, 216, 230, 1)"></path><path d="M703.5 94.5L766.5 94.5L829.5 31.5L913.5 31.5L934.5 10.5" stroke-width="3.5" stroke="rgba(204, 216, 230, 1)"></path><path d="M700 94.5 a3.5 3.5 0 1 0 7 0 a3.5 3.5 0 1 0 -7 0zM931 10.5 a3.5 3.5 0 1 0 7 0 a3.5 3.5 0 1 0 -7 0z" fill="rgba(204, 216, 230, 1)"></path><path d="M220.5 52.5L220.5 94.5" stroke-width="3.5" stroke="rgba(204, 216, 230, 1)"></path><path d="M217 52.5 a3.5 3.5 0 1 0 7 0 a3.5 3.5 0 1 0 -7 0zM217 94.5 a3.5 3.5 0 1 0 7 0 a3.5 3.5 0 1 0 -7 0z" fill="rgba(204, 216, 230, 1)"></path><path d="M115.5 10.5L115.5 31.5L94.5 52.5L10.5 52.5" stroke-width="3.5" stroke="rgba(204, 216, 230, 1)"></path><path d="M112 10.5 a3.5 3.5 0 1 0 7 0 a3.5 3.5 0 1 0 -7 0zM7 52.5 a3.5 3.5 0 1 0 7 0 a3.5 3.5 0 1 0 -7 0z" fill="rgba(204, 216, 230, 1)"></path><path d="M619.5 73.5L556.5 136.5L514.5 136.5L472.5 94.5" stroke-width="3.5" stroke="rgba(204, 216, 230, 1)"></path><path d="M616 73.5 a3.5 3.5 0 1 0 7 0 a3.5 3.5 0 1 0 -7 0zM469 94.5 a3.5 3.5 0 1 0 7 0 a3.5 3.5 0 1 0 -7 0z" fill="rgba(204, 216, 230, 1)"></path><path d="M892.5 157.5L955.5 94.5" stroke-width="3.5" stroke="rgba(204, 216, 230, 1)"></path><path d="M889 157.5 a3.5 3.5 0 1 0 7 0 a3.5 3.5 0 1 0 -7 0zM952 94.5 a3.5 3.5 0 1 0 7 0 a3.5 3.5 0 1 0 -7 0z" fill="rgba(204, 216, 230, 1)"></path><path d="M1564.5 115.5L1627.5 52.5" stroke-width="3.5" stroke="rgba(204, 216, 230, 1)"></path><path d="M1561 115.5 a3.5 3.5 0 1 0 7 0 a3.5 3.5 0 1 0 -7 0zM1624 52.5 a3.5 3.5 0 1 0 7 0 a3.5 3.5 0 1 0 -7 0z" fill="rgba(204, 216, 230, 1)"></path><path d="M52.5 178.5L94.5 136.5L94.5 115.5" stroke-width="3.5" stroke="rgba(204, 216, 230, 1)"></path><path d="M49 178.5 a3.5 3.5 0 1 0 7 0 a3.5 3.5 0 1 0 -7 0zM91 115.5 a3.5 3.5 0 1 0 7 0 a3.5 3.5 0 1 0 -7 0z" fill="rgba(204, 216, 230, 1)"></path><path d="M1249.5 52.5L1291.5 10.5" stroke-width="3.5" stroke="rgba(204, 216, 230, 1)"></path><path d="M1246 52.5 a3.5 3.5 0 1 0 7 0 a3.5 3.5 0 1 0 -7 0zM1288 10.5 a3.5 3.5 0 1 0 7 0 a3.5 3.5 0 1 0 -7 0z" fill="rgba(204, 216, 230, 1)"></path><path d="M409.5 94.5L451.5 52.5" stroke-width="3.5" stroke="rgba(204, 216, 230, 1)"></path><path d="M406 94.5 a3.5 3.5 0 1 0 7 0 a3.5 3.5 0 1 0 -7 0zM448 52.5 a3.5 3.5 0 1 0 7 0 a3.5 3.5 0 1 0 -7 0z" fill="rgba(204, 216, 230, 1)"></path><path d="M556.5 73.5L556.5 115.5" stroke-width="3.5" stroke="rgba(204, 216, 230, 1)"></path><path d="M553 73.5 a3.5 3.5 0 1 0 7 0 a3.5 3.5 0 1 0 -7 0zM553 115.5 a3.5 3.5 0 1 0 7 0 a3.5 3.5 0 1 0 -7 0z" fill="rgba(204, 216, 230, 1)"></path><path d="M1123.5 31.5L1165.5 31.5L1186.5 10.5" stroke-width="3.5" stroke="rgba(204, 216, 230, 1)"></path><path d="M1120 31.5 a3.5 3.5 0 1 0 7 0 a3.5 3.5 0 1 0 -7 0zM1183 10.5 a3.5 3.5 0 1 0 7 0 a3.5 3.5 0 1 0 -7 0z" fill="rgba(204, 216, 230, 1)"></path><path d="M31.5 157.5L73.5 115.5" stroke-width="3.5" stroke="rgba(204, 216, 230, 1)"></path><path d="M28 157.5 a3.5 3.5 0 1 0 7 0 a3.5 3.5 0 1 0 -7 0zM70 115.5 a3.5 3.5 0 1 0 7 0 a3.5 3.5 0 1 0 -7 0z" fill="rgba(204, 216, 230, 1)"></path><path d="M1774.5 136.5L1732.5 136.5" stroke-width="3.5" stroke="rgba(204, 216, 230, 1)"></path><path d="M1771 136.5 a3.5 3.5 0 1 0 7 0 a3.5 3.5 0 1 0 -7 0zM1729 136.5 a3.5 3.5 0 1 0 7 0 a3.5 3.5 0 1 0 -7 0z" fill="rgba(204, 216, 230, 1)"></path><path d="M1249.5 10.5L1249.5 31.5L1228.5 52.5L1228.5 94.5" stroke-width="3.5" stroke="rgba(204, 216, 230, 1)"></path><path d="M1246 10.5 a3.5 3.5 0 1 0 7 0 a3.5 3.5 0 1 0 -7 0zM1225 94.5 a3.5 3.5 0 1 0 7 0 a3.5 3.5 0 1 0 -7 0z" fill="rgba(204, 216, 230, 1)"></path><path d="M640.5 52.5L598.5 52.5" stroke-width="3.5" stroke="rgba(204, 216, 230, 1)"></path><path d="M637 52.5 a3.5 3.5 0 1 0 7 0 a3.5 3.5 0 1 0 -7 0zM595 52.5 a3.5 3.5 0 1 0 7 0 a3.5 3.5 0 1 0 -7 0z" fill="rgba(204, 216, 230, 1)"></path><path d="M10.5 31.5L31.5 10.5L94.5 10.5" stroke-width="3.5" stroke="rgba(204, 216, 230, 1)"></path><path d="M7 31.5 a3.5 3.5 0 1 0 7 0 a3.5 3.5 0 1 0 -7 0zM91 10.5 a3.5 3.5 0 1 0 7 0 a3.5 3.5 0 1 0 -7 0z" fill="rgba(204, 216, 230, 1)"></path><path d="M1585.5 115.5L1564.5 136.5L1564.5 157.5" stroke-width="3.5" stroke="rgba(204, 216, 230, 1)"></path><path d="M1582 115.5 a3.5 3.5 0 1 0 7 0 a3.5 3.5 0 1 0 -7 0zM1561 157.5 a3.5 3.5 0 1 0 7 0 a3.5 3.5 0 1 0 -7 0z" fill="rgba(204, 216, 230, 1)"></path><path d="M1774.5 115.5L1711.5 52.5" stroke-width="3.5" stroke="rgba(204, 216, 230, 1)"></path><path d="M1771 115.5 a3.5 3.5 0 1 0 7 0 a3.5 3.5 0 1 0 -7 0zM1708 52.5 a3.5 3.5 0 1 0 7 0 a3.5 3.5 0 1 0 -7 0z" fill="rgba(204, 216, 230, 1)"></path><path d="M556.5 31.5L556.5 52.5L535.5 73.5L493.5 73.5" stroke-width="3.5" stroke="rgba(204, 216, 230, 1)"></path><path d="M553 31.5 a3.5 3.5 0 1 0 7 0 a3.5 3.5 0 1 0 -7 0zM490 73.5 a3.5 3.5 0 1 0 7 0 a3.5 3.5 0 1 0 -7 0z" fill="rgba(204, 216, 230, 1)"></path><path d="M1249.5 157.5L1249.5 115.5" stroke-width="3.5" stroke="rgba(204, 216, 230, 1)"></path><path d="M1246 157.5 a3.5 3.5 0 1 0 7 0 a3.5 3.5 0 1 0 -7 0zM1246 115.5 a3.5 3.5 0 1 0 7 0 a3.5 3.5 0 1 0 -7 0z" fill="rgba(204, 216, 230, 1)"></path><path d="M31.5 31.5L94.5 31.5" stroke-width="3.5" stroke="rgba(204, 216, 230, 1)"></path><path d="M28 31.5 a3.5 3.5 0 1 0 7 0 a3.5 3.5 0 1 0 -7 0zM91 31.5 a3.5 3.5 0 1 0 7 0 a3.5 3.5 0 1 0 -7 0z" fill="rgba(204, 216, 230, 1)"></path><path d="M1102.5 94.5L1123.5 73.5L1186.5 73.5" stroke-width="3.5" stroke="rgba(204, 216, 230, 1)"></path><path d="M1099 94.5 a3.5 3.5 0 1 0 7 0 a3.5 3.5 0 1 0 -7 0zM1183 73.5 a3.5 3.5 0 1 0 7 0 a3.5 3.5 0 1 0 -7 0z" fill="rgba(204, 216, 230, 1)"></path><path d="M829.5 115.5L808.5 136.5L787.5 136.5" stroke-width="3.5" stroke="rgba(204, 216, 230, 1)"></path><path d="M826 115.5 a3.5 3.5 0 1 0 7 0 a3.5 3.5 0 1 0 -7 0zM784 136.5 a3.5 3.5 0 1 0 7 0 a3.5 3.5 0 1 0 -7 0z" fill="rgba(204, 216, 230, 1)"></path><path d="M1375.5 136.5L1354.5 115.5L1312.5 115.5" stroke-width="3.5" stroke="rgba(204, 216, 230, 1)"></path><path d="M1372 136.5 a3.5 3.5 0 1 0 7 0 a3.5 3.5 0 1 0 -7 0zM1309 115.5 a3.5 3.5 0 1 0 7 0 a3.5 3.5 0 1 0 -7 0z" fill="rgba(204, 216, 230, 1)"></path><path d="M1165.5 157.5L1186.5 136.5L1186.5 115.5L1165.5 94.5L1123.5 94.5" stroke-width="3.5" stroke="rgba(204, 216, 230, 1)"></path><path d="M1162 157.5 a3.5 3.5 0 1 0 7 0 a3.5 3.5 0 1 0 -7 0zM1120 94.5 a3.5 3.5 0 1 0 7 0 a3.5 3.5 0 1 0 -7 0z" fill="rgba(204, 216, 230, 1)"></path><path d="M1060.5 136.5L1018.5 136.5" stroke-width="3.5" stroke="rgba(204, 216, 230, 1)"></path><path d="M1057 136.5 a3.5 3.5 0 1 0 7 0 a3.5 3.5 0 1 0 -7 0zM1015 136.5 a3.5 3.5 0 1 0 7 0 a3.5 3.5 0 1 0 -7 0z" fill="rgba(204, 216, 230, 1)"></path><path d="M1060.5 73.5L1039.5 52.5L1039.5 31.5" stroke-width="3.5" stroke="rgba(204, 216, 230, 1)"></path><path d="M1057 73.5 a3.5 3.5 0 1 0 7 0 a3.5 3.5 0 1 0 -7 0zM1036 31.5 a3.5 3.5 0 1 0 7 0 a3.5 3.5 0 1 0 -7 0z" fill="rgba(204, 216, 230, 1)"></path><path d="M31.5 73.5L31.5 115.5L10.5 136.5" stroke-width="3.5" stroke="rgba(204, 216, 230, 1)"></path><path d="M28 73.5 a3.5 3.5 0 1 0 7 0 a3.5 3.5 0 1 0 -7 0zM7 136.5 a3.5 3.5 0 1 0 7 0 a3.5 3.5 0 1 0 -7 0z" fill="rgba(204, 216, 230, 1)"></path><path d="M1249.5 178.5L1270.5 157.5L1270.5 136.5" stroke-width="3.5" stroke="rgba(204, 216, 230, 1)"></path><path d="M1246 178.5 a3.5 3.5 0 1 0 7 0 a3.5 3.5 0 1 0 -7 0zM1267 136.5 a3.5 3.5 0 1 0 7 0 a3.5 3.5 0 1 0 -7 0z" fill="rgba(204, 216, 230, 1)"></path><path d="M1039.5 157.5L1102.5 157.5" stroke-width="3.5" stroke="rgba(204, 216, 230, 1)"></path><path d="M1036 157.5 a3.5 3.5 0 1 0 7 0 a3.5 3.5 0 1 0 -7 0zM1099 157.5 a3.5 3.5 0 1 0 7 0 a3.5 3.5 0 1 0 -7 0z" fill="rgba(204, 216, 230, 1)"></path><path d="M955.5 115.5L955.5 157.5" stroke-width="3.5" stroke="rgba(204, 216, 230, 1)"></path><path d="M952 115.5 a3.5 3.5 0 1 0 7 0 a3.5 3.5 0 1 0 -7 0zM952 157.5 a3.5 3.5 0 1 0 7 0 a3.5 3.5 0 1 0 -7 0z" fill="rgba(204, 216, 230, 1)"></path><path d="M262.5 157.5L283.5 157.5L304.5 136.5" stroke-width="3.5" stroke="rgba(204, 216, 230, 1)"></path><path d="M259 157.5 a3.5 3.5 0 1 0 7 0 a3.5 3.5 0 1 0 -7 0zM301 136.5 a3.5 3.5 0 1 0 7 0 a3.5 3.5 0 1 0 -7 0z" fill="rgba(204, 216, 230, 1)"></path><path d="M1165.5 115.5L1123.5 115.5" stroke-width="3.5" stroke="rgba(204, 216, 230, 1)"></path><path d="M1162 115.5 a3.5 3.5 0 1 0 7 0 a3.5 3.5 0 1 0 -7 0zM1120 115.5 a3.5 3.5 0 1 0 7 0 a3.5 3.5 0 1 0 -7 0z" fill="rgba(204, 216, 230, 1)"></path><path d="M619.5 31.5L661.5 31.5" stroke-width="3.5" stroke="rgba(204, 216, 230, 1)"></path><path d="M616 31.5 a3.5 3.5 0 1 0 7 0 a3.5 3.5 0 1 0 -7 0zM658 31.5 a3.5 3.5 0 1 0 7 0 a3.5 3.5 0 1 0 -7 0z" fill="rgba(204, 216, 230, 1)"></path><path d="M388.5 115.5L367.5 94.5L367.5 73.5" stroke-width="3.5" stroke="rgba(204, 216, 230, 1)"></path><path d="M385 115.5 a3.5 3.5 0 1 0 7 0 a3.5 3.5 0 1 0 -7 0zM364 73.5 a3.5 3.5 0 1 0 7 0 a3.5 3.5 0 1 0 -7 0z" fill="rgba(204, 216, 230, 1)"></path><path d="M241.5 94.5L241.5 52.5" stroke-width="3.5" stroke="rgba(204, 216, 230, 1)"></path><path d="M238 94.5 a3.5 3.5 0 1 0 7 0 a3.5 3.5 0 1 0 -7 0zM238 52.5 a3.5 3.5 0 1 0 7 0 a3.5 3.5 0 1 0 -7 0z" fill="rgba(204, 216, 230, 1)"></path></g></g><defs><mask id="SvgjsMask1015"><rect width="1800" height="170" fill="#ffffff"></rect></mask></defs></svg>