<svg xmlns="http://www.w3.org/2000/svg" version="1.1" xmlns:xlink="http://www.w3.org/1999/xlink" xmlns:svgjs="http://svgjs.dev/svgjs" width="1440" height="560" preserveAspectRatio="none" viewBox="0 0 1440 560"><g mask="url(&quot;#SvgjsMask1001&quot;)" fill="none"><path d="M204.13 -44.64L269.08 -7.14L269.08 67.86L204.13 105.36L139.17 67.86L139.17 -7.14zM269.08 67.86L334.03 105.36L334.03 180.36L269.08 217.86L204.13 180.36L204.13 105.36zM204.13 405.36L269.08 442.86L269.08 517.86L204.13 555.36L139.17 517.86L139.17 442.86zM269.08 517.86L334.03 555.36L334.03 630.36L269.08 667.86L204.13 630.36L204.13 555.36zM334.03 180.36L398.99 217.86L398.99 292.86L334.03 330.36L269.08 292.86L269.08 217.86zM398.99 292.86L463.94 330.36L463.94 405.36L398.99 442.86L334.03 405.36L334.03 330.36zM334.03 405.36L398.99 442.86L398.99 517.86L334.03 555.36L269.08 517.86L269.08 442.86zM398.99 517.86L463.94 555.36L463.94 630.36L398.99 667.86L334.03 630.36L334.03 555.36zM463.94 -44.64L528.9 -7.14L528.9 67.86L463.94 105.36L398.99 67.86L398.99 -7.14zM528.9 67.86L593.85 105.36L593.85 180.36L528.9 217.86L463.94 180.36L463.94 105.36zM463.94 180.36L528.9 217.86L528.9 292.86L463.94 330.36L398.99 292.86L398.99 217.86zM593.85 -44.64L658.8 -7.14L658.8 67.86L593.85 105.36L528.9 67.86L528.9 -7.14zM593.85 405.36L658.8 442.86L658.8 517.86L593.85 555.36L528.9 517.86L528.9 442.86zM658.8 517.86L723.76 555.36L723.76 630.36L658.8 667.86L593.85 630.36L593.85 555.36zM723.76 180.36L788.71 217.86L788.71 292.86L723.76 330.36L658.8 292.86L658.8 217.86zM723.76 405.36L788.71 442.86L788.71 517.86L723.76 555.36L658.8 517.86L658.8 442.86zM853.66 -44.64L918.62 -7.14L918.62 67.86L853.66 105.36L788.71 67.86L788.71 -7.14zM918.62 67.86L983.57 105.36L983.57 180.36L918.62 217.86L853.66 180.36L853.66 105.36zM918.62 292.86L983.57 330.36L983.57 405.36L918.62 442.86L853.66 405.36L853.66 330.36zM918.62 517.86L983.57 555.36L983.57 630.36L918.62 667.86L853.66 630.36L853.66 555.36zM983.57 180.36L1048.53 217.86L1048.53 292.86L983.57 330.36L918.62 292.86L918.62 217.86zM983.57 405.36L1048.53 442.86L1048.53 517.86L983.57 555.36L918.62 517.86L918.62 442.86zM1113.48 -44.64L1178.43 -7.14L1178.43 67.86L1113.48 105.36L1048.53 67.86L1048.53 -7.14zM1178.43 67.86L1243.39 105.36L1243.39 180.36L1178.43 217.86L1113.48 180.36L1113.48 105.36zM1178.43 292.86L1243.39 330.36L1243.39 405.36L1178.43 442.86L1113.48 405.36L1113.48 330.36zM1243.39 -44.64L1308.34 -7.14L1308.34 67.86L1243.39 105.36L1178.43 67.86L1178.43 -7.14zM1308.34 67.86L1373.29 105.36L1373.29 180.36L1308.34 217.86L1243.39 180.36L1243.39 105.36zM1243.39 180.36L1308.34 217.86L1308.34 292.86L1243.39 330.36L1178.43 292.86L1178.43 217.86zM1373.3 405.36L1438.25 442.86L1438.25 517.86L1373.3 555.36L1308.34 517.86L1308.34 442.86zM1503.2 -44.64L1568.16 -7.14L1568.16 67.86L1503.2 105.36L1438.25 67.86L1438.25 -7.14zM1503.2 405.36L1568.16 442.86L1568.16 517.86L1503.2 555.36L1438.25 517.86L1438.25 442.86z" stroke="#03305d" stroke-width="2"></path><path d="M196.63 -44.64 a7.5 7.5 0 1 0 15 0 a7.5 7.5 0 1 0 -15 0zM261.58 -7.14 a7.5 7.5 0 1 0 15 0 a7.5 7.5 0 1 0 -15 0zM261.58 67.86 a7.5 7.5 0 1 0 15 0 a7.5 7.5 0 1 0 -15 0zM196.63 105.36 a7.5 7.5 0 1 0 15 0 a7.5 7.5 0 1 0 -15 0zM131.67 67.86 a7.5 7.5 0 1 0 15 0 a7.5 7.5 0 1 0 -15 0zM131.67 -7.14 a7.5 7.5 0 1 0 15 0 a7.5 7.5 0 1 0 -15 0zM326.53 105.36 a7.5 7.5 0 1 0 15 0 a7.5 7.5 0 1 0 -15 0zM326.53 180.36 a7.5 7.5 0 1 0 15 0 a7.5 7.5 0 1 0 -15 0zM261.58 217.86 a7.5 7.5 0 1 0 15 0 a7.5 7.5 0 1 0 -15 0zM196.63 180.36 a7.5 7.5 0 1 0 15 0 a7.5 7.5 0 1 0 -15 0zM196.63 405.36 a7.5 7.5 0 1 0 15 0 a7.5 7.5 0 1 0 -15 0zM261.58 442.86 a7.5 7.5 0 1 0 15 0 a7.5 7.5 0 1 0 -15 0zM261.58 517.86 a7.5 7.5 0 1 0 15 0 a7.5 7.5 0 1 0 -15 0zM196.63 555.36 a7.5 7.5 0 1 0 15 0 a7.5 7.5 0 1 0 -15 0zM131.67 517.86 a7.5 7.5 0 1 0 15 0 a7.5 7.5 0 1 0 -15 0zM131.67 442.86 a7.5 7.5 0 1 0 15 0 a7.5 7.5 0 1 0 -15 0zM326.53 555.36 a7.5 7.5 0 1 0 15 0 a7.5 7.5 0 1 0 -15 0zM326.53 630.36 a7.5 7.5 0 1 0 15 0 a7.5 7.5 0 1 0 -15 0zM261.58 667.86 a7.5 7.5 0 1 0 15 0 a7.5 7.5 0 1 0 -15 0zM196.63 630.36 a7.5 7.5 0 1 0 15 0 a7.5 7.5 0 1 0 -15 0zM391.49 217.86 a7.5 7.5 0 1 0 15 0 a7.5 7.5 0 1 0 -15 0zM391.49 292.86 a7.5 7.5 0 1 0 15 0 a7.5 7.5 0 1 0 -15 0zM326.53 330.36 a7.5 7.5 0 1 0 15 0 a7.5 7.5 0 1 0 -15 0zM261.58 292.86 a7.5 7.5 0 1 0 15 0 a7.5 7.5 0 1 0 -15 0zM456.44 330.36 a7.5 7.5 0 1 0 15 0 a7.5 7.5 0 1 0 -15 0zM456.44 405.36 a7.5 7.5 0 1 0 15 0 a7.5 7.5 0 1 0 -15 0zM391.49 442.86 a7.5 7.5 0 1 0 15 0 a7.5 7.5 0 1 0 -15 0zM326.53 405.36 a7.5 7.5 0 1 0 15 0 a7.5 7.5 0 1 0 -15 0zM391.49 517.86 a7.5 7.5 0 1 0 15 0 a7.5 7.5 0 1 0 -15 0zM456.44 555.36 a7.5 7.5 0 1 0 15 0 a7.5 7.5 0 1 0 -15 0zM456.44 630.36 a7.5 7.5 0 1 0 15 0 a7.5 7.5 0 1 0 -15 0zM391.49 667.86 a7.5 7.5 0 1 0 15 0 a7.5 7.5 0 1 0 -15 0zM456.44 -44.64 a7.5 7.5 0 1 0 15 0 a7.5 7.5 0 1 0 -15 0zM521.4 -7.14 a7.5 7.5 0 1 0 15 0 a7.5 7.5 0 1 0 -15 0zM521.4 67.86 a7.5 7.5 0 1 0 15 0 a7.5 7.5 0 1 0 -15 0zM456.44 105.36 a7.5 7.5 0 1 0 15 0 a7.5 7.5 0 1 0 -15 0zM391.49 67.86 a7.5 7.5 0 1 0 15 0 a7.5 7.5 0 1 0 -15 0zM391.49 -7.14 a7.5 7.5 0 1 0 15 0 a7.5 7.5 0 1 0 -15 0zM586.35 105.36 a7.5 7.5 0 1 0 15 0 a7.5 7.5 0 1 0 -15 0zM586.35 180.36 a7.5 7.5 0 1 0 15 0 a7.5 7.5 0 1 0 -15 0zM521.4 217.86 a7.5 7.5 0 1 0 15 0 a7.5 7.5 0 1 0 -15 0zM456.44 180.36 a7.5 7.5 0 1 0 15 0 a7.5 7.5 0 1 0 -15 0zM521.4 292.86 a7.5 7.5 0 1 0 15 0 a7.5 7.5 0 1 0 -15 0zM586.35 -44.64 a7.5 7.5 0 1 0 15 0 a7.5 7.5 0 1 0 -15 0zM651.3 -7.14 a7.5 7.5 0 1 0 15 0 a7.5 7.5 0 1 0 -15 0zM651.3 67.86 a7.5 7.5 0 1 0 15 0 a7.5 7.5 0 1 0 -15 0zM586.35 405.36 a7.5 7.5 0 1 0 15 0 a7.5 7.5 0 1 0 -15 0zM651.3 442.86 a7.5 7.5 0 1 0 15 0 a7.5 7.5 0 1 0 -15 0zM651.3 517.86 a7.5 7.5 0 1 0 15 0 a7.5 7.5 0 1 0 -15 0zM586.35 555.36 a7.5 7.5 0 1 0 15 0 a7.5 7.5 0 1 0 -15 0zM521.4 517.86 a7.5 7.5 0 1 0 15 0 a7.5 7.5 0 1 0 -15 0zM521.4 442.86 a7.5 7.5 0 1 0 15 0 a7.5 7.5 0 1 0 -15 0zM716.26 555.36 a7.5 7.5 0 1 0 15 0 a7.5 7.5 0 1 0 -15 0zM716.26 630.36 a7.5 7.5 0 1 0 15 0 a7.5 7.5 0 1 0 -15 0zM651.3 667.86 a7.5 7.5 0 1 0 15 0 a7.5 7.5 0 1 0 -15 0zM586.35 630.36 a7.5 7.5 0 1 0 15 0 a7.5 7.5 0 1 0 -15 0zM716.26 180.36 a7.5 7.5 0 1 0 15 0 a7.5 7.5 0 1 0 -15 0zM781.21 217.86 a7.5 7.5 0 1 0 15 0 a7.5 7.5 0 1 0 -15 0zM781.21 292.86 a7.5 7.5 0 1 0 15 0 a7.5 7.5 0 1 0 -15 0zM716.26 330.36 a7.5 7.5 0 1 0 15 0 a7.5 7.5 0 1 0 -15 0zM651.3 292.86 a7.5 7.5 0 1 0 15 0 a7.5 7.5 0 1 0 -15 0zM651.3 217.86 a7.5 7.5 0 1 0 15 0 a7.5 7.5 0 1 0 -15 0zM716.26 405.36 a7.5 7.5 0 1 0 15 0 a7.5 7.5 0 1 0 -15 0zM781.21 442.86 a7.5 7.5 0 1 0 15 0 a7.5 7.5 0 1 0 -15 0zM781.21 517.86 a7.5 7.5 0 1 0 15 0 a7.5 7.5 0 1 0 -15 0zM846.16 -44.64 a7.5 7.5 0 1 0 15 0 a7.5 7.5 0 1 0 -15 0zM911.12 -7.14 a7.5 7.5 0 1 0 15 0 a7.5 7.5 0 1 0 -15 0zM911.12 67.86 a7.5 7.5 0 1 0 15 0 a7.5 7.5 0 1 0 -15 0zM846.16 105.36 a7.5 7.5 0 1 0 15 0 a7.5 7.5 0 1 0 -15 0zM781.21 67.86 a7.5 7.5 0 1 0 15 0 a7.5 7.5 0 1 0 -15 0zM781.21 -7.14 a7.5 7.5 0 1 0 15 0 a7.5 7.5 0 1 0 -15 0zM976.07 105.36 a7.5 7.5 0 1 0 15 0 a7.5 7.5 0 1 0 -15 0zM976.07 180.36 a7.5 7.5 0 1 0 15 0 a7.5 7.5 0 1 0 -15 0zM911.12 217.86 a7.5 7.5 0 1 0 15 0 a7.5 7.5 0 1 0 -15 0zM846.16 180.36 a7.5 7.5 0 1 0 15 0 a7.5 7.5 0 1 0 -15 0zM911.12 292.86 a7.5 7.5 0 1 0 15 0 a7.5 7.5 0 1 0 -15 0zM976.07 330.36 a7.5 7.5 0 1 0 15 0 a7.5 7.5 0 1 0 -15 0zM976.07 405.36 a7.5 7.5 0 1 0 15 0 a7.5 7.5 0 1 0 -15 0zM911.12 442.86 a7.5 7.5 0 1 0 15 0 a7.5 7.5 0 1 0 -15 0zM846.16 405.36 a7.5 7.5 0 1 0 15 0 a7.5 7.5 0 1 0 -15 0zM846.16 330.36 a7.5 7.5 0 1 0 15 0 a7.5 7.5 0 1 0 -15 0zM911.12 517.86 a7.5 7.5 0 1 0 15 0 a7.5 7.5 0 1 0 -15 0zM976.07 555.36 a7.5 7.5 0 1 0 15 0 a7.5 7.5 0 1 0 -15 0zM976.07 630.36 a7.5 7.5 0 1 0 15 0 a7.5 7.5 0 1 0 -15 0zM911.12 667.86 a7.5 7.5 0 1 0 15 0 a7.5 7.5 0 1 0 -15 0zM846.16 630.36 a7.5 7.5 0 1 0 15 0 a7.5 7.5 0 1 0 -15 0zM846.16 555.36 a7.5 7.5 0 1 0 15 0 a7.5 7.5 0 1 0 -15 0zM1041.03 217.86 a7.5 7.5 0 1 0 15 0 a7.5 7.5 0 1 0 -15 0zM1041.03 292.86 a7.5 7.5 0 1 0 15 0 a7.5 7.5 0 1 0 -15 0zM1041.03 442.86 a7.5 7.5 0 1 0 15 0 a7.5 7.5 0 1 0 -15 0zM1041.03 517.86 a7.5 7.5 0 1 0 15 0 a7.5 7.5 0 1 0 -15 0zM1105.98 -44.64 a7.5 7.5 0 1 0 15 0 a7.5 7.5 0 1 0 -15 0zM1170.93 -7.14 a7.5 7.5 0 1 0 15 0 a7.5 7.5 0 1 0 -15 0zM1170.93 67.86 a7.5 7.5 0 1 0 15 0 a7.5 7.5 0 1 0 -15 0zM1105.98 105.36 a7.5 7.5 0 1 0 15 0 a7.5 7.5 0 1 0 -15 0zM1041.03 67.86 a7.5 7.5 0 1 0 15 0 a7.5 7.5 0 1 0 -15 0zM1041.03 -7.14 a7.5 7.5 0 1 0 15 0 a7.5 7.5 0 1 0 -15 0zM1235.89 105.36 a7.5 7.5 0 1 0 15 0 a7.5 7.5 0 1 0 -15 0zM1235.89 180.36 a7.5 7.5 0 1 0 15 0 a7.5 7.5 0 1 0 -15 0zM1170.93 217.86 a7.5 7.5 0 1 0 15 0 a7.5 7.5 0 1 0 -15 0zM1105.98 180.36 a7.5 7.5 0 1 0 15 0 a7.5 7.5 0 1 0 -15 0zM1170.93 292.86 a7.5 7.5 0 1 0 15 0 a7.5 7.5 0 1 0 -15 0zM1235.89 330.36 a7.5 7.5 0 1 0 15 0 a7.5 7.5 0 1 0 -15 0zM1235.89 405.36 a7.5 7.5 0 1 0 15 0 a7.5 7.5 0 1 0 -15 0zM1170.93 442.86 a7.5 7.5 0 1 0 15 0 a7.5 7.5 0 1 0 -15 0zM1105.98 405.36 a7.5 7.5 0 1 0 15 0 a7.5 7.5 0 1 0 -15 0zM1105.98 330.36 a7.5 7.5 0 1 0 15 0 a7.5 7.5 0 1 0 -15 0zM1235.89 -44.64 a7.5 7.5 0 1 0 15 0 a7.5 7.5 0 1 0 -15 0zM1300.84 -7.14 a7.5 7.5 0 1 0 15 0 a7.5 7.5 0 1 0 -15 0zM1300.84 67.86 a7.5 7.5 0 1 0 15 0 a7.5 7.5 0 1 0 -15 0zM1365.79 105.36 a7.5 7.5 0 1 0 15 0 a7.5 7.5 0 1 0 -15 0zM1365.79 180.36 a7.5 7.5 0 1 0 15 0 a7.5 7.5 0 1 0 -15 0zM1300.84 217.86 a7.5 7.5 0 1 0 15 0 a7.5 7.5 0 1 0 -15 0zM1300.84 292.86 a7.5 7.5 0 1 0 15 0 a7.5 7.5 0 1 0 -15 0zM1365.8 405.36 a7.5 7.5 0 1 0 15 0 a7.5 7.5 0 1 0 -15 0zM1430.75 442.86 a7.5 7.5 0 1 0 15 0 a7.5 7.5 0 1 0 -15 0zM1430.75 517.86 a7.5 7.5 0 1 0 15 0 a7.5 7.5 0 1 0 -15 0zM1365.8 555.36 a7.5 7.5 0 1 0 15 0 a7.5 7.5 0 1 0 -15 0zM1300.84 517.86 a7.5 7.5 0 1 0 15 0 a7.5 7.5 0 1 0 -15 0zM1300.84 442.86 a7.5 7.5 0 1 0 15 0 a7.5 7.5 0 1 0 -15 0zM1495.7 -44.64 a7.5 7.5 0 1 0 15 0 a7.5 7.5 0 1 0 -15 0zM1560.66 -7.14 a7.5 7.5 0 1 0 15 0 a7.5 7.5 0 1 0 -15 0zM1560.66 67.86 a7.5 7.5 0 1 0 15 0 a7.5 7.5 0 1 0 -15 0zM1495.7 105.36 a7.5 7.5 0 1 0 15 0 a7.5 7.5 0 1 0 -15 0zM1430.75 67.86 a7.5 7.5 0 1 0 15 0 a7.5 7.5 0 1 0 -15 0zM1430.75 -7.14 a7.5 7.5 0 1 0 15 0 a7.5 7.5 0 1 0 -15 0zM1495.7 405.36 a7.5 7.5 0 1 0 15 0 a7.5 7.5 0 1 0 -15 0zM1560.66 442.86 a7.5 7.5 0 1 0 15 0 a7.5 7.5 0 1 0 -15 0zM1560.66 517.86 a7.5 7.5 0 1 0 15 0 a7.5 7.5 0 1 0 -15 0zM1495.7 555.36 a7.5 7.5 0 1 0 15 0 a7.5 7.5 0 1 0 -15 0z" fill="#03305d"></path><path d="M10.24 -6.5L53.54 18.5L53.54 68.5L10.24 93.5L-33.06 68.5L-33.06 18.5zM53.54 218.5L96.84 243.5L96.84 293.5L53.54 318.5L10.24 293.5L10.24 243.5zM10.24 293.5L53.54 318.5L53.54 368.5L10.24 393.5L-33.06 368.5L-33.06 318.5zM53.54 518.5L96.84 543.5L96.84 593.5L53.54 618.5L10.24 593.5L10.24 543.5zM96.84 143.5L140.15 168.5L140.15 218.5L96.84 243.5L53.54 218.5L53.54 168.5zM140.15 218.5L183.45 243.5L183.45 293.5L140.15 318.5L96.84 293.5L96.84 243.5zM96.84 293.5L140.15 318.5L140.15 368.5L96.84 393.5L53.54 368.5L53.54 318.5zM140.15 368.5L183.45 393.5L183.45 443.5L140.15 468.5L96.84 443.5L96.84 393.5zM183.45 -6.5L226.75 18.5L226.75 68.5L183.45 93.5L140.15 68.5L140.15 18.5zM226.75 368.5L270.06 393.5L270.06 443.5L226.75 468.5L183.45 443.5L183.45 393.5zM270.06 143.5L313.36 168.5L313.36 218.5L270.06 243.5L226.75 218.5L226.75 168.5zM313.36 218.5L356.66 243.5L356.66 293.5L313.36 318.5L270.06 293.5L270.06 243.5zM313.36 518.5L356.66 543.5L356.66 593.5L313.36 618.5L270.06 593.5L270.06 543.5zM356.66 -6.5L399.96 18.5L399.96 68.5L356.66 93.5L313.36 68.5L313.36 18.5zM356.66 143.5L399.96 168.5L399.96 218.5L356.66 243.5L313.36 218.5L313.36 168.5zM399.96 218.5L443.27 243.5L443.27 293.5L399.96 318.5L356.66 293.5L356.66 243.5zM356.66 293.5L399.96 318.5L399.96 368.5L356.66 393.5L313.36 368.5L313.36 318.5zM399.96 368.5L443.27 393.5L443.27 443.5L399.96 468.5L356.66 443.5L356.66 393.5zM399.96 518.5L443.27 543.5L443.27 593.5L399.96 618.5L356.66 593.5L356.66 543.5zM443.27 143.5L486.57 168.5L486.57 218.5L443.27 243.5L399.96 218.5L399.96 168.5zM486.57 218.5L529.87 243.5L529.87 293.5L486.57 318.5L443.27 293.5L443.27 243.5zM443.27 293.5L486.57 318.5L486.57 368.5L443.27 393.5L399.96 368.5L399.96 318.5zM486.57 368.5L529.87 393.5L529.87 443.5L486.57 468.5L443.27 443.5L443.27 393.5zM529.87 -6.5L573.17 18.5L573.17 68.5L529.87 93.5L486.57 68.5L486.57 18.5zM573.17 368.5L616.48 393.5L616.48 443.5L573.17 468.5L529.87 443.5L529.87 393.5zM529.87 443.5L573.17 468.5L573.17 518.5L529.87 543.5L486.57 518.5L486.57 468.5zM616.48 -6.5L659.78 18.5L659.78 68.5L616.48 93.5L573.17 68.5L573.17 18.5zM659.78 218.5L703.08 243.5L703.08 293.5L659.78 318.5L616.48 293.5L616.48 243.5zM659.78 518.5L703.08 543.5L703.08 593.5L659.78 618.5L616.48 593.5L616.48 543.5zM703.08 -6.5L746.38 18.5L746.38 68.5L703.08 93.5L659.78 68.5L659.78 18.5zM746.38 68.5L789.69 93.5L789.69 143.5L746.38 168.5L703.08 143.5L703.08 93.5zM703.08 143.5L746.38 168.5L746.38 218.5L703.08 243.5L659.78 218.5L659.78 168.5zM703.08 293.5L746.38 318.5L746.38 368.5L703.08 393.5L659.78 368.5L659.78 318.5zM789.69 -6.5L832.99 18.5L832.99 68.5L789.69 93.5L746.38 68.5L746.38 18.5zM832.99 218.5L876.29 243.5L876.29 293.5L832.99 318.5L789.69 293.5L789.69 243.5zM832.99 518.5L876.29 543.5L876.29 593.5L832.99 618.5L789.69 593.5L789.69 543.5zM876.29 -6.5L919.59 18.5L919.59 68.5L876.29 93.5L832.99 68.5L832.99 18.5zM919.59 68.5L962.9 93.5L962.9 143.5L919.59 168.5L876.29 143.5L876.29 93.5zM919.59 368.5L962.9 393.5L962.9 443.5L919.59 468.5L876.29 443.5L876.29 393.5zM1006.2 68.5L1049.5 93.5L1049.5 143.5L1006.2 168.5L962.9 143.5L962.9 93.5zM1006.2 368.5L1049.5 393.5L1049.5 443.5L1006.2 468.5L962.9 443.5L962.9 393.5zM962.9 443.5L1006.2 468.5L1006.2 518.5L962.9 543.5L919.59 518.5L919.59 468.5zM1006.2 518.5L1049.5 543.5L1049.5 593.5L1006.2 618.5L962.9 593.5L962.9 543.5zM1049.5 -6.5L1092.8 18.5L1092.8 68.5L1049.5 93.5L1006.2 68.5L1006.2 18.5zM1049.5 143.5L1092.8 168.5L1092.8 218.5L1049.5 243.5L1006.2 218.5L1006.2 168.5zM1049.5 443.5L1092.8 468.5L1092.8 518.5L1049.5 543.5L1006.2 518.5L1006.2 468.5zM1092.8 518.5L1136.11 543.5L1136.11 593.5L1092.8 618.5L1049.5 593.5L1049.5 543.5zM1136.11 -6.5L1179.41 18.5L1179.41 68.5L1136.11 93.5L1092.8 68.5L1092.8 18.5zM1136.11 143.5L1179.41 168.5L1179.41 218.5L1136.11 243.5L1092.8 218.5L1092.8 168.5zM1179.41 218.5L1222.71 243.5L1222.71 293.5L1179.41 318.5L1136.11 293.5L1136.11 243.5zM1266.01 68.5L1309.32 93.5L1309.32 143.5L1266.01 168.5L1222.71 143.5L1222.71 93.5zM1222.71 143.5L1266.01 168.5L1266.01 218.5L1222.71 243.5L1179.41 218.5L1179.41 168.5zM1309.32 -6.5L1352.62 18.5L1352.62 68.5L1309.32 93.5L1266.01 68.5L1266.01 18.5zM1352.62 68.5L1395.92 93.5L1395.92 143.5L1352.62 168.5L1309.32 143.5L1309.32 93.5zM1352.62 218.5L1395.92 243.5L1395.92 293.5L1352.62 318.5L1309.32 293.5L1309.32 243.5zM1309.32 293.5L1352.62 318.5L1352.62 368.5L1309.32 393.5L1266.01 368.5L1266.01 318.5zM1352.62 368.5L1395.92 393.5L1395.92 443.5L1352.62 468.5L1309.32 443.5L1309.32 393.5zM1395.92 -6.5L1439.22 18.5L1439.22 68.5L1395.92 93.5L1352.62 68.5L1352.62 18.5zM1439.22 68.5L1482.53 93.5L1482.53 143.5L1439.22 168.5L1395.92 143.5L1395.92 93.5zM1395.92 143.5L1439.22 168.5L1439.22 218.5L1395.92 243.5L1352.62 218.5L1352.62 168.5zM1395.92 443.5L1439.22 468.5L1439.22 518.5L1395.92 543.5L1352.62 518.5L1352.62 468.5zM1439.22 518.5L1482.53 543.5L1482.53 593.5L1439.22 618.5L1395.92 593.5L1395.92 543.5z" stroke="rgba(6, 80, 156, 0.93)" stroke-width="2"></path></g><defs><mask id="SvgjsMask1001"><rect width="1440" height="560" fill="#ffffff"></rect></mask></defs></svg>