<svg xmlns="http://www.w3.org/2000/svg" version="1.1" xmlns:xlink="http://www.w3.org/1999/xlink" xmlns:svgjs="http://svgjs.dev/svgjs" width="1440" height="560" preserveAspectRatio="none" viewBox="0 0 1440 560"><g mask="url(&quot;#SvgjsMask1006&quot;)" fill="none"><rect width="1440" height="560" x="0" y="0" fill="#0e2a47"></rect><path d="M82.03 280.31L146.99 317.81L146.99 392.81L82.03 430.31L17.08 392.81L17.08 317.81zM17.08 392.81L82.03 430.31L82.03 505.31L17.08 542.81L-47.87 505.31L-47.87 430.31zM146.99 392.81L211.94 430.31L211.94 505.31L146.99 542.81L82.03 505.31L82.03 430.31zM276.89 -57.19L341.85 -19.69L341.85 55.31L276.89 92.81L211.94 55.31L211.94 -19.69zM341.85 505.31L406.8 542.81L406.8 617.81L341.85 655.31L276.89 617.81L276.89 542.81zM471.76 55.31L536.71 92.81L536.71 167.81L471.76 205.31L406.8 167.81L406.8 92.81zM601.66 505.31L666.62 542.81L666.62 617.81L601.66 655.31L536.71 617.81L536.71 542.81zM861.48 280.31L926.43 317.81L926.43 392.81L861.48 430.31L796.52 392.81L796.52 317.81zM991.39 505.31L1056.34 542.81L1056.34 617.81L991.39 655.31L926.43 617.81L926.43 542.81zM1121.29 280.31L1186.25 317.81L1186.25 392.81L1121.29 430.31L1056.34 392.81L1056.34 317.81zM1381.11 280.31L1446.06 317.81L1446.06 392.81L1381.11 430.31L1316.15 392.81L1316.15 317.81zM1316.15 392.81L1381.11 430.31L1381.11 505.31L1316.15 542.81L1251.2 505.31L1251.2 430.31zM1381.11 505.31L1446.06 542.81L1446.06 617.81L1381.11 655.31L1316.15 617.81L1316.15 542.81z" stroke="#03305d" stroke-width="2"></path><path d="M74.53 280.31 a7.5 7.5 0 1 0 15 0 a7.5 7.5 0 1 0 -15 0zM139.49 317.81 a7.5 7.5 0 1 0 15 0 a7.5 7.5 0 1 0 -15 0zM139.49 392.81 a7.5 7.5 0 1 0 15 0 a7.5 7.5 0 1 0 -15 0zM74.53 430.31 a7.5 7.5 0 1 0 15 0 a7.5 7.5 0 1 0 -15 0zM9.58 392.81 a7.5 7.5 0 1 0 15 0 a7.5 7.5 0 1 0 -15 0zM9.58 317.81 a7.5 7.5 0 1 0 15 0 a7.5 7.5 0 1 0 -15 0zM74.53 505.31 a7.5 7.5 0 1 0 15 0 a7.5 7.5 0 1 0 -15 0zM9.58 542.81 a7.5 7.5 0 1 0 15 0 a7.5 7.5 0 1 0 -15 0zM-55.37 505.31 a7.5 7.5 0 1 0 15 0 a7.5 7.5 0 1 0 -15 0zM-55.37 430.31 a7.5 7.5 0 1 0 15 0 a7.5 7.5 0 1 0 -15 0zM204.44 430.31 a7.5 7.5 0 1 0 15 0 a7.5 7.5 0 1 0 -15 0zM204.44 505.31 a7.5 7.5 0 1 0 15 0 a7.5 7.5 0 1 0 -15 0zM139.49 542.81 a7.5 7.5 0 1 0 15 0 a7.5 7.5 0 1 0 -15 0zM269.39 -57.19 a7.5 7.5 0 1 0 15 0 a7.5 7.5 0 1 0 -15 0zM334.35 -19.69 a7.5 7.5 0 1 0 15 0 a7.5 7.5 0 1 0 -15 0zM334.35 55.31 a7.5 7.5 0 1 0 15 0 a7.5 7.5 0 1 0 -15 0zM269.39 92.81 a7.5 7.5 0 1 0 15 0 a7.5 7.5 0 1 0 -15 0zM204.44 55.31 a7.5 7.5 0 1 0 15 0 a7.5 7.5 0 1 0 -15 0zM204.44 -19.69 a7.5 7.5 0 1 0 15 0 a7.5 7.5 0 1 0 -15 0zM334.35 505.31 a7.5 7.5 0 1 0 15 0 a7.5 7.5 0 1 0 -15 0zM399.3 542.81 a7.5 7.5 0 1 0 15 0 a7.5 7.5 0 1 0 -15 0zM399.3 617.81 a7.5 7.5 0 1 0 15 0 a7.5 7.5 0 1 0 -15 0zM334.35 655.31 a7.5 7.5 0 1 0 15 0 a7.5 7.5 0 1 0 -15 0zM269.39 617.81 a7.5 7.5 0 1 0 15 0 a7.5 7.5 0 1 0 -15 0zM269.39 542.81 a7.5 7.5 0 1 0 15 0 a7.5 7.5 0 1 0 -15 0zM464.26 55.31 a7.5 7.5 0 1 0 15 0 a7.5 7.5 0 1 0 -15 0zM529.21 92.81 a7.5 7.5 0 1 0 15 0 a7.5 7.5 0 1 0 -15 0zM529.21 167.81 a7.5 7.5 0 1 0 15 0 a7.5 7.5 0 1 0 -15 0zM464.26 205.31 a7.5 7.5 0 1 0 15 0 a7.5 7.5 0 1 0 -15 0zM399.3 167.81 a7.5 7.5 0 1 0 15 0 a7.5 7.5 0 1 0 -15 0zM399.3 92.81 a7.5 7.5 0 1 0 15 0 a7.5 7.5 0 1 0 -15 0zM594.16 505.31 a7.5 7.5 0 1 0 15 0 a7.5 7.5 0 1 0 -15 0zM659.12 542.81 a7.5 7.5 0 1 0 15 0 a7.5 7.5 0 1 0 -15 0zM659.12 617.81 a7.5 7.5 0 1 0 15 0 a7.5 7.5 0 1 0 -15 0zM594.16 655.31 a7.5 7.5 0 1 0 15 0 a7.5 7.5 0 1 0 -15 0zM529.21 617.81 a7.5 7.5 0 1 0 15 0 a7.5 7.5 0 1 0 -15 0zM529.21 542.81 a7.5 7.5 0 1 0 15 0 a7.5 7.5 0 1 0 -15 0zM853.98 280.31 a7.5 7.5 0 1 0 15 0 a7.5 7.5 0 1 0 -15 0zM918.93 317.81 a7.5 7.5 0 1 0 15 0 a7.5 7.5 0 1 0 -15 0zM918.93 392.81 a7.5 7.5 0 1 0 15 0 a7.5 7.5 0 1 0 -15 0zM853.98 430.31 a7.5 7.5 0 1 0 15 0 a7.5 7.5 0 1 0 -15 0zM789.02 392.81 a7.5 7.5 0 1 0 15 0 a7.5 7.5 0 1 0 -15 0zM789.02 317.81 a7.5 7.5 0 1 0 15 0 a7.5 7.5 0 1 0 -15 0zM983.89 505.31 a7.5 7.5 0 1 0 15 0 a7.5 7.5 0 1 0 -15 0zM1048.84 542.81 a7.5 7.5 0 1 0 15 0 a7.5 7.5 0 1 0 -15 0zM1048.84 617.81 a7.5 7.5 0 1 0 15 0 a7.5 7.5 0 1 0 -15 0zM983.89 655.31 a7.5 7.5 0 1 0 15 0 a7.5 7.5 0 1 0 -15 0zM918.93 617.81 a7.5 7.5 0 1 0 15 0 a7.5 7.5 0 1 0 -15 0zM918.93 542.81 a7.5 7.5 0 1 0 15 0 a7.5 7.5 0 1 0 -15 0zM1113.79 280.31 a7.5 7.5 0 1 0 15 0 a7.5 7.5 0 1 0 -15 0zM1178.75 317.81 a7.5 7.5 0 1 0 15 0 a7.5 7.5 0 1 0 -15 0zM1178.75 392.81 a7.5 7.5 0 1 0 15 0 a7.5 7.5 0 1 0 -15 0zM1113.79 430.31 a7.5 7.5 0 1 0 15 0 a7.5 7.5 0 1 0 -15 0zM1048.84 392.81 a7.5 7.5 0 1 0 15 0 a7.5 7.5 0 1 0 -15 0zM1048.84 317.81 a7.5 7.5 0 1 0 15 0 a7.5 7.5 0 1 0 -15 0zM1373.61 280.31 a7.5 7.5 0 1 0 15 0 a7.5 7.5 0 1 0 -15 0zM1438.56 317.81 a7.5 7.5 0 1 0 15 0 a7.5 7.5 0 1 0 -15 0zM1438.56 392.81 a7.5 7.5 0 1 0 15 0 a7.5 7.5 0 1 0 -15 0zM1373.61 430.31 a7.5 7.5 0 1 0 15 0 a7.5 7.5 0 1 0 -15 0zM1308.65 392.81 a7.5 7.5 0 1 0 15 0 a7.5 7.5 0 1 0 -15 0zM1308.65 317.81 a7.5 7.5 0 1 0 15 0 a7.5 7.5 0 1 0 -15 0zM1373.61 505.31 a7.5 7.5 0 1 0 15 0 a7.5 7.5 0 1 0 -15 0zM1308.65 542.81 a7.5 7.5 0 1 0 15 0 a7.5 7.5 0 1 0 -15 0zM1243.7 505.31 a7.5 7.5 0 1 0 15 0 a7.5 7.5 0 1 0 -15 0zM1243.7 430.31 a7.5 7.5 0 1 0 15 0 a7.5 7.5 0 1 0 -15 0zM1438.56 542.81 a7.5 7.5 0 1 0 15 0 a7.5 7.5 0 1 0 -15 0zM1438.56 617.81 a7.5 7.5 0 1 0 15 0 a7.5 7.5 0 1 0 -15 0zM1373.61 655.31 a7.5 7.5 0 1 0 15 0 a7.5 7.5 0 1 0 -15 0zM1308.65 617.81 a7.5 7.5 0 1 0 15 0 a7.5 7.5 0 1 0 -15 0z" fill="#03305d"></path><path d="M66.46 345.34L109.77 370.34L109.77 420.34L66.46 445.34L23.16 420.34L23.16 370.34zM66.46 495.34L109.77 520.34L109.77 570.34L66.46 595.34L23.16 570.34L23.16 520.34zM109.77 270.34L153.07 295.34L153.07 345.34L109.77 370.34L66.46 345.34L66.46 295.34zM239.67 195.34L282.98 220.34L282.98 270.34L239.67 295.34L196.37 270.34L196.37 220.34zM282.98 120.34L326.28 145.34L326.28 195.34L282.98 220.34L239.67 195.34L239.67 145.34zM326.28 195.34L369.58 220.34L369.58 270.34L326.28 295.34L282.98 270.34L282.98 220.34zM369.58 -29.66L412.88 -4.66L412.88 45.34L369.58 70.34L326.28 45.34L326.28 -4.66zM412.88 45.34L456.19 70.34L456.19 120.34L412.88 145.34L369.58 120.34L369.58 70.34zM456.19 120.34L499.49 145.34L499.49 195.34L456.19 220.34L412.88 195.34L412.88 145.34zM586.09 195.34L629.39 220.34L629.39 270.34L586.09 295.34L542.79 270.34L542.79 220.34zM542.79 270.34L586.09 295.34L586.09 345.34L542.79 370.34L499.49 345.34L499.49 295.34zM629.39 420.34L672.7 445.34L672.7 495.34L629.39 520.34L586.09 495.34L586.09 445.34zM716 420.34L759.3 445.34L759.3 495.34L716 520.34L672.7 495.34L672.7 445.34zM845.91 45.34L889.21 70.34L889.21 120.34L845.91 145.34L802.61 120.34L802.61 70.34zM889.21 -29.66L932.51 -4.66L932.51 45.34L889.21 70.34L845.91 45.34L845.91 -4.66zM889.21 420.34L932.51 445.34L932.51 495.34L889.21 520.34L845.91 495.34L845.91 445.34zM932.51 495.34L975.82 520.34L975.82 570.34L932.51 595.34L889.21 570.34L889.21 520.34zM975.82 270.34L1019.12 295.34L1019.12 345.34L975.82 370.34L932.51 345.34L932.51 295.34zM1019.12 345.34L1062.42 370.34L1062.42 420.34L1019.12 445.34L975.82 420.34L975.82 370.34zM1062.42 420.34L1105.72 445.34L1105.72 495.34L1062.42 520.34L1019.12 495.34L1019.12 445.34zM1192.33 195.34L1235.63 220.34L1235.63 270.34L1192.33 295.34L1149.03 270.34L1149.03 220.34zM1149.03 270.34L1192.33 295.34L1192.33 345.34L1149.03 370.34L1105.72 345.34L1105.72 295.34zM1192.33 345.34L1235.63 370.34L1235.63 420.34L1192.33 445.34L1149.03 420.34L1149.03 370.34zM1278.93 195.34L1322.24 220.34L1322.24 270.34L1278.93 295.34L1235.63 270.34L1235.63 220.34zM1278.93 495.34L1322.24 520.34L1322.24 570.34L1278.93 595.34L1235.63 570.34L1235.63 520.34zM1322.24 120.34L1365.54 145.34L1365.54 195.34L1322.24 220.34L1278.93 195.34L1278.93 145.34zM1365.54 345.34L1408.84 370.34L1408.84 420.34L1365.54 445.34L1322.24 420.34L1322.24 370.34zM1322.24 420.34L1365.54 445.34L1365.54 495.34L1322.24 520.34L1278.93 495.34L1278.93 445.34zM1452.14 345.34L1495.45 370.34L1495.45 420.34L1452.14 445.34L1408.84 420.34L1408.84 370.34zM1452.14 495.34L1495.45 520.34L1495.45 570.34L1452.14 595.34L1408.84 570.34L1408.84 520.34z" stroke="rgba(0, 0, 0, 0)" stroke-width="2"></path></g><defs><mask id="SvgjsMask1006"><rect width="1440" height="560" fill="#ffffff"></rect></mask></defs></svg>