<svg xmlns="http://www.w3.org/2000/svg" version="1.1" xmlns:xlink="http://www.w3.org/1999/xlink" xmlns:svgjs="http://svgjs.dev/svgjs" width="1700" height="370" preserveAspectRatio="none" viewBox="0 0 1700 370"><g mask="url(&quot;#SvgjsMask1040&quot;)" fill="none"><g><path d="M1417.5 262.5L1018.5 262.5" stroke-width="3.5" stroke="rgba(77, 149, 234, 1)"></path><path d="M1414 262.5 a3.5 3.5 0 1 0 7 0 a3.5 3.5 0 1 0 -7 0zM1015 262.5 a3.5 3.5 0 1 0 7 0 a3.5 3.5 0 1 0 -7 0z" fill="rgba(77, 149, 234, 1)"></path><path d="M787.5 115.5L808.5 94.5L808.5 10.5" stroke-width="3.5" stroke="rgba(77, 149, 234, 1)"></path><path d="M784 115.5 a3.5 3.5 0 1 0 7 0 a3.5 3.5 0 1 0 -7 0zM805 10.5 a3.5 3.5 0 1 0 7 0 a3.5 3.5 0 1 0 -7 0z" fill="rgba(77, 149, 234, 1)"></path><path d="M1354.5 283.5L1123.5 283.5L1039.5 367.5L955.5 367.5" stroke-width="3.5" stroke="rgba(77, 149, 234, 1)"></path><path d="M1351 283.5 a3.5 3.5 0 1 0 7 0 a3.5 3.5 0 1 0 -7 0zM952 367.5 a3.5 3.5 0 1 0 7 0 a3.5 3.5 0 1 0 -7 0z" fill="rgba(77, 149, 234, 1)"></path><path d="M955.5 94.5L871.5 10.5L850.5 10.5L829.5 31.5L829.5 220.5L850.5 241.5L892.5 241.5L913.5 220.5" stroke-width="3.5" stroke="rgba(77, 149, 234, 1)"></path><path d="M952 94.5 a3.5 3.5 0 1 0 7 0 a3.5 3.5 0 1 0 -7 0zM910 220.5 a3.5 3.5 0 1 0 7 0 a3.5 3.5 0 1 0 -7 0z" fill="rgba(77, 149, 234, 1)"></path><path d="M1270.5 199.5L1081.5 10.5L1060.5 10.5L934.5 136.5L871.5 136.5" stroke-width="3.5" stroke="rgba(77, 149, 234, 1)"></path><path d="M1267 199.5 a3.5 3.5 0 1 0 7 0 a3.5 3.5 0 1 0 -7 0zM868 136.5 a3.5 3.5 0 1 0 7 0 a3.5 3.5 0 1 0 -7 0z" fill="rgba(77, 149, 234, 1)"></path><path d="M1480.5 283.5L1690.5 73.5L1690.5 10.5" stroke-width="3.5" stroke="rgba(77, 149, 234, 1)"></path><path d="M1477 283.5 a3.5 3.5 0 1 0 7 0 a3.5 3.5 0 1 0 -7 0zM1687 10.5 a3.5 3.5 0 1 0 7 0 a3.5 3.5 0 1 0 -7 0z" fill="rgba(77, 149, 234, 1)"></path><path d="M1144.5 325.5L1144.5 367.5" stroke-width="3.5" stroke="rgba(77, 149, 234, 1)"></path><path d="M1141 325.5 a3.5 3.5 0 1 0 7 0 a3.5 3.5 0 1 0 -7 0zM1141 367.5 a3.5 3.5 0 1 0 7 0 a3.5 3.5 0 1 0 -7 0z" fill="rgba(77, 149, 234, 1)"></path><path d="M934.5 304.5L934.5 157.5L1060.5 31.5L1081.5 31.5L1102.5 52.5L1102.5 136.5" stroke-width="3.5" stroke="rgba(77, 149, 234, 1)"></path><path d="M931 304.5 a3.5 3.5 0 1 0 7 0 a3.5 3.5 0 1 0 -7 0zM1099 136.5 a3.5 3.5 0 1 0 7 0 a3.5 3.5 0 1 0 -7 0z" fill="rgba(77, 149, 234, 1)"></path><path d="M115.5 199.5L115.5 220.5L31.5 304.5L10.5 304.5" stroke-width="3.5" stroke="rgba(77, 149, 234, 1)"></path><path d="M112 199.5 a3.5 3.5 0 1 0 7 0 a3.5 3.5 0 1 0 -7 0zM7 304.5 a3.5 3.5 0 1 0 7 0 a3.5 3.5 0 1 0 -7 0z" fill="rgba(77, 149, 234, 1)"></path><path d="M1144.5 178.5L1081.5 241.5L976.5 241.5L955.5 220.5L955.5 157.5L1039.5 73.5L1081.5 73.5" stroke-width="3.5" stroke="rgba(77, 149, 234, 1)"></path><path d="M1141 178.5 a3.5 3.5 0 1 0 7 0 a3.5 3.5 0 1 0 -7 0zM1078 73.5 a3.5 3.5 0 1 0 7 0 a3.5 3.5 0 1 0 -7 0z" fill="rgba(77, 149, 234, 1)"></path><path d="M997.5 262.5L1060.5 325.5" stroke-width="3.5" stroke="rgba(77, 149, 234, 1)"></path><path d="M994 262.5 a3.5 3.5 0 1 0 7 0 a3.5 3.5 0 1 0 -7 0zM1057 325.5 a3.5 3.5 0 1 0 7 0 a3.5 3.5 0 1 0 -7 0z" fill="rgba(77, 149, 234, 1)"></path><path d="M367.5 52.5L388.5 52.5L430.5 10.5L535.5 10.5L766.5 241.5" stroke-width="3.5" stroke="rgba(77, 149, 234, 1)"></path><path d="M364 52.5 a3.5 3.5 0 1 0 7 0 a3.5 3.5 0 1 0 -7 0zM763 241.5 a3.5 3.5 0 1 0 7 0 a3.5 3.5 0 1 0 -7 0z" fill="rgba(77, 149, 234, 1)"></path><path d="M262.5 199.5L430.5 367.5L493.5 367.5L661.5 199.5" stroke-width="3.5" stroke="rgba(77, 149, 234, 1)"></path><path d="M259 199.5 a3.5 3.5 0 1 0 7 0 a3.5 3.5 0 1 0 -7 0zM658 199.5 a3.5 3.5 0 1 0 7 0 a3.5 3.5 0 1 0 -7 0z" fill="rgba(77, 149, 234, 1)"></path><path d="M997.5 31.5L997.5 52.5L976.5 73.5L955.5 73.5L892.5 10.5" stroke-width="3.5" stroke="rgba(77, 149, 234, 1)"></path><path d="M994 31.5 a3.5 3.5 0 1 0 7 0 a3.5 3.5 0 1 0 -7 0zM889 10.5 a3.5 3.5 0 1 0 7 0 a3.5 3.5 0 1 0 -7 0z" fill="rgba(77, 149, 234, 1)"></path><path d="M766.5 367.5L871.5 262.5L913.5 262.5" stroke-width="3.5" stroke="rgba(77, 149, 234, 1)"></path><path d="M763 367.5 a3.5 3.5 0 1 0 7 0 a3.5 3.5 0 1 0 -7 0zM910 262.5 a3.5 3.5 0 1 0 7 0 a3.5 3.5 0 1 0 -7 0z" fill="rgba(77, 149, 234, 1)"></path><path d="M850.5 367.5L829.5 346.5L808.5 346.5L787.5 367.5" stroke-width="3.5" stroke="rgba(77, 149, 234, 1)"></path><path d="M847 367.5 a3.5 3.5 0 1 0 7 0 a3.5 3.5 0 1 0 -7 0zM784 367.5 a3.5 3.5 0 1 0 7 0 a3.5 3.5 0 1 0 -7 0z" fill="rgba(77, 149, 234, 1)"></path><path d="M241.5 73.5L493.5 325.5L493.5 346.5" stroke-width="3.5" stroke="rgba(77, 149, 234, 1)"></path><path d="M238 73.5 a3.5 3.5 0 1 0 7 0 a3.5 3.5 0 1 0 -7 0zM490 346.5 a3.5 3.5 0 1 0 7 0 a3.5 3.5 0 1 0 -7 0z" fill="rgba(77, 149, 234, 1)"></path><path d="M1291.5 73.5L1228.5 10.5L1207.5 10.5L1186.5 31.5L1186.5 94.5L1312.5 220.5L1417.5 220.5" stroke-width="3.5" stroke="rgba(77, 149, 234, 1)"></path><path d="M1288 73.5 a3.5 3.5 0 1 0 7 0 a3.5 3.5 0 1 0 -7 0zM1414 220.5 a3.5 3.5 0 1 0 7 0 a3.5 3.5 0 1 0 -7 0z" fill="rgba(77, 149, 234, 1)"></path><path d="M808.5 262.5L850.5 262.5" stroke-width="3.5" stroke="rgba(77, 149, 234, 1)"></path><path d="M805 262.5 a3.5 3.5 0 1 0 7 0 a3.5 3.5 0 1 0 -7 0zM847 262.5 a3.5 3.5 0 1 0 7 0 a3.5 3.5 0 1 0 -7 0z" fill="rgba(77, 149, 234, 1)"></path><path d="M1207.5 241.5L1102.5 241.5" stroke-width="3.5" stroke="rgba(77, 149, 234, 1)"></path><path d="M1204 241.5 a3.5 3.5 0 1 0 7 0 a3.5 3.5 0 1 0 -7 0zM1099 241.5 a3.5 3.5 0 1 0 7 0 a3.5 3.5 0 1 0 -7 0z" fill="rgba(77, 149, 234, 1)"></path><path d="M430.5 52.5L409.5 52.5L325.5 136.5" stroke-width="3.5" stroke="rgba(77, 149, 234, 1)"></path><path d="M427 52.5 a3.5 3.5 0 1 0 7 0 a3.5 3.5 0 1 0 -7 0zM322 136.5 a3.5 3.5 0 1 0 7 0 a3.5 3.5 0 1 0 -7 0z" fill="rgba(77, 149, 234, 1)"></path><path d="M178.5 325.5L136.5 367.5L10.5 367.5" stroke-width="3.5" stroke="rgba(77, 149, 234, 1)"></path><path d="M175 325.5 a3.5 3.5 0 1 0 7 0 a3.5 3.5 0 1 0 -7 0zM7 367.5 a3.5 3.5 0 1 0 7 0 a3.5 3.5 0 1 0 -7 0z" fill="rgba(77, 149, 234, 1)"></path><path d="M682.5 10.5L766.5 94.5L766.5 220.5L787.5 241.5L787.5 325.5L745.5 367.5L703.5 367.5" stroke-width="3.5" stroke="rgba(77, 149, 234, 1)"></path><path d="M679 10.5 a3.5 3.5 0 1 0 7 0 a3.5 3.5 0 1 0 -7 0zM700 367.5 a3.5 3.5 0 1 0 7 0 a3.5 3.5 0 1 0 -7 0z" fill="rgba(77, 149, 234, 1)"></path><path d="M745.5 346.5L766.5 325.5L766.5 262.5L535.5 31.5L514.5 31.5L451.5 94.5" stroke-width="3.5" stroke="rgba(77, 149, 234, 1)"></path><path d="M742 346.5 a3.5 3.5 0 1 0 7 0 a3.5 3.5 0 1 0 -7 0zM448 94.5 a3.5 3.5 0 1 0 7 0 a3.5 3.5 0 1 0 -7 0z" fill="rgba(77, 149, 234, 1)"></path><path d="M346.5 10.5L367.5 31.5L388.5 31.5L409.5 10.5" stroke-width="3.5" stroke="rgba(77, 149, 234, 1)"></path><path d="M343 10.5 a3.5 3.5 0 1 0 7 0 a3.5 3.5 0 1 0 -7 0zM406 10.5 a3.5 3.5 0 1 0 7 0 a3.5 3.5 0 1 0 -7 0z" fill="rgba(77, 149, 234, 1)"></path><path d="M430.5 283.5L409.5 262.5L346.5 262.5L283.5 199.5L283.5 136.5L220.5 73.5L220.5 10.5" stroke-width="3.5" stroke="rgba(77, 149, 234, 1)"></path><path d="M427 283.5 a3.5 3.5 0 1 0 7 0 a3.5 3.5 0 1 0 -7 0zM217 10.5 a3.5 3.5 0 1 0 7 0 a3.5 3.5 0 1 0 -7 0z" fill="rgba(77, 149, 234, 1)"></path><path d="M1102.5 199.5L1018.5 115.5" stroke-width="3.5" stroke="rgba(77, 149, 234, 1)"></path><path d="M1099 199.5 a3.5 3.5 0 1 0 7 0 a3.5 3.5 0 1 0 -7 0zM1015 115.5 a3.5 3.5 0 1 0 7 0 a3.5 3.5 0 1 0 -7 0z" fill="rgba(77, 149, 234, 1)"></path><path d="M388.5 115.5L430.5 115.5L514.5 199.5L514.5 325.5" stroke-width="3.5" stroke="rgba(77, 149, 234, 1)"></path><path d="M385 115.5 a3.5 3.5 0 1 0 7 0 a3.5 3.5 0 1 0 -7 0zM511 325.5 a3.5 3.5 0 1 0 7 0 a3.5 3.5 0 1 0 -7 0z" fill="rgba(77, 149, 234, 1)"></path><path d="M31.5 157.5L10.5 136.5L10.5 10.5" stroke-width="3.5" stroke="rgba(77, 149, 234, 1)"></path><path d="M28 157.5 a3.5 3.5 0 1 0 7 0 a3.5 3.5 0 1 0 -7 0zM7 10.5 a3.5 3.5 0 1 0 7 0 a3.5 3.5 0 1 0 -7 0z" fill="rgba(77, 149, 234, 1)"></path><path d="M1270.5 115.5L1270.5 73.5L1228.5 31.5L1207.5 31.5" stroke-width="3.5" stroke="rgba(77, 149, 234, 1)"></path><path d="M1267 115.5 a3.5 3.5 0 1 0 7 0 a3.5 3.5 0 1 0 -7 0zM1204 31.5 a3.5 3.5 0 1 0 7 0 a3.5 3.5 0 1 0 -7 0z" fill="rgba(77, 149, 234, 1)"></path><path d="M1564.5 220.5L1690.5 94.5" stroke-width="3.5" stroke="rgba(77, 149, 234, 1)"></path><path d="M1561 220.5 a3.5 3.5 0 1 0 7 0 a3.5 3.5 0 1 0 -7 0zM1687 94.5 a3.5 3.5 0 1 0 7 0 a3.5 3.5 0 1 0 -7 0z" fill="rgba(77, 149, 234, 1)"></path><path d="M1081.5 136.5L1060.5 136.5L1039.5 115.5L1039.5 94.5" stroke-width="3.5" stroke="rgba(77, 149, 234, 1)"></path><path d="M1078 136.5 a3.5 3.5 0 1 0 7 0 a3.5 3.5 0 1 0 -7 0zM1036 94.5 a3.5 3.5 0 1 0 7 0 a3.5 3.5 0 1 0 -7 0z" fill="rgba(77, 149, 234, 1)"></path><path d="M52.5 73.5L52.5 94.5L73.5 115.5L73.5 241.5L31.5 283.5L10.5 283.5" stroke-width="3.5" stroke="rgba(77, 149, 234, 1)"></path><path d="M49 73.5 a3.5 3.5 0 1 0 7 0 a3.5 3.5 0 1 0 -7 0zM7 283.5 a3.5 3.5 0 1 0 7 0 a3.5 3.5 0 1 0 -7 0z" fill="rgba(77, 149, 234, 1)"></path><path d="M1501.5 31.5L1354.5 31.5L1333.5 10.5L1249.5 10.5" stroke-width="3.5" stroke="rgba(77, 149, 234, 1)"></path><path d="M1498 31.5 a3.5 3.5 0 1 0 7 0 a3.5 3.5 0 1 0 -7 0zM1246 10.5 a3.5 3.5 0 1 0 7 0 a3.5 3.5 0 1 0 -7 0z" fill="rgba(77, 149, 234, 1)"></path><path d="M1039.5 157.5L1018.5 136.5L997.5 136.5L976.5 157.5L976.5 220.5" stroke-width="3.5" stroke="rgba(77, 149, 234, 1)"></path><path d="M1036 157.5 a3.5 3.5 0 1 0 7 0 a3.5 3.5 0 1 0 -7 0zM973 220.5 a3.5 3.5 0 1 0 7 0 a3.5 3.5 0 1 0 -7 0z" fill="rgba(77, 149, 234, 1)"></path><path d="M640.5 262.5L619.5 262.5L514.5 367.5" stroke-width="3.5" stroke="rgba(77, 149, 234, 1)"></path><path d="M637 262.5 a3.5 3.5 0 1 0 7 0 a3.5 3.5 0 1 0 -7 0zM511 367.5 a3.5 3.5 0 1 0 7 0 a3.5 3.5 0 1 0 -7 0z" fill="rgba(77, 149, 234, 1)"></path><path d="M346.5 346.5L262.5 262.5L199.5 262.5L94.5 157.5L94.5 115.5L136.5 73.5L136.5 31.5L115.5 10.5" stroke-width="3.5" stroke="rgba(77, 149, 234, 1)"></path><path d="M343 346.5 a3.5 3.5 0 1 0 7 0 a3.5 3.5 0 1 0 -7 0zM112 10.5 a3.5 3.5 0 1 0 7 0 a3.5 3.5 0 1 0 -7 0z" fill="rgba(77, 149, 234, 1)"></path><path d="M892.5 73.5L913.5 94.5L934.5 94.5" stroke-width="3.5" stroke="rgba(77, 149, 234, 1)"></path><path d="M889 73.5 a3.5 3.5 0 1 0 7 0 a3.5 3.5 0 1 0 -7 0zM931 94.5 a3.5 3.5 0 1 0 7 0 a3.5 3.5 0 1 0 -7 0z" fill="rgba(77, 149, 234, 1)"></path><path d="M850.5 178.5L871.5 157.5L913.5 157.5" stroke-width="3.5" stroke="rgba(77, 149, 234, 1)"></path><path d="M847 178.5 a3.5 3.5 0 1 0 7 0 a3.5 3.5 0 1 0 -7 0zM910 157.5 a3.5 3.5 0 1 0 7 0 a3.5 3.5 0 1 0 -7 0z" fill="rgba(77, 149, 234, 1)"></path><path d="M1396.5 157.5L1396.5 94.5L1438.5 52.5L1564.5 52.5L1627.5 115.5" stroke-width="3.5" stroke="rgba(77, 149, 234, 1)"></path><path d="M1393 157.5 a3.5 3.5 0 1 0 7 0 a3.5 3.5 0 1 0 -7 0zM1624 115.5 a3.5 3.5 0 1 0 7 0 a3.5 3.5 0 1 0 -7 0z" fill="rgba(77, 149, 234, 1)"></path><path d="M1564.5 31.5L1522.5 31.5L1501.5 10.5L1354.5 10.5" stroke-width="3.5" stroke="rgba(77, 149, 234, 1)"></path><path d="M1561 31.5 a3.5 3.5 0 1 0 7 0 a3.5 3.5 0 1 0 -7 0zM1351 10.5 a3.5 3.5 0 1 0 7 0 a3.5 3.5 0 1 0 -7 0z" fill="rgba(77, 149, 234, 1)"></path><path d="M220.5 241.5L283.5 241.5L409.5 367.5" stroke-width="3.5" stroke="rgba(77, 149, 234, 1)"></path><path d="M217 241.5 a3.5 3.5 0 1 0 7 0 a3.5 3.5 0 1 0 -7 0zM406 367.5 a3.5 3.5 0 1 0 7 0 a3.5 3.5 0 1 0 -7 0z" fill="rgba(77, 149, 234, 1)"></path><path d="M31.5 241.5L10.5 220.5L10.5 157.5" stroke-width="3.5" stroke="rgba(77, 149, 234, 1)"></path><path d="M28 241.5 a3.5 3.5 0 1 0 7 0 a3.5 3.5 0 1 0 -7 0zM7 157.5 a3.5 3.5 0 1 0 7 0 a3.5 3.5 0 1 0 -7 0z" fill="rgba(77, 149, 234, 1)"></path><path d="M199.5 199.5L220.5 220.5L262.5 220.5" stroke-width="3.5" stroke="rgba(77, 149, 234, 1)"></path><path d="M196 199.5 a3.5 3.5 0 1 0 7 0 a3.5 3.5 0 1 0 -7 0zM259 220.5 a3.5 3.5 0 1 0 7 0 a3.5 3.5 0 1 0 -7 0z" fill="rgba(77, 149, 234, 1)"></path><path d="M178.5 178.5L178.5 73.5L199.5 52.5L199.5 10.5" stroke-width="3.5" stroke="rgba(77, 149, 234, 1)"></path><path d="M175 178.5 a3.5 3.5 0 1 0 7 0 a3.5 3.5 0 1 0 -7 0zM196 10.5 a3.5 3.5 0 1 0 7 0 a3.5 3.5 0 1 0 -7 0z" fill="rgba(77, 149, 234, 1)"></path><path d="M745.5 115.5L745.5 178.5" stroke-width="3.5" stroke="rgba(77, 149, 234, 1)"></path><path d="M742 115.5 a3.5 3.5 0 1 0 7 0 a3.5 3.5 0 1 0 -7 0zM742 178.5 a3.5 3.5 0 1 0 7 0 a3.5 3.5 0 1 0 -7 0z" fill="rgba(77, 149, 234, 1)"></path><path d="M493.5 136.5L619.5 136.5L661.5 178.5" stroke-width="3.5" stroke="rgba(77, 149, 234, 1)"></path><path d="M490 136.5 a3.5 3.5 0 1 0 7 0 a3.5 3.5 0 1 0 -7 0zM658 178.5 a3.5 3.5 0 1 0 7 0 a3.5 3.5 0 1 0 -7 0z" fill="rgba(77, 149, 234, 1)"></path><path d="M52.5 220.5L31.5 199.5L31.5 178.5L52.5 157.5L52.5 115.5L31.5 94.5L31.5 10.5" stroke-width="3.5" stroke="rgba(77, 149, 234, 1)"></path><path d="M49 220.5 a3.5 3.5 0 1 0 7 0 a3.5 3.5 0 1 0 -7 0zM28 10.5 a3.5 3.5 0 1 0 7 0 a3.5 3.5 0 1 0 -7 0z" fill="rgba(77, 149, 234, 1)"></path><path d="M1165.5 73.5L1165.5 10.5" stroke-width="3.5" stroke="rgba(77, 149, 234, 1)"></path><path d="M1162 73.5 a3.5 3.5 0 1 0 7 0 a3.5 3.5 0 1 0 -7 0zM1162 10.5 a3.5 3.5 0 1 0 7 0 a3.5 3.5 0 1 0 -7 0z" fill="rgba(77, 149, 234, 1)"></path><path d="M913.5 178.5L871.5 178.5L850.5 199.5L850.5 220.5" stroke-width="3.5" stroke="rgba(77, 149, 234, 1)"></path><path d="M910 178.5 a3.5 3.5 0 1 0 7 0 a3.5 3.5 0 1 0 -7 0zM847 220.5 a3.5 3.5 0 1 0 7 0 a3.5 3.5 0 1 0 -7 0z" fill="rgba(77, 149, 234, 1)"></path><path d="M1102.5 346.5L1144.5 304.5L1291.5 304.5" stroke-width="3.5" stroke="rgba(77, 149, 234, 1)"></path><path d="M1099 346.5 a3.5 3.5 0 1 0 7 0 a3.5 3.5 0 1 0 -7 0zM1288 304.5 a3.5 3.5 0 1 0 7 0 a3.5 3.5 0 1 0 -7 0z" fill="rgba(77, 149, 234, 1)"></path><path d="M892.5 94.5L850.5 136.5L850.5 157.5" stroke-width="3.5" stroke="rgba(77, 149, 234, 1)"></path><path d="M889 94.5 a3.5 3.5 0 1 0 7 0 a3.5 3.5 0 1 0 -7 0zM847 157.5 a3.5 3.5 0 1 0 7 0 a3.5 3.5 0 1 0 -7 0z" fill="rgba(77, 149, 234, 1)"></path><path d="M1354.5 304.5L1354.5 325.5L1396.5 367.5L1438.5 367.5" stroke-width="3.5" stroke="rgba(77, 149, 234, 1)"></path><path d="M1351 304.5 a3.5 3.5 0 1 0 7 0 a3.5 3.5 0 1 0 -7 0zM1435 367.5 a3.5 3.5 0 1 0 7 0 a3.5 3.5 0 1 0 -7 0z" fill="rgba(77, 149, 234, 1)"></path><path d="M640.5 178.5L535.5 283.5L535.5 304.5" stroke-width="3.5" stroke="rgba(77, 149, 234, 1)"></path><path d="M637 178.5 a3.5 3.5 0 1 0 7 0 a3.5 3.5 0 1 0 -7 0zM532 304.5 a3.5 3.5 0 1 0 7 0 a3.5 3.5 0 1 0 -7 0z" fill="rgba(77, 149, 234, 1)"></path><path d="M535.5 367.5L619.5 283.5L745.5 283.5" stroke-width="3.5" stroke="rgba(77, 149, 234, 1)"></path><path d="M532 367.5 a3.5 3.5 0 1 0 7 0 a3.5 3.5 0 1 0 -7 0zM742 283.5 a3.5 3.5 0 1 0 7 0 a3.5 3.5 0 1 0 -7 0z" fill="rgba(77, 149, 234, 1)"></path><path d="M1564.5 136.5L1606.5 136.5" stroke-width="3.5" stroke="rgba(77, 149, 234, 1)"></path><path d="M1561 136.5 a3.5 3.5 0 1 0 7 0 a3.5 3.5 0 1 0 -7 0zM1603 136.5 a3.5 3.5 0 1 0 7 0 a3.5 3.5 0 1 0 -7 0z" fill="rgba(77, 149, 234, 1)"></path><path d="M535.5 52.5L472.5 115.5L472.5 136.5" stroke-width="3.5" stroke="rgba(77, 149, 234, 1)"></path><path d="M532 52.5 a3.5 3.5 0 1 0 7 0 a3.5 3.5 0 1 0 -7 0zM469 136.5 a3.5 3.5 0 1 0 7 0 a3.5 3.5 0 1 0 -7 0z" fill="rgba(77, 149, 234, 1)"></path><path d="M766.5 31.5L745.5 10.5L703.5 10.5" stroke-width="3.5" stroke="rgba(77, 149, 234, 1)"></path><path d="M763 31.5 a3.5 3.5 0 1 0 7 0 a3.5 3.5 0 1 0 -7 0zM700 10.5 a3.5 3.5 0 1 0 7 0 a3.5 3.5 0 1 0 -7 0z" fill="rgba(77, 149, 234, 1)"></path><path d="M1333.5 31.5L1333.5 199.5" stroke-width="3.5" stroke="rgba(77, 149, 234, 1)"></path><path d="M1330 31.5 a3.5 3.5 0 1 0 7 0 a3.5 3.5 0 1 0 -7 0zM1330 199.5 a3.5 3.5 0 1 0 7 0 a3.5 3.5 0 1 0 -7 0z" fill="rgba(77, 149, 234, 1)"></path><path d="M1627.5 367.5L1627.5 178.5L1690.5 115.5" stroke-width="3.5" stroke="rgba(77, 149, 234, 1)"></path><path d="M1624 367.5 a3.5 3.5 0 1 0 7 0 a3.5 3.5 0 1 0 -7 0zM1687 115.5 a3.5 3.5 0 1 0 7 0 a3.5 3.5 0 1 0 -7 0z" fill="rgba(77, 149, 234, 1)"></path><path d="M1480.5 262.5L1480.5 73.5" stroke-width="3.5" stroke="rgba(77, 149, 234, 1)"></path><path d="M1477 262.5 a3.5 3.5 0 1 0 7 0 a3.5 3.5 0 1 0 -7 0zM1477 73.5 a3.5 3.5 0 1 0 7 0 a3.5 3.5 0 1 0 -7 0z" fill="rgba(77, 149, 234, 1)"></path><path d="M472.5 283.5L472.5 178.5L430.5 136.5L346.5 136.5" stroke-width="3.5" stroke="rgba(77, 149, 234, 1)"></path><path d="M469 283.5 a3.5 3.5 0 1 0 7 0 a3.5 3.5 0 1 0 -7 0zM343 136.5 a3.5 3.5 0 1 0 7 0 a3.5 3.5 0 1 0 -7 0z" fill="rgba(77, 149, 234, 1)"></path><path d="M325.5 52.5L325.5 10.5" stroke-width="3.5" stroke="rgba(77, 149, 234, 1)"></path><path d="M322 52.5 a3.5 3.5 0 1 0 7 0 a3.5 3.5 0 1 0 -7 0zM322 10.5 a3.5 3.5 0 1 0 7 0 a3.5 3.5 0 1 0 -7 0z" fill="rgba(77, 149, 234, 1)"></path><path d="M1543.5 241.5L1459.5 325.5L1396.5 325.5L1375.5 304.5" stroke-width="3.5" stroke="rgba(77, 149, 234, 1)"></path><path d="M1540 241.5 a3.5 3.5 0 1 0 7 0 a3.5 3.5 0 1 0 -7 0zM1372 304.5 a3.5 3.5 0 1 0 7 0 a3.5 3.5 0 1 0 -7 0z" fill="rgba(77, 149, 234, 1)"></path><path d="M598.5 325.5L619.5 304.5L745.5 304.5" stroke-width="3.5" stroke="rgba(77, 149, 234, 1)"></path><path d="M595 325.5 a3.5 3.5 0 1 0 7 0 a3.5 3.5 0 1 0 -7 0zM742 304.5 a3.5 3.5 0 1 0 7 0 a3.5 3.5 0 1 0 -7 0z" fill="rgba(77, 149, 234, 1)"></path><path d="M661.5 115.5L724.5 178.5" stroke-width="3.5" stroke="rgba(77, 149, 234, 1)"></path><path d="M658 115.5 a3.5 3.5 0 1 0 7 0 a3.5 3.5 0 1 0 -7 0zM721 178.5 a3.5 3.5 0 1 0 7 0 a3.5 3.5 0 1 0 -7 0z" fill="rgba(77, 149, 234, 1)"></path><path d="M1123.5 115.5L1165.5 115.5L1291.5 241.5L1459.5 241.5" stroke-width="3.5" stroke="rgba(77, 149, 234, 1)"></path><path d="M1120 115.5 a3.5 3.5 0 1 0 7 0 a3.5 3.5 0 1 0 -7 0zM1456 241.5 a3.5 3.5 0 1 0 7 0 a3.5 3.5 0 1 0 -7 0z" fill="rgba(77, 149, 234, 1)"></path><path d="M1291.5 31.5L1291.5 52.5L1312.5 73.5L1312.5 199.5" stroke-width="3.5" stroke="rgba(77, 149, 234, 1)"></path><path d="M1288 31.5 a3.5 3.5 0 1 0 7 0 a3.5 3.5 0 1 0 -7 0zM1309 199.5 a3.5 3.5 0 1 0 7 0 a3.5 3.5 0 1 0 -7 0z" fill="rgba(77, 149, 234, 1)"></path><path d="M556.5 220.5L556.5 241.5L535.5 262.5" stroke-width="3.5" stroke="rgba(77, 149, 234, 1)"></path><path d="M553 220.5 a3.5 3.5 0 1 0 7 0 a3.5 3.5 0 1 0 -7 0zM532 262.5 a3.5 3.5 0 1 0 7 0 a3.5 3.5 0 1 0 -7 0z" fill="rgba(77, 149, 234, 1)"></path><path d="M871.5 220.5L892.5 199.5L913.5 199.5" stroke-width="3.5" stroke="rgba(77, 149, 234, 1)"></path><path d="M868 220.5 a3.5 3.5 0 1 0 7 0 a3.5 3.5 0 1 0 -7 0zM910 199.5 a3.5 3.5 0 1 0 7 0 a3.5 3.5 0 1 0 -7 0z" fill="rgba(77, 149, 234, 1)"></path><path d="M682.5 115.5L724.5 115.5L745.5 94.5" stroke-width="3.5" stroke="rgba(77, 149, 234, 1)"></path><path d="M679 115.5 a3.5 3.5 0 1 0 7 0 a3.5 3.5 0 1 0 -7 0zM742 94.5 a3.5 3.5 0 1 0 7 0 a3.5 3.5 0 1 0 -7 0z" fill="rgba(77, 149, 234, 1)"></path><path d="M409.5 220.5L346.5 157.5" stroke-width="3.5" stroke="rgba(77, 149, 234, 1)"></path><path d="M406 220.5 a3.5 3.5 0 1 0 7 0 a3.5 3.5 0 1 0 -7 0zM343 157.5 a3.5 3.5 0 1 0 7 0 a3.5 3.5 0 1 0 -7 0z" fill="rgba(77, 149, 234, 1)"></path><path d="M1186.5 178.5L1144.5 136.5L1123.5 136.5L1102.5 157.5L1102.5 178.5" stroke-width="3.5" stroke="rgba(77, 149, 234, 1)"></path><path d="M1183 178.5 a3.5 3.5 0 1 0 7 0 a3.5 3.5 0 1 0 -7 0zM1099 178.5 a3.5 3.5 0 1 0 7 0 a3.5 3.5 0 1 0 -7 0z" fill="rgba(77, 149, 234, 1)"></path><path d="M724.5 73.5L661.5 10.5L556.5 10.5" stroke-width="3.5" stroke="rgba(77, 149, 234, 1)"></path><path d="M721 73.5 a3.5 3.5 0 1 0 7 0 a3.5 3.5 0 1 0 -7 0zM553 10.5 a3.5 3.5 0 1 0 7 0 a3.5 3.5 0 1 0 -7 0z" fill="rgba(77, 149, 234, 1)"></path><path d="M1606.5 325.5L1606.5 199.5" stroke-width="3.5" stroke="rgba(77, 149, 234, 1)"></path><path d="M1603 325.5 a3.5 3.5 0 1 0 7 0 a3.5 3.5 0 1 0 -7 0zM1603 199.5 a3.5 3.5 0 1 0 7 0 a3.5 3.5 0 1 0 -7 0z" fill="rgba(77, 149, 234, 1)"></path><path d="M1165.5 199.5L1186.5 220.5L1228.5 220.5L1249.5 241.5L1270.5 241.5" stroke-width="3.5" stroke="rgba(77, 149, 234, 1)"></path><path d="M1162 199.5 a3.5 3.5 0 1 0 7 0 a3.5 3.5 0 1 0 -7 0zM1267 241.5 a3.5 3.5 0 1 0 7 0 a3.5 3.5 0 1 0 -7 0z" fill="rgba(77, 149, 234, 1)"></path><path d="M640.5 367.5L682.5 367.5L703.5 346.5L724.5 346.5L745.5 325.5" stroke-width="3.5" stroke="rgba(77, 149, 234, 1)"></path><path d="M637 367.5 a3.5 3.5 0 1 0 7 0 a3.5 3.5 0 1 0 -7 0zM742 325.5 a3.5 3.5 0 1 0 7 0 a3.5 3.5 0 1 0 -7 0z" fill="rgba(77, 149, 234, 1)"></path><path d="M1585.5 31.5L1606.5 10.5L1669.5 10.5" stroke-width="3.5" stroke="rgba(77, 149, 234, 1)"></path><path d="M1582 31.5 a3.5 3.5 0 1 0 7 0 a3.5 3.5 0 1 0 -7 0zM1666 10.5 a3.5 3.5 0 1 0 7 0 a3.5 3.5 0 1 0 -7 0z" fill="rgba(77, 149, 234, 1)"></path><path d="M1354.5 367.5L1333.5 346.5L1333.5 304.5" stroke-width="3.5" stroke="rgba(77, 149, 234, 1)"></path><path d="M1351 367.5 a3.5 3.5 0 1 0 7 0 a3.5 3.5 0 1 0 -7 0zM1330 304.5 a3.5 3.5 0 1 0 7 0 a3.5 3.5 0 1 0 -7 0z" fill="rgba(77, 149, 234, 1)"></path><path d="M1375.5 157.5L1354.5 178.5L1354.5 199.5" stroke-width="3.5" stroke="rgba(77, 149, 234, 1)"></path><path d="M1372 157.5 a3.5 3.5 0 1 0 7 0 a3.5 3.5 0 1 0 -7 0zM1351 199.5 a3.5 3.5 0 1 0 7 0 a3.5 3.5 0 1 0 -7 0z" fill="rgba(77, 149, 234, 1)"></path><path d="M640.5 73.5L703.5 73.5L724.5 94.5" stroke-width="3.5" stroke="rgba(77, 149, 234, 1)"></path><path d="M637 73.5 a3.5 3.5 0 1 0 7 0 a3.5 3.5 0 1 0 -7 0zM721 94.5 a3.5 3.5 0 1 0 7 0 a3.5 3.5 0 1 0 -7 0z" fill="rgba(77, 149, 234, 1)"></path><path d="M955.5 283.5L955.5 346.5L934.5 367.5L871.5 367.5L829.5 325.5" stroke-width="3.5" stroke="rgba(77, 149, 234, 1)"></path><path d="M952 283.5 a3.5 3.5 0 1 0 7 0 a3.5 3.5 0 1 0 -7 0zM826 325.5 a3.5 3.5 0 1 0 7 0 a3.5 3.5 0 1 0 -7 0z" fill="rgba(77, 149, 234, 1)"></path><path d="M220.5 178.5L262.5 136.5" stroke-width="3.5" stroke="rgba(77, 149, 234, 1)"></path><path d="M217 178.5 a3.5 3.5 0 1 0 7 0 a3.5 3.5 0 1 0 -7 0zM259 136.5 a3.5 3.5 0 1 0 7 0 a3.5 3.5 0 1 0 -7 0z" fill="rgba(77, 149, 234, 1)"></path><path d="M514.5 94.5L535.5 73.5L556.5 73.5L598.5 115.5" stroke-width="3.5" stroke="rgba(77, 149, 234, 1)"></path><path d="M511 94.5 a3.5 3.5 0 1 0 7 0 a3.5 3.5 0 1 0 -7 0zM595 115.5 a3.5 3.5 0 1 0 7 0 a3.5 3.5 0 1 0 -7 0z" fill="rgba(77, 149, 234, 1)"></path><path d="M178.5 367.5L388.5 367.5" stroke-width="3.5" stroke="rgba(77, 149, 234, 1)"></path><path d="M175 367.5 a3.5 3.5 0 1 0 7 0 a3.5 3.5 0 1 0 -7 0zM385 367.5 a3.5 3.5 0 1 0 7 0 a3.5 3.5 0 1 0 -7 0z" fill="rgba(77, 149, 234, 1)"></path><path d="M1648.5 346.5L1669.5 367.5L1690.5 367.5" stroke-width="3.5" stroke="rgba(77, 149, 234, 1)"></path><path d="M1645 346.5 a3.5 3.5 0 1 0 7 0 a3.5 3.5 0 1 0 -7 0zM1687 367.5 a3.5 3.5 0 1 0 7 0 a3.5 3.5 0 1 0 -7 0z" fill="rgba(77, 149, 234, 1)"></path><path d="M73.5 283.5L10.5 346.5" stroke-width="3.5" stroke="rgba(77, 149, 234, 1)"></path><path d="M70 283.5 a3.5 3.5 0 1 0 7 0 a3.5 3.5 0 1 0 -7 0zM7 346.5 a3.5 3.5 0 1 0 7 0 a3.5 3.5 0 1 0 -7 0z" fill="rgba(77, 149, 234, 1)"></path><path d="M73.5 94.5L115.5 52.5L115.5 31.5L94.5 10.5L52.5 10.5" stroke-width="3.5" stroke="rgba(77, 149, 234, 1)"></path><path d="M70 94.5 a3.5 3.5 0 1 0 7 0 a3.5 3.5 0 1 0 -7 0zM49 10.5 a3.5 3.5 0 1 0 7 0 a3.5 3.5 0 1 0 -7 0z" fill="rgba(77, 149, 234, 1)"></path><path d="M1669.5 283.5L1669.5 346.5" stroke-width="3.5" stroke="rgba(77, 149, 234, 1)"></path><path d="M1666 283.5 a3.5 3.5 0 1 0 7 0 a3.5 3.5 0 1 0 -7 0zM1666 346.5 a3.5 3.5 0 1 0 7 0 a3.5 3.5 0 1 0 -7 0z" fill="rgba(77, 149, 234, 1)"></path><path d="M199.5 241.5L199.5 220.5L115.5 136.5L115.5 115.5L178.5 52.5L178.5 10.5" stroke-width="3.5" stroke="rgba(77, 149, 234, 1)"></path><path d="M196 241.5 a3.5 3.5 0 1 0 7 0 a3.5 3.5 0 1 0 -7 0zM175 10.5 a3.5 3.5 0 1 0 7 0 a3.5 3.5 0 1 0 -7 0z" fill="rgba(77, 149, 234, 1)"></path><path d="M1165.5 325.5L1165.5 367.5" stroke-width="3.5" stroke="rgba(77, 149, 234, 1)"></path><path d="M1162 325.5 a3.5 3.5 0 1 0 7 0 a3.5 3.5 0 1 0 -7 0zM1162 367.5 a3.5 3.5 0 1 0 7 0 a3.5 3.5 0 1 0 -7 0z" fill="rgba(77, 149, 234, 1)"></path><path d="M703.5 241.5L640.5 241.5" stroke-width="3.5" stroke="rgba(77, 149, 234, 1)"></path><path d="M700 241.5 a3.5 3.5 0 1 0 7 0 a3.5 3.5 0 1 0 -7 0zM637 241.5 a3.5 3.5 0 1 0 7 0 a3.5 3.5 0 1 0 -7 0z" fill="rgba(77, 149, 234, 1)"></path><path d="M1459.5 304.5L1459.5 262.5" stroke-width="3.5" stroke="rgba(77, 149, 234, 1)"></path><path d="M1456 304.5 a3.5 3.5 0 1 0 7 0 a3.5 3.5 0 1 0 -7 0zM1456 262.5 a3.5 3.5 0 1 0 7 0 a3.5 3.5 0 1 0 -7 0z" fill="rgba(77, 149, 234, 1)"></path><path d="M1648.5 178.5L1648.5 325.5" stroke-width="3.5" stroke="rgba(77, 149, 234, 1)"></path><path d="M1645 178.5 a3.5 3.5 0 1 0 7 0 a3.5 3.5 0 1 0 -7 0zM1645 325.5 a3.5 3.5 0 1 0 7 0 a3.5 3.5 0 1 0 -7 0z" fill="rgba(77, 149, 234, 1)"></path><path d="M682.5 346.5L661.5 325.5L619.5 325.5L577.5 367.5L556.5 367.5" stroke-width="3.5" stroke="rgba(77, 149, 234, 1)"></path><path d="M679 346.5 a3.5 3.5 0 1 0 7 0 a3.5 3.5 0 1 0 -7 0zM553 367.5 a3.5 3.5 0 1 0 7 0 a3.5 3.5 0 1 0 -7 0z" fill="rgba(77, 149, 234, 1)"></path><path d="M535.5 178.5L577.5 178.5L598.5 157.5L619.5 157.5" stroke-width="3.5" stroke="rgba(77, 149, 234, 1)"></path><path d="M532 178.5 a3.5 3.5 0 1 0 7 0 a3.5 3.5 0 1 0 -7 0zM616 157.5 a3.5 3.5 0 1 0 7 0 a3.5 3.5 0 1 0 -7 0z" fill="rgba(77, 149, 234, 1)"></path><path d="M220.5 283.5L283.5 346.5L325.5 346.5" stroke-width="3.5" stroke="rgba(77, 149, 234, 1)"></path><path d="M217 283.5 a3.5 3.5 0 1 0 7 0 a3.5 3.5 0 1 0 -7 0zM322 346.5 a3.5 3.5 0 1 0 7 0 a3.5 3.5 0 1 0 -7 0z" fill="rgba(77, 149, 234, 1)"></path><path d="M1249.5 136.5L1291.5 136.5" stroke-width="3.5" stroke="rgba(77, 149, 234, 1)"></path><path d="M1246 136.5 a3.5 3.5 0 1 0 7 0 a3.5 3.5 0 1 0 -7 0zM1288 136.5 a3.5 3.5 0 1 0 7 0 a3.5 3.5 0 1 0 -7 0z" fill="rgba(77, 149, 234, 1)"></path><path d="M1627.5 73.5L1627.5 31.5" stroke-width="3.5" stroke="rgba(77, 149, 234, 1)"></path><path d="M1624 73.5 a3.5 3.5 0 1 0 7 0 a3.5 3.5 0 1 0 -7 0zM1624 31.5 a3.5 3.5 0 1 0 7 0 a3.5 3.5 0 1 0 -7 0z" fill="rgba(77, 149, 234, 1)"></path><path d="M1669.5 199.5L1669.5 262.5L1690.5 283.5L1690.5 346.5" stroke-width="3.5" stroke="rgba(77, 149, 234, 1)"></path><path d="M1666 199.5 a3.5 3.5 0 1 0 7 0 a3.5 3.5 0 1 0 -7 0zM1687 346.5 a3.5 3.5 0 1 0 7 0 a3.5 3.5 0 1 0 -7 0z" fill="rgba(77, 149, 234, 1)"></path><path d="M1417.5 136.5L1417.5 94.5" stroke-width="3.5" stroke="rgba(77, 149, 234, 1)"></path><path d="M1414 136.5 a3.5 3.5 0 1 0 7 0 a3.5 3.5 0 1 0 -7 0zM1414 94.5 a3.5 3.5 0 1 0 7 0 a3.5 3.5 0 1 0 -7 0z" fill="rgba(77, 149, 234, 1)"></path><path d="M1501.5 304.5L1480.5 325.5L1480.5 367.5" stroke-width="3.5" stroke="rgba(77, 149, 234, 1)"></path><path d="M1498 304.5 a3.5 3.5 0 1 0 7 0 a3.5 3.5 0 1 0 -7 0zM1477 367.5 a3.5 3.5 0 1 0 7 0 a3.5 3.5 0 1 0 -7 0z" fill="rgba(77, 149, 234, 1)"></path><path d="M598.5 31.5L640.5 31.5L661.5 52.5L682.5 52.5" stroke-width="3.5" stroke="rgba(77, 149, 234, 1)"></path><path d="M595 31.5 a3.5 3.5 0 1 0 7 0 a3.5 3.5 0 1 0 -7 0zM679 52.5 a3.5 3.5 0 1 0 7 0 a3.5 3.5 0 1 0 -7 0z" fill="rgba(77, 149, 234, 1)"></path><path d="M52.5 52.5L73.5 31.5L94.5 31.5" stroke-width="3.5" stroke="rgba(77, 149, 234, 1)"></path><path d="M49 52.5 a3.5 3.5 0 1 0 7 0 a3.5 3.5 0 1 0 -7 0zM91 31.5 a3.5 3.5 0 1 0 7 0 a3.5 3.5 0 1 0 -7 0z" fill="rgba(77, 149, 234, 1)"></path><path d="M1375.5 115.5L1354.5 136.5L1354.5 157.5" stroke-width="3.5" stroke="rgba(77, 149, 234, 1)"></path><path d="M1372 115.5 a3.5 3.5 0 1 0 7 0 a3.5 3.5 0 1 0 -7 0zM1351 157.5 a3.5 3.5 0 1 0 7 0 a3.5 3.5 0 1 0 -7 0z" fill="rgba(77, 149, 234, 1)"></path><path d="M241.5 346.5L241.5 325.5L157.5 241.5L115.5 241.5L94.5 262.5L94.5 283.5L136.5 325.5L136.5 346.5" stroke-width="3.5" stroke="rgba(77, 149, 234, 1)"></path><path d="M238 346.5 a3.5 3.5 0 1 0 7 0 a3.5 3.5 0 1 0 -7 0zM133 346.5 a3.5 3.5 0 1 0 7 0 a3.5 3.5 0 1 0 -7 0z" fill="rgba(77, 149, 234, 1)"></path><path d="M1501.5 73.5L1501.5 241.5" stroke-width="3.5" stroke="rgba(77, 149, 234, 1)"></path><path d="M1498 73.5 a3.5 3.5 0 1 0 7 0 a3.5 3.5 0 1 0 -7 0zM1498 241.5 a3.5 3.5 0 1 0 7 0 a3.5 3.5 0 1 0 -7 0z" fill="rgba(77, 149, 234, 1)"></path><path d="M283.5 73.5L283.5 94.5L304.5 115.5" stroke-width="3.5" stroke="rgba(77, 149, 234, 1)"></path><path d="M280 73.5 a3.5 3.5 0 1 0 7 0 a3.5 3.5 0 1 0 -7 0zM301 115.5 a3.5 3.5 0 1 0 7 0 a3.5 3.5 0 1 0 -7 0z" fill="rgba(77, 149, 234, 1)"></path><path d="M430.5 73.5L409.5 94.5L388.5 94.5" stroke-width="3.5" stroke="rgba(77, 149, 234, 1)"></path><path d="M427 73.5 a3.5 3.5 0 1 0 7 0 a3.5 3.5 0 1 0 -7 0zM385 94.5 a3.5 3.5 0 1 0 7 0 a3.5 3.5 0 1 0 -7 0z" fill="rgba(77, 149, 234, 1)"></path><path d="M1417.5 199.5L1459.5 199.5" stroke-width="3.5" stroke="rgba(77, 149, 234, 1)"></path><path d="M1414 199.5 a3.5 3.5 0 1 0 7 0 a3.5 3.5 0 1 0 -7 0zM1456 199.5 a3.5 3.5 0 1 0 7 0 a3.5 3.5 0 1 0 -7 0z" fill="rgba(77, 149, 234, 1)"></path><path d="M1081.5 220.5L1081.5 199.5L1060.5 178.5L1039.5 178.5L1018.5 199.5L1018.5 220.5" stroke-width="3.5" stroke="rgba(77, 149, 234, 1)"></path><path d="M1078 220.5 a3.5 3.5 0 1 0 7 0 a3.5 3.5 0 1 0 -7 0zM1015 220.5 a3.5 3.5 0 1 0 7 0 a3.5 3.5 0 1 0 -7 0z" fill="rgba(77, 149, 234, 1)"></path><path d="M1249.5 325.5L1291.5 325.5L1333.5 367.5" stroke-width="3.5" stroke="rgba(77, 149, 234, 1)"></path><path d="M1246 325.5 a3.5 3.5 0 1 0 7 0 a3.5 3.5 0 1 0 -7 0zM1330 367.5 a3.5 3.5 0 1 0 7 0 a3.5 3.5 0 1 0 -7 0z" fill="rgba(77, 149, 234, 1)"></path><path d="M1564.5 157.5L1543.5 136.5L1522.5 136.5" stroke-width="3.5" stroke="rgba(77, 149, 234, 1)"></path><path d="M1561 157.5 a3.5 3.5 0 1 0 7 0 a3.5 3.5 0 1 0 -7 0zM1519 136.5 a3.5 3.5 0 1 0 7 0 a3.5 3.5 0 1 0 -7 0z" fill="rgba(77, 149, 234, 1)"></path><path d="M1417.5 157.5L1396.5 178.5L1396.5 199.5" stroke-width="3.5" stroke="rgba(77, 149, 234, 1)"></path><path d="M1414 157.5 a3.5 3.5 0 1 0 7 0 a3.5 3.5 0 1 0 -7 0zM1393 199.5 a3.5 3.5 0 1 0 7 0 a3.5 3.5 0 1 0 -7 0z" fill="rgba(77, 149, 234, 1)"></path><path d="M1522.5 283.5L1522.5 367.5" stroke-width="3.5" stroke="rgba(77, 149, 234, 1)"></path><path d="M1519 283.5 a3.5 3.5 0 1 0 7 0 a3.5 3.5 0 1 0 -7 0zM1519 367.5 a3.5 3.5 0 1 0 7 0 a3.5 3.5 0 1 0 -7 0z" fill="rgba(77, 149, 234, 1)"></path><path d="M1249.5 346.5L1270.5 367.5L1312.5 367.5" stroke-width="3.5" stroke="rgba(77, 149, 234, 1)"></path><path d="M1246 346.5 a3.5 3.5 0 1 0 7 0 a3.5 3.5 0 1 0 -7 0zM1309 367.5 a3.5 3.5 0 1 0 7 0 a3.5 3.5 0 1 0 -7 0z" fill="rgba(77, 149, 234, 1)"></path><path d="M178.5 283.5L157.5 304.5L136.5 304.5" stroke-width="3.5" stroke="rgba(77, 149, 234, 1)"></path><path d="M175 283.5 a3.5 3.5 0 1 0 7 0 a3.5 3.5 0 1 0 -7 0zM133 304.5 a3.5 3.5 0 1 0 7 0 a3.5 3.5 0 1 0 -7 0z" fill="rgba(77, 149, 234, 1)"></path><path d="M1543.5 262.5L1585.5 220.5" stroke-width="3.5" stroke="rgba(77, 149, 234, 1)"></path><path d="M1540 262.5 a3.5 3.5 0 1 0 7 0 a3.5 3.5 0 1 0 -7 0zM1582 220.5 a3.5 3.5 0 1 0 7 0 a3.5 3.5 0 1 0 -7 0z" fill="rgba(77, 149, 234, 1)"></path><path d="M976.5 346.5L1018.5 304.5" stroke-width="3.5" stroke="rgba(77, 149, 234, 1)"></path><path d="M973 346.5 a3.5 3.5 0 1 0 7 0 a3.5 3.5 0 1 0 -7 0zM1015 304.5 a3.5 3.5 0 1 0 7 0 a3.5 3.5 0 1 0 -7 0z" fill="rgba(77, 149, 234, 1)"></path><path d="M808.5 157.5L787.5 178.5L787.5 220.5L808.5 241.5L829.5 241.5" stroke-width="3.5" stroke="rgba(77, 149, 234, 1)"></path><path d="M805 157.5 a3.5 3.5 0 1 0 7 0 a3.5 3.5 0 1 0 -7 0zM826 241.5 a3.5 3.5 0 1 0 7 0 a3.5 3.5 0 1 0 -7 0z" fill="rgba(77, 149, 234, 1)"></path><path d="M871.5 304.5L913.5 346.5L934.5 346.5" stroke-width="3.5" stroke="rgba(77, 149, 234, 1)"></path><path d="M868 304.5 a3.5 3.5 0 1 0 7 0 a3.5 3.5 0 1 0 -7 0zM931 346.5 a3.5 3.5 0 1 0 7 0 a3.5 3.5 0 1 0 -7 0z" fill="rgba(77, 149, 234, 1)"></path><path d="M1690.5 199.5L1669.5 178.5L1669.5 157.5L1690.5 136.5" stroke-width="3.5" stroke="rgba(77, 149, 234, 1)"></path><path d="M1687 199.5 a3.5 3.5 0 1 0 7 0 a3.5 3.5 0 1 0 -7 0zM1687 136.5 a3.5 3.5 0 1 0 7 0 a3.5 3.5 0 1 0 -7 0z" fill="rgba(77, 149, 234, 1)"></path><path d="M1207.5 94.5L1207.5 52.5" stroke-width="3.5" stroke="rgba(77, 149, 234, 1)"></path><path d="M1204 94.5 a3.5 3.5 0 1 0 7 0 a3.5 3.5 0 1 0 -7 0zM1204 52.5 a3.5 3.5 0 1 0 7 0 a3.5 3.5 0 1 0 -7 0z" fill="rgba(77, 149, 234, 1)"></path><path d="M73.5 304.5L94.5 304.5L115.5 325.5L115.5 346.5" stroke-width="3.5" stroke="rgba(77, 149, 234, 1)"></path><path d="M70 304.5 a3.5 3.5 0 1 0 7 0 a3.5 3.5 0 1 0 -7 0zM112 346.5 a3.5 3.5 0 1 0 7 0 a3.5 3.5 0 1 0 -7 0z" fill="rgba(77, 149, 234, 1)"></path><path d="M1459.5 115.5L1438.5 136.5L1438.5 178.5" stroke-width="3.5" stroke="rgba(77, 149, 234, 1)"></path><path d="M1456 115.5 a3.5 3.5 0 1 0 7 0 a3.5 3.5 0 1 0 -7 0zM1435 178.5 a3.5 3.5 0 1 0 7 0 a3.5 3.5 0 1 0 -7 0z" fill="rgba(77, 149, 234, 1)"></path><path d="M304.5 10.5L241.5 10.5" stroke-width="3.5" stroke="rgba(77, 149, 234, 1)"></path><path d="M301 10.5 a3.5 3.5 0 1 0 7 0 a3.5 3.5 0 1 0 -7 0zM238 10.5 a3.5 3.5 0 1 0 7 0 a3.5 3.5 0 1 0 -7 0z" fill="rgba(77, 149, 234, 1)"></path><path d="M283.5 52.5L262.5 31.5L241.5 31.5" stroke-width="3.5" stroke="rgba(77, 149, 234, 1)"></path><path d="M280 52.5 a3.5 3.5 0 1 0 7 0 a3.5 3.5 0 1 0 -7 0zM238 31.5 a3.5 3.5 0 1 0 7 0 a3.5 3.5 0 1 0 -7 0z" fill="rgba(77, 149, 234, 1)"></path><path d="M1648.5 94.5L1648.5 31.5" stroke-width="3.5" stroke="rgba(77, 149, 234, 1)"></path><path d="M1645 94.5 a3.5 3.5 0 1 0 7 0 a3.5 3.5 0 1 0 -7 0zM1645 31.5 a3.5 3.5 0 1 0 7 0 a3.5 3.5 0 1 0 -7 0z" fill="rgba(77, 149, 234, 1)"></path><path d="M871.5 94.5L871.5 31.5" stroke-width="3.5" stroke="rgba(77, 149, 234, 1)"></path><path d="M868 94.5 a3.5 3.5 0 1 0 7 0 a3.5 3.5 0 1 0 -7 0zM868 31.5 a3.5 3.5 0 1 0 7 0 a3.5 3.5 0 1 0 -7 0z" fill="rgba(77, 149, 234, 1)"></path><path d="M535.5 199.5L577.5 199.5" stroke-width="3.5" stroke="rgba(77, 149, 234, 1)"></path><path d="M532 199.5 a3.5 3.5 0 1 0 7 0 a3.5 3.5 0 1 0 -7 0zM574 199.5 a3.5 3.5 0 1 0 7 0 a3.5 3.5 0 1 0 -7 0z" fill="rgba(77, 149, 234, 1)"></path><path d="M1543.5 325.5L1543.5 283.5L1585.5 241.5" stroke-width="3.5" stroke="rgba(77, 149, 234, 1)"></path><path d="M1540 325.5 a3.5 3.5 0 1 0 7 0 a3.5 3.5 0 1 0 -7 0zM1582 241.5 a3.5 3.5 0 1 0 7 0 a3.5 3.5 0 1 0 -7 0z" fill="rgba(77, 149, 234, 1)"></path><path d="M1501.5 367.5L1501.5 325.5" stroke-width="3.5" stroke="rgba(77, 149, 234, 1)"></path><path d="M1498 367.5 a3.5 3.5 0 1 0 7 0 a3.5 3.5 0 1 0 -7 0zM1498 325.5 a3.5 3.5 0 1 0 7 0 a3.5 3.5 0 1 0 -7 0z" fill="rgba(77, 149, 234, 1)"></path><path d="M1564.5 325.5L1585.5 325.5L1606.5 346.5L1606.5 367.5" stroke-width="3.5" stroke="rgba(77, 149, 234, 1)"></path><path d="M1561 325.5 a3.5 3.5 0 1 0 7 0 a3.5 3.5 0 1 0 -7 0zM1603 367.5 a3.5 3.5 0 1 0 7 0 a3.5 3.5 0 1 0 -7 0z" fill="rgba(77, 149, 234, 1)"></path><path d="M409.5 304.5L388.5 304.5L367.5 283.5" stroke-width="3.5" stroke="rgba(77, 149, 234, 1)"></path><path d="M406 304.5 a3.5 3.5 0 1 0 7 0 a3.5 3.5 0 1 0 -7 0zM364 283.5 a3.5 3.5 0 1 0 7 0 a3.5 3.5 0 1 0 -7 0z" fill="rgba(77, 149, 234, 1)"></path><path d="M199.5 304.5L199.5 346.5" stroke-width="3.5" stroke="rgba(77, 149, 234, 1)"></path><path d="M196 304.5 a3.5 3.5 0 1 0 7 0 a3.5 3.5 0 1 0 -7 0zM196 346.5 a3.5 3.5 0 1 0 7 0 a3.5 3.5 0 1 0 -7 0z" fill="rgba(77, 149, 234, 1)"></path><path d="M409.5 157.5L367.5 157.5" stroke-width="3.5" stroke="rgba(77, 149, 234, 1)"></path><path d="M406 157.5 a3.5 3.5 0 1 0 7 0 a3.5 3.5 0 1 0 -7 0zM364 157.5 a3.5 3.5 0 1 0 7 0 a3.5 3.5 0 1 0 -7 0z" fill="rgba(77, 149, 234, 1)"></path><path d="M493.5 220.5L493.5 304.5" stroke-width="3.5" stroke="rgba(77, 149, 234, 1)"></path><path d="M490 220.5 a3.5 3.5 0 1 0 7 0 a3.5 3.5 0 1 0 -7 0zM490 304.5 a3.5 3.5 0 1 0 7 0 a3.5 3.5 0 1 0 -7 0z" fill="rgba(77, 149, 234, 1)"></path><path d="M766.5 52.5L745.5 52.5L724.5 31.5" stroke-width="3.5" stroke="rgba(77, 149, 234, 1)"></path><path d="M763 52.5 a3.5 3.5 0 1 0 7 0 a3.5 3.5 0 1 0 -7 0zM721 31.5 a3.5 3.5 0 1 0 7 0 a3.5 3.5 0 1 0 -7 0z" fill="rgba(77, 149, 234, 1)"></path><path d="M346.5 220.5L367.5 220.5L388.5 241.5" stroke-width="3.5" stroke="rgba(77, 149, 234, 1)"></path><path d="M343 220.5 a3.5 3.5 0 1 0 7 0 a3.5 3.5 0 1 0 -7 0zM385 241.5 a3.5 3.5 0 1 0 7 0 a3.5 3.5 0 1 0 -7 0z" fill="rgba(77, 149, 234, 1)"></path><path d="M304.5 157.5L346.5 199.5" stroke-width="3.5" stroke="rgba(77, 149, 234, 1)"></path><path d="M301 157.5 a3.5 3.5 0 1 0 7 0 a3.5 3.5 0 1 0 -7 0zM343 199.5 a3.5 3.5 0 1 0 7 0 a3.5 3.5 0 1 0 -7 0z" fill="rgba(77, 149, 234, 1)"></path><path d="M535.5 157.5L577.5 157.5" stroke-width="3.5" stroke="rgba(77, 149, 234, 1)"></path><path d="M532 157.5 a3.5 3.5 0 1 0 7 0 a3.5 3.5 0 1 0 -7 0zM574 157.5 a3.5 3.5 0 1 0 7 0 a3.5 3.5 0 1 0 -7 0z" fill="rgba(77, 149, 234, 1)"></path><path d="M724.5 325.5L682.5 325.5" stroke-width="3.5" stroke="rgba(77, 149, 234, 1)"></path><path d="M721 325.5 a3.5 3.5 0 1 0 7 0 a3.5 3.5 0 1 0 -7 0zM679 325.5 a3.5 3.5 0 1 0 7 0 a3.5 3.5 0 1 0 -7 0z" fill="rgba(77, 149, 234, 1)"></path><path d="M1690.5 262.5L1690.5 220.5" stroke-width="3.5" stroke="rgba(77, 149, 234, 1)"></path><path d="M1687 262.5 a3.5 3.5 0 1 0 7 0 a3.5 3.5 0 1 0 -7 0zM1687 220.5 a3.5 3.5 0 1 0 7 0 a3.5 3.5 0 1 0 -7 0z" fill="rgba(77, 149, 234, 1)"></path><path d="M1606.5 73.5L1606.5 31.5" stroke-width="3.5" stroke="rgba(77, 149, 234, 1)"></path><path d="M1603 73.5 a3.5 3.5 0 1 0 7 0 a3.5 3.5 0 1 0 -7 0zM1603 31.5 a3.5 3.5 0 1 0 7 0 a3.5 3.5 0 1 0 -7 0z" fill="rgba(77, 149, 234, 1)"></path><path d="M1543.5 73.5L1564.5 73.5L1606.5 115.5" stroke-width="3.5" stroke="rgba(77, 149, 234, 1)"></path><path d="M1540 73.5 a3.5 3.5 0 1 0 7 0 a3.5 3.5 0 1 0 -7 0zM1603 115.5 a3.5 3.5 0 1 0 7 0 a3.5 3.5 0 1 0 -7 0z" fill="rgba(77, 149, 234, 1)"></path><path d="M1522.5 178.5L1522.5 220.5" stroke-width="3.5" stroke="rgba(77, 149, 234, 1)"></path><path d="M1519 178.5 a3.5 3.5 0 1 0 7 0 a3.5 3.5 0 1 0 -7 0zM1519 220.5 a3.5 3.5 0 1 0 7 0 a3.5 3.5 0 1 0 -7 0z" fill="rgba(77, 149, 234, 1)"></path><path d="M304.5 73.5L304.5 31.5" stroke-width="3.5" stroke="rgba(77, 149, 234, 1)"></path><path d="M301 73.5 a3.5 3.5 0 1 0 7 0 a3.5 3.5 0 1 0 -7 0zM301 31.5 a3.5 3.5 0 1 0 7 0 a3.5 3.5 0 1 0 -7 0z" fill="rgba(77, 149, 234, 1)"></path><path d="M1123.5 346.5L1102.5 367.5L1081.5 367.5" stroke-width="3.5" stroke="rgba(77, 149, 234, 1)"></path><path d="M1120 346.5 a3.5 3.5 0 1 0 7 0 a3.5 3.5 0 1 0 -7 0zM1078 367.5 a3.5 3.5 0 1 0 7 0 a3.5 3.5 0 1 0 -7 0z" fill="rgba(77, 149, 234, 1)"></path><path d="M976.5 283.5L976.5 325.5" stroke-width="3.5" stroke="rgba(77, 149, 234, 1)"></path><path d="M973 283.5 a3.5 3.5 0 1 0 7 0 a3.5 3.5 0 1 0 -7 0zM973 325.5 a3.5 3.5 0 1 0 7 0 a3.5 3.5 0 1 0 -7 0z" fill="rgba(77, 149, 234, 1)"></path><path d="M661.5 262.5L703.5 262.5" stroke-width="3.5" stroke="rgba(77, 149, 234, 1)"></path><path d="M658 262.5 a3.5 3.5 0 1 0 7 0 a3.5 3.5 0 1 0 -7 0zM700 262.5 a3.5 3.5 0 1 0 7 0 a3.5 3.5 0 1 0 -7 0z" fill="rgba(77, 149, 234, 1)"></path><path d="M1543.5 367.5L1585.5 367.5" stroke-width="3.5" stroke="rgba(77, 149, 234, 1)"></path><path d="M1540 367.5 a3.5 3.5 0 1 0 7 0 a3.5 3.5 0 1 0 -7 0zM1582 367.5 a3.5 3.5 0 1 0 7 0 a3.5 3.5 0 1 0 -7 0z" fill="rgba(77, 149, 234, 1)"></path></g></g><defs><mask id="SvgjsMask1040"><rect width="1700" height="370" fill="#ffffff"></rect></mask></defs></svg>