<svg xmlns="http://www.w3.org/2000/svg" version="1.1" xmlns:xlink="http://www.w3.org/1999/xlink" xmlns:svgjs="http://svgjs.dev/svgjs" width="1700" height="350" preserveAspectRatio="none" viewBox="0 0 1700 350"><g mask="url(&quot;#SvgjsMask1038&quot;)" fill="none"><g><path d="M913.5 262.5L514.5 262.5" stroke-width="3.5" stroke="rgba(77, 149, 234, 1)"></path><path d="M910 262.5 a3.5 3.5 0 1 0 7 0 a3.5 3.5 0 1 0 -7 0zM511 262.5 a3.5 3.5 0 1 0 7 0 a3.5 3.5 0 1 0 -7 0z" fill="rgba(77, 149, 234, 1)"></path><path d="M514.5 220.5L535.5 241.5L787.5 241.5L871.5 157.5L892.5 157.5L913.5 136.5" stroke-width="3.5" stroke="rgba(77, 149, 234, 1)"></path><path d="M511 220.5 a3.5 3.5 0 1 0 7 0 a3.5 3.5 0 1 0 -7 0zM910 136.5 a3.5 3.5 0 1 0 7 0 a3.5 3.5 0 1 0 -7 0z" fill="rgba(77, 149, 234, 1)"></path><path d="M1270.5 10.5L1291.5 31.5L1333.5 31.5L1417.5 115.5L1417.5 346.5" stroke-width="3.5" stroke="rgba(77, 149, 234, 1)"></path><path d="M1267 10.5 a3.5 3.5 0 1 0 7 0 a3.5 3.5 0 1 0 -7 0zM1414 346.5 a3.5 3.5 0 1 0 7 0 a3.5 3.5 0 1 0 -7 0z" fill="rgba(77, 149, 234, 1)"></path><path d="M1060.5 283.5L1123.5 346.5L1291.5 346.5L1396.5 241.5L1396.5 199.5L1375.5 178.5" stroke-width="3.5" stroke="rgba(77, 149, 234, 1)"></path><path d="M1057 283.5 a3.5 3.5 0 1 0 7 0 a3.5 3.5 0 1 0 -7 0zM1372 178.5 a3.5 3.5 0 1 0 7 0 a3.5 3.5 0 1 0 -7 0z" fill="rgba(77, 149, 234, 1)"></path><path d="M241.5 157.5L640.5 157.5" stroke-width="3.5" stroke="rgba(77, 149, 234, 1)"></path><path d="M238 157.5 a3.5 3.5 0 1 0 7 0 a3.5 3.5 0 1 0 -7 0zM637 157.5 a3.5 3.5 0 1 0 7 0 a3.5 3.5 0 1 0 -7 0z" fill="rgba(77, 149, 234, 1)"></path><path d="M1606.5 304.5L1648.5 346.5L1690.5 346.5" stroke-width="3.5" stroke="rgba(77, 149, 234, 1)"></path><path d="M1603 304.5 a3.5 3.5 0 1 0 7 0 a3.5 3.5 0 1 0 -7 0zM1687 346.5 a3.5 3.5 0 1 0 7 0 a3.5 3.5 0 1 0 -7 0z" fill="rgba(77, 149, 234, 1)"></path><path d="M640.5 178.5L703.5 115.5L703.5 73.5L766.5 10.5L997.5 10.5" stroke-width="3.5" stroke="rgba(77, 149, 234, 1)"></path><path d="M637 178.5 a3.5 3.5 0 1 0 7 0 a3.5 3.5 0 1 0 -7 0zM994 10.5 a3.5 3.5 0 1 0 7 0 a3.5 3.5 0 1 0 -7 0z" fill="rgba(77, 149, 234, 1)"></path><path d="M346.5 346.5L10.5 346.5" stroke-width="3.5" stroke="rgba(77, 149, 234, 1)"></path><path d="M343 346.5 a3.5 3.5 0 1 0 7 0 a3.5 3.5 0 1 0 -7 0zM7 346.5 a3.5 3.5 0 1 0 7 0 a3.5 3.5 0 1 0 -7 0z" fill="rgba(77, 149, 234, 1)"></path><path d="M661.5 304.5L682.5 325.5L724.5 325.5L745.5 346.5L1060.5 346.5" stroke-width="3.5" stroke="rgba(77, 149, 234, 1)"></path><path d="M658 304.5 a3.5 3.5 0 1 0 7 0 a3.5 3.5 0 1 0 -7 0zM1057 346.5 a3.5 3.5 0 1 0 7 0 a3.5 3.5 0 1 0 -7 0z" fill="rgba(77, 149, 234, 1)"></path><path d="M1102.5 10.5L1102.5 220.5L1144.5 262.5L1291.5 262.5" stroke-width="3.5" stroke="rgba(77, 149, 234, 1)"></path><path d="M1099 10.5 a3.5 3.5 0 1 0 7 0 a3.5 3.5 0 1 0 -7 0zM1288 262.5 a3.5 3.5 0 1 0 7 0 a3.5 3.5 0 1 0 -7 0z" fill="rgba(77, 149, 234, 1)"></path><path d="M955.5 157.5L955.5 136.5L997.5 94.5L997.5 52.5L1039.5 10.5L1081.5 10.5" stroke-width="3.5" stroke="rgba(77, 149, 234, 1)"></path><path d="M952 157.5 a3.5 3.5 0 1 0 7 0 a3.5 3.5 0 1 0 -7 0zM1078 10.5 a3.5 3.5 0 1 0 7 0 a3.5 3.5 0 1 0 -7 0z" fill="rgba(77, 149, 234, 1)"></path><path d="M283.5 283.5L325.5 325.5L388.5 325.5L514.5 199.5L682.5 199.5" stroke-width="3.5" stroke="rgba(77, 149, 234, 1)"></path><path d="M280 283.5 a3.5 3.5 0 1 0 7 0 a3.5 3.5 0 1 0 -7 0zM679 199.5 a3.5 3.5 0 1 0 7 0 a3.5 3.5 0 1 0 -7 0z" fill="rgba(77, 149, 234, 1)"></path><path d="M1648.5 241.5L1648.5 283.5L1627.5 304.5" stroke-width="3.5" stroke="rgba(77, 149, 234, 1)"></path><path d="M1645 241.5 a3.5 3.5 0 1 0 7 0 a3.5 3.5 0 1 0 -7 0zM1624 304.5 a3.5 3.5 0 1 0 7 0 a3.5 3.5 0 1 0 -7 0z" fill="rgba(77, 149, 234, 1)"></path><path d="M1081.5 157.5L1018.5 94.5L1018.5 52.5L1039.5 31.5L1081.5 31.5" stroke-width="3.5" stroke="rgba(77, 149, 234, 1)"></path><path d="M1078 157.5 a3.5 3.5 0 1 0 7 0 a3.5 3.5 0 1 0 -7 0zM1078 31.5 a3.5 3.5 0 1 0 7 0 a3.5 3.5 0 1 0 -7 0z" fill="rgba(77, 149, 234, 1)"></path><path d="M346.5 220.5L304.5 178.5L220.5 178.5L136.5 262.5L136.5 304.5L115.5 325.5L10.5 325.5" stroke-width="3.5" stroke="rgba(77, 149, 234, 1)"></path><path d="M343 220.5 a3.5 3.5 0 1 0 7 0 a3.5 3.5 0 1 0 -7 0zM7 325.5 a3.5 3.5 0 1 0 7 0 a3.5 3.5 0 1 0 -7 0z" fill="rgba(77, 149, 234, 1)"></path><path d="M430.5 31.5L346.5 115.5L241.5 115.5L136.5 10.5L115.5 10.5L31.5 94.5" stroke-width="3.5" stroke="rgba(77, 149, 234, 1)"></path><path d="M427 31.5 a3.5 3.5 0 1 0 7 0 a3.5 3.5 0 1 0 -7 0zM28 94.5 a3.5 3.5 0 1 0 7 0 a3.5 3.5 0 1 0 -7 0z" fill="rgba(77, 149, 234, 1)"></path><path d="M703.5 283.5L451.5 283.5L388.5 346.5L367.5 346.5" stroke-width="3.5" stroke="rgba(77, 149, 234, 1)"></path><path d="M700 283.5 a3.5 3.5 0 1 0 7 0 a3.5 3.5 0 1 0 -7 0zM364 346.5 a3.5 3.5 0 1 0 7 0 a3.5 3.5 0 1 0 -7 0z" fill="rgba(77, 149, 234, 1)"></path><path d="M1627.5 94.5L1690.5 157.5L1690.5 325.5" stroke-width="3.5" stroke="rgba(77, 149, 234, 1)"></path><path d="M1624 94.5 a3.5 3.5 0 1 0 7 0 a3.5 3.5 0 1 0 -7 0zM1687 325.5 a3.5 3.5 0 1 0 7 0 a3.5 3.5 0 1 0 -7 0z" fill="rgba(77, 149, 234, 1)"></path><path d="M346.5 73.5L241.5 73.5" stroke-width="3.5" stroke="rgba(77, 149, 234, 1)"></path><path d="M343 73.5 a3.5 3.5 0 1 0 7 0 a3.5 3.5 0 1 0 -7 0zM238 73.5 a3.5 3.5 0 1 0 7 0 a3.5 3.5 0 1 0 -7 0z" fill="rgba(77, 149, 234, 1)"></path><path d="M976.5 52.5L955.5 52.5L934.5 31.5L766.5 31.5L724.5 73.5L724.5 136.5L787.5 199.5L808.5 199.5" stroke-width="3.5" stroke="rgba(77, 149, 234, 1)"></path><path d="M973 52.5 a3.5 3.5 0 1 0 7 0 a3.5 3.5 0 1 0 -7 0zM805 199.5 a3.5 3.5 0 1 0 7 0 a3.5 3.5 0 1 0 -7 0z" fill="rgba(77, 149, 234, 1)"></path><path d="M913.5 325.5L913.5 304.5L892.5 283.5L724.5 283.5L703.5 304.5L682.5 304.5" stroke-width="3.5" stroke="rgba(77, 149, 234, 1)"></path><path d="M910 325.5 a3.5 3.5 0 1 0 7 0 a3.5 3.5 0 1 0 -7 0zM679 304.5 a3.5 3.5 0 1 0 7 0 a3.5 3.5 0 1 0 -7 0z" fill="rgba(77, 149, 234, 1)"></path><path d="M10.5 283.5L31.5 304.5L52.5 304.5L178.5 178.5L178.5 73.5L136.5 31.5L115.5 31.5L52.5 94.5" stroke-width="3.5" stroke="rgba(77, 149, 234, 1)"></path><path d="M7 283.5 a3.5 3.5 0 1 0 7 0 a3.5 3.5 0 1 0 -7 0zM49 94.5 a3.5 3.5 0 1 0 7 0 a3.5 3.5 0 1 0 -7 0z" fill="rgba(77, 149, 234, 1)"></path><path d="M52.5 136.5L94.5 136.5L157.5 73.5" stroke-width="3.5" stroke="rgba(77, 149, 234, 1)"></path><path d="M49 136.5 a3.5 3.5 0 1 0 7 0 a3.5 3.5 0 1 0 -7 0zM154 73.5 a3.5 3.5 0 1 0 7 0 a3.5 3.5 0 1 0 -7 0z" fill="rgba(77, 149, 234, 1)"></path><path d="M1627.5 136.5L1627.5 115.5L1522.5 10.5L1291.5 10.5" stroke-width="3.5" stroke="rgba(77, 149, 234, 1)"></path><path d="M1624 136.5 a3.5 3.5 0 1 0 7 0 a3.5 3.5 0 1 0 -7 0zM1288 10.5 a3.5 3.5 0 1 0 7 0 a3.5 3.5 0 1 0 -7 0z" fill="rgba(77, 149, 234, 1)"></path><path d="M325.5 10.5L367.5 52.5L367.5 73.5" stroke-width="3.5" stroke="rgba(77, 149, 234, 1)"></path><path d="M322 10.5 a3.5 3.5 0 1 0 7 0 a3.5 3.5 0 1 0 -7 0zM364 73.5 a3.5 3.5 0 1 0 7 0 a3.5 3.5 0 1 0 -7 0z" fill="rgba(77, 149, 234, 1)"></path><path d="M913.5 157.5L829.5 241.5L808.5 241.5" stroke-width="3.5" stroke="rgba(77, 149, 234, 1)"></path><path d="M910 157.5 a3.5 3.5 0 1 0 7 0 a3.5 3.5 0 1 0 -7 0zM805 241.5 a3.5 3.5 0 1 0 7 0 a3.5 3.5 0 1 0 -7 0z" fill="rgba(77, 149, 234, 1)"></path><path d="M1459.5 241.5L1459.5 136.5L1543.5 52.5" stroke-width="3.5" stroke="rgba(77, 149, 234, 1)"></path><path d="M1456 241.5 a3.5 3.5 0 1 0 7 0 a3.5 3.5 0 1 0 -7 0zM1540 52.5 a3.5 3.5 0 1 0 7 0 a3.5 3.5 0 1 0 -7 0z" fill="rgba(77, 149, 234, 1)"></path><path d="M451.5 304.5L409.5 346.5" stroke-width="3.5" stroke="rgba(77, 149, 234, 1)"></path><path d="M448 304.5 a3.5 3.5 0 1 0 7 0 a3.5 3.5 0 1 0 -7 0zM406 346.5 a3.5 3.5 0 1 0 7 0 a3.5 3.5 0 1 0 -7 0z" fill="rgba(77, 149, 234, 1)"></path><path d="M451.5 52.5L451.5 136.5" stroke-width="3.5" stroke="rgba(77, 149, 234, 1)"></path><path d="M448 52.5 a3.5 3.5 0 1 0 7 0 a3.5 3.5 0 1 0 -7 0zM448 136.5 a3.5 3.5 0 1 0 7 0 a3.5 3.5 0 1 0 -7 0z" fill="rgba(77, 149, 234, 1)"></path><path d="M1291.5 52.5L1333.5 94.5L1375.5 94.5L1396.5 115.5L1396.5 178.5" stroke-width="3.5" stroke="rgba(77, 149, 234, 1)"></path><path d="M1288 52.5 a3.5 3.5 0 1 0 7 0 a3.5 3.5 0 1 0 -7 0zM1393 178.5 a3.5 3.5 0 1 0 7 0 a3.5 3.5 0 1 0 -7 0z" fill="rgba(77, 149, 234, 1)"></path><path d="M535.5 31.5L451.5 31.5L430.5 10.5L346.5 10.5" stroke-width="3.5" stroke="rgba(77, 149, 234, 1)"></path><path d="M532 31.5 a3.5 3.5 0 1 0 7 0 a3.5 3.5 0 1 0 -7 0zM343 10.5 a3.5 3.5 0 1 0 7 0 a3.5 3.5 0 1 0 -7 0z" fill="rgba(77, 149, 234, 1)"></path><path d="M1207.5 94.5L1270.5 31.5" stroke-width="3.5" stroke="rgba(77, 149, 234, 1)"></path><path d="M1204 94.5 a3.5 3.5 0 1 0 7 0 a3.5 3.5 0 1 0 -7 0zM1267 31.5 a3.5 3.5 0 1 0 7 0 a3.5 3.5 0 1 0 -7 0z" fill="rgba(77, 149, 234, 1)"></path><path d="M1039.5 241.5L1039.5 325.5" stroke-width="3.5" stroke="rgba(77, 149, 234, 1)"></path><path d="M1036 241.5 a3.5 3.5 0 1 0 7 0 a3.5 3.5 0 1 0 -7 0zM1036 325.5 a3.5 3.5 0 1 0 7 0 a3.5 3.5 0 1 0 -7 0z" fill="rgba(77, 149, 234, 1)"></path><path d="M535.5 178.5L619.5 178.5" stroke-width="3.5" stroke="rgba(77, 149, 234, 1)"></path><path d="M532 178.5 a3.5 3.5 0 1 0 7 0 a3.5 3.5 0 1 0 -7 0zM616 178.5 a3.5 3.5 0 1 0 7 0 a3.5 3.5 0 1 0 -7 0z" fill="rgba(77, 149, 234, 1)"></path><path d="M619.5 94.5L682.5 94.5" stroke-width="3.5" stroke="rgba(77, 149, 234, 1)"></path><path d="M616 94.5 a3.5 3.5 0 1 0 7 0 a3.5 3.5 0 1 0 -7 0zM679 94.5 a3.5 3.5 0 1 0 7 0 a3.5 3.5 0 1 0 -7 0z" fill="rgba(77, 149, 234, 1)"></path><path d="M1480.5 31.5L1459.5 52.5L1375.5 52.5L1354.5 31.5" stroke-width="3.5" stroke="rgba(77, 149, 234, 1)"></path><path d="M1477 31.5 a3.5 3.5 0 1 0 7 0 a3.5 3.5 0 1 0 -7 0zM1351 31.5 a3.5 3.5 0 1 0 7 0 a3.5 3.5 0 1 0 -7 0z" fill="rgba(77, 149, 234, 1)"></path><path d="M619.5 31.5L598.5 10.5L451.5 10.5" stroke-width="3.5" stroke="rgba(77, 149, 234, 1)"></path><path d="M616 31.5 a3.5 3.5 0 1 0 7 0 a3.5 3.5 0 1 0 -7 0zM448 10.5 a3.5 3.5 0 1 0 7 0 a3.5 3.5 0 1 0 -7 0z" fill="rgba(77, 149, 234, 1)"></path><path d="M1312.5 262.5L1375.5 199.5" stroke-width="3.5" stroke="rgba(77, 149, 234, 1)"></path><path d="M1309 262.5 a3.5 3.5 0 1 0 7 0 a3.5 3.5 0 1 0 -7 0zM1372 199.5 a3.5 3.5 0 1 0 7 0 a3.5 3.5 0 1 0 -7 0z" fill="rgba(77, 149, 234, 1)"></path><path d="M31.5 178.5L52.5 178.5L94.5 220.5L115.5 220.5L157.5 178.5L157.5 94.5" stroke-width="3.5" stroke="rgba(77, 149, 234, 1)"></path><path d="M28 178.5 a3.5 3.5 0 1 0 7 0 a3.5 3.5 0 1 0 -7 0zM154 94.5 a3.5 3.5 0 1 0 7 0 a3.5 3.5 0 1 0 -7 0z" fill="rgba(77, 149, 234, 1)"></path><path d="M94.5 241.5L52.5 283.5L31.5 283.5L10.5 262.5L10.5 52.5L31.5 31.5L73.5 31.5L94.5 10.5" stroke-width="3.5" stroke="rgba(77, 149, 234, 1)"></path><path d="M91 241.5 a3.5 3.5 0 1 0 7 0 a3.5 3.5 0 1 0 -7 0zM91 10.5 a3.5 3.5 0 1 0 7 0 a3.5 3.5 0 1 0 -7 0z" fill="rgba(77, 149, 234, 1)"></path><path d="M976.5 325.5L1018.5 325.5" stroke-width="3.5" stroke="rgba(77, 149, 234, 1)"></path><path d="M973 325.5 a3.5 3.5 0 1 0 7 0 a3.5 3.5 0 1 0 -7 0zM1015 325.5 a3.5 3.5 0 1 0 7 0 a3.5 3.5 0 1 0 -7 0z" fill="rgba(77, 149, 234, 1)"></path><path d="M367.5 199.5L346.5 178.5L325.5 178.5" stroke-width="3.5" stroke="rgba(77, 149, 234, 1)"></path><path d="M364 199.5 a3.5 3.5 0 1 0 7 0 a3.5 3.5 0 1 0 -7 0zM322 178.5 a3.5 3.5 0 1 0 7 0 a3.5 3.5 0 1 0 -7 0z" fill="rgba(77, 149, 234, 1)"></path><path d="M283.5 220.5L178.5 325.5L136.5 325.5" stroke-width="3.5" stroke="rgba(77, 149, 234, 1)"></path><path d="M280 220.5 a3.5 3.5 0 1 0 7 0 a3.5 3.5 0 1 0 -7 0zM133 325.5 a3.5 3.5 0 1 0 7 0 a3.5 3.5 0 1 0 -7 0z" fill="rgba(77, 149, 234, 1)"></path><path d="M724.5 199.5L745.5 220.5L787.5 220.5" stroke-width="3.5" stroke="rgba(77, 149, 234, 1)"></path><path d="M721 199.5 a3.5 3.5 0 1 0 7 0 a3.5 3.5 0 1 0 -7 0zM784 220.5 a3.5 3.5 0 1 0 7 0 a3.5 3.5 0 1 0 -7 0z" fill="rgba(77, 149, 234, 1)"></path><path d="M1459.5 73.5L1396.5 73.5" stroke-width="3.5" stroke="rgba(77, 149, 234, 1)"></path><path d="M1456 73.5 a3.5 3.5 0 1 0 7 0 a3.5 3.5 0 1 0 -7 0zM1393 73.5 a3.5 3.5 0 1 0 7 0 a3.5 3.5 0 1 0 -7 0z" fill="rgba(77, 149, 234, 1)"></path><path d="M829.5 73.5L871.5 73.5L934.5 136.5L934.5 262.5L976.5 304.5L1018.5 304.5" stroke-width="3.5" stroke="rgba(77, 149, 234, 1)"></path><path d="M826 73.5 a3.5 3.5 0 1 0 7 0 a3.5 3.5 0 1 0 -7 0zM1015 304.5 a3.5 3.5 0 1 0 7 0 a3.5 3.5 0 1 0 -7 0z" fill="rgba(77, 149, 234, 1)"></path><path d="M1186.5 178.5L1228.5 178.5L1270.5 136.5L1270.5 52.5" stroke-width="3.5" stroke="rgba(77, 149, 234, 1)"></path><path d="M1183 178.5 a3.5 3.5 0 1 0 7 0 a3.5 3.5 0 1 0 -7 0zM1267 52.5 a3.5 3.5 0 1 0 7 0 a3.5 3.5 0 1 0 -7 0z" fill="rgba(77, 149, 234, 1)"></path><path d="M409.5 178.5L388.5 199.5L388.5 241.5L409.5 262.5L409.5 283.5L388.5 304.5L325.5 304.5L283.5 262.5L262.5 262.5L241.5 283.5L241.5 325.5" stroke-width="3.5" stroke="rgba(77, 149, 234, 1)"></path><path d="M406 178.5 a3.5 3.5 0 1 0 7 0 a3.5 3.5 0 1 0 -7 0zM238 325.5 a3.5 3.5 0 1 0 7 0 a3.5 3.5 0 1 0 -7 0z" fill="rgba(77, 149, 234, 1)"></path><path d="M1102.5 241.5L997.5 136.5L976.5 136.5" stroke-width="3.5" stroke="rgba(77, 149, 234, 1)"></path><path d="M1099 241.5 a3.5 3.5 0 1 0 7 0 a3.5 3.5 0 1 0 -7 0zM973 136.5 a3.5 3.5 0 1 0 7 0 a3.5 3.5 0 1 0 -7 0z" fill="rgba(77, 149, 234, 1)"></path><path d="M451.5 325.5L472.5 346.5L724.5 346.5" stroke-width="3.5" stroke="rgba(77, 149, 234, 1)"></path><path d="M448 325.5 a3.5 3.5 0 1 0 7 0 a3.5 3.5 0 1 0 -7 0zM721 346.5 a3.5 3.5 0 1 0 7 0 a3.5 3.5 0 1 0 -7 0z" fill="rgba(77, 149, 234, 1)"></path><path d="M346.5 52.5L304.5 10.5L157.5 10.5" stroke-width="3.5" stroke="rgba(77, 149, 234, 1)"></path><path d="M343 52.5 a3.5 3.5 0 1 0 7 0 a3.5 3.5 0 1 0 -7 0zM154 10.5 a3.5 3.5 0 1 0 7 0 a3.5 3.5 0 1 0 -7 0z" fill="rgba(77, 149, 234, 1)"></path><path d="M1270.5 199.5L1312.5 199.5L1333.5 220.5" stroke-width="3.5" stroke="rgba(77, 149, 234, 1)"></path><path d="M1267 199.5 a3.5 3.5 0 1 0 7 0 a3.5 3.5 0 1 0 -7 0zM1330 220.5 a3.5 3.5 0 1 0 7 0 a3.5 3.5 0 1 0 -7 0z" fill="rgba(77, 149, 234, 1)"></path><path d="M1291.5 94.5L1291.5 178.5" stroke-width="3.5" stroke="rgba(77, 149, 234, 1)"></path><path d="M1288 94.5 a3.5 3.5 0 1 0 7 0 a3.5 3.5 0 1 0 -7 0zM1288 178.5 a3.5 3.5 0 1 0 7 0 a3.5 3.5 0 1 0 -7 0z" fill="rgba(77, 149, 234, 1)"></path><path d="M1564.5 325.5L1480.5 241.5L1480.5 136.5L1543.5 73.5L1564.5 73.5L1606.5 115.5L1606.5 199.5" stroke-width="3.5" stroke="rgba(77, 149, 234, 1)"></path><path d="M1561 325.5 a3.5 3.5 0 1 0 7 0 a3.5 3.5 0 1 0 -7 0zM1603 199.5 a3.5 3.5 0 1 0 7 0 a3.5 3.5 0 1 0 -7 0z" fill="rgba(77, 149, 234, 1)"></path><path d="M1228.5 31.5L1123.5 31.5" stroke-width="3.5" stroke="rgba(77, 149, 234, 1)"></path><path d="M1225 31.5 a3.5 3.5 0 1 0 7 0 a3.5 3.5 0 1 0 -7 0zM1120 31.5 a3.5 3.5 0 1 0 7 0 a3.5 3.5 0 1 0 -7 0z" fill="rgba(77, 149, 234, 1)"></path><path d="M1270.5 304.5L1249.5 283.5L1081.5 283.5L1060.5 262.5L1060.5 220.5L997.5 157.5L976.5 157.5L955.5 178.5L955.5 220.5" stroke-width="3.5" stroke="rgba(77, 149, 234, 1)"></path><path d="M1267 304.5 a3.5 3.5 0 1 0 7 0 a3.5 3.5 0 1 0 -7 0zM952 220.5 a3.5 3.5 0 1 0 7 0 a3.5 3.5 0 1 0 -7 0z" fill="rgba(77, 149, 234, 1)"></path><path d="M325.5 94.5L241.5 94.5" stroke-width="3.5" stroke="rgba(77, 149, 234, 1)"></path><path d="M322 94.5 a3.5 3.5 0 1 0 7 0 a3.5 3.5 0 1 0 -7 0zM238 94.5 a3.5 3.5 0 1 0 7 0 a3.5 3.5 0 1 0 -7 0z" fill="rgba(77, 149, 234, 1)"></path><path d="M199.5 241.5L199.5 220.5L220.5 199.5L304.5 199.5L367.5 262.5L388.5 262.5" stroke-width="3.5" stroke="rgba(77, 149, 234, 1)"></path><path d="M196 241.5 a3.5 3.5 0 1 0 7 0 a3.5 3.5 0 1 0 -7 0zM385 262.5 a3.5 3.5 0 1 0 7 0 a3.5 3.5 0 1 0 -7 0z" fill="rgba(77, 149, 234, 1)"></path><path d="M1543.5 157.5L1585.5 115.5" stroke-width="3.5" stroke="rgba(77, 149, 234, 1)"></path><path d="M1540 157.5 a3.5 3.5 0 1 0 7 0 a3.5 3.5 0 1 0 -7 0zM1582 115.5 a3.5 3.5 0 1 0 7 0 a3.5 3.5 0 1 0 -7 0z" fill="rgba(77, 149, 234, 1)"></path><path d="M430.5 262.5L409.5 241.5L409.5 199.5L430.5 178.5L514.5 178.5" stroke-width="3.5" stroke="rgba(77, 149, 234, 1)"></path><path d="M427 262.5 a3.5 3.5 0 1 0 7 0 a3.5 3.5 0 1 0 -7 0zM511 178.5 a3.5 3.5 0 1 0 7 0 a3.5 3.5 0 1 0 -7 0z" fill="rgba(77, 149, 234, 1)"></path><path d="M619.5 136.5L577.5 94.5L577.5 52.5L598.5 31.5" stroke-width="3.5" stroke="rgba(77, 149, 234, 1)"></path><path d="M616 136.5 a3.5 3.5 0 1 0 7 0 a3.5 3.5 0 1 0 -7 0zM595 31.5 a3.5 3.5 0 1 0 7 0 a3.5 3.5 0 1 0 -7 0z" fill="rgba(77, 149, 234, 1)"></path><path d="M1459.5 94.5L1480.5 94.5L1501.5 73.5L1501.5 31.5" stroke-width="3.5" stroke="rgba(77, 149, 234, 1)"></path><path d="M1456 94.5 a3.5 3.5 0 1 0 7 0 a3.5 3.5 0 1 0 -7 0zM1498 31.5 a3.5 3.5 0 1 0 7 0 a3.5 3.5 0 1 0 -7 0z" fill="rgba(77, 149, 234, 1)"></path><path d="M1459.5 262.5L1480.5 283.5L1501.5 283.5L1564.5 346.5L1585.5 346.5L1606.5 325.5" stroke-width="3.5" stroke="rgba(77, 149, 234, 1)"></path><path d="M1456 262.5 a3.5 3.5 0 1 0 7 0 a3.5 3.5 0 1 0 -7 0zM1603 325.5 a3.5 3.5 0 1 0 7 0 a3.5 3.5 0 1 0 -7 0z" fill="rgba(77, 149, 234, 1)"></path><path d="M976.5 178.5L976.5 283.5" stroke-width="3.5" stroke="rgba(77, 149, 234, 1)"></path><path d="M973 178.5 a3.5 3.5 0 1 0 7 0 a3.5 3.5 0 1 0 -7 0zM973 283.5 a3.5 3.5 0 1 0 7 0 a3.5 3.5 0 1 0 -7 0z" fill="rgba(77, 149, 234, 1)"></path><path d="M850.5 115.5L787.5 178.5" stroke-width="3.5" stroke="rgba(77, 149, 234, 1)"></path><path d="M847 115.5 a3.5 3.5 0 1 0 7 0 a3.5 3.5 0 1 0 -7 0zM784 178.5 a3.5 3.5 0 1 0 7 0 a3.5 3.5 0 1 0 -7 0z" fill="rgba(77, 149, 234, 1)"></path><path d="M1669.5 220.5L1522.5 220.5L1501.5 199.5L1501.5 136.5L1543.5 94.5L1564.5 94.5" stroke-width="3.5" stroke="rgba(77, 149, 234, 1)"></path><path d="M1666 220.5 a3.5 3.5 0 1 0 7 0 a3.5 3.5 0 1 0 -7 0zM1561 94.5 a3.5 3.5 0 1 0 7 0 a3.5 3.5 0 1 0 -7 0z" fill="rgba(77, 149, 234, 1)"></path><path d="M94.5 199.5L31.5 136.5L31.5 115.5" stroke-width="3.5" stroke="rgba(77, 149, 234, 1)"></path><path d="M91 199.5 a3.5 3.5 0 1 0 7 0 a3.5 3.5 0 1 0 -7 0zM28 115.5 a3.5 3.5 0 1 0 7 0 a3.5 3.5 0 1 0 -7 0z" fill="rgba(77, 149, 234, 1)"></path><path d="M787.5 115.5L745.5 115.5" stroke-width="3.5" stroke="rgba(77, 149, 234, 1)"></path><path d="M784 115.5 a3.5 3.5 0 1 0 7 0 a3.5 3.5 0 1 0 -7 0zM742 115.5 a3.5 3.5 0 1 0 7 0 a3.5 3.5 0 1 0 -7 0z" fill="rgba(77, 149, 234, 1)"></path><path d="M1291.5 283.5L1291.5 304.5L1270.5 325.5L1144.5 325.5" stroke-width="3.5" stroke="rgba(77, 149, 234, 1)"></path><path d="M1288 283.5 a3.5 3.5 0 1 0 7 0 a3.5 3.5 0 1 0 -7 0zM1141 325.5 a3.5 3.5 0 1 0 7 0 a3.5 3.5 0 1 0 -7 0z" fill="rgba(77, 149, 234, 1)"></path><path d="M1123.5 157.5L1123.5 52.5" stroke-width="3.5" stroke="rgba(77, 149, 234, 1)"></path><path d="M1120 157.5 a3.5 3.5 0 1 0 7 0 a3.5 3.5 0 1 0 -7 0zM1120 52.5 a3.5 3.5 0 1 0 7 0 a3.5 3.5 0 1 0 -7 0z" fill="rgba(77, 149, 234, 1)"></path><path d="M220.5 262.5L262.5 220.5" stroke-width="3.5" stroke="rgba(77, 149, 234, 1)"></path><path d="M217 262.5 a3.5 3.5 0 1 0 7 0 a3.5 3.5 0 1 0 -7 0zM259 220.5 a3.5 3.5 0 1 0 7 0 a3.5 3.5 0 1 0 -7 0z" fill="rgba(77, 149, 234, 1)"></path><path d="M703.5 157.5L682.5 157.5L661.5 178.5" stroke-width="3.5" stroke="rgba(77, 149, 234, 1)"></path><path d="M700 157.5 a3.5 3.5 0 1 0 7 0 a3.5 3.5 0 1 0 -7 0zM658 178.5 a3.5 3.5 0 1 0 7 0 a3.5 3.5 0 1 0 -7 0z" fill="rgba(77, 149, 234, 1)"></path><path d="M1186.5 220.5L1207.5 199.5L1249.5 199.5L1270.5 178.5L1270.5 157.5" stroke-width="3.5" stroke="rgba(77, 149, 234, 1)"></path><path d="M1183 220.5 a3.5 3.5 0 1 0 7 0 a3.5 3.5 0 1 0 -7 0zM1267 157.5 a3.5 3.5 0 1 0 7 0 a3.5 3.5 0 1 0 -7 0z" fill="rgba(77, 149, 234, 1)"></path><path d="M1669.5 31.5L1690.5 52.5L1690.5 136.5" stroke-width="3.5" stroke="rgba(77, 149, 234, 1)"></path><path d="M1666 31.5 a3.5 3.5 0 1 0 7 0 a3.5 3.5 0 1 0 -7 0zM1687 136.5 a3.5 3.5 0 1 0 7 0 a3.5 3.5 0 1 0 -7 0z" fill="rgba(77, 149, 234, 1)"></path><path d="M703.5 31.5L640.5 31.5L619.5 10.5" stroke-width="3.5" stroke="rgba(77, 149, 234, 1)"></path><path d="M700 31.5 a3.5 3.5 0 1 0 7 0 a3.5 3.5 0 1 0 -7 0zM616 10.5 a3.5 3.5 0 1 0 7 0 a3.5 3.5 0 1 0 -7 0z" fill="rgba(77, 149, 234, 1)"></path><path d="M1522.5 157.5L1522.5 136.5L1543.5 115.5L1564.5 115.5" stroke-width="3.5" stroke="rgba(77, 149, 234, 1)"></path><path d="M1519 157.5 a3.5 3.5 0 1 0 7 0 a3.5 3.5 0 1 0 -7 0zM1561 115.5 a3.5 3.5 0 1 0 7 0 a3.5 3.5 0 1 0 -7 0z" fill="rgba(77, 149, 234, 1)"></path><path d="M535.5 325.5L640.5 325.5" stroke-width="3.5" stroke="rgba(77, 149, 234, 1)"></path><path d="M532 325.5 a3.5 3.5 0 1 0 7 0 a3.5 3.5 0 1 0 -7 0zM637 325.5 a3.5 3.5 0 1 0 7 0 a3.5 3.5 0 1 0 -7 0z" fill="rgba(77, 149, 234, 1)"></path><path d="M934.5 52.5L766.5 52.5L745.5 73.5L745.5 94.5" stroke-width="3.5" stroke="rgba(77, 149, 234, 1)"></path><path d="M931 52.5 a3.5 3.5 0 1 0 7 0 a3.5 3.5 0 1 0 -7 0zM742 94.5 a3.5 3.5 0 1 0 7 0 a3.5 3.5 0 1 0 -7 0z" fill="rgba(77, 149, 234, 1)"></path><path d="M325.5 283.5L388.5 283.5" stroke-width="3.5" stroke="rgba(77, 149, 234, 1)"></path><path d="M322 283.5 a3.5 3.5 0 1 0 7 0 a3.5 3.5 0 1 0 -7 0zM385 283.5 a3.5 3.5 0 1 0 7 0 a3.5 3.5 0 1 0 -7 0z" fill="rgba(77, 149, 234, 1)"></path><path d="M1543.5 283.5L1585.5 325.5" stroke-width="3.5" stroke="rgba(77, 149, 234, 1)"></path><path d="M1540 283.5 a3.5 3.5 0 1 0 7 0 a3.5 3.5 0 1 0 -7 0zM1582 325.5 a3.5 3.5 0 1 0 7 0 a3.5 3.5 0 1 0 -7 0z" fill="rgba(77, 149, 234, 1)"></path><path d="M850.5 157.5L892.5 115.5" stroke-width="3.5" stroke="rgba(77, 149, 234, 1)"></path><path d="M847 157.5 a3.5 3.5 0 1 0 7 0 a3.5 3.5 0 1 0 -7 0zM889 115.5 a3.5 3.5 0 1 0 7 0 a3.5 3.5 0 1 0 -7 0z" fill="rgba(77, 149, 234, 1)"></path><path d="M1165.5 241.5L1123.5 199.5L1123.5 178.5L1186.5 115.5L1186.5 52.5" stroke-width="3.5" stroke="rgba(77, 149, 234, 1)"></path><path d="M1162 241.5 a3.5 3.5 0 1 0 7 0 a3.5 3.5 0 1 0 -7 0zM1183 52.5 a3.5 3.5 0 1 0 7 0 a3.5 3.5 0 1 0 -7 0z" fill="rgba(77, 149, 234, 1)"></path><path d="M1564.5 178.5L1585.5 157.5L1585.5 136.5" stroke-width="3.5" stroke="rgba(77, 149, 234, 1)"></path><path d="M1561 178.5 a3.5 3.5 0 1 0 7 0 a3.5 3.5 0 1 0 -7 0zM1582 136.5 a3.5 3.5 0 1 0 7 0 a3.5 3.5 0 1 0 -7 0z" fill="rgba(77, 149, 234, 1)"></path><path d="M514.5 304.5L619.5 304.5" stroke-width="3.5" stroke="rgba(77, 149, 234, 1)"></path><path d="M511 304.5 a3.5 3.5 0 1 0 7 0 a3.5 3.5 0 1 0 -7 0zM616 304.5 a3.5 3.5 0 1 0 7 0 a3.5 3.5 0 1 0 -7 0z" fill="rgba(77, 149, 234, 1)"></path><path d="M31.5 241.5L31.5 199.5" stroke-width="3.5" stroke="rgba(77, 149, 234, 1)"></path><path d="M28 241.5 a3.5 3.5 0 1 0 7 0 a3.5 3.5 0 1 0 -7 0zM28 199.5 a3.5 3.5 0 1 0 7 0 a3.5 3.5 0 1 0 -7 0z" fill="rgba(77, 149, 234, 1)"></path><path d="M1438.5 241.5L1438.5 283.5" stroke-width="3.5" stroke="rgba(77, 149, 234, 1)"></path><path d="M1435 241.5 a3.5 3.5 0 1 0 7 0 a3.5 3.5 0 1 0 -7 0zM1435 283.5 a3.5 3.5 0 1 0 7 0 a3.5 3.5 0 1 0 -7 0z" fill="rgba(77, 149, 234, 1)"></path><path d="M94.5 94.5L115.5 73.5L136.5 73.5" stroke-width="3.5" stroke="rgba(77, 149, 234, 1)"></path><path d="M91 94.5 a3.5 3.5 0 1 0 7 0 a3.5 3.5 0 1 0 -7 0zM133 73.5 a3.5 3.5 0 1 0 7 0 a3.5 3.5 0 1 0 -7 0z" fill="rgba(77, 149, 234, 1)"></path><path d="M892.5 199.5L913.5 220.5L913.5 241.5" stroke-width="3.5" stroke="rgba(77, 149, 234, 1)"></path><path d="M889 199.5 a3.5 3.5 0 1 0 7 0 a3.5 3.5 0 1 0 -7 0zM910 241.5 a3.5 3.5 0 1 0 7 0 a3.5 3.5 0 1 0 -7 0z" fill="rgba(77, 149, 234, 1)"></path><path d="M409.5 136.5L430.5 115.5L430.5 52.5" stroke-width="3.5" stroke="rgba(77, 149, 234, 1)"></path><path d="M406 136.5 a3.5 3.5 0 1 0 7 0 a3.5 3.5 0 1 0 -7 0zM427 52.5 a3.5 3.5 0 1 0 7 0 a3.5 3.5 0 1 0 -7 0z" fill="rgba(77, 149, 234, 1)"></path><path d="M115.5 304.5L73.5 304.5" stroke-width="3.5" stroke="rgba(77, 149, 234, 1)"></path><path d="M112 304.5 a3.5 3.5 0 1 0 7 0 a3.5 3.5 0 1 0 -7 0zM70 304.5 a3.5 3.5 0 1 0 7 0 a3.5 3.5 0 1 0 -7 0z" fill="rgba(77, 149, 234, 1)"></path><path d="M703.5 10.5L745.5 10.5" stroke-width="3.5" stroke="rgba(77, 149, 234, 1)"></path><path d="M700 10.5 a3.5 3.5 0 1 0 7 0 a3.5 3.5 0 1 0 -7 0zM742 10.5 a3.5 3.5 0 1 0 7 0 a3.5 3.5 0 1 0 -7 0z" fill="rgba(77, 149, 234, 1)"></path><path d="M1144.5 178.5L1144.5 199.5L1165.5 220.5" stroke-width="3.5" stroke="rgba(77, 149, 234, 1)"></path><path d="M1141 178.5 a3.5 3.5 0 1 0 7 0 a3.5 3.5 0 1 0 -7 0zM1162 220.5 a3.5 3.5 0 1 0 7 0 a3.5 3.5 0 1 0 -7 0z" fill="rgba(77, 149, 234, 1)"></path><path d="M1165.5 10.5L1123.5 10.5" stroke-width="3.5" stroke="rgba(77, 149, 234, 1)"></path><path d="M1162 10.5 a3.5 3.5 0 1 0 7 0 a3.5 3.5 0 1 0 -7 0zM1120 10.5 a3.5 3.5 0 1 0 7 0 a3.5 3.5 0 1 0 -7 0z" fill="rgba(77, 149, 234, 1)"></path><path d="M1312.5 136.5L1312.5 94.5" stroke-width="3.5" stroke="rgba(77, 149, 234, 1)"></path><path d="M1309 136.5 a3.5 3.5 0 1 0 7 0 a3.5 3.5 0 1 0 -7 0zM1309 94.5 a3.5 3.5 0 1 0 7 0 a3.5 3.5 0 1 0 -7 0z" fill="rgba(77, 149, 234, 1)"></path><path d="M640.5 52.5L682.5 52.5" stroke-width="3.5" stroke="rgba(77, 149, 234, 1)"></path><path d="M637 52.5 a3.5 3.5 0 1 0 7 0 a3.5 3.5 0 1 0 -7 0zM679 52.5 a3.5 3.5 0 1 0 7 0 a3.5 3.5 0 1 0 -7 0z" fill="rgba(77, 149, 234, 1)"></path><path d="M73.5 241.5L73.5 220.5L52.5 199.5" stroke-width="3.5" stroke="rgba(77, 149, 234, 1)"></path><path d="M70 241.5 a3.5 3.5 0 1 0 7 0 a3.5 3.5 0 1 0 -7 0zM49 199.5 a3.5 3.5 0 1 0 7 0 a3.5 3.5 0 1 0 -7 0z" fill="rgba(77, 149, 234, 1)"></path><path d="M1228.5 241.5L1186.5 241.5" stroke-width="3.5" stroke="rgba(77, 149, 234, 1)"></path><path d="M1225 241.5 a3.5 3.5 0 1 0 7 0 a3.5 3.5 0 1 0 -7 0zM1183 241.5 a3.5 3.5 0 1 0 7 0 a3.5 3.5 0 1 0 -7 0z" fill="rgba(77, 149, 234, 1)"></path><path d="M1060.5 157.5L1018.5 115.5" stroke-width="3.5" stroke="rgba(77, 149, 234, 1)"></path><path d="M1057 157.5 a3.5 3.5 0 1 0 7 0 a3.5 3.5 0 1 0 -7 0zM1015 115.5 a3.5 3.5 0 1 0 7 0 a3.5 3.5 0 1 0 -7 0z" fill="rgba(77, 149, 234, 1)"></path><path d="M1585.5 31.5L1648.5 31.5L1669.5 10.5L1690.5 10.5" stroke-width="3.5" stroke="rgba(77, 149, 234, 1)"></path><path d="M1582 31.5 a3.5 3.5 0 1 0 7 0 a3.5 3.5 0 1 0 -7 0zM1687 10.5 a3.5 3.5 0 1 0 7 0 a3.5 3.5 0 1 0 -7 0z" fill="rgba(77, 149, 234, 1)"></path><path d="M535.5 115.5L556.5 136.5L598.5 136.5" stroke-width="3.5" stroke="rgba(77, 149, 234, 1)"></path><path d="M532 115.5 a3.5 3.5 0 1 0 7 0 a3.5 3.5 0 1 0 -7 0zM595 136.5 a3.5 3.5 0 1 0 7 0 a3.5 3.5 0 1 0 -7 0z" fill="rgba(77, 149, 234, 1)"></path><path d="M1333.5 199.5L1312.5 178.5L1312.5 157.5L1333.5 136.5" stroke-width="3.5" stroke="rgba(77, 149, 234, 1)"></path><path d="M1330 199.5 a3.5 3.5 0 1 0 7 0 a3.5 3.5 0 1 0 -7 0zM1330 136.5 a3.5 3.5 0 1 0 7 0 a3.5 3.5 0 1 0 -7 0z" fill="rgba(77, 149, 234, 1)"></path><path d="M1585.5 283.5L1627.5 283.5" stroke-width="3.5" stroke="rgba(77, 149, 234, 1)"></path><path d="M1582 283.5 a3.5 3.5 0 1 0 7 0 a3.5 3.5 0 1 0 -7 0zM1624 283.5 a3.5 3.5 0 1 0 7 0 a3.5 3.5 0 1 0 -7 0z" fill="rgba(77, 149, 234, 1)"></path><path d="M808.5 94.5L787.5 73.5L766.5 73.5" stroke-width="3.5" stroke="rgba(77, 149, 234, 1)"></path><path d="M805 94.5 a3.5 3.5 0 1 0 7 0 a3.5 3.5 0 1 0 -7 0zM763 73.5 a3.5 3.5 0 1 0 7 0 a3.5 3.5 0 1 0 -7 0z" fill="rgba(77, 149, 234, 1)"></path><path d="M682.5 178.5L745.5 178.5L766.5 199.5" stroke-width="3.5" stroke="rgba(77, 149, 234, 1)"></path><path d="M679 178.5 a3.5 3.5 0 1 0 7 0 a3.5 3.5 0 1 0 -7 0zM763 199.5 a3.5 3.5 0 1 0 7 0 a3.5 3.5 0 1 0 -7 0z" fill="rgba(77, 149, 234, 1)"></path><path d="M1165.5 73.5L1144.5 94.5L1144.5 136.5" stroke-width="3.5" stroke="rgba(77, 149, 234, 1)"></path><path d="M1162 73.5 a3.5 3.5 0 1 0 7 0 a3.5 3.5 0 1 0 -7 0zM1141 136.5 a3.5 3.5 0 1 0 7 0 a3.5 3.5 0 1 0 -7 0z" fill="rgba(77, 149, 234, 1)"></path><path d="M241.5 136.5L199.5 178.5" stroke-width="3.5" stroke="rgba(77, 149, 234, 1)"></path><path d="M238 136.5 a3.5 3.5 0 1 0 7 0 a3.5 3.5 0 1 0 -7 0zM196 178.5 a3.5 3.5 0 1 0 7 0 a3.5 3.5 0 1 0 -7 0z" fill="rgba(77, 149, 234, 1)"></path><path d="M598.5 52.5L619.5 73.5L682.5 73.5" stroke-width="3.5" stroke="rgba(77, 149, 234, 1)"></path><path d="M595 52.5 a3.5 3.5 0 1 0 7 0 a3.5 3.5 0 1 0 -7 0zM679 73.5 a3.5 3.5 0 1 0 7 0 a3.5 3.5 0 1 0 -7 0z" fill="rgba(77, 149, 234, 1)"></path><path d="M1249.5 304.5L1144.5 304.5" stroke-width="3.5" stroke="rgba(77, 149, 234, 1)"></path><path d="M1246 304.5 a3.5 3.5 0 1 0 7 0 a3.5 3.5 0 1 0 -7 0zM1141 304.5 a3.5 3.5 0 1 0 7 0 a3.5 3.5 0 1 0 -7 0z" fill="rgba(77, 149, 234, 1)"></path><path d="M808.5 115.5L766.5 157.5" stroke-width="3.5" stroke="rgba(77, 149, 234, 1)"></path><path d="M805 115.5 a3.5 3.5 0 1 0 7 0 a3.5 3.5 0 1 0 -7 0zM763 157.5 a3.5 3.5 0 1 0 7 0 a3.5 3.5 0 1 0 -7 0z" fill="rgba(77, 149, 234, 1)"></path><path d="M535.5 94.5L556.5 73.5L556.5 31.5" stroke-width="3.5" stroke="rgba(77, 149, 234, 1)"></path><path d="M532 94.5 a3.5 3.5 0 1 0 7 0 a3.5 3.5 0 1 0 -7 0zM553 31.5 a3.5 3.5 0 1 0 7 0 a3.5 3.5 0 1 0 -7 0z" fill="rgba(77, 149, 234, 1)"></path><path d="M262.5 136.5L388.5 136.5L409.5 115.5L409.5 73.5" stroke-width="3.5" stroke="rgba(77, 149, 234, 1)"></path><path d="M259 136.5 a3.5 3.5 0 1 0 7 0 a3.5 3.5 0 1 0 -7 0zM406 73.5 a3.5 3.5 0 1 0 7 0 a3.5 3.5 0 1 0 -7 0z" fill="rgba(77, 149, 234, 1)"></path><path d="M577.5 220.5L724.5 220.5" stroke-width="3.5" stroke="rgba(77, 149, 234, 1)"></path><path d="M574 220.5 a3.5 3.5 0 1 0 7 0 a3.5 3.5 0 1 0 -7 0zM721 220.5 a3.5 3.5 0 1 0 7 0 a3.5 3.5 0 1 0 -7 0z" fill="rgba(77, 149, 234, 1)"></path><path d="M1669.5 262.5L1669.5 304.5L1648.5 325.5" stroke-width="3.5" stroke="rgba(77, 149, 234, 1)"></path><path d="M1666 262.5 a3.5 3.5 0 1 0 7 0 a3.5 3.5 0 1 0 -7 0zM1645 325.5 a3.5 3.5 0 1 0 7 0 a3.5 3.5 0 1 0 -7 0z" fill="rgba(77, 149, 234, 1)"></path><path d="M1543.5 241.5L1564.5 262.5L1564.5 283.5" stroke-width="3.5" stroke="rgba(77, 149, 234, 1)"></path><path d="M1540 241.5 a3.5 3.5 0 1 0 7 0 a3.5 3.5 0 1 0 -7 0zM1561 283.5 a3.5 3.5 0 1 0 7 0 a3.5 3.5 0 1 0 -7 0z" fill="rgba(77, 149, 234, 1)"></path><path d="M514.5 52.5L514.5 115.5L493.5 136.5L472.5 136.5" stroke-width="3.5" stroke="rgba(77, 149, 234, 1)"></path><path d="M511 52.5 a3.5 3.5 0 1 0 7 0 a3.5 3.5 0 1 0 -7 0zM469 136.5 a3.5 3.5 0 1 0 7 0 a3.5 3.5 0 1 0 -7 0z" fill="rgba(77, 149, 234, 1)"></path><path d="M262.5 52.5L241.5 31.5L220.5 31.5L199.5 52.5" stroke-width="3.5" stroke="rgba(77, 149, 234, 1)"></path><path d="M259 52.5 a3.5 3.5 0 1 0 7 0 a3.5 3.5 0 1 0 -7 0zM196 52.5 a3.5 3.5 0 1 0 7 0 a3.5 3.5 0 1 0 -7 0z" fill="rgba(77, 149, 234, 1)"></path><path d="M472.5 52.5L493.5 73.5L493.5 115.5" stroke-width="3.5" stroke="rgba(77, 149, 234, 1)"></path><path d="M469 52.5 a3.5 3.5 0 1 0 7 0 a3.5 3.5 0 1 0 -7 0zM490 115.5 a3.5 3.5 0 1 0 7 0 a3.5 3.5 0 1 0 -7 0z" fill="rgba(77, 149, 234, 1)"></path><path d="M1585.5 52.5L1627.5 52.5" stroke-width="3.5" stroke="rgba(77, 149, 234, 1)"></path><path d="M1582 52.5 a3.5 3.5 0 1 0 7 0 a3.5 3.5 0 1 0 -7 0zM1624 52.5 a3.5 3.5 0 1 0 7 0 a3.5 3.5 0 1 0 -7 0z" fill="rgba(77, 149, 234, 1)"></path><path d="M1627.5 199.5L1627.5 157.5" stroke-width="3.5" stroke="rgba(77, 149, 234, 1)"></path><path d="M1624 199.5 a3.5 3.5 0 1 0 7 0 a3.5 3.5 0 1 0 -7 0zM1624 157.5 a3.5 3.5 0 1 0 7 0 a3.5 3.5 0 1 0 -7 0z" fill="rgba(77, 149, 234, 1)"></path><path d="M1606.5 10.5L1648.5 10.5" stroke-width="3.5" stroke="rgba(77, 149, 234, 1)"></path><path d="M1603 10.5 a3.5 3.5 0 1 0 7 0 a3.5 3.5 0 1 0 -7 0zM1645 10.5 a3.5 3.5 0 1 0 7 0 a3.5 3.5 0 1 0 -7 0z" fill="rgba(77, 149, 234, 1)"></path><path d="M1039.5 73.5L1081.5 73.5" stroke-width="3.5" stroke="rgba(77, 149, 234, 1)"></path><path d="M1036 73.5 a3.5 3.5 0 1 0 7 0 a3.5 3.5 0 1 0 -7 0zM1078 73.5 a3.5 3.5 0 1 0 7 0 a3.5 3.5 0 1 0 -7 0z" fill="rgba(77, 149, 234, 1)"></path><path d="M1186.5 157.5L1165.5 178.5L1165.5 199.5" stroke-width="3.5" stroke="rgba(77, 149, 234, 1)"></path><path d="M1183 157.5 a3.5 3.5 0 1 0 7 0 a3.5 3.5 0 1 0 -7 0zM1162 199.5 a3.5 3.5 0 1 0 7 0 a3.5 3.5 0 1 0 -7 0z" fill="rgba(77, 149, 234, 1)"></path><path d="M1081.5 241.5L1102.5 262.5L1123.5 262.5" stroke-width="3.5" stroke="rgba(77, 149, 234, 1)"></path><path d="M1078 241.5 a3.5 3.5 0 1 0 7 0 a3.5 3.5 0 1 0 -7 0zM1120 262.5 a3.5 3.5 0 1 0 7 0 a3.5 3.5 0 1 0 -7 0z" fill="rgba(77, 149, 234, 1)"></path><path d="M913.5 73.5L955.5 115.5" stroke-width="3.5" stroke="rgba(77, 149, 234, 1)"></path><path d="M910 73.5 a3.5 3.5 0 1 0 7 0 a3.5 3.5 0 1 0 -7 0zM952 115.5 a3.5 3.5 0 1 0 7 0 a3.5 3.5 0 1 0 -7 0z" fill="rgba(77, 149, 234, 1)"></path><path d="M1039.5 94.5L1081.5 94.5" stroke-width="3.5" stroke="rgba(77, 149, 234, 1)"></path><path d="M1036 94.5 a3.5 3.5 0 1 0 7 0 a3.5 3.5 0 1 0 -7 0zM1078 94.5 a3.5 3.5 0 1 0 7 0 a3.5 3.5 0 1 0 -7 0z" fill="rgba(77, 149, 234, 1)"></path><path d="M1396.5 304.5L1354.5 304.5L1333.5 325.5L1333.5 346.5" stroke-width="3.5" stroke="rgba(77, 149, 234, 1)"></path><path d="M1393 304.5 a3.5 3.5 0 1 0 7 0 a3.5 3.5 0 1 0 -7 0zM1330 346.5 a3.5 3.5 0 1 0 7 0 a3.5 3.5 0 1 0 -7 0z" fill="rgba(77, 149, 234, 1)"></path><path d="M1018.5 220.5L997.5 241.5L997.5 262.5" stroke-width="3.5" stroke="rgba(77, 149, 234, 1)"></path><path d="M1015 220.5 a3.5 3.5 0 1 0 7 0 a3.5 3.5 0 1 0 -7 0zM994 262.5 a3.5 3.5 0 1 0 7 0 a3.5 3.5 0 1 0 -7 0z" fill="rgba(77, 149, 234, 1)"></path><path d="M1564.5 241.5L1627.5 241.5" stroke-width="3.5" stroke="rgba(77, 149, 234, 1)"></path><path d="M1561 241.5 a3.5 3.5 0 1 0 7 0 a3.5 3.5 0 1 0 -7 0zM1624 241.5 a3.5 3.5 0 1 0 7 0 a3.5 3.5 0 1 0 -7 0z" fill="rgba(77, 149, 234, 1)"></path><path d="M304.5 220.5L304.5 241.5L325.5 262.5L346.5 262.5" stroke-width="3.5" stroke="rgba(77, 149, 234, 1)"></path><path d="M301 220.5 a3.5 3.5 0 1 0 7 0 a3.5 3.5 0 1 0 -7 0zM343 262.5 a3.5 3.5 0 1 0 7 0 a3.5 3.5 0 1 0 -7 0z" fill="rgba(77, 149, 234, 1)"></path><path d="M1501.5 346.5L1543.5 346.5" stroke-width="3.5" stroke="rgba(77, 149, 234, 1)"></path><path d="M1498 346.5 a3.5 3.5 0 1 0 7 0 a3.5 3.5 0 1 0 -7 0zM1540 346.5 a3.5 3.5 0 1 0 7 0 a3.5 3.5 0 1 0 -7 0z" fill="rgba(77, 149, 234, 1)"></path><path d="M262.5 325.5L262.5 283.5" stroke-width="3.5" stroke="rgba(77, 149, 234, 1)"></path><path d="M259 325.5 a3.5 3.5 0 1 0 7 0 a3.5 3.5 0 1 0 -7 0zM259 283.5 a3.5 3.5 0 1 0 7 0 a3.5 3.5 0 1 0 -7 0z" fill="rgba(77, 149, 234, 1)"></path><path d="M1228.5 157.5L1228.5 94.5L1249.5 73.5" stroke-width="3.5" stroke="rgba(77, 149, 234, 1)"></path><path d="M1225 157.5 a3.5 3.5 0 1 0 7 0 a3.5 3.5 0 1 0 -7 0zM1246 73.5 a3.5 3.5 0 1 0 7 0 a3.5 3.5 0 1 0 -7 0z" fill="rgba(77, 149, 234, 1)"></path><path d="M1543.5 262.5L1501.5 220.5" stroke-width="3.5" stroke="rgba(77, 149, 234, 1)"></path><path d="M1540 262.5 a3.5 3.5 0 1 0 7 0 a3.5 3.5 0 1 0 -7 0zM1498 220.5 a3.5 3.5 0 1 0 7 0 a3.5 3.5 0 1 0 -7 0z" fill="rgba(77, 149, 234, 1)"></path><path d="M787.5 304.5L745.5 304.5" stroke-width="3.5" stroke="rgba(77, 149, 234, 1)"></path><path d="M784 304.5 a3.5 3.5 0 1 0 7 0 a3.5 3.5 0 1 0 -7 0zM742 304.5 a3.5 3.5 0 1 0 7 0 a3.5 3.5 0 1 0 -7 0z" fill="rgba(77, 149, 234, 1)"></path><path d="M745.5 325.5L787.5 325.5" stroke-width="3.5" stroke="rgba(77, 149, 234, 1)"></path><path d="M742 325.5 a3.5 3.5 0 1 0 7 0 a3.5 3.5 0 1 0 -7 0zM784 325.5 a3.5 3.5 0 1 0 7 0 a3.5 3.5 0 1 0 -7 0z" fill="rgba(77, 149, 234, 1)"></path></g></g><defs><mask id="SvgjsMask1038"><rect width="1700" height="350" fill="#ffffff"></rect></mask></defs></svg>