<svg xmlns="http://www.w3.org/2000/svg" version="1.1" xmlns:xlink="http://www.w3.org/1999/xlink" xmlns:svgjs="http://svgjs.dev/svgjs" width="400" height="300" preserveAspectRatio="none" viewBox="0 0 400 300"><g mask="url(&quot;#SvgjsMask1051&quot;)" fill="none"><g><path d="M262.5 136.5L136.5 136.5L115.5 157.5L115.5 304.5" stroke-width="3.5" stroke="rgba(77, 149, 234, 1)"></path><path d="M259 136.5 a3.5 3.5 0 1 0 7 0 a3.5 3.5 0 1 0 -7 0zM112 304.5 a3.5 3.5 0 1 0 7 0 a3.5 3.5 0 1 0 -7 0z" fill="rgba(77, 149, 234, 1)"></path><path d="M136.5 262.5L136.5 304.5" stroke-width="3.5" stroke="rgba(77, 149, 234, 1)"></path><path d="M133 262.5 a3.5 3.5 0 1 0 7 0 a3.5 3.5 0 1 0 -7 0zM133 304.5 a3.5 3.5 0 1 0 7 0 a3.5 3.5 0 1 0 -7 0z" fill="rgba(77, 149, 234, 1)"></path><path d="M304.5 304.5L409.5 304.5" stroke-width="3.5" stroke="rgba(77, 149, 234, 1)"></path><path d="M301 304.5 a3.5 3.5 0 1 0 7 0 a3.5 3.5 0 1 0 -7 0zM406 304.5 a3.5 3.5 0 1 0 7 0 a3.5 3.5 0 1 0 -7 0z" fill="rgba(77, 149, 234, 1)"></path><path d="M241.5 10.5L241.5 52.5L409.5 220.5L409.5 283.5" stroke-width="3.5" stroke="rgba(77, 149, 234, 1)"></path><path d="M238 10.5 a3.5 3.5 0 1 0 7 0 a3.5 3.5 0 1 0 -7 0zM406 283.5 a3.5 3.5 0 1 0 7 0 a3.5 3.5 0 1 0 -7 0z" fill="rgba(77, 149, 234, 1)"></path><path d="M409.5 73.5L346.5 10.5L262.5 10.5" stroke-width="3.5" stroke="rgba(77, 149, 234, 1)"></path><path d="M406 73.5 a3.5 3.5 0 1 0 7 0 a3.5 3.5 0 1 0 -7 0zM259 10.5 a3.5 3.5 0 1 0 7 0 a3.5 3.5 0 1 0 -7 0z" fill="rgba(77, 149, 234, 1)"></path><path d="M157.5 178.5L346.5 178.5L388.5 220.5L388.5 283.5" stroke-width="3.5" stroke="rgba(77, 149, 234, 1)"></path><path d="M154 178.5 a3.5 3.5 0 1 0 7 0 a3.5 3.5 0 1 0 -7 0zM385 283.5 a3.5 3.5 0 1 0 7 0 a3.5 3.5 0 1 0 -7 0z" fill="rgba(77, 149, 234, 1)"></path><path d="M241.5 115.5L241.5 73.5L178.5 10.5L10.5 10.5" stroke-width="3.5" stroke="rgba(77, 149, 234, 1)"></path><path d="M238 115.5 a3.5 3.5 0 1 0 7 0 a3.5 3.5 0 1 0 -7 0zM7 10.5 a3.5 3.5 0 1 0 7 0 a3.5 3.5 0 1 0 -7 0z" fill="rgba(77, 149, 234, 1)"></path><path d="M241.5 199.5L325.5 283.5L367.5 283.5" stroke-width="3.5" stroke="rgba(77, 149, 234, 1)"></path><path d="M238 199.5 a3.5 3.5 0 1 0 7 0 a3.5 3.5 0 1 0 -7 0zM364 283.5 a3.5 3.5 0 1 0 7 0 a3.5 3.5 0 1 0 -7 0z" fill="rgba(77, 149, 234, 1)"></path><path d="M31.5 178.5L31.5 241.5L94.5 304.5" stroke-width="3.5" stroke="rgba(77, 149, 234, 1)"></path><path d="M28 178.5 a3.5 3.5 0 1 0 7 0 a3.5 3.5 0 1 0 -7 0zM91 304.5 a3.5 3.5 0 1 0 7 0 a3.5 3.5 0 1 0 -7 0z" fill="rgba(77, 149, 234, 1)"></path><path d="M31.5 304.5L31.5 262.5L10.5 241.5L10.5 31.5" stroke-width="3.5" stroke="rgba(77, 149, 234, 1)"></path><path d="M28 304.5 a3.5 3.5 0 1 0 7 0 a3.5 3.5 0 1 0 -7 0zM7 31.5 a3.5 3.5 0 1 0 7 0 a3.5 3.5 0 1 0 -7 0z" fill="rgba(77, 149, 234, 1)"></path><path d="M178.5 220.5L241.5 220.5L304.5 283.5" stroke-width="3.5" stroke="rgba(77, 149, 234, 1)"></path><path d="M175 220.5 a3.5 3.5 0 1 0 7 0 a3.5 3.5 0 1 0 -7 0zM301 283.5 a3.5 3.5 0 1 0 7 0 a3.5 3.5 0 1 0 -7 0z" fill="rgba(77, 149, 234, 1)"></path><path d="M283.5 73.5L346.5 136.5L409.5 136.5" stroke-width="3.5" stroke="rgba(77, 149, 234, 1)"></path><path d="M280 73.5 a3.5 3.5 0 1 0 7 0 a3.5 3.5 0 1 0 -7 0zM406 136.5 a3.5 3.5 0 1 0 7 0 a3.5 3.5 0 1 0 -7 0z" fill="rgba(77, 149, 234, 1)"></path><path d="M94.5 220.5L52.5 220.5" stroke-width="3.5" stroke="rgba(77, 149, 234, 1)"></path><path d="M91 220.5 a3.5 3.5 0 1 0 7 0 a3.5 3.5 0 1 0 -7 0zM49 220.5 a3.5 3.5 0 1 0 7 0 a3.5 3.5 0 1 0 -7 0z" fill="rgba(77, 149, 234, 1)"></path><path d="M199.5 283.5L199.5 262.5L136.5 199.5L136.5 157.5" stroke-width="3.5" stroke="rgba(77, 149, 234, 1)"></path><path d="M196 283.5 a3.5 3.5 0 1 0 7 0 a3.5 3.5 0 1 0 -7 0zM133 157.5 a3.5 3.5 0 1 0 7 0 a3.5 3.5 0 1 0 -7 0z" fill="rgba(77, 149, 234, 1)"></path><path d="M31.5 136.5L31.5 73.5L73.5 31.5L178.5 31.5L220.5 73.5L220.5 115.5" stroke-width="3.5" stroke="rgba(77, 149, 234, 1)"></path><path d="M28 136.5 a3.5 3.5 0 1 0 7 0 a3.5 3.5 0 1 0 -7 0zM217 115.5 a3.5 3.5 0 1 0 7 0 a3.5 3.5 0 1 0 -7 0z" fill="rgba(77, 149, 234, 1)"></path><path d="M346.5 262.5L346.5 199.5" stroke-width="3.5" stroke="rgba(77, 149, 234, 1)"></path><path d="M343 262.5 a3.5 3.5 0 1 0 7 0 a3.5 3.5 0 1 0 -7 0zM343 199.5 a3.5 3.5 0 1 0 7 0 a3.5 3.5 0 1 0 -7 0z" fill="rgba(77, 149, 234, 1)"></path><path d="M115.5 94.5L115.5 52.5" stroke-width="3.5" stroke="rgba(77, 149, 234, 1)"></path><path d="M112 94.5 a3.5 3.5 0 1 0 7 0 a3.5 3.5 0 1 0 -7 0zM112 52.5 a3.5 3.5 0 1 0 7 0 a3.5 3.5 0 1 0 -7 0z" fill="rgba(77, 149, 234, 1)"></path><path d="M178.5 262.5L157.5 283.5L157.5 304.5" stroke-width="3.5" stroke="rgba(77, 149, 234, 1)"></path><path d="M175 262.5 a3.5 3.5 0 1 0 7 0 a3.5 3.5 0 1 0 -7 0zM154 304.5 a3.5 3.5 0 1 0 7 0 a3.5 3.5 0 1 0 -7 0z" fill="rgba(77, 149, 234, 1)"></path><path d="M367.5 10.5L409.5 10.5" stroke-width="3.5" stroke="rgba(77, 149, 234, 1)"></path><path d="M364 10.5 a3.5 3.5 0 1 0 7 0 a3.5 3.5 0 1 0 -7 0zM406 10.5 a3.5 3.5 0 1 0 7 0 a3.5 3.5 0 1 0 -7 0z" fill="rgba(77, 149, 234, 1)"></path><path d="M73.5 136.5L94.5 115.5L94.5 94.5L73.5 73.5L73.5 52.5" stroke-width="3.5" stroke="rgba(77, 149, 234, 1)"></path><path d="M70 136.5 a3.5 3.5 0 1 0 7 0 a3.5 3.5 0 1 0 -7 0zM70 52.5 a3.5 3.5 0 1 0 7 0 a3.5 3.5 0 1 0 -7 0z" fill="rgba(77, 149, 234, 1)"></path><path d="M136.5 115.5L115.5 115.5L52.5 178.5L52.5 199.5" stroke-width="3.5" stroke="rgba(77, 149, 234, 1)"></path><path d="M133 115.5 a3.5 3.5 0 1 0 7 0 a3.5 3.5 0 1 0 -7 0zM49 199.5 a3.5 3.5 0 1 0 7 0 a3.5 3.5 0 1 0 -7 0z" fill="rgba(77, 149, 234, 1)"></path><path d="M52.5 73.5L73.5 94.5L73.5 115.5L31.5 157.5" stroke-width="3.5" stroke="rgba(77, 149, 234, 1)"></path><path d="M49 73.5 a3.5 3.5 0 1 0 7 0 a3.5 3.5 0 1 0 -7 0zM28 157.5 a3.5 3.5 0 1 0 7 0 a3.5 3.5 0 1 0 -7 0z" fill="rgba(77, 149, 234, 1)"></path><path d="M304.5 73.5L388.5 73.5" stroke-width="3.5" stroke="rgba(77, 149, 234, 1)"></path><path d="M301 73.5 a3.5 3.5 0 1 0 7 0 a3.5 3.5 0 1 0 -7 0zM385 73.5 a3.5 3.5 0 1 0 7 0 a3.5 3.5 0 1 0 -7 0z" fill="rgba(77, 149, 234, 1)"></path><path d="M262.5 157.5L157.5 157.5" stroke-width="3.5" stroke="rgba(77, 149, 234, 1)"></path><path d="M259 157.5 a3.5 3.5 0 1 0 7 0 a3.5 3.5 0 1 0 -7 0zM154 157.5 a3.5 3.5 0 1 0 7 0 a3.5 3.5 0 1 0 -7 0z" fill="rgba(77, 149, 234, 1)"></path><path d="M262.5 115.5L283.5 115.5L325.5 157.5" stroke-width="3.5" stroke="rgba(77, 149, 234, 1)"></path><path d="M259 115.5 a3.5 3.5 0 1 0 7 0 a3.5 3.5 0 1 0 -7 0zM322 157.5 a3.5 3.5 0 1 0 7 0 a3.5 3.5 0 1 0 -7 0z" fill="rgba(77, 149, 234, 1)"></path><path d="M241.5 241.5L241.5 304.5" stroke-width="3.5" stroke="rgba(77, 149, 234, 1)"></path><path d="M238 241.5 a3.5 3.5 0 1 0 7 0 a3.5 3.5 0 1 0 -7 0zM238 304.5 a3.5 3.5 0 1 0 7 0 a3.5 3.5 0 1 0 -7 0z" fill="rgba(77, 149, 234, 1)"></path><path d="M325.5 220.5L325.5 262.5" stroke-width="3.5" stroke="rgba(77, 149, 234, 1)"></path><path d="M322 220.5 a3.5 3.5 0 1 0 7 0 a3.5 3.5 0 1 0 -7 0zM322 262.5 a3.5 3.5 0 1 0 7 0 a3.5 3.5 0 1 0 -7 0z" fill="rgba(77, 149, 234, 1)"></path><path d="M220.5 304.5L220.5 241.5" stroke-width="3.5" stroke="rgba(77, 149, 234, 1)"></path><path d="M217 304.5 a3.5 3.5 0 1 0 7 0 a3.5 3.5 0 1 0 -7 0zM217 241.5 a3.5 3.5 0 1 0 7 0 a3.5 3.5 0 1 0 -7 0z" fill="rgba(77, 149, 234, 1)"></path><path d="M157.5 73.5L157.5 115.5" stroke-width="3.5" stroke="rgba(77, 149, 234, 1)"></path><path d="M154 73.5 a3.5 3.5 0 1 0 7 0 a3.5 3.5 0 1 0 -7 0zM154 115.5 a3.5 3.5 0 1 0 7 0 a3.5 3.5 0 1 0 -7 0z" fill="rgba(77, 149, 234, 1)"></path><path d="M262.5 52.5L283.5 31.5L304.5 31.5" stroke-width="3.5" stroke="rgba(77, 149, 234, 1)"></path><path d="M259 52.5 a3.5 3.5 0 1 0 7 0 a3.5 3.5 0 1 0 -7 0zM301 31.5 a3.5 3.5 0 1 0 7 0 a3.5 3.5 0 1 0 -7 0z" fill="rgba(77, 149, 234, 1)"></path><path d="M136.5 220.5L157.5 241.5L157.5 262.5" stroke-width="3.5" stroke="rgba(77, 149, 234, 1)"></path><path d="M133 220.5 a3.5 3.5 0 1 0 7 0 a3.5 3.5 0 1 0 -7 0zM154 262.5 a3.5 3.5 0 1 0 7 0 a3.5 3.5 0 1 0 -7 0z" fill="rgba(77, 149, 234, 1)"></path></g></g><defs><mask id="SvgjsMask1051"><rect width="400" height="300" fill="#ffffff"></rect></mask></defs></svg>