<svg xmlns="http://www.w3.org/2000/svg" version="1.1" xmlns:xlink="http://www.w3.org/1999/xlink" xmlns:svgjs="http://svgjs.dev/svgjs" width="700" height="300" preserveAspectRatio="none" viewBox="0 0 700 300"><g mask="url(&quot;#SvgjsMask1053&quot;)" fill="none"><g><path d="M682.5 52.5L325.5 52.5L283.5 10.5" stroke-width="3.5" stroke="rgba(77, 149, 234, 1)"></path><path d="M679 52.5 a3.5 3.5 0 1 0 7 0 a3.5 3.5 0 1 0 -7 0zM280 10.5 a3.5 3.5 0 1 0 7 0 a3.5 3.5 0 1 0 -7 0z" fill="rgba(77, 149, 234, 1)"></path><path d="M304.5 220.5L136.5 52.5L10.5 52.5" stroke-width="3.5" stroke="rgba(77, 149, 234, 1)"></path><path d="M301 220.5 a3.5 3.5 0 1 0 7 0 a3.5 3.5 0 1 0 -7 0zM7 52.5 a3.5 3.5 0 1 0 7 0 a3.5 3.5 0 1 0 -7 0z" fill="rgba(77, 149, 234, 1)"></path><path d="M388.5 262.5L556.5 262.5L619.5 199.5L619.5 73.5" stroke-width="3.5" stroke="rgba(77, 149, 234, 1)"></path><path d="M385 262.5 a3.5 3.5 0 1 0 7 0 a3.5 3.5 0 1 0 -7 0zM616 73.5 a3.5 3.5 0 1 0 7 0 a3.5 3.5 0 1 0 -7 0z" fill="rgba(77, 149, 234, 1)"></path><path d="M262.5 241.5L325.5 304.5L661.5 304.5" stroke-width="3.5" stroke="rgba(77, 149, 234, 1)"></path><path d="M259 241.5 a3.5 3.5 0 1 0 7 0 a3.5 3.5 0 1 0 -7 0zM658 304.5 a3.5 3.5 0 1 0 7 0 a3.5 3.5 0 1 0 -7 0z" fill="rgba(77, 149, 234, 1)"></path><path d="M598.5 136.5L472.5 136.5L451.5 157.5L451.5 241.5" stroke-width="3.5" stroke="rgba(77, 149, 234, 1)"></path><path d="M595 136.5 a3.5 3.5 0 1 0 7 0 a3.5 3.5 0 1 0 -7 0zM448 241.5 a3.5 3.5 0 1 0 7 0 a3.5 3.5 0 1 0 -7 0z" fill="rgba(77, 149, 234, 1)"></path><path d="M556.5 283.5L703.5 283.5" stroke-width="3.5" stroke="rgba(77, 149, 234, 1)"></path><path d="M553 283.5 a3.5 3.5 0 1 0 7 0 a3.5 3.5 0 1 0 -7 0zM700 283.5 a3.5 3.5 0 1 0 7 0 a3.5 3.5 0 1 0 -7 0z" fill="rgba(77, 149, 234, 1)"></path><path d="M388.5 241.5L346.5 283.5L325.5 283.5L220.5 178.5L220.5 157.5L199.5 136.5L10.5 136.5" stroke-width="3.5" stroke="rgba(77, 149, 234, 1)"></path><path d="M385 241.5 a3.5 3.5 0 1 0 7 0 a3.5 3.5 0 1 0 -7 0zM7 136.5 a3.5 3.5 0 1 0 7 0 a3.5 3.5 0 1 0 -7 0z" fill="rgba(77, 149, 234, 1)"></path><path d="M619.5 10.5L640.5 31.5L703.5 31.5" stroke-width="3.5" stroke="rgba(77, 149, 234, 1)"></path><path d="M616 10.5 a3.5 3.5 0 1 0 7 0 a3.5 3.5 0 1 0 -7 0zM700 31.5 a3.5 3.5 0 1 0 7 0 a3.5 3.5 0 1 0 -7 0z" fill="rgba(77, 149, 234, 1)"></path><path d="M262.5 136.5L241.5 136.5L115.5 10.5L52.5 10.5L31.5 31.5L10.5 31.5" stroke-width="3.5" stroke="rgba(77, 149, 234, 1)"></path><path d="M259 136.5 a3.5 3.5 0 1 0 7 0 a3.5 3.5 0 1 0 -7 0zM7 31.5 a3.5 3.5 0 1 0 7 0 a3.5 3.5 0 1 0 -7 0z" fill="rgba(77, 149, 234, 1)"></path><path d="M94.5 283.5L94.5 157.5" stroke-width="3.5" stroke="rgba(77, 149, 234, 1)"></path><path d="M91 283.5 a3.5 3.5 0 1 0 7 0 a3.5 3.5 0 1 0 -7 0zM91 157.5 a3.5 3.5 0 1 0 7 0 a3.5 3.5 0 1 0 -7 0z" fill="rgba(77, 149, 234, 1)"></path><path d="M325.5 136.5L199.5 10.5L136.5 10.5" stroke-width="3.5" stroke="rgba(77, 149, 234, 1)"></path><path d="M322 136.5 a3.5 3.5 0 1 0 7 0 a3.5 3.5 0 1 0 -7 0zM133 10.5 a3.5 3.5 0 1 0 7 0 a3.5 3.5 0 1 0 -7 0z" fill="rgba(77, 149, 234, 1)"></path><path d="M136.5 283.5L157.5 304.5L304.5 304.5" stroke-width="3.5" stroke="rgba(77, 149, 234, 1)"></path><path d="M133 283.5 a3.5 3.5 0 1 0 7 0 a3.5 3.5 0 1 0 -7 0zM301 304.5 a3.5 3.5 0 1 0 7 0 a3.5 3.5 0 1 0 -7 0z" fill="rgba(77, 149, 234, 1)"></path><path d="M220.5 220.5L157.5 283.5" stroke-width="3.5" stroke="rgba(77, 149, 234, 1)"></path><path d="M217 220.5 a3.5 3.5 0 1 0 7 0 a3.5 3.5 0 1 0 -7 0zM154 283.5 a3.5 3.5 0 1 0 7 0 a3.5 3.5 0 1 0 -7 0z" fill="rgba(77, 149, 234, 1)"></path><path d="M304.5 178.5L367.5 241.5" stroke-width="3.5" stroke="rgba(77, 149, 234, 1)"></path><path d="M301 178.5 a3.5 3.5 0 1 0 7 0 a3.5 3.5 0 1 0 -7 0zM364 241.5 a3.5 3.5 0 1 0 7 0 a3.5 3.5 0 1 0 -7 0z" fill="rgba(77, 149, 234, 1)"></path><path d="M514.5 178.5L556.5 220.5L556.5 241.5" stroke-width="3.5" stroke="rgba(77, 149, 234, 1)"></path><path d="M511 178.5 a3.5 3.5 0 1 0 7 0 a3.5 3.5 0 1 0 -7 0zM553 241.5 a3.5 3.5 0 1 0 7 0 a3.5 3.5 0 1 0 -7 0z" fill="rgba(77, 149, 234, 1)"></path><path d="M115.5 220.5L115.5 157.5" stroke-width="3.5" stroke="rgba(77, 149, 234, 1)"></path><path d="M112 220.5 a3.5 3.5 0 1 0 7 0 a3.5 3.5 0 1 0 -7 0zM112 157.5 a3.5 3.5 0 1 0 7 0 a3.5 3.5 0 1 0 -7 0z" fill="rgba(77, 149, 234, 1)"></path><path d="M535.5 283.5L367.5 283.5" stroke-width="3.5" stroke="rgba(77, 149, 234, 1)"></path><path d="M532 283.5 a3.5 3.5 0 1 0 7 0 a3.5 3.5 0 1 0 -7 0zM364 283.5 a3.5 3.5 0 1 0 7 0 a3.5 3.5 0 1 0 -7 0z" fill="rgba(77, 149, 234, 1)"></path><path d="M367.5 115.5L346.5 94.5L346.5 73.5" stroke-width="3.5" stroke="rgba(77, 149, 234, 1)"></path><path d="M364 115.5 a3.5 3.5 0 1 0 7 0 a3.5 3.5 0 1 0 -7 0zM343 73.5 a3.5 3.5 0 1 0 7 0 a3.5 3.5 0 1 0 -7 0z" fill="rgba(77, 149, 234, 1)"></path><path d="M241.5 241.5L241.5 283.5" stroke-width="3.5" stroke="rgba(77, 149, 234, 1)"></path><path d="M238 241.5 a3.5 3.5 0 1 0 7 0 a3.5 3.5 0 1 0 -7 0zM238 283.5 a3.5 3.5 0 1 0 7 0 a3.5 3.5 0 1 0 -7 0z" fill="rgba(77, 149, 234, 1)"></path><path d="M682.5 241.5L703.5 220.5L703.5 52.5" stroke-width="3.5" stroke="rgba(77, 149, 234, 1)"></path><path d="M679 241.5 a3.5 3.5 0 1 0 7 0 a3.5 3.5 0 1 0 -7 0zM700 52.5 a3.5 3.5 0 1 0 7 0 a3.5 3.5 0 1 0 -7 0z" fill="rgba(77, 149, 234, 1)"></path><path d="M367.5 136.5L430.5 73.5L598.5 73.5" stroke-width="3.5" stroke="rgba(77, 149, 234, 1)"></path><path d="M364 136.5 a3.5 3.5 0 1 0 7 0 a3.5 3.5 0 1 0 -7 0zM595 73.5 a3.5 3.5 0 1 0 7 0 a3.5 3.5 0 1 0 -7 0z" fill="rgba(77, 149, 234, 1)"></path><path d="M451.5 94.5L346.5 199.5" stroke-width="3.5" stroke="rgba(77, 149, 234, 1)"></path><path d="M448 94.5 a3.5 3.5 0 1 0 7 0 a3.5 3.5 0 1 0 -7 0zM343 199.5 a3.5 3.5 0 1 0 7 0 a3.5 3.5 0 1 0 -7 0z" fill="rgba(77, 149, 234, 1)"></path><path d="M178.5 115.5L136.5 73.5L10.5 73.5" stroke-width="3.5" stroke="rgba(77, 149, 234, 1)"></path><path d="M175 115.5 a3.5 3.5 0 1 0 7 0 a3.5 3.5 0 1 0 -7 0zM7 73.5 a3.5 3.5 0 1 0 7 0 a3.5 3.5 0 1 0 -7 0z" fill="rgba(77, 149, 234, 1)"></path><path d="M514.5 199.5L514.5 241.5" stroke-width="3.5" stroke="rgba(77, 149, 234, 1)"></path><path d="M511 199.5 a3.5 3.5 0 1 0 7 0 a3.5 3.5 0 1 0 -7 0zM511 241.5 a3.5 3.5 0 1 0 7 0 a3.5 3.5 0 1 0 -7 0z" fill="rgba(77, 149, 234, 1)"></path><path d="M94.5 304.5L157.5 241.5L178.5 241.5L220.5 199.5" stroke-width="3.5" stroke="rgba(77, 149, 234, 1)"></path><path d="M91 304.5 a3.5 3.5 0 1 0 7 0 a3.5 3.5 0 1 0 -7 0zM217 199.5 a3.5 3.5 0 1 0 7 0 a3.5 3.5 0 1 0 -7 0z" fill="rgba(77, 149, 234, 1)"></path><path d="M73.5 178.5L10.5 178.5" stroke-width="3.5" stroke="rgba(77, 149, 234, 1)"></path><path d="M70 178.5 a3.5 3.5 0 1 0 7 0 a3.5 3.5 0 1 0 -7 0zM7 178.5 a3.5 3.5 0 1 0 7 0 a3.5 3.5 0 1 0 -7 0z" fill="rgba(77, 149, 234, 1)"></path><path d="M703.5 262.5L661.5 262.5L619.5 220.5" stroke-width="3.5" stroke="rgba(77, 149, 234, 1)"></path><path d="M700 262.5 a3.5 3.5 0 1 0 7 0 a3.5 3.5 0 1 0 -7 0zM616 220.5 a3.5 3.5 0 1 0 7 0 a3.5 3.5 0 1 0 -7 0z" fill="rgba(77, 149, 234, 1)"></path><path d="M409.5 157.5L430.5 157.5L493.5 94.5L535.5 94.5L556.5 115.5L577.5 115.5" stroke-width="3.5" stroke="rgba(77, 149, 234, 1)"></path><path d="M406 157.5 a3.5 3.5 0 1 0 7 0 a3.5 3.5 0 1 0 -7 0zM574 115.5 a3.5 3.5 0 1 0 7 0 a3.5 3.5 0 1 0 -7 0z" fill="rgba(77, 149, 234, 1)"></path><path d="M598.5 241.5L619.5 241.5L640.5 262.5" stroke-width="3.5" stroke="rgba(77, 149, 234, 1)"></path><path d="M595 241.5 a3.5 3.5 0 1 0 7 0 a3.5 3.5 0 1 0 -7 0zM637 262.5 a3.5 3.5 0 1 0 7 0 a3.5 3.5 0 1 0 -7 0z" fill="rgba(77, 149, 234, 1)"></path><path d="M10.5 220.5L10.5 304.5" stroke-width="3.5" stroke="rgba(77, 149, 234, 1)"></path><path d="M7 220.5 a3.5 3.5 0 1 0 7 0 a3.5 3.5 0 1 0 -7 0zM7 304.5 a3.5 3.5 0 1 0 7 0 a3.5 3.5 0 1 0 -7 0z" fill="rgba(77, 149, 234, 1)"></path><path d="M73.5 199.5L52.5 199.5L31.5 220.5L31.5 304.5" stroke-width="3.5" stroke="rgba(77, 149, 234, 1)"></path><path d="M70 199.5 a3.5 3.5 0 1 0 7 0 a3.5 3.5 0 1 0 -7 0zM28 304.5 a3.5 3.5 0 1 0 7 0 a3.5 3.5 0 1 0 -7 0z" fill="rgba(77, 149, 234, 1)"></path><path d="M325.5 262.5L325.5 220.5" stroke-width="3.5" stroke="rgba(77, 149, 234, 1)"></path><path d="M322 262.5 a3.5 3.5 0 1 0 7 0 a3.5 3.5 0 1 0 -7 0zM322 220.5 a3.5 3.5 0 1 0 7 0 a3.5 3.5 0 1 0 -7 0z" fill="rgba(77, 149, 234, 1)"></path><path d="M157.5 220.5L115.5 262.5" stroke-width="3.5" stroke="rgba(77, 149, 234, 1)"></path><path d="M154 220.5 a3.5 3.5 0 1 0 7 0 a3.5 3.5 0 1 0 -7 0zM112 262.5 a3.5 3.5 0 1 0 7 0 a3.5 3.5 0 1 0 -7 0z" fill="rgba(77, 149, 234, 1)"></path><path d="M304.5 52.5L304.5 94.5L325.5 115.5L346.5 115.5" stroke-width="3.5" stroke="rgba(77, 149, 234, 1)"></path><path d="M301 52.5 a3.5 3.5 0 1 0 7 0 a3.5 3.5 0 1 0 -7 0zM343 115.5 a3.5 3.5 0 1 0 7 0 a3.5 3.5 0 1 0 -7 0z" fill="rgba(77, 149, 234, 1)"></path><path d="M661.5 136.5L640.5 115.5L640.5 73.5" stroke-width="3.5" stroke="rgba(77, 149, 234, 1)"></path><path d="M658 136.5 a3.5 3.5 0 1 0 7 0 a3.5 3.5 0 1 0 -7 0zM637 73.5 a3.5 3.5 0 1 0 7 0 a3.5 3.5 0 1 0 -7 0z" fill="rgba(77, 149, 234, 1)"></path><path d="M283.5 31.5L241.5 31.5" stroke-width="3.5" stroke="rgba(77, 149, 234, 1)"></path><path d="M280 31.5 a3.5 3.5 0 1 0 7 0 a3.5 3.5 0 1 0 -7 0zM238 31.5 a3.5 3.5 0 1 0 7 0 a3.5 3.5 0 1 0 -7 0z" fill="rgba(77, 149, 234, 1)"></path><path d="M178.5 199.5L199.5 178.5L199.5 157.5" stroke-width="3.5" stroke="rgba(77, 149, 234, 1)"></path><path d="M175 199.5 a3.5 3.5 0 1 0 7 0 a3.5 3.5 0 1 0 -7 0zM196 157.5 a3.5 3.5 0 1 0 7 0 a3.5 3.5 0 1 0 -7 0z" fill="rgba(77, 149, 234, 1)"></path><path d="M661.5 157.5L640.5 178.5L640.5 220.5L661.5 241.5" stroke-width="3.5" stroke="rgba(77, 149, 234, 1)"></path><path d="M658 157.5 a3.5 3.5 0 1 0 7 0 a3.5 3.5 0 1 0 -7 0zM658 241.5 a3.5 3.5 0 1 0 7 0 a3.5 3.5 0 1 0 -7 0z" fill="rgba(77, 149, 234, 1)"></path><path d="M52.5 115.5L31.5 94.5L10.5 94.5" stroke-width="3.5" stroke="rgba(77, 149, 234, 1)"></path><path d="M49 115.5 a3.5 3.5 0 1 0 7 0 a3.5 3.5 0 1 0 -7 0zM7 94.5 a3.5 3.5 0 1 0 7 0 a3.5 3.5 0 1 0 -7 0z" fill="rgba(77, 149, 234, 1)"></path><path d="M367.5 157.5L283.5 157.5" stroke-width="3.5" stroke="rgba(77, 149, 234, 1)"></path><path d="M364 157.5 a3.5 3.5 0 1 0 7 0 a3.5 3.5 0 1 0 -7 0zM280 157.5 a3.5 3.5 0 1 0 7 0 a3.5 3.5 0 1 0 -7 0z" fill="rgba(77, 149, 234, 1)"></path><path d="M367.5 31.5L346.5 10.5L304.5 10.5" stroke-width="3.5" stroke="rgba(77, 149, 234, 1)"></path><path d="M364 31.5 a3.5 3.5 0 1 0 7 0 a3.5 3.5 0 1 0 -7 0zM301 10.5 a3.5 3.5 0 1 0 7 0 a3.5 3.5 0 1 0 -7 0z" fill="rgba(77, 149, 234, 1)"></path><path d="M241.5 115.5L241.5 73.5L220.5 52.5L199.5 52.5" stroke-width="3.5" stroke="rgba(77, 149, 234, 1)"></path><path d="M238 115.5 a3.5 3.5 0 1 0 7 0 a3.5 3.5 0 1 0 -7 0zM196 52.5 a3.5 3.5 0 1 0 7 0 a3.5 3.5 0 1 0 -7 0z" fill="rgba(77, 149, 234, 1)"></path><path d="M73.5 262.5L73.5 304.5" stroke-width="3.5" stroke="rgba(77, 149, 234, 1)"></path><path d="M70 262.5 a3.5 3.5 0 1 0 7 0 a3.5 3.5 0 1 0 -7 0zM70 304.5 a3.5 3.5 0 1 0 7 0 a3.5 3.5 0 1 0 -7 0z" fill="rgba(77, 149, 234, 1)"></path><path d="M52.5 262.5L52.5 304.5" stroke-width="3.5" stroke="rgba(77, 149, 234, 1)"></path><path d="M49 262.5 a3.5 3.5 0 1 0 7 0 a3.5 3.5 0 1 0 -7 0zM49 304.5 a3.5 3.5 0 1 0 7 0 a3.5 3.5 0 1 0 -7 0z" fill="rgba(77, 149, 234, 1)"></path><path d="M409.5 199.5L409.5 220.5L430.5 241.5" stroke-width="3.5" stroke="rgba(77, 149, 234, 1)"></path><path d="M406 199.5 a3.5 3.5 0 1 0 7 0 a3.5 3.5 0 1 0 -7 0zM427 241.5 a3.5 3.5 0 1 0 7 0 a3.5 3.5 0 1 0 -7 0z" fill="rgba(77, 149, 234, 1)"></path><path d="M430.5 178.5L430.5 220.5" stroke-width="3.5" stroke="rgba(77, 149, 234, 1)"></path><path d="M427 178.5 a3.5 3.5 0 1 0 7 0 a3.5 3.5 0 1 0 -7 0zM427 220.5 a3.5 3.5 0 1 0 7 0 a3.5 3.5 0 1 0 -7 0z" fill="rgba(77, 149, 234, 1)"></path><path d="M661.5 115.5L682.5 136.5L682.5 157.5" stroke-width="3.5" stroke="rgba(77, 149, 234, 1)"></path><path d="M658 115.5 a3.5 3.5 0 1 0 7 0 a3.5 3.5 0 1 0 -7 0zM679 157.5 a3.5 3.5 0 1 0 7 0 a3.5 3.5 0 1 0 -7 0z" fill="rgba(77, 149, 234, 1)"></path></g></g><defs><mask id="SvgjsMask1053"><rect width="700" height="300" fill="#ffffff"></rect></mask></defs></svg>