<svg xmlns="http://www.w3.org/2000/svg" version="1.1" xmlns:xlink="http://www.w3.org/1999/xlink" xmlns:svgjs="http://svgjs.dev/svgjs" width="700" height="500" preserveAspectRatio="none" viewBox="0 0 700 500"><g mask="url(&quot;#SvgjsMask1057&quot;)" fill="none"><g><path d="M577.5 472.5L472.5 472.5L430.5 430.5L409.5 430.5L178.5 199.5" stroke-width="3.5" stroke="rgba(77, 149, 234, 1)"></path><path d="M574 472.5 a3.5 3.5 0 1 0 7 0 a3.5 3.5 0 1 0 -7 0zM175 199.5 a3.5 3.5 0 1 0 7 0 a3.5 3.5 0 1 0 -7 0z" fill="rgba(77, 149, 234, 1)"></path><path d="M661.5 367.5L661.5 283.5L703.5 241.5L703.5 220.5L619.5 136.5L451.5 136.5" stroke-width="3.5" stroke="rgba(77, 149, 234, 1)"></path><path d="M658 367.5 a3.5 3.5 0 1 0 7 0 a3.5 3.5 0 1 0 -7 0zM448 136.5 a3.5 3.5 0 1 0 7 0 a3.5 3.5 0 1 0 -7 0z" fill="rgba(77, 149, 234, 1)"></path><path d="M346.5 10.5L451.5 115.5L619.5 115.5L703.5 199.5" stroke-width="3.5" stroke="rgba(77, 149, 234, 1)"></path><path d="M343 10.5 a3.5 3.5 0 1 0 7 0 a3.5 3.5 0 1 0 -7 0zM700 199.5 a3.5 3.5 0 1 0 7 0 a3.5 3.5 0 1 0 -7 0z" fill="rgba(77, 149, 234, 1)"></path><path d="M325.5 157.5L409.5 241.5L451.5 241.5L535.5 157.5L619.5 157.5L682.5 220.5L682.5 241.5L661.5 262.5" stroke-width="3.5" stroke="rgba(77, 149, 234, 1)"></path><path d="M322 157.5 a3.5 3.5 0 1 0 7 0 a3.5 3.5 0 1 0 -7 0zM658 262.5 a3.5 3.5 0 1 0 7 0 a3.5 3.5 0 1 0 -7 0z" fill="rgba(77, 149, 234, 1)"></path><path d="M94.5 136.5L199.5 31.5L199.5 10.5" stroke-width="3.5" stroke="rgba(77, 149, 234, 1)"></path><path d="M91 136.5 a3.5 3.5 0 1 0 7 0 a3.5 3.5 0 1 0 -7 0zM196 10.5 a3.5 3.5 0 1 0 7 0 a3.5 3.5 0 1 0 -7 0z" fill="rgba(77, 149, 234, 1)"></path><path d="M220.5 346.5L136.5 430.5L52.5 430.5L10.5 388.5L10.5 346.5L157.5 199.5" stroke-width="3.5" stroke="rgba(77, 149, 234, 1)"></path><path d="M217 346.5 a3.5 3.5 0 1 0 7 0 a3.5 3.5 0 1 0 -7 0zM154 199.5 a3.5 3.5 0 1 0 7 0 a3.5 3.5 0 1 0 -7 0z" fill="rgba(77, 149, 234, 1)"></path><path d="M388.5 94.5L220.5 94.5L157.5 157.5L73.5 157.5L31.5 115.5L10.5 115.5" stroke-width="3.5" stroke="rgba(77, 149, 234, 1)"></path><path d="M385 94.5 a3.5 3.5 0 1 0 7 0 a3.5 3.5 0 1 0 -7 0zM7 115.5 a3.5 3.5 0 1 0 7 0 a3.5 3.5 0 1 0 -7 0z" fill="rgba(77, 149, 234, 1)"></path><path d="M367.5 346.5L346.5 346.5L178.5 178.5L10.5 178.5" stroke-width="3.5" stroke="rgba(77, 149, 234, 1)"></path><path d="M364 346.5 a3.5 3.5 0 1 0 7 0 a3.5 3.5 0 1 0 -7 0zM7 178.5 a3.5 3.5 0 1 0 7 0 a3.5 3.5 0 1 0 -7 0z" fill="rgba(77, 149, 234, 1)"></path><path d="M241.5 136.5L199.5 136.5L178.5 157.5" stroke-width="3.5" stroke="rgba(77, 149, 234, 1)"></path><path d="M238 136.5 a3.5 3.5 0 1 0 7 0 a3.5 3.5 0 1 0 -7 0zM175 157.5 a3.5 3.5 0 1 0 7 0 a3.5 3.5 0 1 0 -7 0z" fill="rgba(77, 149, 234, 1)"></path><path d="M598.5 241.5L640.5 199.5" stroke-width="3.5" stroke="rgba(77, 149, 234, 1)"></path><path d="M595 241.5 a3.5 3.5 0 1 0 7 0 a3.5 3.5 0 1 0 -7 0zM637 199.5 a3.5 3.5 0 1 0 7 0 a3.5 3.5 0 1 0 -7 0z" fill="rgba(77, 149, 234, 1)"></path><path d="M136.5 115.5L178.5 115.5L283.5 10.5L325.5 10.5L388.5 73.5" stroke-width="3.5" stroke="rgba(77, 149, 234, 1)"></path><path d="M133 115.5 a3.5 3.5 0 1 0 7 0 a3.5 3.5 0 1 0 -7 0zM385 73.5 a3.5 3.5 0 1 0 7 0 a3.5 3.5 0 1 0 -7 0z" fill="rgba(77, 149, 234, 1)"></path><path d="M451.5 367.5L472.5 388.5L472.5 451.5" stroke-width="3.5" stroke="rgba(77, 149, 234, 1)"></path><path d="M448 367.5 a3.5 3.5 0 1 0 7 0 a3.5 3.5 0 1 0 -7 0zM469 451.5 a3.5 3.5 0 1 0 7 0 a3.5 3.5 0 1 0 -7 0z" fill="rgba(77, 149, 234, 1)"></path><path d="M115.5 493.5L31.5 493.5L10.5 472.5L10.5 409.5" stroke-width="3.5" stroke="rgba(77, 149, 234, 1)"></path><path d="M112 493.5 a3.5 3.5 0 1 0 7 0 a3.5 3.5 0 1 0 -7 0zM7 409.5 a3.5 3.5 0 1 0 7 0 a3.5 3.5 0 1 0 -7 0z" fill="rgba(77, 149, 234, 1)"></path><path d="M703.5 493.5L640.5 493.5L472.5 325.5L451.5 325.5L325.5 199.5L325.5 178.5" stroke-width="3.5" stroke="rgba(77, 149, 234, 1)"></path><path d="M700 493.5 a3.5 3.5 0 1 0 7 0 a3.5 3.5 0 1 0 -7 0zM322 178.5 a3.5 3.5 0 1 0 7 0 a3.5 3.5 0 1 0 -7 0z" fill="rgba(77, 149, 234, 1)"></path><path d="M619.5 451.5L640.5 430.5L640.5 304.5L535.5 199.5L514.5 199.5L451.5 262.5L451.5 304.5" stroke-width="3.5" stroke="rgba(77, 149, 234, 1)"></path><path d="M616 451.5 a3.5 3.5 0 1 0 7 0 a3.5 3.5 0 1 0 -7 0zM448 304.5 a3.5 3.5 0 1 0 7 0 a3.5 3.5 0 1 0 -7 0z" fill="rgba(77, 149, 234, 1)"></path><path d="M598.5 283.5L472.5 283.5" stroke-width="3.5" stroke="rgba(77, 149, 234, 1)"></path><path d="M595 283.5 a3.5 3.5 0 1 0 7 0 a3.5 3.5 0 1 0 -7 0zM469 283.5 a3.5 3.5 0 1 0 7 0 a3.5 3.5 0 1 0 -7 0z" fill="rgba(77, 149, 234, 1)"></path><path d="M430.5 367.5L367.5 367.5" stroke-width="3.5" stroke="rgba(77, 149, 234, 1)"></path><path d="M427 367.5 a3.5 3.5 0 1 0 7 0 a3.5 3.5 0 1 0 -7 0zM364 367.5 a3.5 3.5 0 1 0 7 0 a3.5 3.5 0 1 0 -7 0z" fill="rgba(77, 149, 234, 1)"></path><path d="M220.5 199.5L220.5 157.5" stroke-width="3.5" stroke="rgba(77, 149, 234, 1)"></path><path d="M217 199.5 a3.5 3.5 0 1 0 7 0 a3.5 3.5 0 1 0 -7 0zM217 157.5 a3.5 3.5 0 1 0 7 0 a3.5 3.5 0 1 0 -7 0z" fill="rgba(77, 149, 234, 1)"></path><path d="M430.5 220.5L451.5 220.5L514.5 157.5" stroke-width="3.5" stroke="rgba(77, 149, 234, 1)"></path><path d="M427 220.5 a3.5 3.5 0 1 0 7 0 a3.5 3.5 0 1 0 -7 0zM511 157.5 a3.5 3.5 0 1 0 7 0 a3.5 3.5 0 1 0 -7 0z" fill="rgba(77, 149, 234, 1)"></path><path d="M346.5 472.5L388.5 430.5" stroke-width="3.5" stroke="rgba(77, 149, 234, 1)"></path><path d="M343 472.5 a3.5 3.5 0 1 0 7 0 a3.5 3.5 0 1 0 -7 0zM385 430.5 a3.5 3.5 0 1 0 7 0 a3.5 3.5 0 1 0 -7 0z" fill="rgba(77, 149, 234, 1)"></path><path d="M493.5 388.5L493.5 367.5L472.5 346.5L388.5 346.5L241.5 199.5L241.5 157.5L283.5 115.5L325.5 115.5" stroke-width="3.5" stroke="rgba(77, 149, 234, 1)"></path><path d="M490 388.5 a3.5 3.5 0 1 0 7 0 a3.5 3.5 0 1 0 -7 0zM322 115.5 a3.5 3.5 0 1 0 7 0 a3.5 3.5 0 1 0 -7 0z" fill="rgba(77, 149, 234, 1)"></path><path d="M493.5 52.5L493.5 94.5" stroke-width="3.5" stroke="rgba(77, 149, 234, 1)"></path><path d="M490 52.5 a3.5 3.5 0 1 0 7 0 a3.5 3.5 0 1 0 -7 0zM490 94.5 a3.5 3.5 0 1 0 7 0 a3.5 3.5 0 1 0 -7 0z" fill="rgba(77, 149, 234, 1)"></path><path d="M682.5 73.5L682.5 157.5L703.5 178.5" stroke-width="3.5" stroke="rgba(77, 149, 234, 1)"></path><path d="M679 73.5 a3.5 3.5 0 1 0 7 0 a3.5 3.5 0 1 0 -7 0zM700 178.5 a3.5 3.5 0 1 0 7 0 a3.5 3.5 0 1 0 -7 0z" fill="rgba(77, 149, 234, 1)"></path><path d="M94.5 73.5L94.5 10.5" stroke-width="3.5" stroke="rgba(77, 149, 234, 1)"></path><path d="M91 73.5 a3.5 3.5 0 1 0 7 0 a3.5 3.5 0 1 0 -7 0zM91 10.5 a3.5 3.5 0 1 0 7 0 a3.5 3.5 0 1 0 -7 0z" fill="rgba(77, 149, 234, 1)"></path><path d="M73.5 451.5L31.5 451.5" stroke-width="3.5" stroke="rgba(77, 149, 234, 1)"></path><path d="M70 451.5 a3.5 3.5 0 1 0 7 0 a3.5 3.5 0 1 0 -7 0zM28 451.5 a3.5 3.5 0 1 0 7 0 a3.5 3.5 0 1 0 -7 0z" fill="rgba(77, 149, 234, 1)"></path><path d="M262.5 388.5L157.5 493.5L136.5 493.5L94.5 451.5" stroke-width="3.5" stroke="rgba(77, 149, 234, 1)"></path><path d="M259 388.5 a3.5 3.5 0 1 0 7 0 a3.5 3.5 0 1 0 -7 0zM91 451.5 a3.5 3.5 0 1 0 7 0 a3.5 3.5 0 1 0 -7 0z" fill="rgba(77, 149, 234, 1)"></path><path d="M136.5 52.5L136.5 10.5" stroke-width="3.5" stroke="rgba(77, 149, 234, 1)"></path><path d="M133 52.5 a3.5 3.5 0 1 0 7 0 a3.5 3.5 0 1 0 -7 0zM133 10.5 a3.5 3.5 0 1 0 7 0 a3.5 3.5 0 1 0 -7 0z" fill="rgba(77, 149, 234, 1)"></path><path d="M52.5 346.5L31.5 367.5L31.5 388.5L52.5 409.5L136.5 409.5L241.5 304.5L262.5 304.5L367.5 409.5L367.5 430.5" stroke-width="3.5" stroke="rgba(77, 149, 234, 1)"></path><path d="M49 346.5 a3.5 3.5 0 1 0 7 0 a3.5 3.5 0 1 0 -7 0zM364 430.5 a3.5 3.5 0 1 0 7 0 a3.5 3.5 0 1 0 -7 0z" fill="rgba(77, 149, 234, 1)"></path><path d="M661.5 52.5L703.5 52.5" stroke-width="3.5" stroke="rgba(77, 149, 234, 1)"></path><path d="M658 52.5 a3.5 3.5 0 1 0 7 0 a3.5 3.5 0 1 0 -7 0zM700 52.5 a3.5 3.5 0 1 0 7 0 a3.5 3.5 0 1 0 -7 0z" fill="rgba(77, 149, 234, 1)"></path><path d="M451.5 157.5L493.5 157.5" stroke-width="3.5" stroke="rgba(77, 149, 234, 1)"></path><path d="M448 157.5 a3.5 3.5 0 1 0 7 0 a3.5 3.5 0 1 0 -7 0zM490 157.5 a3.5 3.5 0 1 0 7 0 a3.5 3.5 0 1 0 -7 0z" fill="rgba(77, 149, 234, 1)"></path><path d="M703.5 115.5L703.5 73.5" stroke-width="3.5" stroke="rgba(77, 149, 234, 1)"></path><path d="M700 115.5 a3.5 3.5 0 1 0 7 0 a3.5 3.5 0 1 0 -7 0zM700 73.5 a3.5 3.5 0 1 0 7 0 a3.5 3.5 0 1 0 -7 0z" fill="rgba(77, 149, 234, 1)"></path><path d="M10.5 52.5L10.5 94.5" stroke-width="3.5" stroke="rgba(77, 149, 234, 1)"></path><path d="M7 52.5 a3.5 3.5 0 1 0 7 0 a3.5 3.5 0 1 0 -7 0zM7 94.5 a3.5 3.5 0 1 0 7 0 a3.5 3.5 0 1 0 -7 0z" fill="rgba(77, 149, 234, 1)"></path><path d="M556.5 430.5L514.5 388.5" stroke-width="3.5" stroke="rgba(77, 149, 234, 1)"></path><path d="M553 430.5 a3.5 3.5 0 1 0 7 0 a3.5 3.5 0 1 0 -7 0zM511 388.5 a3.5 3.5 0 1 0 7 0 a3.5 3.5 0 1 0 -7 0z" fill="rgba(77, 149, 234, 1)"></path><path d="M661.5 388.5L661.5 472.5" stroke-width="3.5" stroke="rgba(77, 149, 234, 1)"></path><path d="M658 388.5 a3.5 3.5 0 1 0 7 0 a3.5 3.5 0 1 0 -7 0zM658 472.5 a3.5 3.5 0 1 0 7 0 a3.5 3.5 0 1 0 -7 0z" fill="rgba(77, 149, 234, 1)"></path><path d="M598.5 367.5L598.5 430.5" stroke-width="3.5" stroke="rgba(77, 149, 234, 1)"></path><path d="M595 367.5 a3.5 3.5 0 1 0 7 0 a3.5 3.5 0 1 0 -7 0zM595 430.5 a3.5 3.5 0 1 0 7 0 a3.5 3.5 0 1 0 -7 0z" fill="rgba(77, 149, 234, 1)"></path><path d="M556.5 304.5L598.5 304.5L619.5 325.5L619.5 430.5" stroke-width="3.5" stroke="rgba(77, 149, 234, 1)"></path><path d="M553 304.5 a3.5 3.5 0 1 0 7 0 a3.5 3.5 0 1 0 -7 0zM616 430.5 a3.5 3.5 0 1 0 7 0 a3.5 3.5 0 1 0 -7 0z" fill="rgba(77, 149, 234, 1)"></path><path d="M367.5 178.5L472.5 178.5" stroke-width="3.5" stroke="rgba(77, 149, 234, 1)"></path><path d="M364 178.5 a3.5 3.5 0 1 0 7 0 a3.5 3.5 0 1 0 -7 0zM469 178.5 a3.5 3.5 0 1 0 7 0 a3.5 3.5 0 1 0 -7 0z" fill="rgba(77, 149, 234, 1)"></path><path d="M682.5 325.5L703.5 346.5L703.5 472.5" stroke-width="3.5" stroke="rgba(77, 149, 234, 1)"></path><path d="M679 325.5 a3.5 3.5 0 1 0 7 0 a3.5 3.5 0 1 0 -7 0zM700 472.5 a3.5 3.5 0 1 0 7 0 a3.5 3.5 0 1 0 -7 0z" fill="rgba(77, 149, 234, 1)"></path><path d="M325.5 388.5L346.5 409.5L346.5 451.5L304.5 493.5L178.5 493.5" stroke-width="3.5" stroke="rgba(77, 149, 234, 1)"></path><path d="M322 388.5 a3.5 3.5 0 1 0 7 0 a3.5 3.5 0 1 0 -7 0zM175 493.5 a3.5 3.5 0 1 0 7 0 a3.5 3.5 0 1 0 -7 0z" fill="rgba(77, 149, 234, 1)"></path><path d="M619.5 10.5L703.5 10.5" stroke-width="3.5" stroke="rgba(77, 149, 234, 1)"></path><path d="M616 10.5 a3.5 3.5 0 1 0 7 0 a3.5 3.5 0 1 0 -7 0zM700 10.5 a3.5 3.5 0 1 0 7 0 a3.5 3.5 0 1 0 -7 0z" fill="rgba(77, 149, 234, 1)"></path><path d="M241.5 472.5L304.5 472.5L325.5 451.5L325.5 409.5L241.5 325.5" stroke-width="3.5" stroke="rgba(77, 149, 234, 1)"></path><path d="M238 472.5 a3.5 3.5 0 1 0 7 0 a3.5 3.5 0 1 0 -7 0zM238 325.5 a3.5 3.5 0 1 0 7 0 a3.5 3.5 0 1 0 -7 0z" fill="rgba(77, 149, 234, 1)"></path><path d="M241.5 388.5L157.5 472.5L136.5 472.5L115.5 451.5" stroke-width="3.5" stroke="rgba(77, 149, 234, 1)"></path><path d="M238 388.5 a3.5 3.5 0 1 0 7 0 a3.5 3.5 0 1 0 -7 0zM112 451.5 a3.5 3.5 0 1 0 7 0 a3.5 3.5 0 1 0 -7 0z" fill="rgba(77, 149, 234, 1)"></path><path d="M535.5 493.5L409.5 493.5L388.5 472.5L367.5 472.5L346.5 493.5L325.5 493.5" stroke-width="3.5" stroke="rgba(77, 149, 234, 1)"></path><path d="M532 493.5 a3.5 3.5 0 1 0 7 0 a3.5 3.5 0 1 0 -7 0zM322 493.5 a3.5 3.5 0 1 0 7 0 a3.5 3.5 0 1 0 -7 0z" fill="rgba(77, 149, 234, 1)"></path><path d="M409.5 304.5L262.5 157.5" stroke-width="3.5" stroke="rgba(77, 149, 234, 1)"></path><path d="M406 304.5 a3.5 3.5 0 1 0 7 0 a3.5 3.5 0 1 0 -7 0zM259 157.5 a3.5 3.5 0 1 0 7 0 a3.5 3.5 0 1 0 -7 0z" fill="rgba(77, 149, 234, 1)"></path><path d="M31.5 283.5L10.5 304.5L10.5 325.5" stroke-width="3.5" stroke="rgba(77, 149, 234, 1)"></path><path d="M28 283.5 a3.5 3.5 0 1 0 7 0 a3.5 3.5 0 1 0 -7 0zM7 325.5 a3.5 3.5 0 1 0 7 0 a3.5 3.5 0 1 0 -7 0z" fill="rgba(77, 149, 234, 1)"></path><path d="M682.5 451.5L682.5 346.5" stroke-width="3.5" stroke="rgba(77, 149, 234, 1)"></path><path d="M679 451.5 a3.5 3.5 0 1 0 7 0 a3.5 3.5 0 1 0 -7 0zM679 346.5 a3.5 3.5 0 1 0 7 0 a3.5 3.5 0 1 0 -7 0z" fill="rgba(77, 149, 234, 1)"></path><path d="M115.5 199.5L10.5 199.5" stroke-width="3.5" stroke="rgba(77, 149, 234, 1)"></path><path d="M112 199.5 a3.5 3.5 0 1 0 7 0 a3.5 3.5 0 1 0 -7 0zM7 199.5 a3.5 3.5 0 1 0 7 0 a3.5 3.5 0 1 0 -7 0z" fill="rgba(77, 149, 234, 1)"></path><path d="M493.5 262.5L493.5 241.5L514.5 220.5L535.5 220.5L577.5 262.5" stroke-width="3.5" stroke="rgba(77, 149, 234, 1)"></path><path d="M490 262.5 a3.5 3.5 0 1 0 7 0 a3.5 3.5 0 1 0 -7 0zM574 262.5 a3.5 3.5 0 1 0 7 0 a3.5 3.5 0 1 0 -7 0z" fill="rgba(77, 149, 234, 1)"></path><path d="M262.5 430.5L241.5 430.5L199.5 472.5" stroke-width="3.5" stroke="rgba(77, 149, 234, 1)"></path><path d="M259 430.5 a3.5 3.5 0 1 0 7 0 a3.5 3.5 0 1 0 -7 0zM196 472.5 a3.5 3.5 0 1 0 7 0 a3.5 3.5 0 1 0 -7 0z" fill="rgba(77, 149, 234, 1)"></path><path d="M115.5 367.5L94.5 367.5L73.5 388.5L52.5 388.5" stroke-width="3.5" stroke="rgba(77, 149, 234, 1)"></path><path d="M112 367.5 a3.5 3.5 0 1 0 7 0 a3.5 3.5 0 1 0 -7 0zM49 388.5 a3.5 3.5 0 1 0 7 0 a3.5 3.5 0 1 0 -7 0z" fill="rgba(77, 149, 234, 1)"></path><path d="M346.5 262.5L325.5 262.5L262.5 199.5L262.5 178.5" stroke-width="3.5" stroke="rgba(77, 149, 234, 1)"></path><path d="M343 262.5 a3.5 3.5 0 1 0 7 0 a3.5 3.5 0 1 0 -7 0zM259 178.5 a3.5 3.5 0 1 0 7 0 a3.5 3.5 0 1 0 -7 0z" fill="rgba(77, 149, 234, 1)"></path><path d="M178.5 325.5L199.5 325.5L241.5 283.5" stroke-width="3.5" stroke="rgba(77, 149, 234, 1)"></path><path d="M175 325.5 a3.5 3.5 0 1 0 7 0 a3.5 3.5 0 1 0 -7 0zM238 283.5 a3.5 3.5 0 1 0 7 0 a3.5 3.5 0 1 0 -7 0z" fill="rgba(77, 149, 234, 1)"></path><path d="M451.5 10.5L472.5 31.5L472.5 94.5" stroke-width="3.5" stroke="rgba(77, 149, 234, 1)"></path><path d="M448 10.5 a3.5 3.5 0 1 0 7 0 a3.5 3.5 0 1 0 -7 0zM469 94.5 a3.5 3.5 0 1 0 7 0 a3.5 3.5 0 1 0 -7 0z" fill="rgba(77, 149, 234, 1)"></path><path d="M157.5 325.5L199.5 283.5L220.5 283.5" stroke-width="3.5" stroke="rgba(77, 149, 234, 1)"></path><path d="M154 325.5 a3.5 3.5 0 1 0 7 0 a3.5 3.5 0 1 0 -7 0zM217 283.5 a3.5 3.5 0 1 0 7 0 a3.5 3.5 0 1 0 -7 0z" fill="rgba(77, 149, 234, 1)"></path><path d="M535.5 52.5L577.5 10.5L598.5 10.5L661.5 73.5" stroke-width="3.5" stroke="rgba(77, 149, 234, 1)"></path><path d="M532 52.5 a3.5 3.5 0 1 0 7 0 a3.5 3.5 0 1 0 -7 0zM658 73.5 a3.5 3.5 0 1 0 7 0 a3.5 3.5 0 1 0 -7 0z" fill="rgba(77, 149, 234, 1)"></path><path d="M514.5 409.5L493.5 430.5L493.5 451.5" stroke-width="3.5" stroke="rgba(77, 149, 234, 1)"></path><path d="M511 409.5 a3.5 3.5 0 1 0 7 0 a3.5 3.5 0 1 0 -7 0zM490 451.5 a3.5 3.5 0 1 0 7 0 a3.5 3.5 0 1 0 -7 0z" fill="rgba(77, 149, 234, 1)"></path><path d="M535.5 31.5L493.5 31.5L472.5 10.5" stroke-width="3.5" stroke="rgba(77, 149, 234, 1)"></path><path d="M532 31.5 a3.5 3.5 0 1 0 7 0 a3.5 3.5 0 1 0 -7 0zM469 10.5 a3.5 3.5 0 1 0 7 0 a3.5 3.5 0 1 0 -7 0z" fill="rgba(77, 149, 234, 1)"></path><path d="M304.5 73.5L304.5 31.5" stroke-width="3.5" stroke="rgba(77, 149, 234, 1)"></path><path d="M301 73.5 a3.5 3.5 0 1 0 7 0 a3.5 3.5 0 1 0 -7 0zM301 31.5 a3.5 3.5 0 1 0 7 0 a3.5 3.5 0 1 0 -7 0z" fill="rgba(77, 149, 234, 1)"></path><path d="M556.5 52.5L577.5 73.5L598.5 73.5L619.5 52.5" stroke-width="3.5" stroke="rgba(77, 149, 234, 1)"></path><path d="M553 52.5 a3.5 3.5 0 1 0 7 0 a3.5 3.5 0 1 0 -7 0zM616 52.5 a3.5 3.5 0 1 0 7 0 a3.5 3.5 0 1 0 -7 0z" fill="rgba(77, 149, 234, 1)"></path><path d="M73.5 136.5L136.5 73.5" stroke-width="3.5" stroke="rgba(77, 149, 234, 1)"></path><path d="M70 136.5 a3.5 3.5 0 1 0 7 0 a3.5 3.5 0 1 0 -7 0zM133 73.5 a3.5 3.5 0 1 0 7 0 a3.5 3.5 0 1 0 -7 0z" fill="rgba(77, 149, 234, 1)"></path><path d="M409.5 472.5L451.5 472.5" stroke-width="3.5" stroke="rgba(77, 149, 234, 1)"></path><path d="M406 472.5 a3.5 3.5 0 1 0 7 0 a3.5 3.5 0 1 0 -7 0zM448 472.5 a3.5 3.5 0 1 0 7 0 a3.5 3.5 0 1 0 -7 0z" fill="rgba(77, 149, 234, 1)"></path><path d="M136.5 283.5L52.5 367.5" stroke-width="3.5" stroke="rgba(77, 149, 234, 1)"></path><path d="M133 283.5 a3.5 3.5 0 1 0 7 0 a3.5 3.5 0 1 0 -7 0zM49 367.5 a3.5 3.5 0 1 0 7 0 a3.5 3.5 0 1 0 -7 0z" fill="rgba(77, 149, 234, 1)"></path><path d="M31.5 94.5L52.5 115.5L73.5 115.5L94.5 94.5" stroke-width="3.5" stroke="rgba(77, 149, 234, 1)"></path><path d="M28 94.5 a3.5 3.5 0 1 0 7 0 a3.5 3.5 0 1 0 -7 0zM91 94.5 a3.5 3.5 0 1 0 7 0 a3.5 3.5 0 1 0 -7 0z" fill="rgba(77, 149, 234, 1)"></path><path d="M556.5 388.5L472.5 304.5" stroke-width="3.5" stroke="rgba(77, 149, 234, 1)"></path><path d="M553 388.5 a3.5 3.5 0 1 0 7 0 a3.5 3.5 0 1 0 -7 0zM469 304.5 a3.5 3.5 0 1 0 7 0 a3.5 3.5 0 1 0 -7 0z" fill="rgba(77, 149, 234, 1)"></path><path d="M367.5 73.5L325.5 73.5" stroke-width="3.5" stroke="rgba(77, 149, 234, 1)"></path><path d="M364 73.5 a3.5 3.5 0 1 0 7 0 a3.5 3.5 0 1 0 -7 0zM322 73.5 a3.5 3.5 0 1 0 7 0 a3.5 3.5 0 1 0 -7 0z" fill="rgba(77, 149, 234, 1)"></path><path d="M409.5 52.5L451.5 94.5" stroke-width="3.5" stroke="rgba(77, 149, 234, 1)"></path><path d="M406 52.5 a3.5 3.5 0 1 0 7 0 a3.5 3.5 0 1 0 -7 0zM448 94.5 a3.5 3.5 0 1 0 7 0 a3.5 3.5 0 1 0 -7 0z" fill="rgba(77, 149, 234, 1)"></path><path d="M619.5 262.5L640.5 262.5L661.5 241.5L661.5 220.5" stroke-width="3.5" stroke="rgba(77, 149, 234, 1)"></path><path d="M616 262.5 a3.5 3.5 0 1 0 7 0 a3.5 3.5 0 1 0 -7 0zM658 220.5 a3.5 3.5 0 1 0 7 0 a3.5 3.5 0 1 0 -7 0z" fill="rgba(77, 149, 234, 1)"></path><path d="M31.5 31.5L73.5 31.5" stroke-width="3.5" stroke="rgba(77, 149, 234, 1)"></path><path d="M28 31.5 a3.5 3.5 0 1 0 7 0 a3.5 3.5 0 1 0 -7 0zM70 31.5 a3.5 3.5 0 1 0 7 0 a3.5 3.5 0 1 0 -7 0z" fill="rgba(77, 149, 234, 1)"></path><path d="M304.5 178.5L304.5 136.5" stroke-width="3.5" stroke="rgba(77, 149, 234, 1)"></path><path d="M301 178.5 a3.5 3.5 0 1 0 7 0 a3.5 3.5 0 1 0 -7 0zM301 136.5 a3.5 3.5 0 1 0 7 0 a3.5 3.5 0 1 0 -7 0z" fill="rgba(77, 149, 234, 1)"></path><path d="M115.5 346.5L115.5 325.5L199.5 241.5" stroke-width="3.5" stroke="rgba(77, 149, 234, 1)"></path><path d="M112 346.5 a3.5 3.5 0 1 0 7 0 a3.5 3.5 0 1 0 -7 0zM196 241.5 a3.5 3.5 0 1 0 7 0 a3.5 3.5 0 1 0 -7 0z" fill="rgba(77, 149, 234, 1)"></path><path d="M283.5 31.5L283.5 73.5" stroke-width="3.5" stroke="rgba(77, 149, 234, 1)"></path><path d="M280 31.5 a3.5 3.5 0 1 0 7 0 a3.5 3.5 0 1 0 -7 0zM280 73.5 a3.5 3.5 0 1 0 7 0 a3.5 3.5 0 1 0 -7 0z" fill="rgba(77, 149, 234, 1)"></path><path d="M136.5 388.5L94.5 388.5" stroke-width="3.5" stroke="rgba(77, 149, 234, 1)"></path><path d="M133 388.5 a3.5 3.5 0 1 0 7 0 a3.5 3.5 0 1 0 -7 0zM91 388.5 a3.5 3.5 0 1 0 7 0 a3.5 3.5 0 1 0 -7 0z" fill="rgba(77, 149, 234, 1)"></path><path d="M451.5 73.5L388.5 10.5L367.5 10.5" stroke-width="3.5" stroke="rgba(77, 149, 234, 1)"></path><path d="M448 73.5 a3.5 3.5 0 1 0 7 0 a3.5 3.5 0 1 0 -7 0zM364 10.5 a3.5 3.5 0 1 0 7 0 a3.5 3.5 0 1 0 -7 0z" fill="rgba(77, 149, 234, 1)"></path><path d="M73.5 241.5L94.5 241.5L115.5 220.5" stroke-width="3.5" stroke="rgba(77, 149, 234, 1)"></path><path d="M70 241.5 a3.5 3.5 0 1 0 7 0 a3.5 3.5 0 1 0 -7 0zM112 220.5 a3.5 3.5 0 1 0 7 0 a3.5 3.5 0 1 0 -7 0z" fill="rgba(77, 149, 234, 1)"></path><path d="M157.5 220.5L52.5 325.5" stroke-width="3.5" stroke="rgba(77, 149, 234, 1)"></path><path d="M154 220.5 a3.5 3.5 0 1 0 7 0 a3.5 3.5 0 1 0 -7 0zM49 325.5 a3.5 3.5 0 1 0 7 0 a3.5 3.5 0 1 0 -7 0z" fill="rgba(77, 149, 234, 1)"></path><path d="M577.5 409.5L577.5 346.5L535.5 304.5L493.5 304.5" stroke-width="3.5" stroke="rgba(77, 149, 234, 1)"></path><path d="M574 409.5 a3.5 3.5 0 1 0 7 0 a3.5 3.5 0 1 0 -7 0zM490 304.5 a3.5 3.5 0 1 0 7 0 a3.5 3.5 0 1 0 -7 0z" fill="rgba(77, 149, 234, 1)"></path><path d="M262.5 367.5L220.5 367.5L136.5 451.5" stroke-width="3.5" stroke="rgba(77, 149, 234, 1)"></path><path d="M259 367.5 a3.5 3.5 0 1 0 7 0 a3.5 3.5 0 1 0 -7 0zM133 451.5 a3.5 3.5 0 1 0 7 0 a3.5 3.5 0 1 0 -7 0z" fill="rgba(77, 149, 234, 1)"></path><path d="M577.5 178.5L598.5 199.5L598.5 220.5" stroke-width="3.5" stroke="rgba(77, 149, 234, 1)"></path><path d="M574 178.5 a3.5 3.5 0 1 0 7 0 a3.5 3.5 0 1 0 -7 0zM595 220.5 a3.5 3.5 0 1 0 7 0 a3.5 3.5 0 1 0 -7 0z" fill="rgba(77, 149, 234, 1)"></path><path d="M136.5 346.5L178.5 346.5" stroke-width="3.5" stroke="rgba(77, 149, 234, 1)"></path><path d="M133 346.5 a3.5 3.5 0 1 0 7 0 a3.5 3.5 0 1 0 -7 0zM175 346.5 a3.5 3.5 0 1 0 7 0 a3.5 3.5 0 1 0 -7 0z" fill="rgba(77, 149, 234, 1)"></path><path d="M157.5 94.5L241.5 10.5L262.5 10.5" stroke-width="3.5" stroke="rgba(77, 149, 234, 1)"></path><path d="M154 94.5 a3.5 3.5 0 1 0 7 0 a3.5 3.5 0 1 0 -7 0zM259 10.5 a3.5 3.5 0 1 0 7 0 a3.5 3.5 0 1 0 -7 0z" fill="rgba(77, 149, 234, 1)"></path><path d="M514.5 325.5L535.5 346.5L556.5 346.5" stroke-width="3.5" stroke="rgba(77, 149, 234, 1)"></path><path d="M511 325.5 a3.5 3.5 0 1 0 7 0 a3.5 3.5 0 1 0 -7 0zM553 346.5 a3.5 3.5 0 1 0 7 0 a3.5 3.5 0 1 0 -7 0z" fill="rgba(77, 149, 234, 1)"></path><path d="M157.5 262.5L157.5 241.5L178.5 220.5" stroke-width="3.5" stroke="rgba(77, 149, 234, 1)"></path><path d="M154 262.5 a3.5 3.5 0 1 0 7 0 a3.5 3.5 0 1 0 -7 0zM175 220.5 a3.5 3.5 0 1 0 7 0 a3.5 3.5 0 1 0 -7 0z" fill="rgba(77, 149, 234, 1)"></path><path d="M115.5 52.5L115.5 10.5" stroke-width="3.5" stroke="rgba(77, 149, 234, 1)"></path><path d="M112 52.5 a3.5 3.5 0 1 0 7 0 a3.5 3.5 0 1 0 -7 0zM112 10.5 a3.5 3.5 0 1 0 7 0 a3.5 3.5 0 1 0 -7 0z" fill="rgba(77, 149, 234, 1)"></path><path d="M262.5 451.5L283.5 451.5L304.5 430.5L304.5 409.5L283.5 388.5" stroke-width="3.5" stroke="rgba(77, 149, 234, 1)"></path><path d="M259 451.5 a3.5 3.5 0 1 0 7 0 a3.5 3.5 0 1 0 -7 0zM280 388.5 a3.5 3.5 0 1 0 7 0 a3.5 3.5 0 1 0 -7 0z" fill="rgba(77, 149, 234, 1)"></path><path d="M52.5 262.5L10.5 262.5" stroke-width="3.5" stroke="rgba(77, 149, 234, 1)"></path><path d="M49 262.5 a3.5 3.5 0 1 0 7 0 a3.5 3.5 0 1 0 -7 0zM7 262.5 a3.5 3.5 0 1 0 7 0 a3.5 3.5 0 1 0 -7 0z" fill="rgba(77, 149, 234, 1)"></path><path d="M388.5 115.5L367.5 136.5L367.5 157.5" stroke-width="3.5" stroke="rgba(77, 149, 234, 1)"></path><path d="M385 115.5 a3.5 3.5 0 1 0 7 0 a3.5 3.5 0 1 0 -7 0zM364 157.5 a3.5 3.5 0 1 0 7 0 a3.5 3.5 0 1 0 -7 0z" fill="rgba(77, 149, 234, 1)"></path><path d="M73.5 94.5L73.5 52.5" stroke-width="3.5" stroke="rgba(77, 149, 234, 1)"></path><path d="M70 94.5 a3.5 3.5 0 1 0 7 0 a3.5 3.5 0 1 0 -7 0zM70 52.5 a3.5 3.5 0 1 0 7 0 a3.5 3.5 0 1 0 -7 0z" fill="rgba(77, 149, 234, 1)"></path><path d="M157.5 136.5L115.5 136.5" stroke-width="3.5" stroke="rgba(77, 149, 234, 1)"></path><path d="M154 136.5 a3.5 3.5 0 1 0 7 0 a3.5 3.5 0 1 0 -7 0zM112 136.5 a3.5 3.5 0 1 0 7 0 a3.5 3.5 0 1 0 -7 0z" fill="rgba(77, 149, 234, 1)"></path><path d="M493.5 10.5L535.5 10.5" stroke-width="3.5" stroke="rgba(77, 149, 234, 1)"></path><path d="M490 10.5 a3.5 3.5 0 1 0 7 0 a3.5 3.5 0 1 0 -7 0zM532 10.5 a3.5 3.5 0 1 0 7 0 a3.5 3.5 0 1 0 -7 0z" fill="rgba(77, 149, 234, 1)"></path><path d="M73.5 472.5L31.5 472.5" stroke-width="3.5" stroke="rgba(77, 149, 234, 1)"></path><path d="M70 472.5 a3.5 3.5 0 1 0 7 0 a3.5 3.5 0 1 0 -7 0zM28 472.5 a3.5 3.5 0 1 0 7 0 a3.5 3.5 0 1 0 -7 0z" fill="rgba(77, 149, 234, 1)"></path></g></g><defs><mask id="SvgjsMask1057"><rect width="700" height="500" fill="#ffffff"></rect></mask></defs></svg>