<svg xmlns="http://www.w3.org/2000/svg" version="1.1" xmlns:xlink="http://www.w3.org/1999/xlink" xmlns:svgjs="http://svgjs.dev/svgjs" width="1000" height="500" preserveAspectRatio="none" viewBox="0 0 1000 500"><g mask="url(&quot;#SvgjsMask1060&quot;)" fill="none"><g><path d="M367.5 10.5L10.5 367.5L10.5 409.5" stroke-width="3.5" stroke="rgba(77, 149, 234, 1)"></path><path d="M364 10.5 a3.5 3.5 0 1 0 7 0 a3.5 3.5 0 1 0 -7 0zM7 409.5 a3.5 3.5 0 1 0 7 0 a3.5 3.5 0 1 0 -7 0z" fill="rgba(77, 149, 234, 1)"></path><path d="M493.5 430.5L241.5 178.5L220.5 178.5L94.5 304.5" stroke-width="3.5" stroke="rgba(77, 149, 234, 1)"></path><path d="M490 430.5 a3.5 3.5 0 1 0 7 0 a3.5 3.5 0 1 0 -7 0zM91 304.5 a3.5 3.5 0 1 0 7 0 a3.5 3.5 0 1 0 -7 0z" fill="rgba(77, 149, 234, 1)"></path><path d="M493.5 493.5L94.5 493.5" stroke-width="3.5" stroke="rgba(77, 149, 234, 1)"></path><path d="M490 493.5 a3.5 3.5 0 1 0 7 0 a3.5 3.5 0 1 0 -7 0zM91 493.5 a3.5 3.5 0 1 0 7 0 a3.5 3.5 0 1 0 -7 0z" fill="rgba(77, 149, 234, 1)"></path><path d="M136.5 430.5L94.5 388.5L94.5 325.5L220.5 199.5L241.5 199.5L388.5 346.5" stroke-width="3.5" stroke="rgba(77, 149, 234, 1)"></path><path d="M133 430.5 a3.5 3.5 0 1 0 7 0 a3.5 3.5 0 1 0 -7 0zM385 346.5 a3.5 3.5 0 1 0 7 0 a3.5 3.5 0 1 0 -7 0z" fill="rgba(77, 149, 234, 1)"></path><path d="M997.5 199.5L745.5 199.5L640.5 304.5L598.5 304.5" stroke-width="3.5" stroke="rgba(77, 149, 234, 1)"></path><path d="M994 199.5 a3.5 3.5 0 1 0 7 0 a3.5 3.5 0 1 0 -7 0zM595 304.5 a3.5 3.5 0 1 0 7 0 a3.5 3.5 0 1 0 -7 0z" fill="rgba(77, 149, 234, 1)"></path><path d="M556.5 52.5L514.5 10.5L388.5 10.5L241.5 157.5" stroke-width="3.5" stroke="rgba(77, 149, 234, 1)"></path><path d="M553 52.5 a3.5 3.5 0 1 0 7 0 a3.5 3.5 0 1 0 -7 0zM238 157.5 a3.5 3.5 0 1 0 7 0 a3.5 3.5 0 1 0 -7 0z" fill="rgba(77, 149, 234, 1)"></path><path d="M766.5 94.5L703.5 157.5L661.5 157.5L577.5 73.5L388.5 73.5L367.5 52.5" stroke-width="3.5" stroke="rgba(77, 149, 234, 1)"></path><path d="M763 94.5 a3.5 3.5 0 1 0 7 0 a3.5 3.5 0 1 0 -7 0zM364 52.5 a3.5 3.5 0 1 0 7 0 a3.5 3.5 0 1 0 -7 0z" fill="rgba(77, 149, 234, 1)"></path><path d="M955.5 388.5L997.5 430.5L997.5 493.5" stroke-width="3.5" stroke="rgba(77, 149, 234, 1)"></path><path d="M952 388.5 a3.5 3.5 0 1 0 7 0 a3.5 3.5 0 1 0 -7 0zM994 493.5 a3.5 3.5 0 1 0 7 0 a3.5 3.5 0 1 0 -7 0z" fill="rgba(77, 149, 234, 1)"></path><path d="M955.5 451.5L745.5 241.5L745.5 220.5" stroke-width="3.5" stroke="rgba(77, 149, 234, 1)"></path><path d="M952 451.5 a3.5 3.5 0 1 0 7 0 a3.5 3.5 0 1 0 -7 0zM742 220.5 a3.5 3.5 0 1 0 7 0 a3.5 3.5 0 1 0 -7 0z" fill="rgba(77, 149, 234, 1)"></path><path d="M745.5 472.5L766.5 493.5L829.5 493.5" stroke-width="3.5" stroke="rgba(77, 149, 234, 1)"></path><path d="M742 472.5 a3.5 3.5 0 1 0 7 0 a3.5 3.5 0 1 0 -7 0zM826 493.5 a3.5 3.5 0 1 0 7 0 a3.5 3.5 0 1 0 -7 0z" fill="rgba(77, 149, 234, 1)"></path><path d="M535.5 451.5L262.5 178.5L262.5 157.5L346.5 73.5L367.5 73.5" stroke-width="3.5" stroke="rgba(77, 149, 234, 1)"></path><path d="M532 451.5 a3.5 3.5 0 1 0 7 0 a3.5 3.5 0 1 0 -7 0zM364 73.5 a3.5 3.5 0 1 0 7 0 a3.5 3.5 0 1 0 -7 0z" fill="rgba(77, 149, 234, 1)"></path><path d="M409.5 430.5L472.5 430.5L535.5 493.5L661.5 493.5L745.5 409.5L745.5 346.5" stroke-width="3.5" stroke="rgba(77, 149, 234, 1)"></path><path d="M406 430.5 a3.5 3.5 0 1 0 7 0 a3.5 3.5 0 1 0 -7 0zM742 346.5 a3.5 3.5 0 1 0 7 0 a3.5 3.5 0 1 0 -7 0z" fill="rgba(77, 149, 234, 1)"></path><path d="M220.5 472.5L10.5 472.5" stroke-width="3.5" stroke="rgba(77, 149, 234, 1)"></path><path d="M217 472.5 a3.5 3.5 0 1 0 7 0 a3.5 3.5 0 1 0 -7 0zM7 472.5 a3.5 3.5 0 1 0 7 0 a3.5 3.5 0 1 0 -7 0z" fill="rgba(77, 149, 234, 1)"></path><path d="M976.5 136.5L976.5 94.5L892.5 10.5L808.5 10.5L724.5 94.5L619.5 94.5" stroke-width="3.5" stroke="rgba(77, 149, 234, 1)"></path><path d="M973 136.5 a3.5 3.5 0 1 0 7 0 a3.5 3.5 0 1 0 -7 0zM616 94.5 a3.5 3.5 0 1 0 7 0 a3.5 3.5 0 1 0 -7 0z" fill="rgba(77, 149, 234, 1)"></path><path d="M871.5 262.5L829.5 304.5" stroke-width="3.5" stroke="rgba(77, 149, 234, 1)"></path><path d="M868 262.5 a3.5 3.5 0 1 0 7 0 a3.5 3.5 0 1 0 -7 0zM826 304.5 a3.5 3.5 0 1 0 7 0 a3.5 3.5 0 1 0 -7 0z" fill="rgba(77, 149, 234, 1)"></path><path d="M787.5 94.5L787.5 157.5L766.5 178.5L745.5 178.5L640.5 283.5L598.5 283.5L493.5 388.5" stroke-width="3.5" stroke="rgba(77, 149, 234, 1)"></path><path d="M784 94.5 a3.5 3.5 0 1 0 7 0 a3.5 3.5 0 1 0 -7 0zM490 388.5 a3.5 3.5 0 1 0 7 0 a3.5 3.5 0 1 0 -7 0z" fill="rgba(77, 149, 234, 1)"></path><path d="M136.5 10.5L10.5 10.5" stroke-width="3.5" stroke="rgba(77, 149, 234, 1)"></path><path d="M133 10.5 a3.5 3.5 0 1 0 7 0 a3.5 3.5 0 1 0 -7 0zM7 10.5 a3.5 3.5 0 1 0 7 0 a3.5 3.5 0 1 0 -7 0z" fill="rgba(77, 149, 234, 1)"></path><path d="M52.5 241.5L10.5 199.5L10.5 31.5" stroke-width="3.5" stroke="rgba(77, 149, 234, 1)"></path><path d="M49 241.5 a3.5 3.5 0 1 0 7 0 a3.5 3.5 0 1 0 -7 0zM7 31.5 a3.5 3.5 0 1 0 7 0 a3.5 3.5 0 1 0 -7 0z" fill="rgba(77, 149, 234, 1)"></path><path d="M934.5 451.5L892.5 493.5L871.5 493.5" stroke-width="3.5" stroke="rgba(77, 149, 234, 1)"></path><path d="M931 451.5 a3.5 3.5 0 1 0 7 0 a3.5 3.5 0 1 0 -7 0zM868 493.5 a3.5 3.5 0 1 0 7 0 a3.5 3.5 0 1 0 -7 0z" fill="rgba(77, 149, 234, 1)"></path><path d="M388.5 199.5L556.5 199.5L598.5 157.5L640.5 157.5L682.5 199.5L703.5 199.5L766.5 136.5L766.5 115.5" stroke-width="3.5" stroke="rgba(77, 149, 234, 1)"></path><path d="M385 199.5 a3.5 3.5 0 1 0 7 0 a3.5 3.5 0 1 0 -7 0zM763 115.5 a3.5 3.5 0 1 0 7 0 a3.5 3.5 0 1 0 -7 0z" fill="rgba(77, 149, 234, 1)"></path><path d="M535.5 304.5L640.5 199.5L640.5 178.5" stroke-width="3.5" stroke="rgba(77, 149, 234, 1)"></path><path d="M532 304.5 a3.5 3.5 0 1 0 7 0 a3.5 3.5 0 1 0 -7 0zM637 178.5 a3.5 3.5 0 1 0 7 0 a3.5 3.5 0 1 0 -7 0z" fill="rgba(77, 149, 234, 1)"></path><path d="M955.5 115.5L955.5 94.5L892.5 31.5L850.5 31.5L808.5 73.5L808.5 178.5" stroke-width="3.5" stroke="rgba(77, 149, 234, 1)"></path><path d="M952 115.5 a3.5 3.5 0 1 0 7 0 a3.5 3.5 0 1 0 -7 0zM805 178.5 a3.5 3.5 0 1 0 7 0 a3.5 3.5 0 1 0 -7 0z" fill="rgba(77, 149, 234, 1)"></path><path d="M871.5 157.5L997.5 157.5" stroke-width="3.5" stroke="rgba(77, 149, 234, 1)"></path><path d="M868 157.5 a3.5 3.5 0 1 0 7 0 a3.5 3.5 0 1 0 -7 0zM994 157.5 a3.5 3.5 0 1 0 7 0 a3.5 3.5 0 1 0 -7 0z" fill="rgba(77, 149, 234, 1)"></path><path d="M220.5 262.5L220.5 325.5L346.5 451.5L451.5 451.5L472.5 472.5" stroke-width="3.5" stroke="rgba(77, 149, 234, 1)"></path><path d="M217 262.5 a3.5 3.5 0 1 0 7 0 a3.5 3.5 0 1 0 -7 0zM469 472.5 a3.5 3.5 0 1 0 7 0 a3.5 3.5 0 1 0 -7 0z" fill="rgba(77, 149, 234, 1)"></path><path d="M409.5 136.5L325.5 220.5" stroke-width="3.5" stroke="rgba(77, 149, 234, 1)"></path><path d="M406 136.5 a3.5 3.5 0 1 0 7 0 a3.5 3.5 0 1 0 -7 0zM322 220.5 a3.5 3.5 0 1 0 7 0 a3.5 3.5 0 1 0 -7 0z" fill="rgba(77, 149, 234, 1)"></path><path d="M934.5 388.5L976.5 430.5L976.5 493.5" stroke-width="3.5" stroke="rgba(77, 149, 234, 1)"></path><path d="M931 388.5 a3.5 3.5 0 1 0 7 0 a3.5 3.5 0 1 0 -7 0zM973 493.5 a3.5 3.5 0 1 0 7 0 a3.5 3.5 0 1 0 -7 0z" fill="rgba(77, 149, 234, 1)"></path><path d="M367.5 409.5L346.5 388.5L346.5 325.5L241.5 220.5L220.5 220.5L199.5 241.5L199.5 304.5L115.5 388.5" stroke-width="3.5" stroke="rgba(77, 149, 234, 1)"></path><path d="M364 409.5 a3.5 3.5 0 1 0 7 0 a3.5 3.5 0 1 0 -7 0zM112 388.5 a3.5 3.5 0 1 0 7 0 a3.5 3.5 0 1 0 -7 0z" fill="rgba(77, 149, 234, 1)"></path><path d="M871.5 220.5L871.5 241.5L829.5 283.5L808.5 283.5L766.5 241.5L766.5 220.5" stroke-width="3.5" stroke="rgba(77, 149, 234, 1)"></path><path d="M868 220.5 a3.5 3.5 0 1 0 7 0 a3.5 3.5 0 1 0 -7 0zM763 220.5 a3.5 3.5 0 1 0 7 0 a3.5 3.5 0 1 0 -7 0z" fill="rgba(77, 149, 234, 1)"></path><path d="M115.5 325.5L157.5 325.5L178.5 304.5L178.5 262.5" stroke-width="3.5" stroke="rgba(77, 149, 234, 1)"></path><path d="M112 325.5 a3.5 3.5 0 1 0 7 0 a3.5 3.5 0 1 0 -7 0zM175 262.5 a3.5 3.5 0 1 0 7 0 a3.5 3.5 0 1 0 -7 0z" fill="rgba(77, 149, 234, 1)"></path><path d="M997.5 52.5L955.5 10.5L913.5 10.5" stroke-width="3.5" stroke="rgba(77, 149, 234, 1)"></path><path d="M994 52.5 a3.5 3.5 0 1 0 7 0 a3.5 3.5 0 1 0 -7 0zM910 10.5 a3.5 3.5 0 1 0 7 0 a3.5 3.5 0 1 0 -7 0z" fill="rgba(77, 149, 234, 1)"></path><path d="M451.5 31.5L472.5 52.5L535.5 52.5" stroke-width="3.5" stroke="rgba(77, 149, 234, 1)"></path><path d="M448 31.5 a3.5 3.5 0 1 0 7 0 a3.5 3.5 0 1 0 -7 0zM532 52.5 a3.5 3.5 0 1 0 7 0 a3.5 3.5 0 1 0 -7 0z" fill="rgba(77, 149, 234, 1)"></path><path d="M94.5 178.5L136.5 220.5" stroke-width="3.5" stroke="rgba(77, 149, 234, 1)"></path><path d="M91 178.5 a3.5 3.5 0 1 0 7 0 a3.5 3.5 0 1 0 -7 0zM133 220.5 a3.5 3.5 0 1 0 7 0 a3.5 3.5 0 1 0 -7 0z" fill="rgba(77, 149, 234, 1)"></path><path d="M829.5 73.5L913.5 73.5L934.5 94.5L934.5 136.5" stroke-width="3.5" stroke="rgba(77, 149, 234, 1)"></path><path d="M826 73.5 a3.5 3.5 0 1 0 7 0 a3.5 3.5 0 1 0 -7 0zM931 136.5 a3.5 3.5 0 1 0 7 0 a3.5 3.5 0 1 0 -7 0z" fill="rgba(77, 149, 234, 1)"></path><path d="M829.5 94.5L850.5 94.5L892.5 136.5L913.5 136.5" stroke-width="3.5" stroke="rgba(77, 149, 234, 1)"></path><path d="M826 94.5 a3.5 3.5 0 1 0 7 0 a3.5 3.5 0 1 0 -7 0zM910 136.5 a3.5 3.5 0 1 0 7 0 a3.5 3.5 0 1 0 -7 0z" fill="rgba(77, 149, 234, 1)"></path><path d="M430.5 262.5L409.5 283.5L388.5 283.5L346.5 241.5L346.5 220.5L367.5 199.5" stroke-width="3.5" stroke="rgba(77, 149, 234, 1)"></path><path d="M427 262.5 a3.5 3.5 0 1 0 7 0 a3.5 3.5 0 1 0 -7 0zM364 199.5 a3.5 3.5 0 1 0 7 0 a3.5 3.5 0 1 0 -7 0z" fill="rgba(77, 149, 234, 1)"></path><path d="M640.5 115.5L682.5 115.5L703.5 136.5" stroke-width="3.5" stroke="rgba(77, 149, 234, 1)"></path><path d="M637 115.5 a3.5 3.5 0 1 0 7 0 a3.5 3.5 0 1 0 -7 0zM700 136.5 a3.5 3.5 0 1 0 7 0 a3.5 3.5 0 1 0 -7 0z" fill="rgba(77, 149, 234, 1)"></path><path d="M934.5 367.5L934.5 283.5L892.5 241.5L892.5 220.5" stroke-width="3.5" stroke="rgba(77, 149, 234, 1)"></path><path d="M931 367.5 a3.5 3.5 0 1 0 7 0 a3.5 3.5 0 1 0 -7 0zM889 220.5 a3.5 3.5 0 1 0 7 0 a3.5 3.5 0 1 0 -7 0z" fill="rgba(77, 149, 234, 1)"></path><path d="M409.5 220.5L598.5 220.5L619.5 199.5L619.5 178.5" stroke-width="3.5" stroke="rgba(77, 149, 234, 1)"></path><path d="M406 220.5 a3.5 3.5 0 1 0 7 0 a3.5 3.5 0 1 0 -7 0zM616 178.5 a3.5 3.5 0 1 0 7 0 a3.5 3.5 0 1 0 -7 0z" fill="rgba(77, 149, 234, 1)"></path><path d="M514.5 388.5L724.5 388.5" stroke-width="3.5" stroke="rgba(77, 149, 234, 1)"></path><path d="M511 388.5 a3.5 3.5 0 1 0 7 0 a3.5 3.5 0 1 0 -7 0zM721 388.5 a3.5 3.5 0 1 0 7 0 a3.5 3.5 0 1 0 -7 0z" fill="rgba(77, 149, 234, 1)"></path><path d="M451.5 115.5L451.5 178.5" stroke-width="3.5" stroke="rgba(77, 149, 234, 1)"></path><path d="M448 115.5 a3.5 3.5 0 1 0 7 0 a3.5 3.5 0 1 0 -7 0zM448 178.5 a3.5 3.5 0 1 0 7 0 a3.5 3.5 0 1 0 -7 0z" fill="rgba(77, 149, 234, 1)"></path><path d="M136.5 52.5L136.5 31.5L157.5 10.5L304.5 10.5L325.5 31.5" stroke-width="3.5" stroke="rgba(77, 149, 234, 1)"></path><path d="M133 52.5 a3.5 3.5 0 1 0 7 0 a3.5 3.5 0 1 0 -7 0zM322 31.5 a3.5 3.5 0 1 0 7 0 a3.5 3.5 0 1 0 -7 0z" fill="rgba(77, 149, 234, 1)"></path><path d="M997.5 283.5L976.5 283.5L955.5 304.5L955.5 367.5L997.5 409.5" stroke-width="3.5" stroke="rgba(77, 149, 234, 1)"></path><path d="M994 283.5 a3.5 3.5 0 1 0 7 0 a3.5 3.5 0 1 0 -7 0zM994 409.5 a3.5 3.5 0 1 0 7 0 a3.5 3.5 0 1 0 -7 0z" fill="rgba(77, 149, 234, 1)"></path><path d="M619.5 346.5L724.5 241.5" stroke-width="3.5" stroke="rgba(77, 149, 234, 1)"></path><path d="M616 346.5 a3.5 3.5 0 1 0 7 0 a3.5 3.5 0 1 0 -7 0zM721 241.5 a3.5 3.5 0 1 0 7 0 a3.5 3.5 0 1 0 -7 0z" fill="rgba(77, 149, 234, 1)"></path><path d="M703.5 31.5L724.5 10.5L787.5 10.5" stroke-width="3.5" stroke="rgba(77, 149, 234, 1)"></path><path d="M700 31.5 a3.5 3.5 0 1 0 7 0 a3.5 3.5 0 1 0 -7 0zM784 10.5 a3.5 3.5 0 1 0 7 0 a3.5 3.5 0 1 0 -7 0z" fill="rgba(77, 149, 234, 1)"></path><path d="M262.5 388.5L283.5 409.5L283.5 430.5L241.5 472.5" stroke-width="3.5" stroke="rgba(77, 149, 234, 1)"></path><path d="M259 388.5 a3.5 3.5 0 1 0 7 0 a3.5 3.5 0 1 0 -7 0zM238 472.5 a3.5 3.5 0 1 0 7 0 a3.5 3.5 0 1 0 -7 0z" fill="rgba(77, 149, 234, 1)"></path><path d="M493.5 262.5L556.5 262.5L577.5 241.5" stroke-width="3.5" stroke="rgba(77, 149, 234, 1)"></path><path d="M490 262.5 a3.5 3.5 0 1 0 7 0 a3.5 3.5 0 1 0 -7 0zM574 241.5 a3.5 3.5 0 1 0 7 0 a3.5 3.5 0 1 0 -7 0z" fill="rgba(77, 149, 234, 1)"></path><path d="M556.5 31.5L577.5 10.5L703.5 10.5" stroke-width="3.5" stroke="rgba(77, 149, 234, 1)"></path><path d="M553 31.5 a3.5 3.5 0 1 0 7 0 a3.5 3.5 0 1 0 -7 0zM700 10.5 a3.5 3.5 0 1 0 7 0 a3.5 3.5 0 1 0 -7 0z" fill="rgba(77, 149, 234, 1)"></path><path d="M157.5 430.5L136.5 409.5L136.5 388.5L199.5 325.5" stroke-width="3.5" stroke="rgba(77, 149, 234, 1)"></path><path d="M154 430.5 a3.5 3.5 0 1 0 7 0 a3.5 3.5 0 1 0 -7 0zM196 325.5 a3.5 3.5 0 1 0 7 0 a3.5 3.5 0 1 0 -7 0z" fill="rgba(77, 149, 234, 1)"></path><path d="M640.5 31.5L682.5 31.5L724.5 73.5" stroke-width="3.5" stroke="rgba(77, 149, 234, 1)"></path><path d="M637 31.5 a3.5 3.5 0 1 0 7 0 a3.5 3.5 0 1 0 -7 0zM721 73.5 a3.5 3.5 0 1 0 7 0 a3.5 3.5 0 1 0 -7 0z" fill="rgba(77, 149, 234, 1)"></path><path d="M850.5 178.5L850.5 115.5" stroke-width="3.5" stroke="rgba(77, 149, 234, 1)"></path><path d="M847 178.5 a3.5 3.5 0 1 0 7 0 a3.5 3.5 0 1 0 -7 0zM847 115.5 a3.5 3.5 0 1 0 7 0 a3.5 3.5 0 1 0 -7 0z" fill="rgba(77, 149, 234, 1)"></path><path d="M52.5 409.5L94.5 409.5L136.5 451.5L241.5 451.5L262.5 430.5L262.5 409.5L241.5 388.5L241.5 367.5L220.5 346.5L199.5 346.5L178.5 367.5L178.5 430.5" stroke-width="3.5" stroke="rgba(77, 149, 234, 1)"></path><path d="M49 409.5 a3.5 3.5 0 1 0 7 0 a3.5 3.5 0 1 0 -7 0zM175 430.5 a3.5 3.5 0 1 0 7 0 a3.5 3.5 0 1 0 -7 0z" fill="rgba(77, 149, 234, 1)"></path><path d="M787.5 409.5L766.5 388.5L766.5 367.5L808.5 325.5" stroke-width="3.5" stroke="rgba(77, 149, 234, 1)"></path><path d="M784 409.5 a3.5 3.5 0 1 0 7 0 a3.5 3.5 0 1 0 -7 0zM805 325.5 a3.5 3.5 0 1 0 7 0 a3.5 3.5 0 1 0 -7 0z" fill="rgba(77, 149, 234, 1)"></path><path d="M241.5 430.5L199.5 388.5L199.5 367.5" stroke-width="3.5" stroke="rgba(77, 149, 234, 1)"></path><path d="M238 430.5 a3.5 3.5 0 1 0 7 0 a3.5 3.5 0 1 0 -7 0zM196 367.5 a3.5 3.5 0 1 0 7 0 a3.5 3.5 0 1 0 -7 0z" fill="rgba(77, 149, 234, 1)"></path><path d="M220.5 73.5L178.5 31.5L157.5 31.5" stroke-width="3.5" stroke="rgba(77, 149, 234, 1)"></path><path d="M217 73.5 a3.5 3.5 0 1 0 7 0 a3.5 3.5 0 1 0 -7 0zM154 31.5 a3.5 3.5 0 1 0 7 0 a3.5 3.5 0 1 0 -7 0z" fill="rgba(77, 149, 234, 1)"></path><path d="M955.5 472.5L934.5 493.5L913.5 493.5" stroke-width="3.5" stroke="rgba(77, 149, 234, 1)"></path><path d="M952 472.5 a3.5 3.5 0 1 0 7 0 a3.5 3.5 0 1 0 -7 0zM910 493.5 a3.5 3.5 0 1 0 7 0 a3.5 3.5 0 1 0 -7 0z" fill="rgba(77, 149, 234, 1)"></path><path d="M430.5 472.5L304.5 472.5" stroke-width="3.5" stroke="rgba(77, 149, 234, 1)"></path><path d="M427 472.5 a3.5 3.5 0 1 0 7 0 a3.5 3.5 0 1 0 -7 0zM301 472.5 a3.5 3.5 0 1 0 7 0 a3.5 3.5 0 1 0 -7 0z" fill="rgba(77, 149, 234, 1)"></path><path d="M682.5 346.5L703.5 367.5L724.5 367.5" stroke-width="3.5" stroke="rgba(77, 149, 234, 1)"></path><path d="M679 346.5 a3.5 3.5 0 1 0 7 0 a3.5 3.5 0 1 0 -7 0zM721 367.5 a3.5 3.5 0 1 0 7 0 a3.5 3.5 0 1 0 -7 0z" fill="rgba(77, 149, 234, 1)"></path><path d="M325.5 409.5L346.5 430.5L388.5 430.5L430.5 388.5" stroke-width="3.5" stroke="rgba(77, 149, 234, 1)"></path><path d="M322 409.5 a3.5 3.5 0 1 0 7 0 a3.5 3.5 0 1 0 -7 0zM427 388.5 a3.5 3.5 0 1 0 7 0 a3.5 3.5 0 1 0 -7 0z" fill="rgba(77, 149, 234, 1)"></path><path d="M31.5 178.5L157.5 52.5L178.5 52.5L241.5 115.5" stroke-width="3.5" stroke="rgba(77, 149, 234, 1)"></path><path d="M28 178.5 a3.5 3.5 0 1 0 7 0 a3.5 3.5 0 1 0 -7 0zM238 115.5 a3.5 3.5 0 1 0 7 0 a3.5 3.5 0 1 0 -7 0z" fill="rgba(77, 149, 234, 1)"></path><path d="M808.5 52.5L787.5 73.5L766.5 73.5" stroke-width="3.5" stroke="rgba(77, 149, 234, 1)"></path><path d="M805 52.5 a3.5 3.5 0 1 0 7 0 a3.5 3.5 0 1 0 -7 0zM763 73.5 a3.5 3.5 0 1 0 7 0 a3.5 3.5 0 1 0 -7 0z" fill="rgba(77, 149, 234, 1)"></path><path d="M598.5 325.5L577.5 346.5L577.5 367.5" stroke-width="3.5" stroke="rgba(77, 149, 234, 1)"></path><path d="M595 325.5 a3.5 3.5 0 1 0 7 0 a3.5 3.5 0 1 0 -7 0zM574 367.5 a3.5 3.5 0 1 0 7 0 a3.5 3.5 0 1 0 -7 0z" fill="rgba(77, 149, 234, 1)"></path><path d="M367.5 157.5L325.5 199.5L304.5 199.5" stroke-width="3.5" stroke="rgba(77, 149, 234, 1)"></path><path d="M364 157.5 a3.5 3.5 0 1 0 7 0 a3.5 3.5 0 1 0 -7 0zM301 199.5 a3.5 3.5 0 1 0 7 0 a3.5 3.5 0 1 0 -7 0z" fill="rgba(77, 149, 234, 1)"></path><path d="M661.5 472.5L661.5 409.5" stroke-width="3.5" stroke="rgba(77, 149, 234, 1)"></path><path d="M658 472.5 a3.5 3.5 0 1 0 7 0 a3.5 3.5 0 1 0 -7 0zM658 409.5 a3.5 3.5 0 1 0 7 0 a3.5 3.5 0 1 0 -7 0z" fill="rgba(77, 149, 234, 1)"></path><path d="M451.5 94.5L535.5 178.5L556.5 178.5L598.5 136.5L598.5 115.5L577.5 94.5L472.5 94.5" stroke-width="3.5" stroke="rgba(77, 149, 234, 1)"></path><path d="M448 94.5 a3.5 3.5 0 1 0 7 0 a3.5 3.5 0 1 0 -7 0zM469 94.5 a3.5 3.5 0 1 0 7 0 a3.5 3.5 0 1 0 -7 0z" fill="rgba(77, 149, 234, 1)"></path><path d="M31.5 115.5L31.5 31.5" stroke-width="3.5" stroke="rgba(77, 149, 234, 1)"></path><path d="M28 115.5 a3.5 3.5 0 1 0 7 0 a3.5 3.5 0 1 0 -7 0zM28 31.5 a3.5 3.5 0 1 0 7 0 a3.5 3.5 0 1 0 -7 0z" fill="rgba(77, 149, 234, 1)"></path><path d="M136.5 199.5L136.5 157.5L199.5 94.5" stroke-width="3.5" stroke="rgba(77, 149, 234, 1)"></path><path d="M133 199.5 a3.5 3.5 0 1 0 7 0 a3.5 3.5 0 1 0 -7 0zM196 94.5 a3.5 3.5 0 1 0 7 0 a3.5 3.5 0 1 0 -7 0z" fill="rgba(77, 149, 234, 1)"></path><path d="M409.5 94.5L346.5 157.5L283.5 157.5" stroke-width="3.5" stroke="rgba(77, 149, 234, 1)"></path><path d="M406 94.5 a3.5 3.5 0 1 0 7 0 a3.5 3.5 0 1 0 -7 0zM280 157.5 a3.5 3.5 0 1 0 7 0 a3.5 3.5 0 1 0 -7 0z" fill="rgba(77, 149, 234, 1)"></path><path d="M934.5 241.5L997.5 241.5" stroke-width="3.5" stroke="rgba(77, 149, 234, 1)"></path><path d="M931 241.5 a3.5 3.5 0 1 0 7 0 a3.5 3.5 0 1 0 -7 0zM994 241.5 a3.5 3.5 0 1 0 7 0 a3.5 3.5 0 1 0 -7 0z" fill="rgba(77, 149, 234, 1)"></path><path d="M703.5 346.5L682.5 325.5L661.5 325.5L619.5 367.5L598.5 367.5" stroke-width="3.5" stroke="rgba(77, 149, 234, 1)"></path><path d="M700 346.5 a3.5 3.5 0 1 0 7 0 a3.5 3.5 0 1 0 -7 0zM595 367.5 a3.5 3.5 0 1 0 7 0 a3.5 3.5 0 1 0 -7 0z" fill="rgba(77, 149, 234, 1)"></path><path d="M115.5 52.5L115.5 73.5L31.5 157.5" stroke-width="3.5" stroke="rgba(77, 149, 234, 1)"></path><path d="M112 52.5 a3.5 3.5 0 1 0 7 0 a3.5 3.5 0 1 0 -7 0zM28 157.5 a3.5 3.5 0 1 0 7 0 a3.5 3.5 0 1 0 -7 0z" fill="rgba(77, 149, 234, 1)"></path><path d="M808.5 472.5L766.5 472.5L745.5 451.5L724.5 451.5L703.5 472.5L703.5 493.5" stroke-width="3.5" stroke="rgba(77, 149, 234, 1)"></path><path d="M805 472.5 a3.5 3.5 0 1 0 7 0 a3.5 3.5 0 1 0 -7 0zM700 493.5 a3.5 3.5 0 1 0 7 0 a3.5 3.5 0 1 0 -7 0z" fill="rgba(77, 149, 234, 1)"></path><path d="M178.5 157.5L220.5 115.5" stroke-width="3.5" stroke="rgba(77, 149, 234, 1)"></path><path d="M175 157.5 a3.5 3.5 0 1 0 7 0 a3.5 3.5 0 1 0 -7 0zM217 115.5 a3.5 3.5 0 1 0 7 0 a3.5 3.5 0 1 0 -7 0z" fill="rgba(77, 149, 234, 1)"></path><path d="M598.5 52.5L661.5 52.5L682.5 73.5L703.5 73.5" stroke-width="3.5" stroke="rgba(77, 149, 234, 1)"></path><path d="M595 52.5 a3.5 3.5 0 1 0 7 0 a3.5 3.5 0 1 0 -7 0zM700 73.5 a3.5 3.5 0 1 0 7 0 a3.5 3.5 0 1 0 -7 0z" fill="rgba(77, 149, 234, 1)"></path><path d="M493.5 325.5L430.5 325.5" stroke-width="3.5" stroke="rgba(77, 149, 234, 1)"></path><path d="M490 325.5 a3.5 3.5 0 1 0 7 0 a3.5 3.5 0 1 0 -7 0zM427 325.5 a3.5 3.5 0 1 0 7 0 a3.5 3.5 0 1 0 -7 0z" fill="rgba(77, 149, 234, 1)"></path><path d="M31.5 283.5L10.5 262.5L10.5 220.5" stroke-width="3.5" stroke="rgba(77, 149, 234, 1)"></path><path d="M28 283.5 a3.5 3.5 0 1 0 7 0 a3.5 3.5 0 1 0 -7 0zM7 220.5 a3.5 3.5 0 1 0 7 0 a3.5 3.5 0 1 0 -7 0z" fill="rgba(77, 149, 234, 1)"></path><path d="M430.5 115.5L430.5 178.5" stroke-width="3.5" stroke="rgba(77, 149, 234, 1)"></path><path d="M427 115.5 a3.5 3.5 0 1 0 7 0 a3.5 3.5 0 1 0 -7 0zM427 178.5 a3.5 3.5 0 1 0 7 0 a3.5 3.5 0 1 0 -7 0z" fill="rgba(77, 149, 234, 1)"></path><path d="M262.5 325.5L283.5 304.5L304.5 304.5L325.5 325.5L325.5 367.5L304.5 388.5" stroke-width="3.5" stroke="rgba(77, 149, 234, 1)"></path><path d="M259 325.5 a3.5 3.5 0 1 0 7 0 a3.5 3.5 0 1 0 -7 0zM301 388.5 a3.5 3.5 0 1 0 7 0 a3.5 3.5 0 1 0 -7 0z" fill="rgba(77, 149, 234, 1)"></path><path d="M577.5 115.5L577.5 136.5L556.5 157.5L535.5 157.5L493.5 115.5" stroke-width="3.5" stroke="rgba(77, 149, 234, 1)"></path><path d="M574 115.5 a3.5 3.5 0 1 0 7 0 a3.5 3.5 0 1 0 -7 0zM490 115.5 a3.5 3.5 0 1 0 7 0 a3.5 3.5 0 1 0 -7 0z" fill="rgba(77, 149, 234, 1)"></path><path d="M766.5 409.5L829.5 472.5" stroke-width="3.5" stroke="rgba(77, 149, 234, 1)"></path><path d="M763 409.5 a3.5 3.5 0 1 0 7 0 a3.5 3.5 0 1 0 -7 0zM826 472.5 a3.5 3.5 0 1 0 7 0 a3.5 3.5 0 1 0 -7 0z" fill="rgba(77, 149, 234, 1)"></path><path d="M913.5 304.5L892.5 325.5L850.5 325.5" stroke-width="3.5" stroke="rgba(77, 149, 234, 1)"></path><path d="M910 304.5 a3.5 3.5 0 1 0 7 0 a3.5 3.5 0 1 0 -7 0zM847 325.5 a3.5 3.5 0 1 0 7 0 a3.5 3.5 0 1 0 -7 0z" fill="rgba(77, 149, 234, 1)"></path><path d="M955.5 178.5L997.5 178.5" stroke-width="3.5" stroke="rgba(77, 149, 234, 1)"></path><path d="M952 178.5 a3.5 3.5 0 1 0 7 0 a3.5 3.5 0 1 0 -7 0zM994 178.5 a3.5 3.5 0 1 0 7 0 a3.5 3.5 0 1 0 -7 0z" fill="rgba(77, 149, 234, 1)"></path><path d="M73.5 220.5L115.5 220.5" stroke-width="3.5" stroke="rgba(77, 149, 234, 1)"></path><path d="M70 220.5 a3.5 3.5 0 1 0 7 0 a3.5 3.5 0 1 0 -7 0zM112 220.5 a3.5 3.5 0 1 0 7 0 a3.5 3.5 0 1 0 -7 0z" fill="rgba(77, 149, 234, 1)"></path><path d="M619.5 262.5L640.5 262.5L682.5 220.5" stroke-width="3.5" stroke="rgba(77, 149, 234, 1)"></path><path d="M616 262.5 a3.5 3.5 0 1 0 7 0 a3.5 3.5 0 1 0 -7 0zM679 220.5 a3.5 3.5 0 1 0 7 0 a3.5 3.5 0 1 0 -7 0z" fill="rgba(77, 149, 234, 1)"></path><path d="M31.5 304.5L94.5 241.5L115.5 241.5" stroke-width="3.5" stroke="rgba(77, 149, 234, 1)"></path><path d="M28 304.5 a3.5 3.5 0 1 0 7 0 a3.5 3.5 0 1 0 -7 0zM112 241.5 a3.5 3.5 0 1 0 7 0 a3.5 3.5 0 1 0 -7 0z" fill="rgba(77, 149, 234, 1)"></path><path d="M52.5 199.5L52.5 178.5L157.5 73.5L178.5 73.5" stroke-width="3.5" stroke="rgba(77, 149, 234, 1)"></path><path d="M49 199.5 a3.5 3.5 0 1 0 7 0 a3.5 3.5 0 1 0 -7 0zM175 73.5 a3.5 3.5 0 1 0 7 0 a3.5 3.5 0 1 0 -7 0z" fill="rgba(77, 149, 234, 1)"></path><path d="M346.5 136.5L388.5 94.5" stroke-width="3.5" stroke="rgba(77, 149, 234, 1)"></path><path d="M343 136.5 a3.5 3.5 0 1 0 7 0 a3.5 3.5 0 1 0 -7 0zM385 94.5 a3.5 3.5 0 1 0 7 0 a3.5 3.5 0 1 0 -7 0z" fill="rgba(77, 149, 234, 1)"></path><path d="M73.5 325.5L73.5 388.5" stroke-width="3.5" stroke="rgba(77, 149, 234, 1)"></path><path d="M70 325.5 a3.5 3.5 0 1 0 7 0 a3.5 3.5 0 1 0 -7 0zM70 388.5 a3.5 3.5 0 1 0 7 0 a3.5 3.5 0 1 0 -7 0z" fill="rgba(77, 149, 234, 1)"></path><path d="M514.5 283.5L430.5 283.5" stroke-width="3.5" stroke="rgba(77, 149, 234, 1)"></path><path d="M511 283.5 a3.5 3.5 0 1 0 7 0 a3.5 3.5 0 1 0 -7 0zM427 283.5 a3.5 3.5 0 1 0 7 0 a3.5 3.5 0 1 0 -7 0z" fill="rgba(77, 149, 234, 1)"></path><path d="M52.5 430.5L31.5 451.5L10.5 451.5" stroke-width="3.5" stroke="rgba(77, 149, 234, 1)"></path><path d="M49 430.5 a3.5 3.5 0 1 0 7 0 a3.5 3.5 0 1 0 -7 0zM7 451.5 a3.5 3.5 0 1 0 7 0 a3.5 3.5 0 1 0 -7 0z" fill="rgba(77, 149, 234, 1)"></path><path d="M892.5 283.5L871.5 283.5L850.5 304.5" stroke-width="3.5" stroke="rgba(77, 149, 234, 1)"></path><path d="M889 283.5 a3.5 3.5 0 1 0 7 0 a3.5 3.5 0 1 0 -7 0zM847 304.5 a3.5 3.5 0 1 0 7 0 a3.5 3.5 0 1 0 -7 0z" fill="rgba(77, 149, 234, 1)"></path><path d="M619.5 241.5L661.5 199.5" stroke-width="3.5" stroke="rgba(77, 149, 234, 1)"></path><path d="M616 241.5 a3.5 3.5 0 1 0 7 0 a3.5 3.5 0 1 0 -7 0zM658 199.5 a3.5 3.5 0 1 0 7 0 a3.5 3.5 0 1 0 -7 0z" fill="rgba(77, 149, 234, 1)"></path><path d="M94.5 52.5L73.5 73.5L73.5 94.5" stroke-width="3.5" stroke="rgba(77, 149, 234, 1)"></path><path d="M91 52.5 a3.5 3.5 0 1 0 7 0 a3.5 3.5 0 1 0 -7 0zM70 94.5 a3.5 3.5 0 1 0 7 0 a3.5 3.5 0 1 0 -7 0z" fill="rgba(77, 149, 234, 1)"></path><path d="M220.5 52.5L262.5 52.5L283.5 31.5" stroke-width="3.5" stroke="rgba(77, 149, 234, 1)"></path><path d="M217 52.5 a3.5 3.5 0 1 0 7 0 a3.5 3.5 0 1 0 -7 0zM280 31.5 a3.5 3.5 0 1 0 7 0 a3.5 3.5 0 1 0 -7 0z" fill="rgba(77, 149, 234, 1)"></path><path d="M241.5 325.5L283.5 283.5" stroke-width="3.5" stroke="rgba(77, 149, 234, 1)"></path><path d="M238 325.5 a3.5 3.5 0 1 0 7 0 a3.5 3.5 0 1 0 -7 0zM280 283.5 a3.5 3.5 0 1 0 7 0 a3.5 3.5 0 1 0 -7 0z" fill="rgba(77, 149, 234, 1)"></path><path d="M283.5 73.5L241.5 73.5" stroke-width="3.5" stroke="rgba(77, 149, 234, 1)"></path><path d="M280 73.5 a3.5 3.5 0 1 0 7 0 a3.5 3.5 0 1 0 -7 0zM238 73.5 a3.5 3.5 0 1 0 7 0 a3.5 3.5 0 1 0 -7 0z" fill="rgba(77, 149, 234, 1)"></path><path d="M871.5 409.5L871.5 388.5L850.5 367.5L787.5 367.5" stroke-width="3.5" stroke="rgba(77, 149, 234, 1)"></path><path d="M868 409.5 a3.5 3.5 0 1 0 7 0 a3.5 3.5 0 1 0 -7 0zM784 367.5 a3.5 3.5 0 1 0 7 0 a3.5 3.5 0 1 0 -7 0z" fill="rgba(77, 149, 234, 1)"></path><path d="M598.5 451.5L640.5 451.5" stroke-width="3.5" stroke="rgba(77, 149, 234, 1)"></path><path d="M595 451.5 a3.5 3.5 0 1 0 7 0 a3.5 3.5 0 1 0 -7 0zM637 451.5 a3.5 3.5 0 1 0 7 0 a3.5 3.5 0 1 0 -7 0z" fill="rgba(77, 149, 234, 1)"></path><path d="M871.5 430.5L850.5 430.5L829.5 409.5L829.5 388.5" stroke-width="3.5" stroke="rgba(77, 149, 234, 1)"></path><path d="M868 430.5 a3.5 3.5 0 1 0 7 0 a3.5 3.5 0 1 0 -7 0zM826 388.5 a3.5 3.5 0 1 0 7 0 a3.5 3.5 0 1 0 -7 0z" fill="rgba(77, 149, 234, 1)"></path><path d="M388.5 409.5L367.5 388.5L367.5 346.5" stroke-width="3.5" stroke="rgba(77, 149, 234, 1)"></path><path d="M385 409.5 a3.5 3.5 0 1 0 7 0 a3.5 3.5 0 1 0 -7 0zM364 346.5 a3.5 3.5 0 1 0 7 0 a3.5 3.5 0 1 0 -7 0z" fill="rgba(77, 149, 234, 1)"></path><path d="M472.5 367.5L493.5 367.5L535.5 325.5" stroke-width="3.5" stroke="rgba(77, 149, 234, 1)"></path><path d="M469 367.5 a3.5 3.5 0 1 0 7 0 a3.5 3.5 0 1 0 -7 0zM532 325.5 a3.5 3.5 0 1 0 7 0 a3.5 3.5 0 1 0 -7 0z" fill="rgba(77, 149, 234, 1)"></path><path d="M766.5 283.5L724.5 283.5L703.5 304.5L703.5 325.5L724.5 346.5" stroke-width="3.5" stroke="rgba(77, 149, 234, 1)"></path><path d="M763 283.5 a3.5 3.5 0 1 0 7 0 a3.5 3.5 0 1 0 -7 0zM721 346.5 a3.5 3.5 0 1 0 7 0 a3.5 3.5 0 1 0 -7 0z" fill="rgba(77, 149, 234, 1)"></path><path d="M850.5 52.5L892.5 52.5" stroke-width="3.5" stroke="rgba(77, 149, 234, 1)"></path><path d="M847 52.5 a3.5 3.5 0 1 0 7 0 a3.5 3.5 0 1 0 -7 0zM889 52.5 a3.5 3.5 0 1 0 7 0 a3.5 3.5 0 1 0 -7 0z" fill="rgba(77, 149, 234, 1)"></path><path d="M73.5 451.5L115.5 451.5" stroke-width="3.5" stroke="rgba(77, 149, 234, 1)"></path><path d="M70 451.5 a3.5 3.5 0 1 0 7 0 a3.5 3.5 0 1 0 -7 0zM112 451.5 a3.5 3.5 0 1 0 7 0 a3.5 3.5 0 1 0 -7 0z" fill="rgba(77, 149, 234, 1)"></path><path d="M136.5 115.5L94.5 157.5" stroke-width="3.5" stroke="rgba(77, 149, 234, 1)"></path><path d="M133 115.5 a3.5 3.5 0 1 0 7 0 a3.5 3.5 0 1 0 -7 0zM91 157.5 a3.5 3.5 0 1 0 7 0 a3.5 3.5 0 1 0 -7 0z" fill="rgba(77, 149, 234, 1)"></path><path d="M997.5 388.5L976.5 367.5L976.5 346.5" stroke-width="3.5" stroke="rgba(77, 149, 234, 1)"></path><path d="M994 388.5 a3.5 3.5 0 1 0 7 0 a3.5 3.5 0 1 0 -7 0zM973 346.5 a3.5 3.5 0 1 0 7 0 a3.5 3.5 0 1 0 -7 0z" fill="rgba(77, 149, 234, 1)"></path><path d="M766.5 304.5L745.5 325.5L724.5 325.5" stroke-width="3.5" stroke="rgba(77, 149, 234, 1)"></path><path d="M763 304.5 a3.5 3.5 0 1 0 7 0 a3.5 3.5 0 1 0 -7 0zM721 325.5 a3.5 3.5 0 1 0 7 0 a3.5 3.5 0 1 0 -7 0z" fill="rgba(77, 149, 234, 1)"></path><path d="M766.5 31.5L724.5 31.5" stroke-width="3.5" stroke="rgba(77, 149, 234, 1)"></path><path d="M763 31.5 a3.5 3.5 0 1 0 7 0 a3.5 3.5 0 1 0 -7 0zM721 31.5 a3.5 3.5 0 1 0 7 0 a3.5 3.5 0 1 0 -7 0z" fill="rgba(77, 149, 234, 1)"></path><path d="M598.5 472.5L556.5 472.5" stroke-width="3.5" stroke="rgba(77, 149, 234, 1)"></path><path d="M595 472.5 a3.5 3.5 0 1 0 7 0 a3.5 3.5 0 1 0 -7 0zM553 472.5 a3.5 3.5 0 1 0 7 0 a3.5 3.5 0 1 0 -7 0z" fill="rgba(77, 149, 234, 1)"></path><path d="M976.5 220.5L934.5 220.5" stroke-width="3.5" stroke="rgba(77, 149, 234, 1)"></path><path d="M973 220.5 a3.5 3.5 0 1 0 7 0 a3.5 3.5 0 1 0 -7 0zM931 220.5 a3.5 3.5 0 1 0 7 0 a3.5 3.5 0 1 0 -7 0z" fill="rgba(77, 149, 234, 1)"></path></g></g><defs><mask id="SvgjsMask1060"><rect width="1000" height="500" fill="#ffffff"></rect></mask></defs></svg>