<svg xmlns="http://www.w3.org/2000/svg" version="1.1" xmlns:xlink="http://www.w3.org/1999/xlink" xmlns:svgjs="http://svgjs.dev/svgjs" width="1500" height="800" preserveAspectRatio="none" viewBox="0 0 1500 800"><g mask="url(&quot;#SvgjsMask1066&quot;)" fill="none"><g><path d="M220.5 388.5L136.5 304.5L136.5 31.5L157.5 10.5L178.5 10.5" stroke-width="3.5" stroke="rgba(77, 149, 234, 1)"></path><path d="M217 388.5 a3.5 3.5 0 1 0 7 0 a3.5 3.5 0 1 0 -7 0zM175 10.5 a3.5 3.5 0 1 0 7 0 a3.5 3.5 0 1 0 -7 0z" fill="rgba(77, 149, 234, 1)"></path><path d="M871.5 766.5L934.5 766.5L955.5 745.5L976.5 745.5L1102.5 619.5L1270.5 619.5" stroke-width="3.5" stroke="rgba(77, 149, 234, 1)"></path><path d="M868 766.5 a3.5 3.5 0 1 0 7 0 a3.5 3.5 0 1 0 -7 0zM1267 619.5 a3.5 3.5 0 1 0 7 0 a3.5 3.5 0 1 0 -7 0z" fill="rgba(77, 149, 234, 1)"></path><path d="M556.5 472.5L955.5 472.5" stroke-width="3.5" stroke="rgba(77, 149, 234, 1)"></path><path d="M553 472.5 a3.5 3.5 0 1 0 7 0 a3.5 3.5 0 1 0 -7 0zM952 472.5 a3.5 3.5 0 1 0 7 0 a3.5 3.5 0 1 0 -7 0z" fill="rgba(77, 149, 234, 1)"></path><path d="M1459.5 640.5L1459.5 808.5" stroke-width="3.5" stroke="rgba(77, 149, 234, 1)"></path><path d="M1456 640.5 a3.5 3.5 0 1 0 7 0 a3.5 3.5 0 1 0 -7 0zM1456 808.5 a3.5 3.5 0 1 0 7 0 a3.5 3.5 0 1 0 -7 0z" fill="rgba(77, 149, 234, 1)"></path><path d="M871.5 220.5L703.5 52.5L703.5 31.5L682.5 10.5L661.5 10.5L598.5 73.5L598.5 178.5" stroke-width="3.5" stroke="rgba(77, 149, 234, 1)"></path><path d="M868 220.5 a3.5 3.5 0 1 0 7 0 a3.5 3.5 0 1 0 -7 0zM595 178.5 a3.5 3.5 0 1 0 7 0 a3.5 3.5 0 1 0 -7 0z" fill="rgba(77, 149, 234, 1)"></path><path d="M73.5 304.5L10.5 241.5L10.5 10.5" stroke-width="3.5" stroke="rgba(77, 149, 234, 1)"></path><path d="M70 304.5 a3.5 3.5 0 1 0 7 0 a3.5 3.5 0 1 0 -7 0zM7 10.5 a3.5 3.5 0 1 0 7 0 a3.5 3.5 0 1 0 -7 0z" fill="rgba(77, 149, 234, 1)"></path><path d="M850.5 136.5L1249.5 136.5" stroke-width="3.5" stroke="rgba(77, 149, 234, 1)"></path><path d="M847 136.5 a3.5 3.5 0 1 0 7 0 a3.5 3.5 0 1 0 -7 0zM1246 136.5 a3.5 3.5 0 1 0 7 0 a3.5 3.5 0 1 0 -7 0z" fill="rgba(77, 149, 234, 1)"></path><path d="M199.5 661.5L157.5 661.5L73.5 577.5L10.5 577.5" stroke-width="3.5" stroke="rgba(77, 149, 234, 1)"></path><path d="M196 661.5 a3.5 3.5 0 1 0 7 0 a3.5 3.5 0 1 0 -7 0zM7 577.5 a3.5 3.5 0 1 0 7 0 a3.5 3.5 0 1 0 -7 0z" fill="rgba(77, 149, 234, 1)"></path><path d="M787.5 598.5L892.5 493.5L1123.5 493.5L1186.5 430.5" stroke-width="3.5" stroke="rgba(77, 149, 234, 1)"></path><path d="M784 598.5 a3.5 3.5 0 1 0 7 0 a3.5 3.5 0 1 0 -7 0zM1183 430.5 a3.5 3.5 0 1 0 7 0 a3.5 3.5 0 1 0 -7 0z" fill="rgba(77, 149, 234, 1)"></path><path d="M325.5 304.5L325.5 31.5L304.5 10.5L199.5 10.5" stroke-width="3.5" stroke="rgba(77, 149, 234, 1)"></path><path d="M322 304.5 a3.5 3.5 0 1 0 7 0 a3.5 3.5 0 1 0 -7 0zM196 10.5 a3.5 3.5 0 1 0 7 0 a3.5 3.5 0 1 0 -7 0z" fill="rgba(77, 149, 234, 1)"></path><path d="M1123.5 787.5L1102.5 808.5L724.5 808.5" stroke-width="3.5" stroke="rgba(77, 149, 234, 1)"></path><path d="M1120 787.5 a3.5 3.5 0 1 0 7 0 a3.5 3.5 0 1 0 -7 0zM721 808.5 a3.5 3.5 0 1 0 7 0 a3.5 3.5 0 1 0 -7 0z" fill="rgba(77, 149, 234, 1)"></path><path d="M577.5 430.5L682.5 430.5L850.5 262.5L850.5 220.5L766.5 136.5" stroke-width="3.5" stroke="rgba(77, 149, 234, 1)"></path><path d="M574 430.5 a3.5 3.5 0 1 0 7 0 a3.5 3.5 0 1 0 -7 0zM763 136.5 a3.5 3.5 0 1 0 7 0 a3.5 3.5 0 1 0 -7 0z" fill="rgba(77, 149, 234, 1)"></path><path d="M262.5 367.5L556.5 661.5L661.5 661.5" stroke-width="3.5" stroke="rgba(77, 149, 234, 1)"></path><path d="M259 367.5 a3.5 3.5 0 1 0 7 0 a3.5 3.5 0 1 0 -7 0zM658 661.5 a3.5 3.5 0 1 0 7 0 a3.5 3.5 0 1 0 -7 0z" fill="rgba(77, 149, 234, 1)"></path><path d="M598.5 52.5L640.5 10.5" stroke-width="3.5" stroke="rgba(77, 149, 234, 1)"></path><path d="M595 52.5 a3.5 3.5 0 1 0 7 0 a3.5 3.5 0 1 0 -7 0zM637 10.5 a3.5 3.5 0 1 0 7 0 a3.5 3.5 0 1 0 -7 0z" fill="rgba(77, 149, 234, 1)"></path><path d="M241.5 346.5L241.5 304.5L157.5 220.5L157.5 31.5" stroke-width="3.5" stroke="rgba(77, 149, 234, 1)"></path><path d="M238 346.5 a3.5 3.5 0 1 0 7 0 a3.5 3.5 0 1 0 -7 0zM154 31.5 a3.5 3.5 0 1 0 7 0 a3.5 3.5 0 1 0 -7 0z" fill="rgba(77, 149, 234, 1)"></path><path d="M367.5 556.5L262.5 556.5L178.5 640.5L157.5 640.5L10.5 493.5L10.5 451.5" stroke-width="3.5" stroke="rgba(77, 149, 234, 1)"></path><path d="M364 556.5 a3.5 3.5 0 1 0 7 0 a3.5 3.5 0 1 0 -7 0zM7 451.5 a3.5 3.5 0 1 0 7 0 a3.5 3.5 0 1 0 -7 0z" fill="rgba(77, 149, 234, 1)"></path><path d="M829.5 682.5L766.5 682.5L598.5 514.5L430.5 514.5" stroke-width="3.5" stroke="rgba(77, 149, 234, 1)"></path><path d="M826 682.5 a3.5 3.5 0 1 0 7 0 a3.5 3.5 0 1 0 -7 0zM427 514.5 a3.5 3.5 0 1 0 7 0 a3.5 3.5 0 1 0 -7 0z" fill="rgba(77, 149, 234, 1)"></path><path d="M1144.5 493.5L1291.5 493.5L1375.5 409.5L1375.5 241.5" stroke-width="3.5" stroke="rgba(77, 149, 234, 1)"></path><path d="M1141 493.5 a3.5 3.5 0 1 0 7 0 a3.5 3.5 0 1 0 -7 0zM1372 241.5 a3.5 3.5 0 1 0 7 0 a3.5 3.5 0 1 0 -7 0z" fill="rgba(77, 149, 234, 1)"></path><path d="M1018.5 766.5L1018.5 724.5L1102.5 640.5L1291.5 640.5L1375.5 724.5" stroke-width="3.5" stroke="rgba(77, 149, 234, 1)"></path><path d="M1015 766.5 a3.5 3.5 0 1 0 7 0 a3.5 3.5 0 1 0 -7 0zM1372 724.5 a3.5 3.5 0 1 0 7 0 a3.5 3.5 0 1 0 -7 0z" fill="rgba(77, 149, 234, 1)"></path><path d="M724.5 493.5L871.5 493.5" stroke-width="3.5" stroke="rgba(77, 149, 234, 1)"></path><path d="M721 493.5 a3.5 3.5 0 1 0 7 0 a3.5 3.5 0 1 0 -7 0zM868 493.5 a3.5 3.5 0 1 0 7 0 a3.5 3.5 0 1 0 -7 0z" fill="rgba(77, 149, 234, 1)"></path><path d="M430.5 724.5L430.5 787.5L409.5 808.5L178.5 808.5L157.5 787.5L94.5 787.5" stroke-width="3.5" stroke="rgba(77, 149, 234, 1)"></path><path d="M427 724.5 a3.5 3.5 0 1 0 7 0 a3.5 3.5 0 1 0 -7 0zM91 787.5 a3.5 3.5 0 1 0 7 0 a3.5 3.5 0 1 0 -7 0z" fill="rgba(77, 149, 234, 1)"></path><path d="M913.5 556.5L934.5 556.5L976.5 514.5L1249.5 514.5L1270.5 535.5L1312.5 535.5" stroke-width="3.5" stroke="rgba(77, 149, 234, 1)"></path><path d="M910 556.5 a3.5 3.5 0 1 0 7 0 a3.5 3.5 0 1 0 -7 0zM1309 535.5 a3.5 3.5 0 1 0 7 0 a3.5 3.5 0 1 0 -7 0z" fill="rgba(77, 149, 234, 1)"></path><path d="M1249.5 73.5L1375.5 199.5L1375.5 220.5L1501.5 346.5L1501.5 472.5" stroke-width="3.5" stroke="rgba(77, 149, 234, 1)"></path><path d="M1246 73.5 a3.5 3.5 0 1 0 7 0 a3.5 3.5 0 1 0 -7 0zM1498 472.5 a3.5 3.5 0 1 0 7 0 a3.5 3.5 0 1 0 -7 0z" fill="rgba(77, 149, 234, 1)"></path><path d="M304.5 325.5L409.5 325.5L577.5 157.5L577.5 31.5" stroke-width="3.5" stroke="rgba(77, 149, 234, 1)"></path><path d="M301 325.5 a3.5 3.5 0 1 0 7 0 a3.5 3.5 0 1 0 -7 0zM574 31.5 a3.5 3.5 0 1 0 7 0 a3.5 3.5 0 1 0 -7 0z" fill="rgba(77, 149, 234, 1)"></path><path d="M430.5 409.5L430.5 493.5" stroke-width="3.5" stroke="rgba(77, 149, 234, 1)"></path><path d="M427 409.5 a3.5 3.5 0 1 0 7 0 a3.5 3.5 0 1 0 -7 0zM427 493.5 a3.5 3.5 0 1 0 7 0 a3.5 3.5 0 1 0 -7 0z" fill="rgba(77, 149, 234, 1)"></path><path d="M10.5 745.5L52.5 703.5L52.5 619.5L31.5 598.5L10.5 598.5" stroke-width="3.5" stroke="rgba(77, 149, 234, 1)"></path><path d="M7 745.5 a3.5 3.5 0 1 0 7 0 a3.5 3.5 0 1 0 -7 0zM7 598.5 a3.5 3.5 0 1 0 7 0 a3.5 3.5 0 1 0 -7 0z" fill="rgba(77, 149, 234, 1)"></path><path d="M1396.5 808.5L1438.5 808.5" stroke-width="3.5" stroke="rgba(77, 149, 234, 1)"></path><path d="M1393 808.5 a3.5 3.5 0 1 0 7 0 a3.5 3.5 0 1 0 -7 0zM1435 808.5 a3.5 3.5 0 1 0 7 0 a3.5 3.5 0 1 0 -7 0z" fill="rgba(77, 149, 234, 1)"></path><path d="M430.5 388.5L388.5 346.5L262.5 346.5" stroke-width="3.5" stroke="rgba(77, 149, 234, 1)"></path><path d="M427 388.5 a3.5 3.5 0 1 0 7 0 a3.5 3.5 0 1 0 -7 0zM259 346.5 a3.5 3.5 0 1 0 7 0 a3.5 3.5 0 1 0 -7 0z" fill="rgba(77, 149, 234, 1)"></path><path d="M976.5 283.5L976.5 472.5" stroke-width="3.5" stroke="rgba(77, 149, 234, 1)"></path><path d="M973 283.5 a3.5 3.5 0 1 0 7 0 a3.5 3.5 0 1 0 -7 0zM973 472.5 a3.5 3.5 0 1 0 7 0 a3.5 3.5 0 1 0 -7 0z" fill="rgba(77, 149, 234, 1)"></path><path d="M1375.5 703.5L1312.5 640.5L1312.5 556.5L1480.5 388.5L1480.5 346.5L1438.5 304.5" stroke-width="3.5" stroke="rgba(77, 149, 234, 1)"></path><path d="M1372 703.5 a3.5 3.5 0 1 0 7 0 a3.5 3.5 0 1 0 -7 0zM1435 304.5 a3.5 3.5 0 1 0 7 0 a3.5 3.5 0 1 0 -7 0z" fill="rgba(77, 149, 234, 1)"></path><path d="M871.5 388.5L871.5 283.5L997.5 157.5L1165.5 157.5" stroke-width="3.5" stroke="rgba(77, 149, 234, 1)"></path><path d="M868 388.5 a3.5 3.5 0 1 0 7 0 a3.5 3.5 0 1 0 -7 0zM1162 157.5 a3.5 3.5 0 1 0 7 0 a3.5 3.5 0 1 0 -7 0z" fill="rgba(77, 149, 234, 1)"></path><path d="M94.5 745.5L94.5 619.5L73.5 598.5L52.5 598.5" stroke-width="3.5" stroke="rgba(77, 149, 234, 1)"></path><path d="M91 745.5 a3.5 3.5 0 1 0 7 0 a3.5 3.5 0 1 0 -7 0zM49 598.5 a3.5 3.5 0 1 0 7 0 a3.5 3.5 0 1 0 -7 0z" fill="rgba(77, 149, 234, 1)"></path><path d="M493.5 178.5L472.5 157.5L346.5 157.5" stroke-width="3.5" stroke="rgba(77, 149, 234, 1)"></path><path d="M490 178.5 a3.5 3.5 0 1 0 7 0 a3.5 3.5 0 1 0 -7 0zM343 157.5 a3.5 3.5 0 1 0 7 0 a3.5 3.5 0 1 0 -7 0z" fill="rgba(77, 149, 234, 1)"></path><path d="M1312.5 283.5L1333.5 304.5L1333.5 325.5L1354.5 346.5L1354.5 409.5L1291.5 472.5L1270.5 472.5L1081.5 283.5" stroke-width="3.5" stroke="rgba(77, 149, 234, 1)"></path><path d="M1309 283.5 a3.5 3.5 0 1 0 7 0 a3.5 3.5 0 1 0 -7 0zM1078 283.5 a3.5 3.5 0 1 0 7 0 a3.5 3.5 0 1 0 -7 0z" fill="rgba(77, 149, 234, 1)"></path><path d="M1438.5 577.5L1438.5 787.5" stroke-width="3.5" stroke="rgba(77, 149, 234, 1)"></path><path d="M1435 577.5 a3.5 3.5 0 1 0 7 0 a3.5 3.5 0 1 0 -7 0zM1435 787.5 a3.5 3.5 0 1 0 7 0 a3.5 3.5 0 1 0 -7 0z" fill="rgba(77, 149, 234, 1)"></path><path d="M1438.5 514.5L1354.5 598.5L1354.5 661.5L1375.5 682.5L1417.5 682.5" stroke-width="3.5" stroke="rgba(77, 149, 234, 1)"></path><path d="M1435 514.5 a3.5 3.5 0 1 0 7 0 a3.5 3.5 0 1 0 -7 0zM1414 682.5 a3.5 3.5 0 1 0 7 0 a3.5 3.5 0 1 0 -7 0z" fill="rgba(77, 149, 234, 1)"></path><path d="M1081.5 388.5L997.5 388.5" stroke-width="3.5" stroke="rgba(77, 149, 234, 1)"></path><path d="M1078 388.5 a3.5 3.5 0 1 0 7 0 a3.5 3.5 0 1 0 -7 0zM994 388.5 a3.5 3.5 0 1 0 7 0 a3.5 3.5 0 1 0 -7 0z" fill="rgba(77, 149, 234, 1)"></path><path d="M1333.5 493.5L1312.5 514.5L1270.5 514.5" stroke-width="3.5" stroke="rgba(77, 149, 234, 1)"></path><path d="M1330 493.5 a3.5 3.5 0 1 0 7 0 a3.5 3.5 0 1 0 -7 0zM1267 514.5 a3.5 3.5 0 1 0 7 0 a3.5 3.5 0 1 0 -7 0z" fill="rgba(77, 149, 234, 1)"></path><path d="M1312.5 52.5L1354.5 10.5L1501.5 10.5" stroke-width="3.5" stroke="rgba(77, 149, 234, 1)"></path><path d="M1309 52.5 a3.5 3.5 0 1 0 7 0 a3.5 3.5 0 1 0 -7 0zM1498 10.5 a3.5 3.5 0 1 0 7 0 a3.5 3.5 0 1 0 -7 0z" fill="rgba(77, 149, 234, 1)"></path><path d="M1081.5 325.5L1081.5 304.5L1039.5 262.5L1039.5 178.5" stroke-width="3.5" stroke="rgba(77, 149, 234, 1)"></path><path d="M1078 325.5 a3.5 3.5 0 1 0 7 0 a3.5 3.5 0 1 0 -7 0zM1036 178.5 a3.5 3.5 0 1 0 7 0 a3.5 3.5 0 1 0 -7 0z" fill="rgba(77, 149, 234, 1)"></path><path d="M409.5 682.5L388.5 703.5L241.5 703.5L178.5 766.5L94.5 766.5L52.5 808.5L10.5 808.5" stroke-width="3.5" stroke="rgba(77, 149, 234, 1)"></path><path d="M406 682.5 a3.5 3.5 0 1 0 7 0 a3.5 3.5 0 1 0 -7 0zM7 808.5 a3.5 3.5 0 1 0 7 0 a3.5 3.5 0 1 0 -7 0z" fill="rgba(77, 149, 234, 1)"></path><path d="M1270.5 388.5L1207.5 325.5L1186.5 325.5L1060.5 199.5L1060.5 178.5" stroke-width="3.5" stroke="rgba(77, 149, 234, 1)"></path><path d="M1267 388.5 a3.5 3.5 0 1 0 7 0 a3.5 3.5 0 1 0 -7 0zM1057 178.5 a3.5 3.5 0 1 0 7 0 a3.5 3.5 0 1 0 -7 0z" fill="rgba(77, 149, 234, 1)"></path><path d="M1459.5 241.5L1417.5 241.5L1396.5 220.5L1396.5 199.5L1417.5 178.5L1417.5 31.5" stroke-width="3.5" stroke="rgba(77, 149, 234, 1)"></path><path d="M1456 241.5 a3.5 3.5 0 1 0 7 0 a3.5 3.5 0 1 0 -7 0zM1414 31.5 a3.5 3.5 0 1 0 7 0 a3.5 3.5 0 1 0 -7 0z" fill="rgba(77, 149, 234, 1)"></path><path d="M661.5 493.5L451.5 493.5" stroke-width="3.5" stroke="rgba(77, 149, 234, 1)"></path><path d="M658 493.5 a3.5 3.5 0 1 0 7 0 a3.5 3.5 0 1 0 -7 0zM448 493.5 a3.5 3.5 0 1 0 7 0 a3.5 3.5 0 1 0 -7 0z" fill="rgba(77, 149, 234, 1)"></path><path d="M1186.5 577.5L1228.5 535.5L1249.5 535.5L1291.5 577.5L1291.5 619.5" stroke-width="3.5" stroke="rgba(77, 149, 234, 1)"></path><path d="M1183 577.5 a3.5 3.5 0 1 0 7 0 a3.5 3.5 0 1 0 -7 0zM1288 619.5 a3.5 3.5 0 1 0 7 0 a3.5 3.5 0 1 0 -7 0z" fill="rgba(77, 149, 234, 1)"></path><path d="M808.5 52.5L871.5 115.5L997.5 115.5L1102.5 10.5L1207.5 10.5" stroke-width="3.5" stroke="rgba(77, 149, 234, 1)"></path><path d="M805 52.5 a3.5 3.5 0 1 0 7 0 a3.5 3.5 0 1 0 -7 0zM1204 10.5 a3.5 3.5 0 1 0 7 0 a3.5 3.5 0 1 0 -7 0z" fill="rgba(77, 149, 234, 1)"></path><path d="M871.5 52.5L892.5 52.5L934.5 10.5L1081.5 10.5" stroke-width="3.5" stroke="rgba(77, 149, 234, 1)"></path><path d="M868 52.5 a3.5 3.5 0 1 0 7 0 a3.5 3.5 0 1 0 -7 0zM1078 10.5 a3.5 3.5 0 1 0 7 0 a3.5 3.5 0 1 0 -7 0z" fill="rgba(77, 149, 234, 1)"></path><path d="M94.5 451.5L52.5 493.5L31.5 493.5" stroke-width="3.5" stroke="rgba(77, 149, 234, 1)"></path><path d="M91 451.5 a3.5 3.5 0 1 0 7 0 a3.5 3.5 0 1 0 -7 0zM28 493.5 a3.5 3.5 0 1 0 7 0 a3.5 3.5 0 1 0 -7 0z" fill="rgba(77, 149, 234, 1)"></path><path d="M472.5 640.5L577.5 745.5L766.5 745.5L808.5 787.5" stroke-width="3.5" stroke="rgba(77, 149, 234, 1)"></path><path d="M469 640.5 a3.5 3.5 0 1 0 7 0 a3.5 3.5 0 1 0 -7 0zM805 787.5 a3.5 3.5 0 1 0 7 0 a3.5 3.5 0 1 0 -7 0z" fill="rgba(77, 149, 234, 1)"></path><path d="M94.5 325.5L10.5 325.5" stroke-width="3.5" stroke="rgba(77, 149, 234, 1)"></path><path d="M91 325.5 a3.5 3.5 0 1 0 7 0 a3.5 3.5 0 1 0 -7 0zM7 325.5 a3.5 3.5 0 1 0 7 0 a3.5 3.5 0 1 0 -7 0z" fill="rgba(77, 149, 234, 1)"></path><path d="M31.5 703.5L10.5 682.5L10.5 619.5" stroke-width="3.5" stroke="rgba(77, 149, 234, 1)"></path><path d="M28 703.5 a3.5 3.5 0 1 0 7 0 a3.5 3.5 0 1 0 -7 0zM7 619.5 a3.5 3.5 0 1 0 7 0 a3.5 3.5 0 1 0 -7 0z" fill="rgba(77, 149, 234, 1)"></path><path d="M598.5 577.5L640.5 577.5L808.5 745.5L808.5 766.5" stroke-width="3.5" stroke="rgba(77, 149, 234, 1)"></path><path d="M595 577.5 a3.5 3.5 0 1 0 7 0 a3.5 3.5 0 1 0 -7 0zM805 766.5 a3.5 3.5 0 1 0 7 0 a3.5 3.5 0 1 0 -7 0z" fill="rgba(77, 149, 234, 1)"></path><path d="M745.5 619.5L850.5 514.5" stroke-width="3.5" stroke="rgba(77, 149, 234, 1)"></path><path d="M742 619.5 a3.5 3.5 0 1 0 7 0 a3.5 3.5 0 1 0 -7 0zM847 514.5 a3.5 3.5 0 1 0 7 0 a3.5 3.5 0 1 0 -7 0z" fill="rgba(77, 149, 234, 1)"></path><path d="M10.5 430.5L94.5 430.5L220.5 556.5L220.5 577.5L178.5 619.5L157.5 619.5L136.5 598.5L136.5 577.5L178.5 535.5" stroke-width="3.5" stroke="rgba(77, 149, 234, 1)"></path><path d="M7 430.5 a3.5 3.5 0 1 0 7 0 a3.5 3.5 0 1 0 -7 0zM175 535.5 a3.5 3.5 0 1 0 7 0 a3.5 3.5 0 1 0 -7 0z" fill="rgba(77, 149, 234, 1)"></path><path d="M73.5 808.5L157.5 808.5" stroke-width="3.5" stroke="rgba(77, 149, 234, 1)"></path><path d="M70 808.5 a3.5 3.5 0 1 0 7 0 a3.5 3.5 0 1 0 -7 0zM154 808.5 a3.5 3.5 0 1 0 7 0 a3.5 3.5 0 1 0 -7 0z" fill="rgba(77, 149, 234, 1)"></path><path d="M262.5 514.5L325.5 451.5" stroke-width="3.5" stroke="rgba(77, 149, 234, 1)"></path><path d="M259 514.5 a3.5 3.5 0 1 0 7 0 a3.5 3.5 0 1 0 -7 0zM322 451.5 a3.5 3.5 0 1 0 7 0 a3.5 3.5 0 1 0 -7 0z" fill="rgba(77, 149, 234, 1)"></path><path d="M766.5 787.5L745.5 766.5L514.5 766.5L472.5 724.5L472.5 682.5L409.5 619.5" stroke-width="3.5" stroke="rgba(77, 149, 234, 1)"></path><path d="M763 787.5 a3.5 3.5 0 1 0 7 0 a3.5 3.5 0 1 0 -7 0zM406 619.5 a3.5 3.5 0 1 0 7 0 a3.5 3.5 0 1 0 -7 0z" fill="rgba(77, 149, 234, 1)"></path><path d="M997.5 451.5L997.5 409.5" stroke-width="3.5" stroke="rgba(77, 149, 234, 1)"></path><path d="M994 451.5 a3.5 3.5 0 1 0 7 0 a3.5 3.5 0 1 0 -7 0zM994 409.5 a3.5 3.5 0 1 0 7 0 a3.5 3.5 0 1 0 -7 0z" fill="rgba(77, 149, 234, 1)"></path><path d="M1375.5 808.5L1375.5 745.5L1291.5 661.5L1102.5 661.5L1039.5 724.5" stroke-width="3.5" stroke="rgba(77, 149, 234, 1)"></path><path d="M1372 808.5 a3.5 3.5 0 1 0 7 0 a3.5 3.5 0 1 0 -7 0zM1036 724.5 a3.5 3.5 0 1 0 7 0 a3.5 3.5 0 1 0 -7 0z" fill="rgba(77, 149, 234, 1)"></path><path d="M640.5 535.5L808.5 535.5L829.5 514.5" stroke-width="3.5" stroke="rgba(77, 149, 234, 1)"></path><path d="M637 535.5 a3.5 3.5 0 1 0 7 0 a3.5 3.5 0 1 0 -7 0zM826 514.5 a3.5 3.5 0 1 0 7 0 a3.5 3.5 0 1 0 -7 0z" fill="rgba(77, 149, 234, 1)"></path><path d="M388.5 619.5L220.5 619.5L199.5 640.5" stroke-width="3.5" stroke="rgba(77, 149, 234, 1)"></path><path d="M385 619.5 a3.5 3.5 0 1 0 7 0 a3.5 3.5 0 1 0 -7 0zM196 640.5 a3.5 3.5 0 1 0 7 0 a3.5 3.5 0 1 0 -7 0z" fill="rgba(77, 149, 234, 1)"></path><path d="M997.5 304.5L1018.5 283.5L1039.5 283.5L1060.5 304.5L1060.5 325.5L1018.5 367.5L997.5 367.5" stroke-width="3.5" stroke="rgba(77, 149, 234, 1)"></path><path d="M994 304.5 a3.5 3.5 0 1 0 7 0 a3.5 3.5 0 1 0 -7 0zM994 367.5 a3.5 3.5 0 1 0 7 0 a3.5 3.5 0 1 0 -7 0z" fill="rgba(77, 149, 234, 1)"></path><path d="M31.5 199.5L31.5 241.5L262.5 472.5L283.5 472.5L304.5 451.5L304.5 430.5L241.5 367.5" stroke-width="3.5" stroke="rgba(77, 149, 234, 1)"></path><path d="M28 199.5 a3.5 3.5 0 1 0 7 0 a3.5 3.5 0 1 0 -7 0zM238 367.5 a3.5 3.5 0 1 0 7 0 a3.5 3.5 0 1 0 -7 0z" fill="rgba(77, 149, 234, 1)"></path><path d="M52.5 178.5L52.5 241.5L115.5 304.5" stroke-width="3.5" stroke="rgba(77, 149, 234, 1)"></path><path d="M49 178.5 a3.5 3.5 0 1 0 7 0 a3.5 3.5 0 1 0 -7 0zM112 304.5 a3.5 3.5 0 1 0 7 0 a3.5 3.5 0 1 0 -7 0z" fill="rgba(77, 149, 234, 1)"></path><path d="M1123.5 220.5L1186.5 283.5L1249.5 283.5L1333.5 367.5L1333.5 409.5L1291.5 451.5L1270.5 451.5L1186.5 367.5" stroke-width="3.5" stroke="rgba(77, 149, 234, 1)"></path><path d="M1120 220.5 a3.5 3.5 0 1 0 7 0 a3.5 3.5 0 1 0 -7 0zM1183 367.5 a3.5 3.5 0 1 0 7 0 a3.5 3.5 0 1 0 -7 0z" fill="rgba(77, 149, 234, 1)"></path><path d="M1396.5 787.5L1396.5 745.5L1417.5 724.5L1417.5 703.5" stroke-width="3.5" stroke="rgba(77, 149, 234, 1)"></path><path d="M1393 787.5 a3.5 3.5 0 1 0 7 0 a3.5 3.5 0 1 0 -7 0zM1414 703.5 a3.5 3.5 0 1 0 7 0 a3.5 3.5 0 1 0 -7 0z" fill="rgba(77, 149, 234, 1)"></path><path d="M535.5 682.5L430.5 577.5" stroke-width="3.5" stroke="rgba(77, 149, 234, 1)"></path><path d="M532 682.5 a3.5 3.5 0 1 0 7 0 a3.5 3.5 0 1 0 -7 0zM427 577.5 a3.5 3.5 0 1 0 7 0 a3.5 3.5 0 1 0 -7 0z" fill="rgba(77, 149, 234, 1)"></path><path d="M535.5 31.5L556.5 52.5L556.5 157.5L430.5 283.5L409.5 283.5L388.5 304.5" stroke-width="3.5" stroke="rgba(77, 149, 234, 1)"></path><path d="M532 31.5 a3.5 3.5 0 1 0 7 0 a3.5 3.5 0 1 0 -7 0zM385 304.5 a3.5 3.5 0 1 0 7 0 a3.5 3.5 0 1 0 -7 0z" fill="rgba(77, 149, 234, 1)"></path><path d="M892.5 73.5L997.5 73.5L1039.5 31.5L1060.5 31.5" stroke-width="3.5" stroke="rgba(77, 149, 234, 1)"></path><path d="M889 73.5 a3.5 3.5 0 1 0 7 0 a3.5 3.5 0 1 0 -7 0zM1057 31.5 a3.5 3.5 0 1 0 7 0 a3.5 3.5 0 1 0 -7 0z" fill="rgba(77, 149, 234, 1)"></path><path d="M1249.5 178.5L1354.5 283.5L1354.5 325.5" stroke-width="3.5" stroke="rgba(77, 149, 234, 1)"></path><path d="M1246 178.5 a3.5 3.5 0 1 0 7 0 a3.5 3.5 0 1 0 -7 0zM1351 325.5 a3.5 3.5 0 1 0 7 0 a3.5 3.5 0 1 0 -7 0z" fill="rgba(77, 149, 234, 1)"></path><path d="M388.5 766.5L367.5 787.5L283.5 787.5L262.5 766.5L262.5 724.5" stroke-width="3.5" stroke="rgba(77, 149, 234, 1)"></path><path d="M385 766.5 a3.5 3.5 0 1 0 7 0 a3.5 3.5 0 1 0 -7 0zM259 724.5 a3.5 3.5 0 1 0 7 0 a3.5 3.5 0 1 0 -7 0z" fill="rgba(77, 149, 234, 1)"></path><path d="M430.5 199.5L409.5 199.5L367.5 241.5L367.5 283.5L346.5 304.5" stroke-width="3.5" stroke="rgba(77, 149, 234, 1)"></path><path d="M427 199.5 a3.5 3.5 0 1 0 7 0 a3.5 3.5 0 1 0 -7 0zM343 304.5 a3.5 3.5 0 1 0 7 0 a3.5 3.5 0 1 0 -7 0z" fill="rgba(77, 149, 234, 1)"></path><path d="M346.5 661.5L367.5 640.5L409.5 640.5L451.5 682.5L451.5 808.5" stroke-width="3.5" stroke="rgba(77, 149, 234, 1)"></path><path d="M343 661.5 a3.5 3.5 0 1 0 7 0 a3.5 3.5 0 1 0 -7 0zM448 808.5 a3.5 3.5 0 1 0 7 0 a3.5 3.5 0 1 0 -7 0z" fill="rgba(77, 149, 234, 1)"></path><path d="M640.5 262.5L493.5 409.5L451.5 409.5" stroke-width="3.5" stroke="rgba(77, 149, 234, 1)"></path><path d="M637 262.5 a3.5 3.5 0 1 0 7 0 a3.5 3.5 0 1 0 -7 0zM448 409.5 a3.5 3.5 0 1 0 7 0 a3.5 3.5 0 1 0 -7 0z" fill="rgba(77, 149, 234, 1)"></path><path d="M892.5 577.5L997.5 577.5L1060.5 640.5" stroke-width="3.5" stroke="rgba(77, 149, 234, 1)"></path><path d="M889 577.5 a3.5 3.5 0 1 0 7 0 a3.5 3.5 0 1 0 -7 0zM1057 640.5 a3.5 3.5 0 1 0 7 0 a3.5 3.5 0 1 0 -7 0z" fill="rgba(77, 149, 234, 1)"></path><path d="M682.5 136.5L661.5 157.5L661.5 220.5L577.5 304.5L556.5 304.5L472.5 388.5L451.5 388.5L409.5 346.5" stroke-width="3.5" stroke="rgba(77, 149, 234, 1)"></path><path d="M679 136.5 a3.5 3.5 0 1 0 7 0 a3.5 3.5 0 1 0 -7 0zM406 346.5 a3.5 3.5 0 1 0 7 0 a3.5 3.5 0 1 0 -7 0z" fill="rgba(77, 149, 234, 1)"></path><path d="M556.5 451.5L535.5 472.5L451.5 472.5" stroke-width="3.5" stroke="rgba(77, 149, 234, 1)"></path><path d="M553 451.5 a3.5 3.5 0 1 0 7 0 a3.5 3.5 0 1 0 -7 0zM448 472.5 a3.5 3.5 0 1 0 7 0 a3.5 3.5 0 1 0 -7 0z" fill="rgba(77, 149, 234, 1)"></path><path d="M997.5 220.5L955.5 220.5L892.5 283.5L892.5 346.5L955.5 409.5L955.5 451.5" stroke-width="3.5" stroke="rgba(77, 149, 234, 1)"></path><path d="M994 220.5 a3.5 3.5 0 1 0 7 0 a3.5 3.5 0 1 0 -7 0zM952 451.5 a3.5 3.5 0 1 0 7 0 a3.5 3.5 0 1 0 -7 0z" fill="rgba(77, 149, 234, 1)"></path><path d="M73.5 178.5L73.5 241.5L115.5 283.5" stroke-width="3.5" stroke="rgba(77, 149, 234, 1)"></path><path d="M70 178.5 a3.5 3.5 0 1 0 7 0 a3.5 3.5 0 1 0 -7 0zM112 283.5 a3.5 3.5 0 1 0 7 0 a3.5 3.5 0 1 0 -7 0z" fill="rgba(77, 149, 234, 1)"></path><path d="M241.5 73.5L241.5 199.5L304.5 262.5L304.5 304.5L283.5 325.5L262.5 325.5" stroke-width="3.5" stroke="rgba(77, 149, 234, 1)"></path><path d="M238 73.5 a3.5 3.5 0 1 0 7 0 a3.5 3.5 0 1 0 -7 0zM259 325.5 a3.5 3.5 0 1 0 7 0 a3.5 3.5 0 1 0 -7 0z" fill="rgba(77, 149, 234, 1)"></path><path d="M871.5 619.5L892.5 598.5L997.5 598.5L1039.5 640.5L1039.5 661.5L976.5 724.5L829.5 724.5" stroke-width="3.5" stroke="rgba(77, 149, 234, 1)"></path><path d="M868 619.5 a3.5 3.5 0 1 0 7 0 a3.5 3.5 0 1 0 -7 0zM826 724.5 a3.5 3.5 0 1 0 7 0 a3.5 3.5 0 1 0 -7 0z" fill="rgba(77, 149, 234, 1)"></path><path d="M388.5 388.5L304.5 388.5L283.5 367.5" stroke-width="3.5" stroke="rgba(77, 149, 234, 1)"></path><path d="M385 388.5 a3.5 3.5 0 1 0 7 0 a3.5 3.5 0 1 0 -7 0zM280 367.5 a3.5 3.5 0 1 0 7 0 a3.5 3.5 0 1 0 -7 0z" fill="rgba(77, 149, 234, 1)"></path><path d="M892.5 556.5L850.5 556.5L766.5 640.5L766.5 661.5" stroke-width="3.5" stroke="rgba(77, 149, 234, 1)"></path><path d="M889 556.5 a3.5 3.5 0 1 0 7 0 a3.5 3.5 0 1 0 -7 0zM763 661.5 a3.5 3.5 0 1 0 7 0 a3.5 3.5 0 1 0 -7 0z" fill="rgba(77, 149, 234, 1)"></path><path d="M304.5 535.5L220.5 535.5L115.5 430.5L115.5 346.5" stroke-width="3.5" stroke="rgba(77, 149, 234, 1)"></path><path d="M301 535.5 a3.5 3.5 0 1 0 7 0 a3.5 3.5 0 1 0 -7 0zM112 346.5 a3.5 3.5 0 1 0 7 0 a3.5 3.5 0 1 0 -7 0z" fill="rgba(77, 149, 234, 1)"></path><path d="M31.5 409.5L94.5 409.5" stroke-width="3.5" stroke="rgba(77, 149, 234, 1)"></path><path d="M28 409.5 a3.5 3.5 0 1 0 7 0 a3.5 3.5 0 1 0 -7 0zM91 409.5 a3.5 3.5 0 1 0 7 0 a3.5 3.5 0 1 0 -7 0z" fill="rgba(77, 149, 234, 1)"></path><path d="M325.5 598.5L346.5 577.5L388.5 577.5L409.5 556.5L409.5 535.5L346.5 472.5L325.5 472.5L283.5 514.5" stroke-width="3.5" stroke="rgba(77, 149, 234, 1)"></path><path d="M322 598.5 a3.5 3.5 0 1 0 7 0 a3.5 3.5 0 1 0 -7 0zM280 514.5 a3.5 3.5 0 1 0 7 0 a3.5 3.5 0 1 0 -7 0z" fill="rgba(77, 149, 234, 1)"></path><path d="M1102.5 430.5L1060.5 472.5L997.5 472.5" stroke-width="3.5" stroke="rgba(77, 149, 234, 1)"></path><path d="M1099 430.5 a3.5 3.5 0 1 0 7 0 a3.5 3.5 0 1 0 -7 0zM994 472.5 a3.5 3.5 0 1 0 7 0 a3.5 3.5 0 1 0 -7 0z" fill="rgba(77, 149, 234, 1)"></path><path d="M1438.5 535.5L1501.5 535.5" stroke-width="3.5" stroke="rgba(77, 149, 234, 1)"></path><path d="M1435 535.5 a3.5 3.5 0 1 0 7 0 a3.5 3.5 0 1 0 -7 0zM1498 535.5 a3.5 3.5 0 1 0 7 0 a3.5 3.5 0 1 0 -7 0z" fill="rgba(77, 149, 234, 1)"></path><path d="M598.5 262.5L577.5 241.5L577.5 220.5L703.5 94.5L724.5 94.5L745.5 115.5L745.5 199.5L808.5 262.5L829.5 262.5" stroke-width="3.5" stroke="rgba(77, 149, 234, 1)"></path><path d="M595 262.5 a3.5 3.5 0 1 0 7 0 a3.5 3.5 0 1 0 -7 0zM826 262.5 a3.5 3.5 0 1 0 7 0 a3.5 3.5 0 1 0 -7 0z" fill="rgba(77, 149, 234, 1)"></path><path d="M619.5 724.5L577.5 724.5L556.5 703.5L556.5 682.5" stroke-width="3.5" stroke="rgba(77, 149, 234, 1)"></path><path d="M616 724.5 a3.5 3.5 0 1 0 7 0 a3.5 3.5 0 1 0 -7 0zM553 682.5 a3.5 3.5 0 1 0 7 0 a3.5 3.5 0 1 0 -7 0z" fill="rgba(77, 149, 234, 1)"></path><path d="M1396.5 31.5L1354.5 31.5L1291.5 94.5" stroke-width="3.5" stroke="rgba(77, 149, 234, 1)"></path><path d="M1393 31.5 a3.5 3.5 0 1 0 7 0 a3.5 3.5 0 1 0 -7 0zM1288 94.5 a3.5 3.5 0 1 0 7 0 a3.5 3.5 0 1 0 -7 0z" fill="rgba(77, 149, 234, 1)"></path><path d="M556.5 241.5L577.5 262.5L577.5 283.5" stroke-width="3.5" stroke="rgba(77, 149, 234, 1)"></path><path d="M553 241.5 a3.5 3.5 0 1 0 7 0 a3.5 3.5 0 1 0 -7 0zM574 283.5 a3.5 3.5 0 1 0 7 0 a3.5 3.5 0 1 0 -7 0z" fill="rgba(77, 149, 234, 1)"></path><path d="M241.5 787.5L178.5 787.5" stroke-width="3.5" stroke="rgba(77, 149, 234, 1)"></path><path d="M238 787.5 a3.5 3.5 0 1 0 7 0 a3.5 3.5 0 1 0 -7 0zM175 787.5 a3.5 3.5 0 1 0 7 0 a3.5 3.5 0 1 0 -7 0z" fill="rgba(77, 149, 234, 1)"></path><path d="M661.5 115.5L703.5 73.5" stroke-width="3.5" stroke="rgba(77, 149, 234, 1)"></path><path d="M658 115.5 a3.5 3.5 0 1 0 7 0 a3.5 3.5 0 1 0 -7 0zM700 73.5 a3.5 3.5 0 1 0 7 0 a3.5 3.5 0 1 0 -7 0z" fill="rgba(77, 149, 234, 1)"></path><path d="M1249.5 808.5L1312.5 745.5L1312.5 703.5L1291.5 682.5L1102.5 682.5L1039.5 745.5L1039.5 766.5" stroke-width="3.5" stroke="rgba(77, 149, 234, 1)"></path><path d="M1246 808.5 a3.5 3.5 0 1 0 7 0 a3.5 3.5 0 1 0 -7 0zM1036 766.5 a3.5 3.5 0 1 0 7 0 a3.5 3.5 0 1 0 -7 0z" fill="rgba(77, 149, 234, 1)"></path><path d="M493.5 430.5L451.5 430.5" stroke-width="3.5" stroke="rgba(77, 149, 234, 1)"></path><path d="M490 430.5 a3.5 3.5 0 1 0 7 0 a3.5 3.5 0 1 0 -7 0zM448 430.5 a3.5 3.5 0 1 0 7 0 a3.5 3.5 0 1 0 -7 0z" fill="rgba(77, 149, 234, 1)"></path><path d="M325.5 409.5L409.5 409.5" stroke-width="3.5" stroke="rgba(77, 149, 234, 1)"></path><path d="M322 409.5 a3.5 3.5 0 1 0 7 0 a3.5 3.5 0 1 0 -7 0zM406 409.5 a3.5 3.5 0 1 0 7 0 a3.5 3.5 0 1 0 -7 0z" fill="rgba(77, 149, 234, 1)"></path><path d="M262.5 31.5L262.5 199.5L304.5 241.5" stroke-width="3.5" stroke="rgba(77, 149, 234, 1)"></path><path d="M259 31.5 a3.5 3.5 0 1 0 7 0 a3.5 3.5 0 1 0 -7 0zM301 241.5 a3.5 3.5 0 1 0 7 0 a3.5 3.5 0 1 0 -7 0z" fill="rgba(77, 149, 234, 1)"></path><path d="M871.5 157.5L913.5 199.5L913.5 220.5L871.5 262.5" stroke-width="3.5" stroke="rgba(77, 149, 234, 1)"></path><path d="M868 157.5 a3.5 3.5 0 1 0 7 0 a3.5 3.5 0 1 0 -7 0zM868 262.5 a3.5 3.5 0 1 0 7 0 a3.5 3.5 0 1 0 -7 0z" fill="rgba(77, 149, 234, 1)"></path><path d="M94.5 157.5L115.5 178.5L115.5 262.5" stroke-width="3.5" stroke="rgba(77, 149, 234, 1)"></path><path d="M91 157.5 a3.5 3.5 0 1 0 7 0 a3.5 3.5 0 1 0 -7 0zM112 262.5 a3.5 3.5 0 1 0 7 0 a3.5 3.5 0 1 0 -7 0z" fill="rgba(77, 149, 234, 1)"></path><path d="M52.5 157.5L73.5 136.5L115.5 136.5" stroke-width="3.5" stroke="rgba(77, 149, 234, 1)"></path><path d="M49 157.5 a3.5 3.5 0 1 0 7 0 a3.5 3.5 0 1 0 -7 0zM112 136.5 a3.5 3.5 0 1 0 7 0 a3.5 3.5 0 1 0 -7 0z" fill="rgba(77, 149, 234, 1)"></path><path d="M220.5 304.5L157.5 241.5" stroke-width="3.5" stroke="rgba(77, 149, 234, 1)"></path><path d="M217 304.5 a3.5 3.5 0 1 0 7 0 a3.5 3.5 0 1 0 -7 0zM154 241.5 a3.5 3.5 0 1 0 7 0 a3.5 3.5 0 1 0 -7 0z" fill="rgba(77, 149, 234, 1)"></path><path d="M199.5 31.5L220.5 52.5L220.5 136.5L199.5 157.5L199.5 241.5L262.5 304.5L283.5 304.5" stroke-width="3.5" stroke="rgba(77, 149, 234, 1)"></path><path d="M196 31.5 a3.5 3.5 0 1 0 7 0 a3.5 3.5 0 1 0 -7 0zM280 304.5 a3.5 3.5 0 1 0 7 0 a3.5 3.5 0 1 0 -7 0z" fill="rgba(77, 149, 234, 1)"></path><path d="M136.5 388.5L136.5 409.5L178.5 451.5L178.5 472.5L220.5 514.5L241.5 514.5L262.5 493.5" stroke-width="3.5" stroke="rgba(77, 149, 234, 1)"></path><path d="M133 388.5 a3.5 3.5 0 1 0 7 0 a3.5 3.5 0 1 0 -7 0zM259 493.5 a3.5 3.5 0 1 0 7 0 a3.5 3.5 0 1 0 -7 0z" fill="rgba(77, 149, 234, 1)"></path><path d="M955.5 682.5L892.5 682.5L871.5 661.5L871.5 640.5L892.5 619.5L997.5 619.5L1018.5 640.5L1018.5 661.5L976.5 703.5L892.5 703.5" stroke-width="3.5" stroke="rgba(77, 149, 234, 1)"></path><path d="M952 682.5 a3.5 3.5 0 1 0 7 0 a3.5 3.5 0 1 0 -7 0zM889 703.5 a3.5 3.5 0 1 0 7 0 a3.5 3.5 0 1 0 -7 0z" fill="rgba(77, 149, 234, 1)"></path><path d="M241.5 241.5L241.5 220.5L220.5 199.5L220.5 157.5" stroke-width="3.5" stroke="rgba(77, 149, 234, 1)"></path><path d="M238 241.5 a3.5 3.5 0 1 0 7 0 a3.5 3.5 0 1 0 -7 0zM217 157.5 a3.5 3.5 0 1 0 7 0 a3.5 3.5 0 1 0 -7 0z" fill="rgba(77, 149, 234, 1)"></path><path d="M871.5 598.5L829.5 598.5L787.5 640.5L787.5 661.5" stroke-width="3.5" stroke="rgba(77, 149, 234, 1)"></path><path d="M868 598.5 a3.5 3.5 0 1 0 7 0 a3.5 3.5 0 1 0 -7 0zM784 661.5 a3.5 3.5 0 1 0 7 0 a3.5 3.5 0 1 0 -7 0z" fill="rgba(77, 149, 234, 1)"></path><path d="M136.5 703.5L178.5 745.5" stroke-width="3.5" stroke="rgba(77, 149, 234, 1)"></path><path d="M133 703.5 a3.5 3.5 0 1 0 7 0 a3.5 3.5 0 1 0 -7 0zM175 745.5 a3.5 3.5 0 1 0 7 0 a3.5 3.5 0 1 0 -7 0z" fill="rgba(77, 149, 234, 1)"></path><path d="M955.5 640.5L892.5 640.5" stroke-width="3.5" stroke="rgba(77, 149, 234, 1)"></path><path d="M952 640.5 a3.5 3.5 0 1 0 7 0 a3.5 3.5 0 1 0 -7 0zM889 640.5 a3.5 3.5 0 1 0 7 0 a3.5 3.5 0 1 0 -7 0z" fill="rgba(77, 149, 234, 1)"></path><path d="M703.5 304.5L703.5 367.5L661.5 409.5L514.5 409.5" stroke-width="3.5" stroke="rgba(77, 149, 234, 1)"></path><path d="M700 304.5 a3.5 3.5 0 1 0 7 0 a3.5 3.5 0 1 0 -7 0zM511 409.5 a3.5 3.5 0 1 0 7 0 a3.5 3.5 0 1 0 -7 0z" fill="rgba(77, 149, 234, 1)"></path><path d="M1375.5 661.5L1417.5 661.5" stroke-width="3.5" stroke="rgba(77, 149, 234, 1)"></path><path d="M1372 661.5 a3.5 3.5 0 1 0 7 0 a3.5 3.5 0 1 0 -7 0zM1414 661.5 a3.5 3.5 0 1 0 7 0 a3.5 3.5 0 1 0 -7 0z" fill="rgba(77, 149, 234, 1)"></path><path d="M1249.5 787.5L1249.5 703.5" stroke-width="3.5" stroke="rgba(77, 149, 234, 1)"></path><path d="M1246 787.5 a3.5 3.5 0 1 0 7 0 a3.5 3.5 0 1 0 -7 0zM1246 703.5 a3.5 3.5 0 1 0 7 0 a3.5 3.5 0 1 0 -7 0z" fill="rgba(77, 149, 234, 1)"></path><path d="M472.5 766.5L472.5 808.5" stroke-width="3.5" stroke="rgba(77, 149, 234, 1)"></path><path d="M469 766.5 a3.5 3.5 0 1 0 7 0 a3.5 3.5 0 1 0 -7 0zM469 808.5 a3.5 3.5 0 1 0 7 0 a3.5 3.5 0 1 0 -7 0z" fill="rgba(77, 149, 234, 1)"></path><path d="M1312.5 178.5L1312.5 157.5L1186.5 31.5L1102.5 31.5L1060.5 73.5L1060.5 115.5" stroke-width="3.5" stroke="rgba(77, 149, 234, 1)"></path><path d="M1309 178.5 a3.5 3.5 0 1 0 7 0 a3.5 3.5 0 1 0 -7 0zM1057 115.5 a3.5 3.5 0 1 0 7 0 a3.5 3.5 0 1 0 -7 0z" fill="rgba(77, 149, 234, 1)"></path><path d="M745.5 409.5L787.5 451.5L934.5 451.5" stroke-width="3.5" stroke="rgba(77, 149, 234, 1)"></path><path d="M742 409.5 a3.5 3.5 0 1 0 7 0 a3.5 3.5 0 1 0 -7 0zM931 451.5 a3.5 3.5 0 1 0 7 0 a3.5 3.5 0 1 0 -7 0z" fill="rgba(77, 149, 234, 1)"></path><path d="M1102.5 73.5L1186.5 73.5L1228.5 115.5L1249.5 115.5" stroke-width="3.5" stroke="rgba(77, 149, 234, 1)"></path><path d="M1099 73.5 a3.5 3.5 0 1 0 7 0 a3.5 3.5 0 1 0 -7 0zM1246 115.5 a3.5 3.5 0 1 0 7 0 a3.5 3.5 0 1 0 -7 0z" fill="rgba(77, 149, 234, 1)"></path><path d="M388.5 556.5L388.5 535.5L346.5 493.5L325.5 493.5L304.5 514.5" stroke-width="3.5" stroke="rgba(77, 149, 234, 1)"></path><path d="M385 556.5 a3.5 3.5 0 1 0 7 0 a3.5 3.5 0 1 0 -7 0zM301 514.5 a3.5 3.5 0 1 0 7 0 a3.5 3.5 0 1 0 -7 0z" fill="rgba(77, 149, 234, 1)"></path><path d="M451.5 52.5L493.5 10.5L619.5 10.5" stroke-width="3.5" stroke="rgba(77, 149, 234, 1)"></path><path d="M448 52.5 a3.5 3.5 0 1 0 7 0 a3.5 3.5 0 1 0 -7 0zM616 10.5 a3.5 3.5 0 1 0 7 0 a3.5 3.5 0 1 0 -7 0z" fill="rgba(77, 149, 234, 1)"></path><path d="M745.5 283.5L640.5 283.5L535.5 388.5" stroke-width="3.5" stroke="rgba(77, 149, 234, 1)"></path><path d="M742 283.5 a3.5 3.5 0 1 0 7 0 a3.5 3.5 0 1 0 -7 0zM532 388.5 a3.5 3.5 0 1 0 7 0 a3.5 3.5 0 1 0 -7 0z" fill="rgba(77, 149, 234, 1)"></path><path d="M745.5 514.5L808.5 514.5" stroke-width="3.5" stroke="rgba(77, 149, 234, 1)"></path><path d="M742 514.5 a3.5 3.5 0 1 0 7 0 a3.5 3.5 0 1 0 -7 0zM805 514.5 a3.5 3.5 0 1 0 7 0 a3.5 3.5 0 1 0 -7 0z" fill="rgba(77, 149, 234, 1)"></path><path d="M1018.5 787.5L997.5 787.5L976.5 766.5L955.5 766.5L934.5 787.5L850.5 787.5" stroke-width="3.5" stroke="rgba(77, 149, 234, 1)"></path><path d="M1015 787.5 a3.5 3.5 0 1 0 7 0 a3.5 3.5 0 1 0 -7 0zM847 787.5 a3.5 3.5 0 1 0 7 0 a3.5 3.5 0 1 0 -7 0z" fill="rgba(77, 149, 234, 1)"></path><path d="M787.5 31.5L766.5 10.5L703.5 10.5" stroke-width="3.5" stroke="rgba(77, 149, 234, 1)"></path><path d="M784 31.5 a3.5 3.5 0 1 0 7 0 a3.5 3.5 0 1 0 -7 0zM700 10.5 a3.5 3.5 0 1 0 7 0 a3.5 3.5 0 1 0 -7 0z" fill="rgba(77, 149, 234, 1)"></path><path d="M1354.5 577.5L1480.5 451.5L1480.5 409.5" stroke-width="3.5" stroke="rgba(77, 149, 234, 1)"></path><path d="M1351 577.5 a3.5 3.5 0 1 0 7 0 a3.5 3.5 0 1 0 -7 0zM1477 409.5 a3.5 3.5 0 1 0 7 0 a3.5 3.5 0 1 0 -7 0z" fill="rgba(77, 149, 234, 1)"></path><path d="M1480.5 808.5L1501.5 787.5L1501.5 661.5L1480.5 640.5" stroke-width="3.5" stroke="rgba(77, 149, 234, 1)"></path><path d="M1477 808.5 a3.5 3.5 0 1 0 7 0 a3.5 3.5 0 1 0 -7 0zM1477 640.5 a3.5 3.5 0 1 0 7 0 a3.5 3.5 0 1 0 -7 0z" fill="rgba(77, 149, 234, 1)"></path><path d="M1333.5 94.5L1396.5 94.5" stroke-width="3.5" stroke="rgba(77, 149, 234, 1)"></path><path d="M1330 94.5 a3.5 3.5 0 1 0 7 0 a3.5 3.5 0 1 0 -7 0zM1393 94.5 a3.5 3.5 0 1 0 7 0 a3.5 3.5 0 1 0 -7 0z" fill="rgba(77, 149, 234, 1)"></path><path d="M31.5 94.5L115.5 10.5L136.5 10.5" stroke-width="3.5" stroke="rgba(77, 149, 234, 1)"></path><path d="M28 94.5 a3.5 3.5 0 1 0 7 0 a3.5 3.5 0 1 0 -7 0zM133 10.5 a3.5 3.5 0 1 0 7 0 a3.5 3.5 0 1 0 -7 0z" fill="rgba(77, 149, 234, 1)"></path><path d="M1081.5 745.5L1123.5 703.5L1228.5 703.5" stroke-width="3.5" stroke="rgba(77, 149, 234, 1)"></path><path d="M1078 745.5 a3.5 3.5 0 1 0 7 0 a3.5 3.5 0 1 0 -7 0zM1225 703.5 a3.5 3.5 0 1 0 7 0 a3.5 3.5 0 1 0 -7 0z" fill="rgba(77, 149, 234, 1)"></path><path d="M1480.5 766.5L1480.5 661.5" stroke-width="3.5" stroke="rgba(77, 149, 234, 1)"></path><path d="M1477 766.5 a3.5 3.5 0 1 0 7 0 a3.5 3.5 0 1 0 -7 0zM1477 661.5 a3.5 3.5 0 1 0 7 0 a3.5 3.5 0 1 0 -7 0z" fill="rgba(77, 149, 234, 1)"></path><path d="M1291.5 10.5L1228.5 10.5L1207.5 31.5" stroke-width="3.5" stroke="rgba(77, 149, 234, 1)"></path><path d="M1288 10.5 a3.5 3.5 0 1 0 7 0 a3.5 3.5 0 1 0 -7 0zM1204 31.5 a3.5 3.5 0 1 0 7 0 a3.5 3.5 0 1 0 -7 0z" fill="rgba(77, 149, 234, 1)"></path><path d="M1039.5 577.5L1039.5 535.5" stroke-width="3.5" stroke="rgba(77, 149, 234, 1)"></path><path d="M1036 577.5 a3.5 3.5 0 1 0 7 0 a3.5 3.5 0 1 0 -7 0zM1036 535.5 a3.5 3.5 0 1 0 7 0 a3.5 3.5 0 1 0 -7 0z" fill="rgba(77, 149, 234, 1)"></path><path d="M136.5 514.5L136.5 556.5L115.5 577.5" stroke-width="3.5" stroke="rgba(77, 149, 234, 1)"></path><path d="M133 514.5 a3.5 3.5 0 1 0 7 0 a3.5 3.5 0 1 0 -7 0zM112 577.5 a3.5 3.5 0 1 0 7 0 a3.5 3.5 0 1 0 -7 0z" fill="rgba(77, 149, 234, 1)"></path><path d="M703.5 136.5L682.5 157.5L682.5 241.5L661.5 262.5" stroke-width="3.5" stroke="rgba(77, 149, 234, 1)"></path><path d="M700 136.5 a3.5 3.5 0 1 0 7 0 a3.5 3.5 0 1 0 -7 0zM658 262.5 a3.5 3.5 0 1 0 7 0 a3.5 3.5 0 1 0 -7 0z" fill="rgba(77, 149, 234, 1)"></path><path d="M1396.5 493.5L1417.5 493.5L1459.5 451.5L1459.5 430.5" stroke-width="3.5" stroke="rgba(77, 149, 234, 1)"></path><path d="M1393 493.5 a3.5 3.5 0 1 0 7 0 a3.5 3.5 0 1 0 -7 0zM1456 430.5 a3.5 3.5 0 1 0 7 0 a3.5 3.5 0 1 0 -7 0z" fill="rgba(77, 149, 234, 1)"></path><path d="M283.5 745.5L304.5 766.5L367.5 766.5L430.5 703.5L430.5 682.5" stroke-width="3.5" stroke="rgba(77, 149, 234, 1)"></path><path d="M280 745.5 a3.5 3.5 0 1 0 7 0 a3.5 3.5 0 1 0 -7 0zM427 682.5 a3.5 3.5 0 1 0 7 0 a3.5 3.5 0 1 0 -7 0z" fill="rgba(77, 149, 234, 1)"></path><path d="M1375.5 451.5L1354.5 451.5L1333.5 472.5" stroke-width="3.5" stroke="rgba(77, 149, 234, 1)"></path><path d="M1372 451.5 a3.5 3.5 0 1 0 7 0 a3.5 3.5 0 1 0 -7 0zM1330 472.5 a3.5 3.5 0 1 0 7 0 a3.5 3.5 0 1 0 -7 0z" fill="rgba(77, 149, 234, 1)"></path><path d="M598.5 220.5L640.5 220.5" stroke-width="3.5" stroke="rgba(77, 149, 234, 1)"></path><path d="M595 220.5 a3.5 3.5 0 1 0 7 0 a3.5 3.5 0 1 0 -7 0zM637 220.5 a3.5 3.5 0 1 0 7 0 a3.5 3.5 0 1 0 -7 0z" fill="rgba(77, 149, 234, 1)"></path><path d="M1144.5 367.5L1186.5 409.5" stroke-width="3.5" stroke="rgba(77, 149, 234, 1)"></path><path d="M1141 367.5 a3.5 3.5 0 1 0 7 0 a3.5 3.5 0 1 0 -7 0zM1183 409.5 a3.5 3.5 0 1 0 7 0 a3.5 3.5 0 1 0 -7 0z" fill="rgba(77, 149, 234, 1)"></path><path d="M1228.5 262.5L1165.5 199.5L1123.5 199.5L1102.5 178.5L1081.5 178.5" stroke-width="3.5" stroke="rgba(77, 149, 234, 1)"></path><path d="M1225 262.5 a3.5 3.5 0 1 0 7 0 a3.5 3.5 0 1 0 -7 0zM1078 178.5 a3.5 3.5 0 1 0 7 0 a3.5 3.5 0 1 0 -7 0z" fill="rgba(77, 149, 234, 1)"></path><path d="M850.5 73.5L787.5 10.5" stroke-width="3.5" stroke="rgba(77, 149, 234, 1)"></path><path d="M847 73.5 a3.5 3.5 0 1 0 7 0 a3.5 3.5 0 1 0 -7 0zM784 10.5 a3.5 3.5 0 1 0 7 0 a3.5 3.5 0 1 0 -7 0z" fill="rgba(77, 149, 234, 1)"></path><path d="M619.5 619.5L535.5 535.5L451.5 535.5" stroke-width="3.5" stroke="rgba(77, 149, 234, 1)"></path><path d="M616 619.5 a3.5 3.5 0 1 0 7 0 a3.5 3.5 0 1 0 -7 0zM448 535.5 a3.5 3.5 0 1 0 7 0 a3.5 3.5 0 1 0 -7 0z" fill="rgba(77, 149, 234, 1)"></path><path d="M115.5 640.5L199.5 724.5" stroke-width="3.5" stroke="rgba(77, 149, 234, 1)"></path><path d="M112 640.5 a3.5 3.5 0 1 0 7 0 a3.5 3.5 0 1 0 -7 0zM196 724.5 a3.5 3.5 0 1 0 7 0 a3.5 3.5 0 1 0 -7 0z" fill="rgba(77, 149, 234, 1)"></path><path d="M1102.5 556.5L1060.5 598.5L1039.5 598.5" stroke-width="3.5" stroke="rgba(77, 149, 234, 1)"></path><path d="M1099 556.5 a3.5 3.5 0 1 0 7 0 a3.5 3.5 0 1 0 -7 0zM1036 598.5 a3.5 3.5 0 1 0 7 0 a3.5 3.5 0 1 0 -7 0z" fill="rgba(77, 149, 234, 1)"></path><path d="M997.5 556.5L955.5 556.5" stroke-width="3.5" stroke="rgba(77, 149, 234, 1)"></path><path d="M994 556.5 a3.5 3.5 0 1 0 7 0 a3.5 3.5 0 1 0 -7 0zM952 556.5 a3.5 3.5 0 1 0 7 0 a3.5 3.5 0 1 0 -7 0z" fill="rgba(77, 149, 234, 1)"></path><path d="M199.5 451.5L157.5 409.5L157.5 388.5" stroke-width="3.5" stroke="rgba(77, 149, 234, 1)"></path><path d="M196 451.5 a3.5 3.5 0 1 0 7 0 a3.5 3.5 0 1 0 -7 0zM154 388.5 a3.5 3.5 0 1 0 7 0 a3.5 3.5 0 1 0 -7 0z" fill="rgba(77, 149, 234, 1)"></path><path d="M493.5 115.5L451.5 115.5L346.5 10.5L325.5 10.5" stroke-width="3.5" stroke="rgba(77, 149, 234, 1)"></path><path d="M490 115.5 a3.5 3.5 0 1 0 7 0 a3.5 3.5 0 1 0 -7 0zM322 10.5 a3.5 3.5 0 1 0 7 0 a3.5 3.5 0 1 0 -7 0z" fill="rgba(77, 149, 234, 1)"></path><path d="M325.5 640.5L325.5 682.5" stroke-width="3.5" stroke="rgba(77, 149, 234, 1)"></path><path d="M322 640.5 a3.5 3.5 0 1 0 7 0 a3.5 3.5 0 1 0 -7 0zM322 682.5 a3.5 3.5 0 1 0 7 0 a3.5 3.5 0 1 0 -7 0z" fill="rgba(77, 149, 234, 1)"></path><path d="M808.5 115.5L808.5 136.5L892.5 220.5" stroke-width="3.5" stroke="rgba(77, 149, 234, 1)"></path><path d="M805 115.5 a3.5 3.5 0 1 0 7 0 a3.5 3.5 0 1 0 -7 0zM889 220.5 a3.5 3.5 0 1 0 7 0 a3.5 3.5 0 1 0 -7 0z" fill="rgba(77, 149, 234, 1)"></path><path d="M472.5 73.5L535.5 136.5L535.5 157.5" stroke-width="3.5" stroke="rgba(77, 149, 234, 1)"></path><path d="M469 73.5 a3.5 3.5 0 1 0 7 0 a3.5 3.5 0 1 0 -7 0zM532 157.5 a3.5 3.5 0 1 0 7 0 a3.5 3.5 0 1 0 -7 0z" fill="rgba(77, 149, 234, 1)"></path><path d="M1165.5 808.5L1228.5 745.5L1228.5 724.5" stroke-width="3.5" stroke="rgba(77, 149, 234, 1)"></path><path d="M1162 808.5 a3.5 3.5 0 1 0 7 0 a3.5 3.5 0 1 0 -7 0zM1225 724.5 a3.5 3.5 0 1 0 7 0 a3.5 3.5 0 1 0 -7 0z" fill="rgba(77, 149, 234, 1)"></path><path d="M1018.5 409.5L1165.5 409.5" stroke-width="3.5" stroke="rgba(77, 149, 234, 1)"></path><path d="M1015 409.5 a3.5 3.5 0 1 0 7 0 a3.5 3.5 0 1 0 -7 0zM1162 409.5 a3.5 3.5 0 1 0 7 0 a3.5 3.5 0 1 0 -7 0z" fill="rgba(77, 149, 234, 1)"></path><path d="M1438.5 220.5L1501.5 220.5" stroke-width="3.5" stroke="rgba(77, 149, 234, 1)"></path><path d="M1435 220.5 a3.5 3.5 0 1 0 7 0 a3.5 3.5 0 1 0 -7 0zM1498 220.5 a3.5 3.5 0 1 0 7 0 a3.5 3.5 0 1 0 -7 0z" fill="rgba(77, 149, 234, 1)"></path><path d="M850.5 346.5L787.5 346.5L745.5 388.5" stroke-width="3.5" stroke="rgba(77, 149, 234, 1)"></path><path d="M847 346.5 a3.5 3.5 0 1 0 7 0 a3.5 3.5 0 1 0 -7 0zM742 388.5 a3.5 3.5 0 1 0 7 0 a3.5 3.5 0 1 0 -7 0z" fill="rgba(77, 149, 234, 1)"></path><path d="M766.5 94.5L724.5 52.5L724.5 31.5" stroke-width="3.5" stroke="rgba(77, 149, 234, 1)"></path><path d="M763 94.5 a3.5 3.5 0 1 0 7 0 a3.5 3.5 0 1 0 -7 0zM721 31.5 a3.5 3.5 0 1 0 7 0 a3.5 3.5 0 1 0 -7 0z" fill="rgba(77, 149, 234, 1)"></path><path d="M1501.5 199.5L1501.5 31.5" stroke-width="3.5" stroke="rgba(77, 149, 234, 1)"></path><path d="M1498 199.5 a3.5 3.5 0 1 0 7 0 a3.5 3.5 0 1 0 -7 0zM1498 31.5 a3.5 3.5 0 1 0 7 0 a3.5 3.5 0 1 0 -7 0z" fill="rgba(77, 149, 234, 1)"></path><path d="M1354.5 136.5L1396.5 178.5" stroke-width="3.5" stroke="rgba(77, 149, 234, 1)"></path><path d="M1351 136.5 a3.5 3.5 0 1 0 7 0 a3.5 3.5 0 1 0 -7 0zM1393 178.5 a3.5 3.5 0 1 0 7 0 a3.5 3.5 0 1 0 -7 0z" fill="rgba(77, 149, 234, 1)"></path><path d="M1312.5 262.5L1291.5 283.5L1270.5 283.5L1207.5 220.5L1207.5 157.5" stroke-width="3.5" stroke="rgba(77, 149, 234, 1)"></path><path d="M1309 262.5 a3.5 3.5 0 1 0 7 0 a3.5 3.5 0 1 0 -7 0zM1204 157.5 a3.5 3.5 0 1 0 7 0 a3.5 3.5 0 1 0 -7 0z" fill="rgba(77, 149, 234, 1)"></path><path d="M1396.5 304.5L1438.5 346.5L1459.5 346.5" stroke-width="3.5" stroke="rgba(77, 149, 234, 1)"></path><path d="M1393 304.5 a3.5 3.5 0 1 0 7 0 a3.5 3.5 0 1 0 -7 0zM1456 346.5 a3.5 3.5 0 1 0 7 0 a3.5 3.5 0 1 0 -7 0z" fill="rgba(77, 149, 234, 1)"></path><path d="M829.5 388.5L850.5 388.5L892.5 430.5L934.5 430.5" stroke-width="3.5" stroke="rgba(77, 149, 234, 1)"></path><path d="M826 388.5 a3.5 3.5 0 1 0 7 0 a3.5 3.5 0 1 0 -7 0zM931 430.5 a3.5 3.5 0 1 0 7 0 a3.5 3.5 0 1 0 -7 0z" fill="rgba(77, 149, 234, 1)"></path><path d="M31.5 556.5L31.5 535.5L10.5 514.5" stroke-width="3.5" stroke="rgba(77, 149, 234, 1)"></path><path d="M28 556.5 a3.5 3.5 0 1 0 7 0 a3.5 3.5 0 1 0 -7 0zM7 514.5 a3.5 3.5 0 1 0 7 0 a3.5 3.5 0 1 0 -7 0z" fill="rgba(77, 149, 234, 1)"></path><path d="M787.5 409.5L787.5 367.5" stroke-width="3.5" stroke="rgba(77, 149, 234, 1)"></path><path d="M784 409.5 a3.5 3.5 0 1 0 7 0 a3.5 3.5 0 1 0 -7 0zM784 367.5 a3.5 3.5 0 1 0 7 0 a3.5 3.5 0 1 0 -7 0z" fill="rgba(77, 149, 234, 1)"></path><path d="M766.5 262.5L787.5 262.5L808.5 283.5" stroke-width="3.5" stroke="rgba(77, 149, 234, 1)"></path><path d="M763 262.5 a3.5 3.5 0 1 0 7 0 a3.5 3.5 0 1 0 -7 0zM805 283.5 a3.5 3.5 0 1 0 7 0 a3.5 3.5 0 1 0 -7 0z" fill="rgba(77, 149, 234, 1)"></path><path d="M1207.5 262.5L1165.5 220.5L1144.5 220.5" stroke-width="3.5" stroke="rgba(77, 149, 234, 1)"></path><path d="M1204 262.5 a3.5 3.5 0 1 0 7 0 a3.5 3.5 0 1 0 -7 0zM1141 220.5 a3.5 3.5 0 1 0 7 0 a3.5 3.5 0 1 0 -7 0z" fill="rgba(77, 149, 234, 1)"></path><path d="M535.5 787.5L514.5 808.5L493.5 808.5" stroke-width="3.5" stroke="rgba(77, 149, 234, 1)"></path><path d="M532 787.5 a3.5 3.5 0 1 0 7 0 a3.5 3.5 0 1 0 -7 0zM490 808.5 a3.5 3.5 0 1 0 7 0 a3.5 3.5 0 1 0 -7 0z" fill="rgba(77, 149, 234, 1)"></path><path d="M745.5 598.5L703.5 556.5L661.5 556.5" stroke-width="3.5" stroke="rgba(77, 149, 234, 1)"></path><path d="M742 598.5 a3.5 3.5 0 1 0 7 0 a3.5 3.5 0 1 0 -7 0zM658 556.5 a3.5 3.5 0 1 0 7 0 a3.5 3.5 0 1 0 -7 0z" fill="rgba(77, 149, 234, 1)"></path><path d="M829.5 31.5L892.5 31.5L913.5 10.5" stroke-width="3.5" stroke="rgba(77, 149, 234, 1)"></path><path d="M826 31.5 a3.5 3.5 0 1 0 7 0 a3.5 3.5 0 1 0 -7 0zM910 10.5 a3.5 3.5 0 1 0 7 0 a3.5 3.5 0 1 0 -7 0z" fill="rgba(77, 149, 234, 1)"></path><path d="M640.5 724.5L724.5 724.5L745.5 703.5" stroke-width="3.5" stroke="rgba(77, 149, 234, 1)"></path><path d="M637 724.5 a3.5 3.5 0 1 0 7 0 a3.5 3.5 0 1 0 -7 0zM742 703.5 a3.5 3.5 0 1 0 7 0 a3.5 3.5 0 1 0 -7 0z" fill="rgba(77, 149, 234, 1)"></path><path d="M556.5 220.5L430.5 346.5" stroke-width="3.5" stroke="rgba(77, 149, 234, 1)"></path><path d="M553 220.5 a3.5 3.5 0 1 0 7 0 a3.5 3.5 0 1 0 -7 0zM427 346.5 a3.5 3.5 0 1 0 7 0 a3.5 3.5 0 1 0 -7 0z" fill="rgba(77, 149, 234, 1)"></path><path d="M1165.5 745.5L1144.5 766.5L1144.5 808.5" stroke-width="3.5" stroke="rgba(77, 149, 234, 1)"></path><path d="M1162 745.5 a3.5 3.5 0 1 0 7 0 a3.5 3.5 0 1 0 -7 0zM1141 808.5 a3.5 3.5 0 1 0 7 0 a3.5 3.5 0 1 0 -7 0z" fill="rgba(77, 149, 234, 1)"></path><path d="M934.5 367.5L913.5 346.5L913.5 304.5L976.5 241.5L1018.5 241.5" stroke-width="3.5" stroke="rgba(77, 149, 234, 1)"></path><path d="M931 367.5 a3.5 3.5 0 1 0 7 0 a3.5 3.5 0 1 0 -7 0zM1015 241.5 a3.5 3.5 0 1 0 7 0 a3.5 3.5 0 1 0 -7 0z" fill="rgba(77, 149, 234, 1)"></path><path d="M1228.5 367.5L1228.5 388.5L1270.5 430.5L1291.5 430.5L1312.5 409.5L1312.5 367.5L1249.5 304.5L1186.5 304.5" stroke-width="3.5" stroke="rgba(77, 149, 234, 1)"></path><path d="M1225 367.5 a3.5 3.5 0 1 0 7 0 a3.5 3.5 0 1 0 -7 0zM1183 304.5 a3.5 3.5 0 1 0 7 0 a3.5 3.5 0 1 0 -7 0z" fill="rgba(77, 149, 234, 1)"></path><path d="M1123.5 304.5L1144.5 304.5L1207.5 367.5" stroke-width="3.5" stroke="rgba(77, 149, 234, 1)"></path><path d="M1120 304.5 a3.5 3.5 0 1 0 7 0 a3.5 3.5 0 1 0 -7 0zM1204 367.5 a3.5 3.5 0 1 0 7 0 a3.5 3.5 0 1 0 -7 0z" fill="rgba(77, 149, 234, 1)"></path><path d="M1186.5 598.5L1228.5 556.5L1249.5 556.5L1270.5 577.5L1270.5 598.5" stroke-width="3.5" stroke="rgba(77, 149, 234, 1)"></path><path d="M1183 598.5 a3.5 3.5 0 1 0 7 0 a3.5 3.5 0 1 0 -7 0zM1267 598.5 a3.5 3.5 0 1 0 7 0 a3.5 3.5 0 1 0 -7 0z" fill="rgba(77, 149, 234, 1)"></path><path d="M1501.5 598.5L1459.5 598.5" stroke-width="3.5" stroke="rgba(77, 149, 234, 1)"></path><path d="M1498 598.5 a3.5 3.5 0 1 0 7 0 a3.5 3.5 0 1 0 -7 0zM1456 598.5 a3.5 3.5 0 1 0 7 0 a3.5 3.5 0 1 0 -7 0z" fill="rgba(77, 149, 234, 1)"></path><path d="M1123.5 745.5L1102.5 745.5L1060.5 787.5L1039.5 787.5" stroke-width="3.5" stroke="rgba(77, 149, 234, 1)"></path><path d="M1120 745.5 a3.5 3.5 0 1 0 7 0 a3.5 3.5 0 1 0 -7 0zM1036 787.5 a3.5 3.5 0 1 0 7 0 a3.5 3.5 0 1 0 -7 0z" fill="rgba(77, 149, 234, 1)"></path><path d="M241.5 262.5L262.5 283.5L283.5 283.5" stroke-width="3.5" stroke="rgba(77, 149, 234, 1)"></path><path d="M238 262.5 a3.5 3.5 0 1 0 7 0 a3.5 3.5 0 1 0 -7 0zM280 283.5 a3.5 3.5 0 1 0 7 0 a3.5 3.5 0 1 0 -7 0z" fill="rgba(77, 149, 234, 1)"></path><path d="M556.5 577.5L535.5 598.5L535.5 619.5L556.5 640.5L598.5 640.5" stroke-width="3.5" stroke="rgba(77, 149, 234, 1)"></path><path d="M553 577.5 a3.5 3.5 0 1 0 7 0 a3.5 3.5 0 1 0 -7 0zM595 640.5 a3.5 3.5 0 1 0 7 0 a3.5 3.5 0 1 0 -7 0z" fill="rgba(77, 149, 234, 1)"></path><path d="M598.5 388.5L598.5 346.5L640.5 304.5L661.5 304.5L682.5 325.5L682.5 367.5L661.5 388.5L640.5 388.5" stroke-width="3.5" stroke="rgba(77, 149, 234, 1)"></path><path d="M595 388.5 a3.5 3.5 0 1 0 7 0 a3.5 3.5 0 1 0 -7 0zM637 388.5 a3.5 3.5 0 1 0 7 0 a3.5 3.5 0 1 0 -7 0z" fill="rgba(77, 149, 234, 1)"></path><path d="M619.5 514.5L724.5 514.5" stroke-width="3.5" stroke="rgba(77, 149, 234, 1)"></path><path d="M616 514.5 a3.5 3.5 0 1 0 7 0 a3.5 3.5 0 1 0 -7 0zM721 514.5 a3.5 3.5 0 1 0 7 0 a3.5 3.5 0 1 0 -7 0z" fill="rgba(77, 149, 234, 1)"></path><path d="M724.5 262.5L745.5 262.5L766.5 241.5" stroke-width="3.5" stroke="rgba(77, 149, 234, 1)"></path><path d="M721 262.5 a3.5 3.5 0 1 0 7 0 a3.5 3.5 0 1 0 -7 0zM763 241.5 a3.5 3.5 0 1 0 7 0 a3.5 3.5 0 1 0 -7 0z" fill="rgba(77, 149, 234, 1)"></path><path d="M1165.5 724.5L1123.5 724.5" stroke-width="3.5" stroke="rgba(77, 149, 234, 1)"></path><path d="M1162 724.5 a3.5 3.5 0 1 0 7 0 a3.5 3.5 0 1 0 -7 0zM1120 724.5 a3.5 3.5 0 1 0 7 0 a3.5 3.5 0 1 0 -7 0z" fill="rgba(77, 149, 234, 1)"></path><path d="M976.5 535.5L1018.5 535.5" stroke-width="3.5" stroke="rgba(77, 149, 234, 1)"></path><path d="M973 535.5 a3.5 3.5 0 1 0 7 0 a3.5 3.5 0 1 0 -7 0zM1015 535.5 a3.5 3.5 0 1 0 7 0 a3.5 3.5 0 1 0 -7 0z" fill="rgba(77, 149, 234, 1)"></path><path d="M514.5 94.5L514.5 52.5L493.5 31.5" stroke-width="3.5" stroke="rgba(77, 149, 234, 1)"></path><path d="M511 94.5 a3.5 3.5 0 1 0 7 0 a3.5 3.5 0 1 0 -7 0zM490 31.5 a3.5 3.5 0 1 0 7 0 a3.5 3.5 0 1 0 -7 0z" fill="rgba(77, 149, 234, 1)"></path><path d="M31.5 73.5L94.5 10.5" stroke-width="3.5" stroke="rgba(77, 149, 234, 1)"></path><path d="M28 73.5 a3.5 3.5 0 1 0 7 0 a3.5 3.5 0 1 0 -7 0zM91 10.5 a3.5 3.5 0 1 0 7 0 a3.5 3.5 0 1 0 -7 0z" fill="rgba(77, 149, 234, 1)"></path><path d="M1480.5 157.5L1480.5 52.5L1459.5 31.5" stroke-width="3.5" stroke="rgba(77, 149, 234, 1)"></path><path d="M1477 157.5 a3.5 3.5 0 1 0 7 0 a3.5 3.5 0 1 0 -7 0zM1456 31.5 a3.5 3.5 0 1 0 7 0 a3.5 3.5 0 1 0 -7 0z" fill="rgba(77, 149, 234, 1)"></path><path d="M1333.5 556.5L1333.5 640.5" stroke-width="3.5" stroke="rgba(77, 149, 234, 1)"></path><path d="M1330 556.5 a3.5 3.5 0 1 0 7 0 a3.5 3.5 0 1 0 -7 0zM1330 640.5 a3.5 3.5 0 1 0 7 0 a3.5 3.5 0 1 0 -7 0z" fill="rgba(77, 149, 234, 1)"></path><path d="M829.5 640.5L871.5 682.5L871.5 703.5" stroke-width="3.5" stroke="rgba(77, 149, 234, 1)"></path><path d="M826 640.5 a3.5 3.5 0 1 0 7 0 a3.5 3.5 0 1 0 -7 0zM868 703.5 a3.5 3.5 0 1 0 7 0 a3.5 3.5 0 1 0 -7 0z" fill="rgba(77, 149, 234, 1)"></path><path d="M367.5 745.5L346.5 745.5L325.5 724.5L304.5 724.5" stroke-width="3.5" stroke="rgba(77, 149, 234, 1)"></path><path d="M364 745.5 a3.5 3.5 0 1 0 7 0 a3.5 3.5 0 1 0 -7 0zM301 724.5 a3.5 3.5 0 1 0 7 0 a3.5 3.5 0 1 0 -7 0z" fill="rgba(77, 149, 234, 1)"></path><path d="M934.5 157.5L934.5 199.5" stroke-width="3.5" stroke="rgba(77, 149, 234, 1)"></path><path d="M931 157.5 a3.5 3.5 0 1 0 7 0 a3.5 3.5 0 1 0 -7 0zM931 199.5 a3.5 3.5 0 1 0 7 0 a3.5 3.5 0 1 0 -7 0z" fill="rgba(77, 149, 234, 1)"></path><path d="M1102.5 598.5L1102.5 577.5L1144.5 535.5L1207.5 535.5" stroke-width="3.5" stroke="rgba(77, 149, 234, 1)"></path><path d="M1099 598.5 a3.5 3.5 0 1 0 7 0 a3.5 3.5 0 1 0 -7 0zM1204 535.5 a3.5 3.5 0 1 0 7 0 a3.5 3.5 0 1 0 -7 0z" fill="rgba(77, 149, 234, 1)"></path><path d="M1333.5 766.5L1354.5 787.5L1354.5 808.5" stroke-width="3.5" stroke="rgba(77, 149, 234, 1)"></path><path d="M1330 766.5 a3.5 3.5 0 1 0 7 0 a3.5 3.5 0 1 0 -7 0zM1351 808.5 a3.5 3.5 0 1 0 7 0 a3.5 3.5 0 1 0 -7 0z" fill="rgba(77, 149, 234, 1)"></path><path d="M493.5 703.5L493.5 724.5L514.5 745.5L556.5 745.5" stroke-width="3.5" stroke="rgba(77, 149, 234, 1)"></path><path d="M490 703.5 a3.5 3.5 0 1 0 7 0 a3.5 3.5 0 1 0 -7 0zM553 745.5 a3.5 3.5 0 1 0 7 0 a3.5 3.5 0 1 0 -7 0z" fill="rgba(77, 149, 234, 1)"></path><path d="M955.5 94.5L871.5 94.5" stroke-width="3.5" stroke="rgba(77, 149, 234, 1)"></path><path d="M952 94.5 a3.5 3.5 0 1 0 7 0 a3.5 3.5 0 1 0 -7 0zM868 94.5 a3.5 3.5 0 1 0 7 0 a3.5 3.5 0 1 0 -7 0z" fill="rgba(77, 149, 234, 1)"></path><path d="M178.5 304.5L178.5 325.5L220.5 367.5" stroke-width="3.5" stroke="rgba(77, 149, 234, 1)"></path><path d="M175 304.5 a3.5 3.5 0 1 0 7 0 a3.5 3.5 0 1 0 -7 0zM217 367.5 a3.5 3.5 0 1 0 7 0 a3.5 3.5 0 1 0 -7 0z" fill="rgba(77, 149, 234, 1)"></path><path d="M682.5 808.5L703.5 787.5L745.5 787.5" stroke-width="3.5" stroke="rgba(77, 149, 234, 1)"></path><path d="M679 808.5 a3.5 3.5 0 1 0 7 0 a3.5 3.5 0 1 0 -7 0zM742 787.5 a3.5 3.5 0 1 0 7 0 a3.5 3.5 0 1 0 -7 0z" fill="rgba(77, 149, 234, 1)"></path><path d="M1123.5 52.5L1186.5 52.5" stroke-width="3.5" stroke="rgba(77, 149, 234, 1)"></path><path d="M1120 52.5 a3.5 3.5 0 1 0 7 0 a3.5 3.5 0 1 0 -7 0zM1183 52.5 a3.5 3.5 0 1 0 7 0 a3.5 3.5 0 1 0 -7 0z" fill="rgba(77, 149, 234, 1)"></path><path d="M241.5 493.5L241.5 472.5L220.5 451.5" stroke-width="3.5" stroke="rgba(77, 149, 234, 1)"></path><path d="M238 493.5 a3.5 3.5 0 1 0 7 0 a3.5 3.5 0 1 0 -7 0zM217 451.5 a3.5 3.5 0 1 0 7 0 a3.5 3.5 0 1 0 -7 0z" fill="rgba(77, 149, 234, 1)"></path><path d="M31.5 136.5L31.5 115.5L94.5 52.5" stroke-width="3.5" stroke="rgba(77, 149, 234, 1)"></path><path d="M28 136.5 a3.5 3.5 0 1 0 7 0 a3.5 3.5 0 1 0 -7 0zM91 52.5 a3.5 3.5 0 1 0 7 0 a3.5 3.5 0 1 0 -7 0z" fill="rgba(77, 149, 234, 1)"></path><path d="M976.5 640.5L955.5 661.5L892.5 661.5" stroke-width="3.5" stroke="rgba(77, 149, 234, 1)"></path><path d="M973 640.5 a3.5 3.5 0 1 0 7 0 a3.5 3.5 0 1 0 -7 0zM889 661.5 a3.5 3.5 0 1 0 7 0 a3.5 3.5 0 1 0 -7 0z" fill="rgba(77, 149, 234, 1)"></path><path d="M934.5 745.5L829.5 745.5" stroke-width="3.5" stroke="rgba(77, 149, 234, 1)"></path><path d="M931 745.5 a3.5 3.5 0 1 0 7 0 a3.5 3.5 0 1 0 -7 0zM826 745.5 a3.5 3.5 0 1 0 7 0 a3.5 3.5 0 1 0 -7 0z" fill="rgba(77, 149, 234, 1)"></path><path d="M94.5 514.5L52.5 514.5" stroke-width="3.5" stroke="rgba(77, 149, 234, 1)"></path><path d="M91 514.5 a3.5 3.5 0 1 0 7 0 a3.5 3.5 0 1 0 -7 0zM49 514.5 a3.5 3.5 0 1 0 7 0 a3.5 3.5 0 1 0 -7 0z" fill="rgba(77, 149, 234, 1)"></path><path d="M598.5 556.5L577.5 535.5L556.5 535.5" stroke-width="3.5" stroke="rgba(77, 149, 234, 1)"></path><path d="M595 556.5 a3.5 3.5 0 1 0 7 0 a3.5 3.5 0 1 0 -7 0zM553 535.5 a3.5 3.5 0 1 0 7 0 a3.5 3.5 0 1 0 -7 0z" fill="rgba(77, 149, 234, 1)"></path><path d="M955.5 514.5L892.5 514.5" stroke-width="3.5" stroke="rgba(77, 149, 234, 1)"></path><path d="M952 514.5 a3.5 3.5 0 1 0 7 0 a3.5 3.5 0 1 0 -7 0zM889 514.5 a3.5 3.5 0 1 0 7 0 a3.5 3.5 0 1 0 -7 0z" fill="rgba(77, 149, 234, 1)"></path><path d="M850.5 115.5L829.5 115.5L745.5 31.5" stroke-width="3.5" stroke="rgba(77, 149, 234, 1)"></path><path d="M847 115.5 a3.5 3.5 0 1 0 7 0 a3.5 3.5 0 1 0 -7 0zM742 31.5 a3.5 3.5 0 1 0 7 0 a3.5 3.5 0 1 0 -7 0z" fill="rgba(77, 149, 234, 1)"></path><path d="M1438.5 157.5L1459.5 136.5L1459.5 52.5" stroke-width="3.5" stroke="rgba(77, 149, 234, 1)"></path><path d="M1435 157.5 a3.5 3.5 0 1 0 7 0 a3.5 3.5 0 1 0 -7 0zM1456 52.5 a3.5 3.5 0 1 0 7 0 a3.5 3.5 0 1 0 -7 0z" fill="rgba(77, 149, 234, 1)"></path><path d="M1375.5 619.5L1396.5 619.5L1417.5 640.5" stroke-width="3.5" stroke="rgba(77, 149, 234, 1)"></path><path d="M1372 619.5 a3.5 3.5 0 1 0 7 0 a3.5 3.5 0 1 0 -7 0zM1414 640.5 a3.5 3.5 0 1 0 7 0 a3.5 3.5 0 1 0 -7 0z" fill="rgba(77, 149, 234, 1)"></path><path d="M1396.5 325.5L1459.5 388.5" stroke-width="3.5" stroke="rgba(77, 149, 234, 1)"></path><path d="M1393 325.5 a3.5 3.5 0 1 0 7 0 a3.5 3.5 0 1 0 -7 0zM1456 388.5 a3.5 3.5 0 1 0 7 0 a3.5 3.5 0 1 0 -7 0z" fill="rgba(77, 149, 234, 1)"></path><path d="M325.5 577.5L262.5 577.5L241.5 598.5" stroke-width="3.5" stroke="rgba(77, 149, 234, 1)"></path><path d="M322 577.5 a3.5 3.5 0 1 0 7 0 a3.5 3.5 0 1 0 -7 0zM238 598.5 a3.5 3.5 0 1 0 7 0 a3.5 3.5 0 1 0 -7 0z" fill="rgba(77, 149, 234, 1)"></path><path d="M1354.5 115.5L1396.5 115.5" stroke-width="3.5" stroke="rgba(77, 149, 234, 1)"></path><path d="M1351 115.5 a3.5 3.5 0 1 0 7 0 a3.5 3.5 0 1 0 -7 0zM1393 115.5 a3.5 3.5 0 1 0 7 0 a3.5 3.5 0 1 0 -7 0z" fill="rgba(77, 149, 234, 1)"></path><path d="M1396.5 430.5L1438.5 388.5" stroke-width="3.5" stroke="rgba(77, 149, 234, 1)"></path><path d="M1393 430.5 a3.5 3.5 0 1 0 7 0 a3.5 3.5 0 1 0 -7 0zM1435 388.5 a3.5 3.5 0 1 0 7 0 a3.5 3.5 0 1 0 -7 0z" fill="rgba(77, 149, 234, 1)"></path><path d="M1501.5 577.5L1459.5 577.5L1438.5 556.5L1417.5 556.5" stroke-width="3.5" stroke="rgba(77, 149, 234, 1)"></path><path d="M1498 577.5 a3.5 3.5 0 1 0 7 0 a3.5 3.5 0 1 0 -7 0zM1414 556.5 a3.5 3.5 0 1 0 7 0 a3.5 3.5 0 1 0 -7 0z" fill="rgba(77, 149, 234, 1)"></path><path d="M94.5 220.5L94.5 178.5" stroke-width="3.5" stroke="rgba(77, 149, 234, 1)"></path><path d="M91 220.5 a3.5 3.5 0 1 0 7 0 a3.5 3.5 0 1 0 -7 0zM91 178.5 a3.5 3.5 0 1 0 7 0 a3.5 3.5 0 1 0 -7 0z" fill="rgba(77, 149, 234, 1)"></path><path d="M241.5 430.5L241.5 388.5" stroke-width="3.5" stroke="rgba(77, 149, 234, 1)"></path><path d="M238 430.5 a3.5 3.5 0 1 0 7 0 a3.5 3.5 0 1 0 -7 0zM238 388.5 a3.5 3.5 0 1 0 7 0 a3.5 3.5 0 1 0 -7 0z" fill="rgba(77, 149, 234, 1)"></path><path d="M850.5 367.5L808.5 367.5" stroke-width="3.5" stroke="rgba(77, 149, 234, 1)"></path><path d="M847 367.5 a3.5 3.5 0 1 0 7 0 a3.5 3.5 0 1 0 -7 0zM805 367.5 a3.5 3.5 0 1 0 7 0 a3.5 3.5 0 1 0 -7 0z" fill="rgba(77, 149, 234, 1)"></path><path d="M1270.5 220.5L1228.5 178.5L1228.5 157.5" stroke-width="3.5" stroke="rgba(77, 149, 234, 1)"></path><path d="M1267 220.5 a3.5 3.5 0 1 0 7 0 a3.5 3.5 0 1 0 -7 0zM1225 157.5 a3.5 3.5 0 1 0 7 0 a3.5 3.5 0 1 0 -7 0z" fill="rgba(77, 149, 234, 1)"></path><path d="M1228.5 787.5L1207.5 787.5L1186.5 808.5" stroke-width="3.5" stroke="rgba(77, 149, 234, 1)"></path><path d="M1225 787.5 a3.5 3.5 0 1 0 7 0 a3.5 3.5 0 1 0 -7 0zM1183 808.5 a3.5 3.5 0 1 0 7 0 a3.5 3.5 0 1 0 -7 0z" fill="rgba(77, 149, 234, 1)"></path><path d="M304.5 220.5L283.5 199.5L283.5 178.5L304.5 157.5L304.5 136.5" stroke-width="3.5" stroke="rgba(77, 149, 234, 1)"></path><path d="M301 220.5 a3.5 3.5 0 1 0 7 0 a3.5 3.5 0 1 0 -7 0zM301 136.5 a3.5 3.5 0 1 0 7 0 a3.5 3.5 0 1 0 -7 0z" fill="rgba(77, 149, 234, 1)"></path><path d="M115.5 514.5L115.5 535.5L94.5 556.5" stroke-width="3.5" stroke="rgba(77, 149, 234, 1)"></path><path d="M112 514.5 a3.5 3.5 0 1 0 7 0 a3.5 3.5 0 1 0 -7 0zM91 556.5 a3.5 3.5 0 1 0 7 0 a3.5 3.5 0 1 0 -7 0z" fill="rgba(77, 149, 234, 1)"></path><path d="M1102.5 115.5L1207.5 115.5" stroke-width="3.5" stroke="rgba(77, 149, 234, 1)"></path><path d="M1099 115.5 a3.5 3.5 0 1 0 7 0 a3.5 3.5 0 1 0 -7 0zM1204 115.5 a3.5 3.5 0 1 0 7 0 a3.5 3.5 0 1 0 -7 0z" fill="rgba(77, 149, 234, 1)"></path><path d="M178.5 136.5L178.5 115.5L199.5 94.5L199.5 52.5L178.5 31.5" stroke-width="3.5" stroke="rgba(77, 149, 234, 1)"></path><path d="M175 136.5 a3.5 3.5 0 1 0 7 0 a3.5 3.5 0 1 0 -7 0zM175 31.5 a3.5 3.5 0 1 0 7 0 a3.5 3.5 0 1 0 -7 0z" fill="rgba(77, 149, 234, 1)"></path><path d="M724.5 304.5L745.5 325.5L745.5 346.5L724.5 367.5" stroke-width="3.5" stroke="rgba(77, 149, 234, 1)"></path><path d="M721 304.5 a3.5 3.5 0 1 0 7 0 a3.5 3.5 0 1 0 -7 0zM721 367.5 a3.5 3.5 0 1 0 7 0 a3.5 3.5 0 1 0 -7 0z" fill="rgba(77, 149, 234, 1)"></path><path d="M388.5 787.5L409.5 766.5L409.5 745.5" stroke-width="3.5" stroke="rgba(77, 149, 234, 1)"></path><path d="M385 787.5 a3.5 3.5 0 1 0 7 0 a3.5 3.5 0 1 0 -7 0zM406 745.5 a3.5 3.5 0 1 0 7 0 a3.5 3.5 0 1 0 -7 0z" fill="rgba(77, 149, 234, 1)"></path><path d="M556.5 808.5L661.5 808.5L682.5 787.5" stroke-width="3.5" stroke="rgba(77, 149, 234, 1)"></path><path d="M553 808.5 a3.5 3.5 0 1 0 7 0 a3.5 3.5 0 1 0 -7 0zM679 787.5 a3.5 3.5 0 1 0 7 0 a3.5 3.5 0 1 0 -7 0z" fill="rgba(77, 149, 234, 1)"></path><path d="M661.5 703.5L598.5 703.5L577.5 682.5" stroke-width="3.5" stroke="rgba(77, 149, 234, 1)"></path><path d="M658 703.5 a3.5 3.5 0 1 0 7 0 a3.5 3.5 0 1 0 -7 0zM574 682.5 a3.5 3.5 0 1 0 7 0 a3.5 3.5 0 1 0 -7 0z" fill="rgba(77, 149, 234, 1)"></path><path d="M1480.5 262.5L1501.5 283.5L1501.5 325.5" stroke-width="3.5" stroke="rgba(77, 149, 234, 1)"></path><path d="M1477 262.5 a3.5 3.5 0 1 0 7 0 a3.5 3.5 0 1 0 -7 0zM1498 325.5 a3.5 3.5 0 1 0 7 0 a3.5 3.5 0 1 0 -7 0z" fill="rgba(77, 149, 234, 1)"></path><path d="M1438.5 199.5L1438.5 178.5L1459.5 157.5" stroke-width="3.5" stroke="rgba(77, 149, 234, 1)"></path><path d="M1435 199.5 a3.5 3.5 0 1 0 7 0 a3.5 3.5 0 1 0 -7 0zM1456 157.5 a3.5 3.5 0 1 0 7 0 a3.5 3.5 0 1 0 -7 0z" fill="rgba(77, 149, 234, 1)"></path><path d="M451.5 220.5L472.5 220.5L493.5 199.5" stroke-width="3.5" stroke="rgba(77, 149, 234, 1)"></path><path d="M448 220.5 a3.5 3.5 0 1 0 7 0 a3.5 3.5 0 1 0 -7 0zM490 199.5 a3.5 3.5 0 1 0 7 0 a3.5 3.5 0 1 0 -7 0z" fill="rgba(77, 149, 234, 1)"></path><path d="M1480.5 304.5L1438.5 262.5" stroke-width="3.5" stroke="rgba(77, 149, 234, 1)"></path><path d="M1477 304.5 a3.5 3.5 0 1 0 7 0 a3.5 3.5 0 1 0 -7 0zM1435 262.5 a3.5 3.5 0 1 0 7 0 a3.5 3.5 0 1 0 -7 0z" fill="rgba(77, 149, 234, 1)"></path><path d="M955.5 304.5L955.5 367.5" stroke-width="3.5" stroke="rgba(77, 149, 234, 1)"></path><path d="M952 304.5 a3.5 3.5 0 1 0 7 0 a3.5 3.5 0 1 0 -7 0zM952 367.5 a3.5 3.5 0 1 0 7 0 a3.5 3.5 0 1 0 -7 0z" fill="rgba(77, 149, 234, 1)"></path><path d="M1081.5 430.5L1060.5 451.5L1039.5 451.5L1018.5 430.5" stroke-width="3.5" stroke="rgba(77, 149, 234, 1)"></path><path d="M1078 430.5 a3.5 3.5 0 1 0 7 0 a3.5 3.5 0 1 0 -7 0zM1015 430.5 a3.5 3.5 0 1 0 7 0 a3.5 3.5 0 1 0 -7 0z" fill="rgba(77, 149, 234, 1)"></path><path d="M451.5 10.5L409.5 52.5" stroke-width="3.5" stroke="rgba(77, 149, 234, 1)"></path><path d="M448 10.5 a3.5 3.5 0 1 0 7 0 a3.5 3.5 0 1 0 -7 0zM406 52.5 a3.5 3.5 0 1 0 7 0 a3.5 3.5 0 1 0 -7 0z" fill="rgba(77, 149, 234, 1)"></path><path d="M430.5 73.5L451.5 73.5L472.5 94.5" stroke-width="3.5" stroke="rgba(77, 149, 234, 1)"></path><path d="M427 73.5 a3.5 3.5 0 1 0 7 0 a3.5 3.5 0 1 0 -7 0zM469 94.5 a3.5 3.5 0 1 0 7 0 a3.5 3.5 0 1 0 -7 0z" fill="rgba(77, 149, 234, 1)"></path><path d="M619.5 598.5L640.5 598.5L724.5 682.5L724.5 703.5" stroke-width="3.5" stroke="rgba(77, 149, 234, 1)"></path><path d="M616 598.5 a3.5 3.5 0 1 0 7 0 a3.5 3.5 0 1 0 -7 0zM721 703.5 a3.5 3.5 0 1 0 7 0 a3.5 3.5 0 1 0 -7 0z" fill="rgba(77, 149, 234, 1)"></path><path d="M850.5 10.5L808.5 10.5" stroke-width="3.5" stroke="rgba(77, 149, 234, 1)"></path><path d="M847 10.5 a3.5 3.5 0 1 0 7 0 a3.5 3.5 0 1 0 -7 0zM805 10.5 a3.5 3.5 0 1 0 7 0 a3.5 3.5 0 1 0 -7 0z" fill="rgba(77, 149, 234, 1)"></path><path d="M619.5 451.5L724.5 451.5" stroke-width="3.5" stroke="rgba(77, 149, 234, 1)"></path><path d="M616 451.5 a3.5 3.5 0 1 0 7 0 a3.5 3.5 0 1 0 -7 0zM721 451.5 a3.5 3.5 0 1 0 7 0 a3.5 3.5 0 1 0 -7 0z" fill="rgba(77, 149, 234, 1)"></path><path d="M115.5 73.5L52.5 136.5" stroke-width="3.5" stroke="rgba(77, 149, 234, 1)"></path><path d="M112 73.5 a3.5 3.5 0 1 0 7 0 a3.5 3.5 0 1 0 -7 0zM49 136.5 a3.5 3.5 0 1 0 7 0 a3.5 3.5 0 1 0 -7 0z" fill="rgba(77, 149, 234, 1)"></path><path d="M388.5 199.5L346.5 199.5" stroke-width="3.5" stroke="rgba(77, 149, 234, 1)"></path><path d="M385 199.5 a3.5 3.5 0 1 0 7 0 a3.5 3.5 0 1 0 -7 0zM343 199.5 a3.5 3.5 0 1 0 7 0 a3.5 3.5 0 1 0 -7 0z" fill="rgba(77, 149, 234, 1)"></path><path d="M31.5 766.5L73.5 724.5L73.5 619.5" stroke-width="3.5" stroke="rgba(77, 149, 234, 1)"></path><path d="M28 766.5 a3.5 3.5 0 1 0 7 0 a3.5 3.5 0 1 0 -7 0zM70 619.5 a3.5 3.5 0 1 0 7 0 a3.5 3.5 0 1 0 -7 0z" fill="rgba(77, 149, 234, 1)"></path><path d="M1333.5 241.5L1270.5 178.5L1270.5 157.5" stroke-width="3.5" stroke="rgba(77, 149, 234, 1)"></path><path d="M1330 241.5 a3.5 3.5 0 1 0 7 0 a3.5 3.5 0 1 0 -7 0zM1267 157.5 a3.5 3.5 0 1 0 7 0 a3.5 3.5 0 1 0 -7 0z" fill="rgba(77, 149, 234, 1)"></path><path d="M640.5 682.5L703.5 682.5" stroke-width="3.5" stroke="rgba(77, 149, 234, 1)"></path><path d="M637 682.5 a3.5 3.5 0 1 0 7 0 a3.5 3.5 0 1 0 -7 0zM700 682.5 a3.5 3.5 0 1 0 7 0 a3.5 3.5 0 1 0 -7 0z" fill="rgba(77, 149, 234, 1)"></path><path d="M1081.5 535.5L1060.5 556.5L1060.5 577.5" stroke-width="3.5" stroke="rgba(77, 149, 234, 1)"></path><path d="M1078 535.5 a3.5 3.5 0 1 0 7 0 a3.5 3.5 0 1 0 -7 0zM1057 577.5 a3.5 3.5 0 1 0 7 0 a3.5 3.5 0 1 0 -7 0z" fill="rgba(77, 149, 234, 1)"></path><path d="M535.5 73.5L535.5 115.5" stroke-width="3.5" stroke="rgba(77, 149, 234, 1)"></path><path d="M532 73.5 a3.5 3.5 0 1 0 7 0 a3.5 3.5 0 1 0 -7 0zM532 115.5 a3.5 3.5 0 1 0 7 0 a3.5 3.5 0 1 0 -7 0z" fill="rgba(77, 149, 234, 1)"></path><path d="M640.5 73.5L640.5 136.5L619.5 157.5" stroke-width="3.5" stroke="rgba(77, 149, 234, 1)"></path><path d="M637 73.5 a3.5 3.5 0 1 0 7 0 a3.5 3.5 0 1 0 -7 0zM616 157.5 a3.5 3.5 0 1 0 7 0 a3.5 3.5 0 1 0 -7 0z" fill="rgba(77, 149, 234, 1)"></path><path d="M409.5 241.5L451.5 241.5" stroke-width="3.5" stroke="rgba(77, 149, 234, 1)"></path><path d="M406 241.5 a3.5 3.5 0 1 0 7 0 a3.5 3.5 0 1 0 -7 0zM448 241.5 a3.5 3.5 0 1 0 7 0 a3.5 3.5 0 1 0 -7 0z" fill="rgba(77, 149, 234, 1)"></path><path d="M640.5 52.5L661.5 73.5L661.5 94.5" stroke-width="3.5" stroke="rgba(77, 149, 234, 1)"></path><path d="M637 52.5 a3.5 3.5 0 1 0 7 0 a3.5 3.5 0 1 0 -7 0zM658 94.5 a3.5 3.5 0 1 0 7 0 a3.5 3.5 0 1 0 -7 0z" fill="rgba(77, 149, 234, 1)"></path><path d="M73.5 346.5L73.5 388.5" stroke-width="3.5" stroke="rgba(77, 149, 234, 1)"></path><path d="M70 346.5 a3.5 3.5 0 1 0 7 0 a3.5 3.5 0 1 0 -7 0zM70 388.5 a3.5 3.5 0 1 0 7 0 a3.5 3.5 0 1 0 -7 0z" fill="rgba(77, 149, 234, 1)"></path><path d="M115.5 745.5L157.5 745.5" stroke-width="3.5" stroke="rgba(77, 149, 234, 1)"></path><path d="M112 745.5 a3.5 3.5 0 1 0 7 0 a3.5 3.5 0 1 0 -7 0zM154 745.5 a3.5 3.5 0 1 0 7 0 a3.5 3.5 0 1 0 -7 0z" fill="rgba(77, 149, 234, 1)"></path><path d="M346.5 136.5L346.5 94.5L367.5 73.5L367.5 52.5L346.5 31.5" stroke-width="3.5" stroke="rgba(77, 149, 234, 1)"></path><path d="M343 136.5 a3.5 3.5 0 1 0 7 0 a3.5 3.5 0 1 0 -7 0zM343 31.5 a3.5 3.5 0 1 0 7 0 a3.5 3.5 0 1 0 -7 0z" fill="rgba(77, 149, 234, 1)"></path><path d="M1417.5 388.5L1417.5 367.5L1396.5 346.5" stroke-width="3.5" stroke="rgba(77, 149, 234, 1)"></path><path d="M1414 388.5 a3.5 3.5 0 1 0 7 0 a3.5 3.5 0 1 0 -7 0zM1393 346.5 a3.5 3.5 0 1 0 7 0 a3.5 3.5 0 1 0 -7 0z" fill="rgba(77, 149, 234, 1)"></path><path d="M787.5 283.5L787.5 304.5L766.5 325.5" stroke-width="3.5" stroke="rgba(77, 149, 234, 1)"></path><path d="M784 283.5 a3.5 3.5 0 1 0 7 0 a3.5 3.5 0 1 0 -7 0zM763 325.5 a3.5 3.5 0 1 0 7 0 a3.5 3.5 0 1 0 -7 0z" fill="rgba(77, 149, 234, 1)"></path><path d="M1291.5 31.5L1312.5 31.5L1333.5 10.5" stroke-width="3.5" stroke="rgba(77, 149, 234, 1)"></path><path d="M1288 31.5 a3.5 3.5 0 1 0 7 0 a3.5 3.5 0 1 0 -7 0zM1330 10.5 a3.5 3.5 0 1 0 7 0 a3.5 3.5 0 1 0 -7 0z" fill="rgba(77, 149, 234, 1)"></path><path d="M745.5 241.5L745.5 220.5L703.5 178.5L703.5 157.5L724.5 136.5L724.5 115.5" stroke-width="3.5" stroke="rgba(77, 149, 234, 1)"></path><path d="M742 241.5 a3.5 3.5 0 1 0 7 0 a3.5 3.5 0 1 0 -7 0zM721 115.5 a3.5 3.5 0 1 0 7 0 a3.5 3.5 0 1 0 -7 0z" fill="rgba(77, 149, 234, 1)"></path><path d="M1186.5 556.5L1165.5 577.5L1123.5 577.5" stroke-width="3.5" stroke="rgba(77, 149, 234, 1)"></path><path d="M1183 556.5 a3.5 3.5 0 1 0 7 0 a3.5 3.5 0 1 0 -7 0zM1120 577.5 a3.5 3.5 0 1 0 7 0 a3.5 3.5 0 1 0 -7 0z" fill="rgba(77, 149, 234, 1)"></path><path d="M1396.5 367.5L1396.5 409.5" stroke-width="3.5" stroke="rgba(77, 149, 234, 1)"></path><path d="M1393 367.5 a3.5 3.5 0 1 0 7 0 a3.5 3.5 0 1 0 -7 0zM1393 409.5 a3.5 3.5 0 1 0 7 0 a3.5 3.5 0 1 0 -7 0z" fill="rgba(77, 149, 234, 1)"></path><path d="M346.5 430.5L388.5 472.5L409.5 472.5" stroke-width="3.5" stroke="rgba(77, 149, 234, 1)"></path><path d="M343 430.5 a3.5 3.5 0 1 0 7 0 a3.5 3.5 0 1 0 -7 0zM406 472.5 a3.5 3.5 0 1 0 7 0 a3.5 3.5 0 1 0 -7 0z" fill="rgba(77, 149, 234, 1)"></path><path d="M472.5 325.5L514.5 283.5L556.5 283.5" stroke-width="3.5" stroke="rgba(77, 149, 234, 1)"></path><path d="M469 325.5 a3.5 3.5 0 1 0 7 0 a3.5 3.5 0 1 0 -7 0zM553 283.5 a3.5 3.5 0 1 0 7 0 a3.5 3.5 0 1 0 -7 0z" fill="rgba(77, 149, 234, 1)"></path><path d="M178.5 157.5L178.5 199.5" stroke-width="3.5" stroke="rgba(77, 149, 234, 1)"></path><path d="M175 157.5 a3.5 3.5 0 1 0 7 0 a3.5 3.5 0 1 0 -7 0zM175 199.5 a3.5 3.5 0 1 0 7 0 a3.5 3.5 0 1 0 -7 0z" fill="rgba(77, 149, 234, 1)"></path><path d="M1354.5 535.5L1375.5 535.5L1396.5 514.5" stroke-width="3.5" stroke="rgba(77, 149, 234, 1)"></path><path d="M1351 535.5 a3.5 3.5 0 1 0 7 0 a3.5 3.5 0 1 0 -7 0zM1393 514.5 a3.5 3.5 0 1 0 7 0 a3.5 3.5 0 1 0 -7 0z" fill="rgba(77, 149, 234, 1)"></path><path d="M430.5 136.5L493.5 136.5" stroke-width="3.5" stroke="rgba(77, 149, 234, 1)"></path><path d="M427 136.5 a3.5 3.5 0 1 0 7 0 a3.5 3.5 0 1 0 -7 0zM490 136.5 a3.5 3.5 0 1 0 7 0 a3.5 3.5 0 1 0 -7 0z" fill="rgba(77, 149, 234, 1)"></path><path d="M1291.5 745.5L1270.5 724.5L1270.5 703.5" stroke-width="3.5" stroke="rgba(77, 149, 234, 1)"></path><path d="M1288 745.5 a3.5 3.5 0 1 0 7 0 a3.5 3.5 0 1 0 -7 0zM1267 703.5 a3.5 3.5 0 1 0 7 0 a3.5 3.5 0 1 0 -7 0z" fill="rgba(77, 149, 234, 1)"></path><path d="M682.5 577.5L703.5 598.5L724.5 598.5" stroke-width="3.5" stroke="rgba(77, 149, 234, 1)"></path><path d="M679 577.5 a3.5 3.5 0 1 0 7 0 a3.5 3.5 0 1 0 -7 0zM721 598.5 a3.5 3.5 0 1 0 7 0 a3.5 3.5 0 1 0 -7 0z" fill="rgba(77, 149, 234, 1)"></path><path d="M367.5 178.5L430.5 178.5" stroke-width="3.5" stroke="rgba(77, 149, 234, 1)"></path><path d="M364 178.5 a3.5 3.5 0 1 0 7 0 a3.5 3.5 0 1 0 -7 0zM427 178.5 a3.5 3.5 0 1 0 7 0 a3.5 3.5 0 1 0 -7 0z" fill="rgba(77, 149, 234, 1)"></path><path d="M976.5 682.5L976.5 661.5L997.5 640.5" stroke-width="3.5" stroke="rgba(77, 149, 234, 1)"></path><path d="M973 682.5 a3.5 3.5 0 1 0 7 0 a3.5 3.5 0 1 0 -7 0zM994 640.5 a3.5 3.5 0 1 0 7 0 a3.5 3.5 0 1 0 -7 0z" fill="rgba(77, 149, 234, 1)"></path><path d="M52.5 10.5L31.5 31.5L31.5 52.5" stroke-width="3.5" stroke="rgba(77, 149, 234, 1)"></path><path d="M49 10.5 a3.5 3.5 0 1 0 7 0 a3.5 3.5 0 1 0 -7 0zM28 52.5 a3.5 3.5 0 1 0 7 0 a3.5 3.5 0 1 0 -7 0z" fill="rgba(77, 149, 234, 1)"></path><path d="M241.5 661.5L199.5 703.5" stroke-width="3.5" stroke="rgba(77, 149, 234, 1)"></path><path d="M238 661.5 a3.5 3.5 0 1 0 7 0 a3.5 3.5 0 1 0 -7 0zM196 703.5 a3.5 3.5 0 1 0 7 0 a3.5 3.5 0 1 0 -7 0z" fill="rgba(77, 149, 234, 1)"></path><path d="M514.5 304.5L493.5 325.5L493.5 346.5" stroke-width="3.5" stroke="rgba(77, 149, 234, 1)"></path><path d="M511 304.5 a3.5 3.5 0 1 0 7 0 a3.5 3.5 0 1 0 -7 0zM490 346.5 a3.5 3.5 0 1 0 7 0 a3.5 3.5 0 1 0 -7 0z" fill="rgba(77, 149, 234, 1)"></path><path d="M703.5 220.5L703.5 262.5" stroke-width="3.5" stroke="rgba(77, 149, 234, 1)"></path><path d="M700 220.5 a3.5 3.5 0 1 0 7 0 a3.5 3.5 0 1 0 -7 0zM700 262.5 a3.5 3.5 0 1 0 7 0 a3.5 3.5 0 1 0 -7 0z" fill="rgba(77, 149, 234, 1)"></path><path d="M808.5 409.5L829.5 430.5L871.5 430.5" stroke-width="3.5" stroke="rgba(77, 149, 234, 1)"></path><path d="M805 409.5 a3.5 3.5 0 1 0 7 0 a3.5 3.5 0 1 0 -7 0zM868 430.5 a3.5 3.5 0 1 0 7 0 a3.5 3.5 0 1 0 -7 0z" fill="rgba(77, 149, 234, 1)"></path><path d="M220.5 640.5L262.5 640.5" stroke-width="3.5" stroke="rgba(77, 149, 234, 1)"></path><path d="M217 640.5 a3.5 3.5 0 1 0 7 0 a3.5 3.5 0 1 0 -7 0zM259 640.5 a3.5 3.5 0 1 0 7 0 a3.5 3.5 0 1 0 -7 0z" fill="rgba(77, 149, 234, 1)"></path><path d="M619.5 136.5L619.5 73.5" stroke-width="3.5" stroke="rgba(77, 149, 234, 1)"></path><path d="M616 136.5 a3.5 3.5 0 1 0 7 0 a3.5 3.5 0 1 0 -7 0zM616 73.5 a3.5 3.5 0 1 0 7 0 a3.5 3.5 0 1 0 -7 0z" fill="rgba(77, 149, 234, 1)"></path><path d="M52.5 346.5L52.5 367.5L31.5 388.5" stroke-width="3.5" stroke="rgba(77, 149, 234, 1)"></path><path d="M49 346.5 a3.5 3.5 0 1 0 7 0 a3.5 3.5 0 1 0 -7 0zM28 388.5 a3.5 3.5 0 1 0 7 0 a3.5 3.5 0 1 0 -7 0z" fill="rgba(77, 149, 234, 1)"></path><path d="M1228.5 325.5L1249.5 325.5L1291.5 367.5L1291.5 409.5" stroke-width="3.5" stroke="rgba(77, 149, 234, 1)"></path><path d="M1225 325.5 a3.5 3.5 0 1 0 7 0 a3.5 3.5 0 1 0 -7 0zM1288 409.5 a3.5 3.5 0 1 0 7 0 a3.5 3.5 0 1 0 -7 0z" fill="rgba(77, 149, 234, 1)"></path><path d="M514.5 598.5L514.5 556.5" stroke-width="3.5" stroke="rgba(77, 149, 234, 1)"></path><path d="M511 598.5 a3.5 3.5 0 1 0 7 0 a3.5 3.5 0 1 0 -7 0zM511 556.5 a3.5 3.5 0 1 0 7 0 a3.5 3.5 0 1 0 -7 0z" fill="rgba(77, 149, 234, 1)"></path><path d="M388.5 241.5L388.5 283.5" stroke-width="3.5" stroke="rgba(77, 149, 234, 1)"></path><path d="M385 241.5 a3.5 3.5 0 1 0 7 0 a3.5 3.5 0 1 0 -7 0zM385 283.5 a3.5 3.5 0 1 0 7 0 a3.5 3.5 0 1 0 -7 0z" fill="rgba(77, 149, 234, 1)"></path></g></g><defs><mask id="SvgjsMask1066"><rect width="1500" height="800" fill="#ffffff"></rect></mask></defs></svg>