<svg xmlns="http://www.w3.org/2000/svg" version="1.1" xmlns:xlink="http://www.w3.org/1999/xlink" xmlns:svgjs="http://svgjs.dev/svgjs" width="350" height="260" preserveAspectRatio="none" viewBox="0 0 350 260"><g mask="url(&quot;#SvgjsMask1044&quot;)" fill="none"><path d="M103.98849539546242 33.31241361950488L155.66598055114017 54.19147290760569 176.54503983924099 2.5139877519279494 124.86755468356324-18.365071536172863z" fill="rgba(217, 222, 225, 0.12)" class="triangle-float1"></path><path d="M128.71645678679957 242.73896527914076L148.57295394983302 177.79128953950976 83.62527821020204 157.9347923764763 63.76878104716859 222.8824681161073z" fill="rgba(217, 222, 225, 0.12)" class="triangle-float1"></path><path d="M262.94,172.789C272.233,172.574,280.335,166.832,284.799,158.679C289.086,150.851,288.849,141.405,284.345,133.7C279.883,126.067,271.779,121.118,262.94,121.284C254.365,121.445,247.381,127.175,242.883,134.478C238.103,142.238,235.033,151.656,239.26,159.73C243.741,168.289,253.282,173.012,262.94,172.789" fill="rgba(217, 222, 225, 0.12)" class="triangle-float1"></path><path d="M96.826,183.355C120.503,184.458,141.064,167.778,152.243,146.877C162.796,127.146,161.525,103.356,149.808,84.293C138.634,66.113,118.148,57.562,96.826,56.716C73.61,55.794,47.249,59.436,36.019,79.776C25.001,99.731,38.143,122.442,49.683,142.1C61.014,161.401,74.469,182.314,96.826,183.355" fill="rgba(217, 222, 225, 0.12)" class="triangle-float3"></path><path d="M163.644,247.288C178.285,247.298,190.772,238.464,198.791,226.214C207.83,212.406,214.531,195.562,207.175,180.789C199.168,164.709,181.607,155.742,163.644,155.628C145.477,155.512,127.229,163.961,119.142,180.229C111.683,195.232,119.311,212.207,128.576,226.168C136.663,238.354,149.019,247.278,163.644,247.288" fill="rgba(217, 222, 225, 0.12)" class="triangle-float1"></path><path d="M172.9339792463653 66.94973684005839L135.5935067636506 41.76327012754706 110.40704005113928 79.10374261026178 147.74751253385398 104.29020932277311z" fill="rgba(217, 222, 225, 0.12)" class="triangle-float2"></path><path d="M380.82132026831744 218.48389787021506L316.21746721936927 216.227881609614 313.96145095876824 280.83173465856214 378.5653040077164 283.0877509191632z" fill="rgba(217, 222, 225, 0.12)" class="triangle-float1"></path></g><defs><mask id="SvgjsMask1044"><rect width="350" height="260" fill="#ffffff"></rect></mask><style>
                @keyframes float1 {
                    0%{transform: translate(0, 0)}
                    50%{transform: translate(-10px, 0)}
                    100%{transform: translate(0, 0)}
                }

                .triangle-float1 {
                    animation: float1 5s infinite;
                }

                @keyframes float2 {
                    0%{transform: translate(0, 0)}
                    50%{transform: translate(-5px, -5px)}
                    100%{transform: translate(0, 0)}
                }

                .triangle-float2 {
                    animation: float2 4s infinite;
                }

                @keyframes float3 {
                    0%{transform: translate(0, 0)}
                    50%{transform: translate(0, -10px)}
                    100%{transform: translate(0, 0)}
                }

                .triangle-float3 {
                    animation: float3 6s infinite;
                }
            </style></defs></svg>